<svg xmlns="http://www.w3.org/2000/svg" viewBox="0 0 331.13 190.96"><defs><style>.cls-1{fill:none;}.cls-2{fill:#231f20;}.cls-3{fill:#d1af7e;}.cls-4{fill:#262223;}.cls-5{fill:#252122;}.cls-6{fill:#d4b17f;}.cls-7{fill:#d1ae7a;}.cls-8{fill:#d2af7a;}.cls-9{fill:#292526;}.cls-10{fill:#282425;}.cls-11{fill:#c99c5d;}.cls-12{fill:#2f2b2c;}.cls-13{fill:#312d2e;}.cls-14{fill:#302c2d;}.cls-15{fill:#c88b45;}.cls-16{fill:#cba56e;}.cls-17{fill:#e49c59;}.cls-18{fill:#c4904e;}.cls-19{fill:#322e2f;}.cls-20{fill:#353132;}.cls-21{fill:#f7e3ca;}.cls-22{fill:#f5d9b6;}.cls-23{fill:#d9b887;}.cls-24{fill:#f1cea2;}.cls-25{fill:#e0bd85;}.cls-26{fill:#3a3738;}.cls-27{fill:#e3c093;}.cls-28{fill:#a6794f;}.cls-29{fill:#ce9a58;}.cls-30{fill:#f5d4ad;}.cls-31{fill:#d1ae7c;}.cls-32{fill:#d5af76;}.cls-33{fill:#b78449;}.cls-34{fill:#ebca9c;}.cls-35{fill:#cda878;}.cls-36{fill:#cca87a;}.cls-37{fill:#363333;}.cls-38{fill:#383435;}.cls-39{fill:#c9a066;}.cls-40{fill:#cda87a;}.cls-41{fill:#af8153;}.cls-42{fill:#b28759;}.cls-43{fill:#e1bb7c;}.cls-44{fill:#d4af77;}.cls-45{fill:#ca7;}.cls-46{fill:#caa874;}.cls-47{fill:#aa7b4d;}.cls-48{fill:#c49c6d;}.cls-49{fill:#d4b27f;}.cls-50{fill:#e3be7f;}.cls-51{fill:#dbb478;}.cls-52{fill:#c7a173;}.cls-53{fill:#dcb77c;}.cls-54{fill:#ddbe8b;}.cls-55{fill:#d5b078;}.cls-56{fill:#ebc295;}.cls-57{fill:#be8847;}.cls-58{fill:#db9f61;}.cls-59{fill:#a67950;}.cls-60{fill:#e4a65f;}.cls-61{fill:#b98653;}.cls-62{fill:#dcb679;}.cls-63{fill:#d1ae7d;}.cls-64{fill:#c59f72;}.cls-65{fill:#cbaa78;}.cls-66{fill:#e5c395;}.cls-67{fill:#e2ba8f;}.cls-68{fill:#b48859;}.cls-69{fill:#d2975e;}.cls-70{fill:#dc9c56;}.cls-71{fill:#b0875c;}.cls-72{fill:#c99352;}.cls-73{fill:#c18c58;}.cls-74{fill:#dcb58c;}.cls-75{fill:#ab825d;}.cls-76{fill:#ae845a;}.cls-77{fill:#a3754c;}.cls-78{fill:#e2c598;}.cls-79{fill:#cca678;}.cls-80{fill:#cbaa84;}.cls-81{fill:#c98d57;}.cls-82{fill:#c7a673;}.cls-83{fill:#c9a571;}.cls-84{fill:#bc9464;}.cls-85{fill:#b48c60;}.cls-86{fill:#c8a471;}.cls-87{fill:#c7a272;}.cls-88{fill:#c29f6b;}.cls-89{fill:#c19e6a;}.cls-90{fill:#504d4d;}.cls-91{fill:#e5c998;}.cls-92{fill:#d0ae79;}.cls-93{fill:#d0ad77;}.cls-94{fill:#cca871;}.cls-95{fill:#cfab75;}.cls-96{fill:#cda572;}.cls-97{fill:#c9a266;}.cls-98{fill:#ca9858;}.cls-99{fill:#d39957;}.cls-100{fill:#cf9e61;}.cls-101{fill:#b73d26;}.cls-102{fill:#cba46a;}.cls-103{fill:#dc9a57;}.cls-104{fill:#dea25c;}.cls-105{fill:#eec89a;}.cls-106{fill:#d69e59;}.cls-107{fill:#d49c5b;}.cls-108{fill:#bb905f;}.cls-109{fill:#d0a46c;}.cls-110{fill:#c99760;}.cls-111{fill:#d5a063;}.cls-112{fill:#cca268;}</style></defs><g id="Camada_2" data-name="Camada 2"><g id="Camada_1-2" data-name="Camada 1"><path class="cls-1" d="M163.57,0h2c5.45.83,8.91,4.82,12.6,8.26,16.13,15,32.27,30,48.65,44.79,5.91,5.32,6.14,9.59.51,15.89,1.76.85,3.53.48,5.2.48q40.3,0,80.61,0c1.82,0,3.65,0,5.47.06,6.19.37,10.81,2.87,12.52,9.28V182.49q-1.92,8.64-10.77,8.46H10.83c-5.91.13-9.55-2.66-10.83-8.47V78.78c2.25-6.58,5.79-9.15,13.44-9.29,10.3-.17,20.61,0,30.91,0,19.6,0,39.21,0,60,0-3.56-2.78-5.36-5.7-4.71-9.54s3.54-5.87,6.12-8.19c11.09-10,22-20.18,33-30.36C144.67,15.8,151,10.62,156.58,4.71A26.2,26.2,0,0,1,163.57,0Z"/><path class="cls-2" d="M130.69,127.67c0,7.14.07,14.27,0,21.41-.07,5.42-1.53,6.63-7.49,6.64-6.76,0-8.33-1.16-8.41-6.83-.11-8.47,0-16.93-.08-25.39-.07-6.83-1.24-8-8.15-8.34-14.21-.77-16.24,1.27-15.33,15.43.39,6.1,1.34,7,7.54,7.21h.5c13.11.22,11.56-.88,11.43,13.14,0,3.07-1.5,4.62-4.55,4.64-8.63,0-17.26.13-25.89,0-3.53,0-5.49-2.11-5.49-5.72q0-22.15,0-44.31c0-3.91,2.31-5.78,6-5.8q22.16-.1,44.31,0c3.78,0,5.72,2.08,5.69,6C130.65,113.07,130.7,120.37,130.69,127.67Z"/><path class="cls-2" d="M50.65,137.56c-3.9,4.43-3,11.87-10.74,11.84s-6.78-7.46-10.41-11.52c-2.05,3.1-1,6.22-1,9.12-.17,8-6.33,11.59-13.53,7.83a5.47,5.47,0,0,1-3-5.32q0-22.15,0-44.3c0-3.22,1.7-4.82,4.73-5.36,7.88-1.42,10.92.17,14,7.48q2.5,6,4.85,12c.84,2.19,2.1,3.88,4.64,3.75,2.25-.12,3.36-1.7,4.16-3.72,1.95-4.92,3.94-9.84,6.15-14.65s11.1-6.9,15.47-3.85c1.56,1.08,1.87,2.65,1.87,4.35,0,14.77.07,29.54-.06,44.3,0,4.77-2.08,6.11-8.19,6.23-5.88.11-7.74-1.3-8.21-6.19C51,145.8,52.06,142,50.65,137.56Z"/><path class="cls-2" d="M319.16,127.67c0,7-.12,14,0,20.92.11,4.61-2.06,6.56-6.44,7-6.09.69-10.95-.73-14.7-6-3.43-4.87-7.46-9.32-11.33-13.86-1.4-1.65-2.4-4.49-5.41-3.26-2.85,1.18-1.86,3.94-1.93,6.14-.11,3.65.08,7.3-.06,10.95-.17,4.67-2.12,6.16-7.62,6.15-6.87,0-8.43-1-8.48-6.16-.13-14.45,0-28.89-.11-43.34,0-3.64,1.77-5.64,5.15-6.18,5.83-.93,11.15-.44,15.13,4.92,3.85,5.19,8.1,10.09,12.26,15,1.32,1.58,2.41,4.09,5,3.23s2.13-3.42,2.15-5.55c0-3.82-.1-7.64.09-11.45.24-5.16,2.4-6.64,8.95-6.5,5.52.11,7.12,1.45,7.2,6.53.12,7.13,0,14.28,0,21.41Z"/><path class="cls-2" d="M137.64,128.68c0-7.14-.08-14.28,0-21.41.09-5.74,1.83-7.49,7.48-7.52q20.41-.1,40.84,0c5.67,0,7.4,1.74,7.49,7.51.13,8,.06,15.94,0,23.9-.06,5.31-1.44,6.43-6.93,6.8-1.67.11-4.58-1.51-4.87,1.55-.3,3.24,2.65,2.68,4.71,2.77,6.45.26,9.26,4.62,6.89,10.69a3.87,3.87,0,0,1-3.88,2.58c-6.3.05-12.61.07-18.92,0-3.44,0-5.08-2-5.07-5.4,0-2.82-.28-5.66,0-8.46.26-3.18-1.07-4.16-4-3.83a22.36,22.36,0,0,1-4.48,0c-2.42-.21-3.21.85-3.11,3.18a83.67,83.67,0,0,1-.09,9c-.3,4.55-2.82,5.94-9.65,5.71-4-.14-6.65-1.39-6.51-6.13.19-7,.05-13.95.05-20.92Z"/><path class="cls-2" d="M256.35,128.1c0,7-.09,13.94,0,20.91.08,4.57-1.93,6.75-6.53,6.74-14.27,0-28.55,0-42.82-.05-5.27,0-6.66-1.55-6.68-7q-.07-20.91,0-41.82c0-5.79,1.56-7.11,7.59-7.16,7.21,0,8.58,1,8.68,6.93.12,7.64,0,15.27.13,22.9.13,6.86,1.5,8.14,8.18,8.31,15.38.38,15.38.38,15.38-15,0-5.81.12-11.62,0-17.43-.07-3.69,1.49-5.42,5.21-5.73,9.07-.75,10.79.74,10.8,9.94Z"/><path class="cls-3" d="M252.32,88.78H235.38c1-3,.1-4.18-3.19-3.82a17,17,0,0,1-6.83-.37,2.51,2.51,0,0,1-1.05-.89c.65-1,1.69-.91,2.67-.91l72.23.2a1,1,0,0,1-.26,1.24,19.39,19.39,0,0,1-4.05,1.39,24.2,24.2,0,0,0-8.8,2.52c-7.07.42-14.11-.62-21.17-.69a7.29,7.29,0,0,1-1.47.25C259.76,88.2,255.88,86.77,252.32,88.78Z"/><path class="cls-4" d="M220.5,126.17c.05-6,1.24-7.06,7.93-7s7.87,1.22,7.79,7.74c-.07,6.15-1.6,7.53-8.26,7.44C221.69,134.26,220.44,132.88,220.5,126.17Z"/><path class="cls-5" d="M102.68,119.18c6.82-.06,8,.93,8.06,6.82.09,7-1.14,8.33-7.72,8.36s-7.82-1.34-7.85-7.77S96.22,119.23,102.68,119.18Z"/><path class="cls-6" d="M61.82,88.77h-5c-2.9-.73-4.45-4.43-8-3.65A90.66,90.66,0,0,1,38,85,3.36,3.36,0,0,1,35.8,83.7c.65-1,1.69-.91,2.67-.91l77.22.19a.93.93,0,0,1-.33,1.3,4.52,4.52,0,0,1-1.41.56c-2.68.45-5.46-.12-8.11.77-3.12.47-6.38.43-9.1,2.43a2.05,2.05,0,0,1-1.48-.17C89.26,86,83.21,85.2,77,87,72.09,88.64,66.75,86.92,61.82,88.77Z"/><path class="cls-7" d="M148.57,53c1.92.71,3.1,3.89,5.88,1.8,3.86-.59,7.54-2.64,11.63-1.48,2.64.75,3.74-2.68,6.24-2.34,2.11,1.9,4.11,3.94,7,4.74,3.2-.47,6.44-.45,9.63-1a4.84,4.84,0,0,1,4.9,1.38,2.77,2.77,0,0,1,.22,2.27c-5.16.6-9.74,3.92-15.46,2.57a26.94,26.94,0,0,1-7.07-3.14c-4.24.14-8.26.35-12.31,2.44-3.56,1.84-8,1.65-12.14,1.4a3.32,3.32,0,0,1-2-2.31C145.11,56.55,145.52,54,148.57,53Z"/><path class="cls-5" d="M40.28,99.7c7,0,7.22.28,4.61,7-.84,2.15-1.63,4.31-2.47,6.45a2.61,2.61,0,0,1-2.6,1.89c-1.39,0-2-.9-2.45-2-.73-1.83-1.5-3.65-2.22-5.49C32.24,99.94,32.41,99.69,40.28,99.7Z"/><path class="cls-8" d="M57.81,171.55c.29,2.31-.29,3.92-3,3.8-4.52-.92-9.08-.29-13.61-.35a5.47,5.47,0,0,1-1.39-.18,12,12,0,0,0-6.14.11,18.85,18.85,0,0,1-2.12.07H27.24c-4.2.12-1.11-3.31-2.26-4.66,3.66-.37,7.3-1.28,11-.59,5.68.67,11.39.1,17.07.31C54.67,170.49,56.41,170.48,57.81,171.55Z"/><path class="cls-9" d="M298.91,107.38c0,1,0,2,0,3-.06,1.28.29,2.83-1.29,3.45s-2.39-.69-3.22-1.69c-2.12-2.56-4.31-5.07-6.26-7.75s-1-4.27,2.21-4.68C298,98.7,298.91,99.5,298.91,107.38Z"/><path class="cls-10" d="M283.37,147.92c.64-1.82-1.5-5.16,1.57-6.15,2.64-.85,3.38,2.56,4.93,4.08s2.72,3.29,4.11,4.91c.9,1.05,1.65,2.14.94,3.54s-2.07,1.37-3.41,1.48C283.85,156.38,283.37,156,283.37,147.92Z"/><path class="cls-11" d="M200.39,69.62a1.39,1.39,0,0,1-.77.23,139.39,139.39,0,0,0-20,5.83c-2.95.37-5.79,1.36-8.79,1.41a8.49,8.49,0,0,1-7.65-3.64c-3.3-6.12-4.65-6.58-12.51-4.25a1.62,1.62,0,0,1-1.36-.56c-.65-2.24.71-3.42,2.34-4.46,2.18-.87,4.55-.78,6.81-1.29A5,5,0,0,1,164,65.17c6.86,9.38,4.91,8.34,16.54,5.11,5-2.93,10.53-3.14,16.11-2.76C198.14,67.63,200.06,67.3,200.39,69.62Z"/><path class="cls-12" d="M169.66,172.63c-.08,1.38-.12,2.16-.18,3-.09,1.22.43,3-1.66,2.82s-1.37-2-1.26-3.11c.27-2.82-1.65-7,1-8.19,3.26-1.5,3.54,4,6.27,5,.22-.2.52-.34.6-.56.59-1.54-1-4.47,1.3-4.55,3.13-.11,1.6,3,1.59,4.62,0,2.26,1.54,5.65-1,6.63-2.85,1.09-3.37-2.93-5.22-4.36C170.78,173.64,170.55,173.41,169.66,172.63Z"/><path class="cls-13" d="M254.18,172.22c.49-2.15-1.73-6.26,3.77-5.59,2.57.31,5.88-.41,6,3.45.3,8-.08,8.37-5.71,8.41C254.18,178.52,254.18,178.52,254.18,172.22Z"/><path class="cls-14" d="M151.25,172.81c-.46,3.7-2.58,5.78-6.51,5.75a5.88,5.88,0,0,1-6.1-6.28c.32-3.71,2.64-5.54,6.22-5.7A6.06,6.06,0,0,1,151.25,172.81Z"/><path class="cls-15" d="M185.46,83.76c-6.57,6.93-7.3,6.88-14.92-1-1.16-2.84,1.09-3.37,2.87-3.9a25.62,25.62,0,0,1,6.77-.82C182.62,79.31,183.79,81.77,185.46,83.76Z"/><path class="cls-16" d="M202.58,68l-1.07.91c-4-1.44-8.44-.61-12.47-2.17-1.47-.57-2.8.58-4.1,1.28-6,2.71-7.08,2.91-11.21-1.85-3.65-4.2-8.68-3.32-13-5-.22-.27-.46-.67-.31-.83,1.79-2,9.65-3.59,12.13-2.5a7.31,7.31,0,0,1,.93,1.15c3.25,5.39,5.62,6.25,11.39,3.82,2.47-1,4.83-1.48,7,.29,1.86,1.49,4,1.32,6.13,1.59C199.82,65.41,202.46,64.93,202.58,68Z"/><path class="cls-17" d="M146.66,84.75l-12-11c-.34-1.92.93-2.29,2.35-2.16a25.5,25.5,0,0,1,4.87.92c2.93,2.3,6.56,3.6,9.16,6.38a3.72,3.72,0,0,1,.28,2.21C150.3,82.93,150.09,85.89,146.66,84.75Z"/><path class="cls-18" d="M181.52,78.78a26.93,26.93,0,0,1-6.64,1.07c-2,0-3.92.45-4.34,2.94a3.26,3.26,0,0,1-2.06-1.88c-.11-2.75,1.77-3.54,4-4.17,2.36-.68,4.75-1.21,7.1-1.95,6.31-3.2,12.82-5.63,20.09-4.94l-2.07,2.05a13.94,13.94,0,0,0-10.49,4.47C185.31,77.39,184,79.37,181.52,78.78Z"/><path class="cls-19" d="M106.93,174.9a3.21,3.21,0,0,0,.4.55c1.64,1.21,4.06-.62,5.46,1.38a1.87,1.87,0,0,1-.14,1.28c-2.64.14-5.47.83-7.86.1-2.21-.67-1-3.48-1-5.31-.14-7,0-7.07,6.85-6.24,1,.11,2.19-.15,2.15,1.33s-1.21,1.28-2.2,1.33c-1.23.07-2.57-.28-3.63.67.24.48.3.85.51,1,1.47,1,4.65-.7,4.71,1.37C112.23,175.35,108.3,172.54,106.93,174.9Z"/><path class="cls-20" d="M251.4,170.87c.2,3.43.2,6.38-3.25,7.45-2.32.72-4.82.57-6.28-1.65-1.84-2.79-1.28-6-.85-9.15.1-.78.92-.85,1.59-.79,1,.1,1.31.87,1.35,1.74.06,1.66,0,3.32.13,5,.07,1.26.6,2.27,2.07,2.26s2-.93,2.14-2.24a7.54,7.54,0,0,1,.07-2c.59-1.59-1.56-4.75,1.75-4.62C252.89,167,250.53,170,251.4,170.87Z"/><path class="cls-21" d="M161.54,23.9c3.44-3.14,6.34-2.41,9.36.87s6.37,6.13,9.58,9.17A2.63,2.63,0,0,1,176.65,35C171.11,32,164.9,29.87,161.54,23.9Z"/><path class="cls-13" d="M196.63,174.8c.14.95.83.89,1.44,1.09,1.5.47,4.4-1.21,4.25,1.61-.12,2-2.77.66-4.26,1-4.46.94-5.08-1.38-4.94-5.22.28-7.31.24-7.47,7.13-6.6.94.12,2.21-.14,2.13,1.34s-1.27,1.19-2.24,1.33c-1.2.18-2.65-.62-3.6.86.9,2.65,5-.39,5,2.3C201.6,175.35,197.51,172.37,196.63,174.8Z"/><path class="cls-13" d="M187.56,169.66c-2.4-.62-4-.11-4.66,2a2.91,2.91,0,0,0,1.52,3.75c2.22,1.09,3.25,0,3.75-2.21a1.09,1.09,0,0,1,1.93-.35c.82,1.45,1.17,3.51-.26,4.5-2.84,2-6.09,1.93-8.61-.58a5.49,5.49,0,0,1-.31-8c2.33-2.63,5.38-2.89,8.55-1.26.67.35,1,.8.63,1.54A1.55,1.55,0,0,1,187.56,169.66Z"/><path class="cls-13" d="M78.46,177.94c1.26-3,2.54-6,3.8-9,.53-1.27,1.13-2.35,2.81-2.25,1.47.1,1.88,1.18,2.33,2.22,1,2.41,2,4.85,3,7.28.66,1.57-.16,3.3-1.42,2.12-3.49-3.26-6.34-1.19-9.45.14C79.36,178.51,79,178.18,78.46,177.94Z"/><path class="cls-22" d="M161.54,23.9c4.14,3,8.27,6,12.44,8.89a7.35,7.35,0,0,0,6.5,1.15c1.48,1,1,2.55,1,4-3.08,1.85-5.92,0-8.55-1a25.88,25.88,0,0,1-13.48-11Z"/><path class="cls-14" d="M163.73,172.25c.18,2.3.05,5-3.14,6-2.31.75-4.86.62-6.3-1.52-1.86-2.76-1-6.06-.82-9.15,0-.71.78-1,1.51-.87A1.34,1.34,0,0,1,156.3,168c.1,1.48.08,3,.13,4.44s-.1,3.24,2,3.34,2.17-1.58,2.19-3.12c0-1-.06-2,0-3,.09-1.22-.44-3,1.66-2.88s1.26,1.89,1.43,3.05A20.73,20.73,0,0,1,163.73,172.25Z"/><path class="cls-23" d="M172.32,51c-2.3,3.18-4.83,4.66-9.14,3.19-2.59-.88-5.56,2.89-8.73.63l4.1-3.93c2.19-3,8.43-4,13-2C171.83,49.58,172.08,50.26,172.32,51Z"/><path class="cls-24" d="M156.44,28.83l2.1-2a2.91,2.91,0,0,1,1.71.92c5,6.95,12.2,9.95,20.35,11.2a4.74,4.74,0,0,1-3.11,3.89,16.26,16.26,0,0,1-13.1-3.91c-2.58-2.84-4.71-6-7.25-8.92A4.42,4.42,0,0,1,156.44,28.83Z"/><path class="cls-25" d="M289.24,169.66h17a9.61,9.61,0,0,0,5.86,0c1.28,0,2.56-.11,3.84,0,1.54.07,3,.59,3.15,2.35.24,2.09-.64,3.43-2.95,3.4-2-3.1-5.07-2.42-8-2.47a98.5,98.5,0,0,0-12.37.66C293.1,174,289.15,174.76,289.24,169.66Z"/><path class="cls-14" d="M74.35,175.45c1.1-.64,2.1-.87,2.63.35.72,1.71-1,1.95-1.84,2.3-2.71,1.07-5.31.61-7.13-1.72a5.73,5.73,0,0,1,.14-7.73,5.84,5.84,0,0,1,7.19-1.54c.85.38,2.13.65,1.76,1.93-.43,1.51-1.43,1.33-2.7.69a2.78,2.78,0,0,0-3.89,1,3.14,3.14,0,0,0,0,3.69C71.58,176,73,175.73,74.35,175.45Z"/><path class="cls-26" d="M96.18,170.33c.17,1.21,1,1.14,1.84,1.27,1.17.18,3.07-.63,3.08,1.38s-1.84,1.37-3,1.45-2,.31-2,1.62-.07,2.8-2.08,2.36c-1.66-.35-1.07-1.77-1.16-2.81s0-2,0-3c0-6.41.36-6.74,6.55-6,.93.11,2.17-.14,2.25,1.24s-1,1.38-2,1.49C98.4,169.49,96.92,168.82,96.18,170.33Z"/><path class="cls-12" d="M224.35,178.59c-2.73,0-4.85-1.15-5.77-3.79s-.56-5.05,1.64-6.79a6,6,0,0,1,7-.7c.73.39,1.66.69,1.29,1.74s-1,1.55-2.26.86c-1.62-.9-3.21-.85-4.34.88a3.1,3.1,0,0,0-.11,3.31c1,1.79,2.62,1.94,4.29,1.18,1.44-.65,2.64-.17,2.33,1.17C228,178.22,226.07,178.48,224.35,178.59Z"/><path class="cls-27" d="M171.59,48.89a36.37,36.37,0,0,0-13,2c1.31-4.48-3.72-5.05-4.92-8-.17-1.45-.31-2.89.82-4.08,2.77-.1,4,2.35,6,3.61,1.33,1.64,3.28,1.93,5.15,2.59,2.26.8,5.35.63,6.06,3.92Z"/><path class="cls-28" d="M23.94,88.77l-6-.1c-1.54-1-3.48.19-5-.88C11.36,84.14,11.74,83.55,16,83c2.1.68,4.26.1,6.37.36,1.67.21,4.09-1,4.83,1.18C28,86.91,25.5,87.68,23.94,88.77Z"/><path class="cls-29" d="M163.57,72.8c2.15,1.42,3.92,3.72,7,3,0,2.72-2.89,2.41-4,3.95a7.4,7.4,0,0,0-5.84,2.1c-.81.46-1.22,0-1.57-.66a6.65,6.65,0,0,1,0-2.63c.2-1.63-.82-2.36-2.11-2.88a7.2,7.2,0,0,1-1.16-.71c-1-1-2-1.92-1.43-3.54C158.11,67.88,160.54,72.36,163.57,72.8Z"/><path class="cls-30" d="M180.6,38.91c-10.06.89-16.9-4.09-22.06-12.12l1-.92c6.58,5.41,12.75,11.57,22,12C181.21,38.23,180.91,38.57,180.6,38.91Z"/><path class="cls-31" d="M289.24,169.66c1,3.2,3.76,3.32,6.1,2.71,4.61-1.2,9.23-.66,13.85-.84-1.49,5-5.66,2.2-8.59,3-2.43-.13-4.8.76-7.25.49-1.77,0-3.56.09-5.33,0-1.36-.1-3.29.8-3.92-.9s.43-3.4,2.11-4.41Z"/><path class="cls-32" d="M202.58,68c-1.36-1.54-3.3-1.69-5.1-2.15a5.08,5.08,0,0,0-1.69-.89,6.9,6.9,0,0,1-3.25-2.19,3.59,3.59,0,0,1-.61-1.2,2.36,2.36,0,0,1,1.56-2.7v-2a3.29,3.29,0,0,1,3-.87,13.18,13.18,0,0,1,7.1,11Z"/><path class="cls-33" d="M186.51,75.79c3-3.19,6-6.6,11-3.89-1.93,4.08-6.19,5.81-9,9C186.83,79.6,185.23,78.27,186.51,75.79Z"/><path class="cls-34" d="M164.57,37.9c3.59,3.51,8.73,3,12.92,4.9a5.44,5.44,0,0,1-3.75,3.14c-3.34,1.76-6.07.07-8.82-1.55C163.79,42.28,162.72,40.17,164.57,37.9Z"/><path class="cls-35" d="M148.57,53l-2.95,5.87c-2.78,1.35-3.76-.65-4.5-2.6-.49-1.3-.33-2.85-1.49-3.93-1.13-2.51-.42-4.33,2-5.51Z"/><path class="cls-36" d="M225.41,83.77h14.22l-4.25,5h-8C227,87,225,85.88,225.41,83.77Z"/><path class="cls-37" d="M129.36,172.79a6.56,6.56,0,0,1,0-1.47c.39-1.56-1.09-4.39,1.43-4.43,3.19-.07,1.52,3,1.65,4.64.19,2.39-.14,4.68,3.43,4.21.9-.12,1.52.55,1.48,1.54s-1,1.07-1.75,1.22C130.36,179.54,129.36,178.63,129.36,172.79Z"/><path class="cls-38" d="M235.62,178.25c-3.67.76-4.93-.21-4.63-3.16.2-2,0-4,0-5.93,0-1.13-.09-2.53,1.64-2.44s1.51,1.44,1.54,2.59c0,1.32,0,2.64,0,4,0,.93-.21,2,1.17,2.33s4.06-.87,3.56,1.86C238.6,179.54,236.15,178.07,235.62,178.25Z"/><path class="cls-39" d="M184.52,66.82c2.33-1.93,4.39-2.39,7.42-.6,2.76,1.62,6.7.47,9.57,2.66l-1.12.74c-6.88-1.68-13.55-1.36-19.86,2.18a1.49,1.49,0,0,1-.5-1.2C180.85,68.54,183.68,68.86,184.52,66.82Z"/><path class="cls-40" d="M37.9,83.77h12c1.57,3.2-1.43,3.67-3,5h-8C38.32,87.16,37.38,85.61,37.9,83.77Z"/><path class="cls-41" d="M122.82,61.82c-.27-2.64,1.44-4.2,3.18-5.71,2.83-2.46,5.71-4.87,8.57-7.29,2.06-.12,1.78,1.35,1.8,2.63a6.46,6.46,0,0,1-2,3.23c-2.46,2.32-5.72,3.66-7.75,6.56A2.4,2.4,0,0,1,122.82,61.82Z"/><path class="cls-42" d="M23.94,88.77c.33-1.71,3.42-2.43,2.22-4.33-1-1.54-3.32-.45-5-.67S17.54,84.31,16,83H29.94c4.7.56,3.85,3,2,5.82Z"/><path class="cls-43" d="M200.38,52.87c2.17,1.9,4.42,3.72,6.49,5.72,1.79,1.74,2,3.64-.17,5.35a3.42,3.42,0,0,1-4.55-2.66c-.81-3.17-3.25-4.33-5.61-5.77a2,2,0,0,1-.46-1.4,2.55,2.55,0,0,1,4.3-1.24Z"/><path class="cls-44" d="M295.23,84.76c1-1.45,2.61-.85,4-1,6.95-1,9.35.09,11,5h-9c-.58-.74-1.57-.41-2.27-.84C297.74,86.85,296.17,86.18,295.23,84.76Z"/><path class="cls-45" d="M299.22,87.76a2.08,2.08,0,0,1,2,1H270.31c-1.62-1.8-4.4-.19-6-2a3.76,3.76,0,0,1,4.53-.82c5.65,2.52,11.71.4,17.41,1.82C290.57,85.84,294.89,85.39,299.22,87.76Z"/><path class="cls-46" d="M61.82,88.77c3-1.87,6.37-2.11,9.79-2a9.16,9.16,0,0,0,5.19-1c2.18-.76,4.3-1,6.21.7a2,2,0,0,1-.23,2.33Z"/><path class="cls-47" d="M214.44,88.75l-7-.08c-1.11-1.14-3.81.64-3.93-1.67-.1-1.84,2-2.31,3.6-2.74,1-.26,1.84-.65,2.78-.94a11.43,11.43,0,0,1,2.41,0c1.46.24,3.51-1,4.26,1.08C217.24,86.28,216.14,87.77,214.44,88.75Z"/><path class="cls-48" d="M141.67,46.8c-.24,1.71-2.92,2.91-1,5.06,2.18,4.28-1.62,6.37-3.38,9.21a3,3,0,0,1-2,1c-1.78-.85-1.68-2.42-1.55-4,.67-2.84,3.21-5,3.18-8.06.54-1.95,1.31-3.69,3.69-3.91Z"/><path class="cls-49" d="M196.48,53.85v1a1.35,1.35,0,0,1,0,2h-3c-2.24-1.74-4.68-1.11-7-.44a8.74,8.74,0,0,1-7.16-.71l2.22-1.85A17.77,17.77,0,0,1,196.48,53.85Z"/><path class="cls-50" d="M115.7,83.77c0-.27,0-.53,0-.8,3.28-.06,6.56-.19,9.84-.15,2.28,0,5.09,0,5,3.23-.09,3-2.71,2.71-4.85,2.7C123.47,84.84,118.9,85.68,115.7,83.77Z"/><path class="cls-51" d="M196.49,56.84v-2c3,1.07,6.78,1.15,6.65,6,0,1.71,2.06,2.38,3.56,3.08L203.56,67C200.92,63.81,200.22,59.28,196.49,56.84Z"/><path class="cls-52" d="M31.93,88.76c-.26-2.07,1.48-4.84-2-5.82,2-.33,4-.4,5.86.76l2.1.07c.93,1.55,2.64,2.94,1,5Z"/><path class="cls-53" d="M310.21,88.79c-2.63-3.94-6.57-5-11-5,0-.26,0-.52,0-.78l7.06,0a6.38,6.38,0,0,0,3.37.3c4-.33,5.73,1.51,5.51,5.41Z"/><path class="cls-54" d="M200.38,52.87l-2.9,0a36,36,0,0,1-6.73-.12c-1.91-.22-4.4-.11-4.4-3.17l2-1.84a11.39,11.39,0,0,1,8.17,1.14A9.05,9.05,0,0,1,200.38,52.87Z"/><path class="cls-55" d="M105.72,84.76c2.81-2,6-.56,9-1,3,.75,6.46.82,7,5h-5c-1.62-1.14-3.45-.28-5.16-.56a2.81,2.81,0,0,1-1.22-.38C109.16,86.29,107.06,86.1,105.72,84.76Z"/><path class="cls-56" d="M159.58,42.88l-5-4c-2.67-3.37-.1-6.22.92-9.22l.92-.84,1.15.09c1.19,2.14,2.4,4.3,1.42,6.88-1.21,3.16,3.42,4.29,2.52,7.34A1.59,1.59,0,0,1,159.58,42.88Z"/><path class="cls-57" d="M186.51,75.79q1,2.55,2,5.1l-3.08,2.87c-1.7-1.36-5.26-1.23-3.94-5Z"/><path class="cls-23" d="M186.35,49.56c3,3.53,7.71,1.21,11.13,3.29l-1,1h-15C182.85,52.1,184.11,50.27,186.35,49.56Z"/><path class="cls-50" d="M315.15,88.67c-1.23-4.6-5.19-4.94-8.88-5.71,3,0,5.91-.21,8.86-.13,1.83.06,3.82.44,4,2.8C319.25,88.35,317.4,88.86,315.15,88.67Z"/><path class="cls-58" d="M141.63,72.8c-2.1,1.94-5-2.53-6.93.91l-2.06-1.89a5,5,0,0,1,3.59-3.68c3.54.38,7.31-.28,10.38,2.27a1.59,1.59,0,0,1,.18,1.49A5,5,0,0,1,141.63,72.8Z"/><path class="cls-59" d="M209.46,83.77c-.8,2.57-3.7,1.42-5.41,3.09.64,1.5,2.86.37,3.38,1.81-2.56-.23-6.63,1.33-6.74-2.62-.13-4.35,4-3.09,6.8-3.09C208.06,83.44,209,83.06,209.46,83.77Z"/><path class="cls-52" d="M286.21,169.66c-2.53,4.37-.67,5.46,3.59,4.88a26.15,26.15,0,0,1,3.43,0c.33.19.43.39.33.59s-.21.29-.32.29h-13c-1.33-1.61-.59-3.09.27-4.57a6.27,6.27,0,0,1,1.73-1.19Z"/><path class="cls-60" d="M146.66,84.75c2.32-.33,2.74-2.55,4-4,4.35-1.7,4,1.32,4,4a6.12,6.12,0,0,1-2.95,3.76C149.33,88.1,147.92,86.52,146.66,84.75Z"/><path class="cls-61" d="M122.82,61.82c4.42-1.56,6.67-6.06,10.84-8,1.4,1.58.42,2.94-.39,4.32-1.89,1.7-4.33,2.83-5.19,5.59A2,2,0,0,1,125.3,65,4.73,4.73,0,0,1,122.82,61.82Z"/><path class="cls-8" d="M300.21,173.52c3.08-.24,6.48.9,9-2,2.77.45,6.94-1.64,7,3.83l-1,0c-4.81-1-9.68,0-14.51-.5A.89.89,0,0,1,300.21,173.52Z"/><path class="cls-62" d="M121.7,88.78c-2.46-1.48-4.11-4.11-7-5h1c4,.29,9.16-1.71,10,5Z"/><path class="cls-63" d="M46.88,88.77c.68-1.85,3.09-2.67,3-5,4.25-1,4.61,3.42,7,5Z"/><path class="cls-64" d="M225.41,83.77c.44,1.76,4.15,2.2,2,5h-6c-.91-1.11.19-3.17-1.8-3.77-.91-.49-2.34-.46-2.18-2.07,2.35-.26,4.7-.56,6.87.76Z"/><path class="cls-65" d="M82.78,88.79v-2a23.32,23.32,0,0,1,13,1h1c4.65-2.1,9.31-2.42,14,0h0q.5.34.33.69c-.11.23-.22.34-.32.34Z"/><path class="cls-66" d="M159.58,42.88h2c1.75-1.35,2.81,0,4,1a16.3,16.3,0,0,0,8.17,2.06l-2.12,3c-2.34-1.38-4.72-2.81-7.48-3A5.17,5.17,0,0,1,159.58,42.88Z"/><path class="cls-67" d="M155.52,29.67c-.31,3.07-.62,6.15-.92,9.22-.15,1.37.46,2.92-1,4L151.48,41a33.6,33.6,0,0,1,.1-8.08Z"/><path class="cls-68" d="M217.44,82.94c.8,1,1.92.79,3,.84.93,2.8-1.26,3.75-3,5l-3,0c1.9-5,1.9-5-5-5l-2-.81Z"/><path class="cls-69" d="M135.65,68.81a6.42,6.42,0,0,1-3,3L129.5,68.9a5.45,5.45,0,0,1,6.5-4.54C138.31,66,136.86,67.41,135.65,68.81Z"/><path class="cls-70" d="M151.62,88.5a2.91,2.91,0,0,1,2-2.74c1.41-1.64,1.3-4.17,3.24-5.49a2.38,2.38,0,0,1,2.74.5l1.14,1.07C158,84.44,156.59,88.93,151.62,88.5Z"/><path class="cls-71" d="M13,170.53a7.73,7.73,0,0,1,8.08-.15c.73,2.28-.07,3.91-2.11,5-2.06.09-4.19.61-6-.88C14.68,173.21,15.93,171.89,13,170.53Z"/><path class="cls-72" d="M166.56,79.74c-.86-3.53,3.55-1.73,4-3.95l9-1c-3.4,2.55-8.53,2-11.05,6.12Z"/><path class="cls-73" d="M125.3,65c3.16-1.67,2.46-7.29,7.35-7.18a2.27,2.27,0,0,1,.76,1.91,7.1,7.1,0,0,1-2.09,3.58c-1.3,1.2-1.9,3.1-3.76,3.73Z"/><path class="cls-74" d="M151.58,32.89a7.21,7.21,0,0,1-.1,8.08C148.11,38.23,148.46,35.55,151.58,32.89Z"/><path class="cls-75" d="M282.23,169.63l-1,.9c-2.24,1.57-4.11,3.75-7,4.1-3.28-2.57-1.43-4.24,1.26-4.93C277.6,169.16,280,169.62,282.23,169.63Z"/><path class="cls-76" d="M274.23,174.63c2.19-1.64,3.74-4.37,7-4.1l-1,4.86C278.19,175.47,276.09,176.05,274.23,174.63Z"/><path class="cls-77" d="M13,170.53c1.52.46,4.24-1.09,4.38,1.31.13,2.11-2.34,2.73-4.42,2.69C11.21,173.17,11.5,171.84,13,170.53Z"/><path class="cls-78" d="M196.48,48.86c-2.76-.14-5.63.56-8.17-1.14C191.59,44.16,194.1,46.06,196.48,48.86Z"/><path class="cls-79" d="M25,170.34c2.17.68-.46,3.6,1.95,4.18.33.2.43.41.33.61s-.22.32-.33.32l-3,0c-3-1.16-2.9-2.93-1-5.06C23.59,169.3,24.28,169.29,25,170.34Z"/><path class="cls-80" d="M53.82,170.52c-5.93-.45-12,1-17.82-.77l17.83-.13c.25.21.33.41.24.61S53.9,170.52,53.82,170.52Z"/><path class="cls-81" d="M127.56,67.06c.85-1.55,1.23-3.43,3.09-4.23,1.36.65,2,1.54,1,3a3.15,3.15,0,0,1-2.16,3.08A3.18,3.18,0,0,1,127.56,67.06Z"/><path class="cls-82" d="M264.31,86.76c2.16.18,4.72-.77,6,2l-12,0c-.27-1.52.85-1.37,1.78-1.49,1.4-.19,2.91.46,4.22-.52Z"/><path class="cls-83" d="M39.89,174.52c5,.31,10-1.52,14.89.83l-14.89.05c-.23-.2-.3-.4-.23-.59S39.82,174.52,39.89,174.52Z"/><path class="cls-45" d="M264.31,86.76c-1.52,2.11-4.49-.12-6,2h-6C255.74,84.7,260.35,87.68,264.31,86.76Z"/><path class="cls-84" d="M217.43,88.77q1.5-2.49,3-5c3.64,1,1.52,3.17,1,5Z"/><path class="cls-85" d="M140.54,46.13c-1.6.76-1.72,2.66-2.9,3.73-.85.48-.11,2.56-2,2,0-1.13.15-2.32-1.06-3C136,46.71,137.7,45.14,140.54,46.13Z"/><path class="cls-86" d="M300.22,174.51c4.95.51,10-1,14.9.9H300.21c-.23-.21-.31-.41-.23-.6S300.14,174.51,300.22,174.51Z"/><path class="cls-87" d="M22.9,170.35c-.69,1.89-1,3.7,1,5.06H19c.7-1.68,1.4-3.35,2.11-5Z"/><path class="cls-88" d="M300.22,174.51c0,.3,0,.6,0,.9h-7c0-.29,0-.59,0-.88l7-1C300.21,173.85,300.21,174.18,300.22,174.51Z"/><path class="cls-89" d="M39.89,174.52v.88l-8,0q-.5-.3-.33-.6c.11-.21.22-.31.33-.31h2a8.13,8.13,0,0,1,6,0Z"/><path class="cls-90" d="M122.45,172.67c-.25.82-.7,1.58-1.63,1.33a1.89,1.89,0,0,1-1.09-1.34c-.1-1,.56-1.44,1.54-1.3A1.34,1.34,0,0,1,122.45,172.67Z"/><path class="cls-91" d="M53.82,170.52a6.76,6.76,0,0,0,0-.9c1.69-.11,3.37-.2,4,1.93C56.43,171.39,54.87,171.94,53.82,170.52Z"/><path class="cls-31" d="M312.12,169.66a4.79,4.79,0,0,1-5.86,0Z"/><path class="cls-92" d="M110.72,88.79v-1c2,.32,4.27-.83,6,1Z"/><path class="cls-42" d="M12.91,87.79c1.7.18,3.57-.65,5,.88C16.21,88.66,14.36,89.37,12.91,87.79Z"/><path class="cls-87" d="M31.92,174.52v.92h-5v-.93Z"/><path class="cls-1" d="M165.69,127.67h-.5c-11.4,0-12.45-1.24-11.44-12.6.29-3.26,1.85-4.82,4.93-5,2.47-.17,5-.2,7.44-.2,11.14,0,11.74.78,11.15,12-.22,4.18-2,6-6.13,5.85-1.81-.08-3.63,0-5.45,0Z"/><path class="cls-93" d="M299.22,87.76h-13c2.14-3.55,5.67-3,9-3C297.05,85.11,298.91,85.39,299.22,87.76Z"/><path class="cls-92" d="M95.75,87.76c-4.32-.41-8.77,1-13-1-1.85-1.19-3.93-1-6-1C83.35,84.24,89.83,83.34,95.75,87.76Z"/><path class="cls-92" d="M110.71,87.76h-14c1.94-4.15,5.73-2.75,9-3C108,84.78,110.44,84.44,110.71,87.76Z"/><path class="cls-94" d="M172.55,58.84c-.87-.28-1.24-2-2.38-1.2-2.9,2-6.56,1.65-9.59,3.19a1,1,0,0,1-.19,1.41,3.3,3.3,0,0,1-1.51.53,45,45,0,0,1-8,.38,7,7,0,0,1-4-.87,1.08,1.08,0,0,1-.27-1.45c4.79-1.53,10-.08,14.86-3.29a12,12,0,0,1,11.07-.7A1.34,1.34,0,0,1,172.55,58.84Z"/><path class="cls-95" d="M172.55,58.84v-2c4.8,3.72,10.15,4.37,15.36,1.53,2.42-1.32,3.82-.91,5.58.47l-1,3a26,26,0,0,0-9.06,1.29c-4.93,1.86-8.57.47-10.89-4.28Z"/><path class="cls-96" d="M146.62,60.83v1c-3.56,1.94-7,2.6-10-1,.27-3.46,5.32-4.8,4-9,1.05.52,2.06,1.19,1.65,2.52-.94,3.09,1,3.91,3.34,4.46C146,59.5,146.28,60.17,146.62,60.83Z"/><path class="cls-83" d="M39.89,174.52h-6A4.51,4.51,0,0,1,39.89,174.52Z"/><path class="cls-97" d="M159.58,61.83h1c3.76-1.62,7.14.17,10.4,1.49,3.52,1.42,2,4.29,1,7,2.93.94,6-2.11,8.54.46v1c-3.17.77-6.33,2.07-9.52,2.17-3.38.1-5.77-3.38-6.7-5.59-1.9-4.53-4.15-5.24-8.29-3.71-1.31.49-2.93.13-4.42.15-.51.42-.91.33-1.19-.27C152.7,61.07,156.86,63.88,159.58,61.83Z"/><path class="cls-98" d="M163.57,72.8c-1.62,1.09-3,.79-4.21-.69-1.46-1.77-3.11-1.26-4.76-.31-2.38.39-3.32-1.12-4-3C155.87,64.42,161.69,66.21,163.57,72.8Z"/><path class="cls-99" d="M150.61,68.81l4,3c.66,1,1.32,2,2,3-1.27,1.36-2.89,1.24-4.53,1.08-2.34-.64-4.62-1.39-5.45-4.07v-1a1.11,1.11,0,0,1-.31-.87c0-.31.08-.47.14-.47.89-1,1.86-1.68,3.17-.65Z"/><path class="cls-100" d="M149.61,68.81l-3,1c-2.67-.54-4.37-1.75-3.42-4.85a2.78,2.78,0,0,1,1.24-1c2.17-.54,4.3-.83,6.17.84h1C151,66.2,149.46,67.07,149.61,68.81Z"/><path class="cls-101" d="M261,174.92a2.09,2.09,0,0,1-2,1.09c-.93.05-1.67-.3-1.61-1.31s1-1.06,1.82-1A1.6,1.6,0,0,1,261,174.92Z"/><path class="cls-101" d="M259,169.22c.72.09,1.52.11,1.55.92.05,1.07-.81,1.25-1.69,1.27-.72,0-1.35-.15-1.42-1C257.3,169.2,258.23,169.28,259,169.22Z"/><path class="cls-101" d="M147.91,172.49c-.11,1.88-.89,3.31-2.92,3.32a3.21,3.21,0,0,1-.19-6.42C146.89,169.26,147.68,170.64,147.91,172.49Z"/><path class="cls-102" d="M180.53,70.8a11.18,11.18,0,0,0-6.7,1.32c-1.23.75-2.56.91-3.57-.34s-.37-2.23.77-3.29c2.58-2.41,1.52-3.73-1.48-4.73s-5.71-2.55-9-1.93v-1c6-.57,11.41.53,15.27,5.77,2.75,3.74,5.74,1.76,8.67.22C184.46,69.42,181.47,69.09,180.53,70.8Z"/><path class="cls-94" d="M172.55,58.84c3.73,5.57,8.89,3.69,13.79,2.49a7.92,7.92,0,0,1,6.16.5h0c.74,1.78,2.37,2.38,4,3l1,1c-5.39-.43-10.25-4.08-16.4-.47C178.38,66.94,173.08,64.17,172.55,58.84Z"/><path class="cls-103" d="M146.61,71.8l5,3c1,.68,1.9,1.42,1.4,2.84a2.45,2.45,0,0,1-2.4,1.15c-3.26-1.59-6.91-2.58-9-6A8.16,8.16,0,0,1,146.61,71.8Z"/><path class="cls-104" d="M150.6,78.78a2.07,2.07,0,0,1,2-1c3-1.2,3.65.68,4,3s-1,3.94-3,5c-.27-2.1,1.1-5.18-3-5C150.61,80.11,150.61,79.45,150.6,78.78Z"/><path class="cls-101" d="M85.78,172.67c0,.67-.15,1.25-.93,1.34a.92.92,0,0,1-1.08-1.14c.07-.51.46-1.24.87-1.36C85.42,171.28,85.56,172.11,85.78,172.67Z"/><path class="cls-105" d="M165.57,43.88l-4-1c-6-3.31-2.74-9.28-4-14l7,9C164.22,40,165.24,41.88,165.57,43.88Z"/><path class="cls-106" d="M156.59,80.78c-1.34-1-1.76-3.2-4-3-.33-1-.66-2-1-3h5a5.11,5.11,0,0,1,4,4c-.34.66-.67,1.33-1,2Z"/><path class="cls-107" d="M160.58,78.78l-4-4C159.45,74.59,160.79,75.91,160.58,78.78Z"/><path class="cls-95" d="M196.48,64.82c-2.15.1-3.84-.41-4-3Z"/><path class="cls-108" d="M135.63,51.85l2-2c.48,3.22-1.32,5.58-3,8-.88.45-.07,2.59-2,2v-2a6.8,6.8,0,0,0,1-4Z"/><path class="cls-109" d="M136.65,60.83c3.18,1.76,6.64.71,10,1h4c.24,2-1.31,1.81-2.48,1.93-1.56.16-3.18,0-4.51,1.06h0c-1.23,3.43-3.25,3.54-5.64,1.21A8,8,0,0,0,135.43,64a1.69,1.69,0,0,1,.21-2.13Z"/><path class="cls-110" d="M135.64,61.83c0,.66,0,1.33,0,2,.34.23.46.45.34.67s-.23.33-.34.33a6.77,6.77,0,0,1-4,1c-.34-1-.67-2-1-3,.67-1,1.34-2,2-3l2-2C134.79,59.22,134.18,60.78,135.64,61.83Z"/><path class="cls-111" d="M135.65,64.82v-1a3.74,3.74,0,0,1,2.92,1.45c1.91,2.23,3.53,1.54,5.05-.45-.55,2.6,1.56,3.59,3,5,0,.33,0,.66,0,1l-11-2C135.29,67.48,137.44,66.15,135.65,64.82Z"/><path class="cls-101" d="M166,113.6c6.67,0,7.35.66,7.41,5.58,0,3.36-1.41,4.87-4.63,4.94-1.81,0-3.62.1-5.42.09-3.59,0-5.85-1.1-5.79-5.44s2.32-5.35,6-5.17C164.36,113.64,165.19,113.6,166,113.6Z"/><path class="cls-112" d="M143.62,64.82c1.28-3.44,5.19-.76,7-3h9c-2.43,2.67-6.3,1-9,3Z"/></g></g></svg>