<svg xmlns="http://www.w3.org/2000/svg" viewBox="0 0 3830 84"><g id="Camada_2" data-name="Camada 2"><g id="Camada_1-2" data-name="Camada 1"><path d="M3830,0V6l-28,16.37c6,3.64,10.88,6.8,15.95,9.66,3.89,2.19,8,4,12,6v7c-8.18,4.71-16.39,9.36-24.52,14.15-2.3,1.35-2.39,2.84.19,4.35,8.15,4.76,16.23,9.66,24.33,14.5v6c-22-.15-44-.43-66-.44-41.49,0-83,.17-124.48.16-43.48,0-87-.18-130.45-.17-44.32,0-88.64.2-133,.24q-63,.06-126,0-128.46,0-256.93-.06-127.21,0-254.43,0-127.73,0-255.44,0t-255.43,0q-80.23,0-160.47-.07c-30.16,0-60.32-.15-90.48-.14q-67.73,0-135.46.13-60.48,0-121,0-66.72,0-133.46.07c-40.33,0-80.65-.18-121-.18-41.16,0-82.32.19-123.48.18-43.82,0-87.64-.19-131.46-.18-44.32,0-88.64.2-133,.24q-63.23.08-126.47,0l-255.93,0q-78.48,0-157-.07c-31.33,0-62.66-.15-94-.14q-67.49,0-135,.14-60.5,0-121,0-67.49,0-135,0c-18,0-36,.2-54,.3V78L54.52,45.52,54.09,44H0V40H54.49l.27-1.32C47.84,34.48,41,30.24,34,26.09Q17,16,0,6V0C1.83,0,3.67.07,5.5.07h310l1866.76,0H3590Q3710,.08,3830,0ZM2590.18,22.13a20.86,20.86,0,0,0,3,2.83c6.33,3.8,13,7.08,19,11.37,4,2.92,8.06,3.74,12.78,3.69,14.14-.15,28.29,0,42.44-.06,1.56,0,3.12-.2,4.68-.31-.07-.66,0-.9-.11-.95-17.56-10.72-35.1-21.47-52.75-32.05-1-.58-3.08,0-4.26.65C2606.9,12,2599,16.85,2590.18,22.13ZM1905.89,40l.45-1.33c-17.7-10.71-35.38-21.45-53.15-32a4.71,4.71,0,0,0-4,.32c-8.22,4.91-16.33,10-25.45,15.65,4.53,2.85,8.61,5.08,12.34,7.8,9.56,7,19.69,10.8,32,9.82C1880.59,39.18,1893.27,40,1905.89,40ZM292.34,22c1,1.16,1.54,2.27,2.44,2.81,6.32,3.81,13,7.06,19,11.37,4.51,3.26,9.07,3.88,14.26,3.82,13.81-.16,27.63,0,41.44-.06,1.55,0,3.1-.2,4.71-.32-.15-.7-.13-.93-.22-1-17.56-10.72-35.11-21.46-52.76-32-1-.57-3.05,0-4.25.72C308.88,12,300.91,16.88,292.34,22Zm766.08,0c.84,1.08,1.34,2.25,2.23,2.78,6.32,3.82,13,7.1,19,11.37,4.64,3.3,9.38,4,14.75,3.88,13.65-.19,27.3-.05,40.95-.07,1.57,0,3.14-.18,4.82-.28-.21-.78-.2-1.23-.39-1.35-17.47-10.6-34.93-21.21-52.5-31.64-1-.59-3.1-.12-4.28.56C1074.93,12,1067,16.83,1058.42,22ZM3437.9,40c.15-.45.29-.91.43-1.36q-26.55-16.06-53.15-32.06a4.34,4.34,0,0,0-3.71,0c-8.32,5-16.52,10.29-25.43,15.89,2.05,1.48,3.73,2.62,5.33,3.87,13.92,10.79,29.33,16.42,47.18,13.67a15.9,15.9,0,0,1,2.49,0Zm-592-18c.83,1.06,1.39,2.3,2.35,2.91,5.69,3.59,11.56,6.9,17.2,10.57A29.07,29.07,0,0,0,2883,40.1c13.3-.44,26.62-.12,39.94-.14,1.55,0,3.09-.2,5.43-.37a21.44,21.44,0,0,0-1.78-1.53c-17.18-10.43-34.33-20.9-51.61-31.17-1.12-.66-3.44-.3-4.71.44C2862.22,12,2854.29,16.88,2845.89,22Zm847.48,18c.12-.4.23-.79.34-1.19C3676,28,3658.38,17.15,3640.61,6.5c-1-.57-3.12.14-4.36.86-8.05,4.69-16,9.55-24.41,14.6.9,1.09,1.5,2.3,2.47,2.92,5.54,3.51,11.24,6.79,16.76,10.34a28.24,28.24,0,0,0,17.54,4.88c9.62-.53,19.3-.13,28.95-.13Zm-911.89-18c1.06,1.21,1.64,2.3,2.54,2.84,6.48,3.87,13.26,7.27,19.44,11.54A20.67,20.67,0,0,0,2816.29,40c14.13-.2,28.26,0,42.4-.07,1.61,0,3.22-.22,4.83-.33-17.37-11.49-34.69-21.94-52.15-32.18a6.37,6.37,0,0,0-5.38,0C2797.85,12.05,2789.9,16.93,2781.48,21.94ZM1395.57,39.65c-.08-.66,0-.89-.13-.94-17.53-10.75-35-21.52-52.65-32.16a4.38,4.38,0,0,0-3.76,0c-8.35,5.05-16.58,10.28-25.11,15.63.85,1.07,1.35,2.17,2.22,2.71,5.7,3.57,11.38,7.19,17.26,10.45,4.19,2.32,8,5,13.53,4.85,14.63-.51,29.29-.16,43.93-.18C1392.43,40,1394,39.76,1395.57,39.65ZM547.78,22c1,1.17,1.65,2.33,2.62,2.94,5.54,3.52,11.06,7.11,16.81,10.26,3.62,2,7.6,4.47,11.49,4.6,15.63.53,31.29.23,46.93.2,1.34,0,2.68-.27,5.2-.54C612.11,28,594.57,17.3,576.91,6.77c-1.08-.64-3.4-.07-4.71.68C564.25,12,556.42,16.79,547.78,22Zm18.93,17.56c-18.72-11.46-36.29-22.26-54-32.88-1.05-.63-3.27-.24-4.48.46-8.19,4.77-16.25,9.76-24.44,14.73.9,1,1.61,2.39,2.73,3.08,6.29,3.86,12.93,7.2,18.95,11.43A20.45,20.45,0,0,0,518.33,40c14.13-.19,28.26,0,42.39-.08C562.29,40,563.86,39.74,566.71,39.52ZM2161.38,40l.35-1.23c-17.57-10.68-35.12-21.39-52.77-31.93a5.21,5.21,0,0,0-4.44.18c-8.15,4.8-16.16,9.84-24.62,15.06.84,1,1.45,2.21,2.43,2.83,5.54,3.52,11.24,6.8,16.76,10.35a28.4,28.4,0,0,0,17.53,4.88c10.29-.53,20.63-.14,31-.14Zm-64.13,0,.37-1.2c-17.54-10.65-35.06-21.34-52.68-31.84-1.16-.69-3.5-.43-4.77.3C2032,12,2023.92,16.92,2015.5,22a15.36,15.36,0,0,0,2.71,2.83c6.31,3.82,13,7.13,19,11.37,4.35,3.07,8.71,4,13.8,3.83,7.64-.24,15.3-.06,22.95-.06Zm-766,0c.13-.42.26-.85.4-1.27-17.47-10.5-34.91-21-52.46-31.38a6,6,0,0,0-5,0c-8.21,4.68-16.26,9.66-24.66,14.72a16.3,16.3,0,0,0,2.76,2.84c6.32,3.82,13,7.13,19,11.37,4.35,3.07,8.72,3.95,13.8,3.82,9.48-.23,19-.07,28.44-.08Zm2298,0c.13-.41.26-.81.38-1.21-17.53-10.64-35-21.33-52.67-31.82-1.15-.69-3.5-.45-4.76.28-8.2,4.72-16.25,9.7-24.67,14.78a15.3,15.3,0,0,0,2.68,2.83c6.32,3.81,13,7.12,19,11.37A21.2,21.2,0,0,0,3583,40c7.31-.24,14.63-.06,21.94-.06ZM118.53,40l.37-1.3Q92.31,22.46,65.67,6.34a3.88,3.88,0,0,0-3.32.17C54,11.57,45.74,16.77,37.06,22.18c.93,1.07,1.49,2.13,2.37,2.66,6.33,3.78,13,7.09,19,11.3,4.5,3.15,9,4,14.32,3.9,12-.24,24-.08,36-.08ZM2335.15,21.88c.79,1.24,1.1,2.36,1.83,2.8,6.32,3.8,12.74,7.44,19.08,11.22,3.79,2.26,7.35,4.32,12.21,4.2,14.49-.37,29-.12,43.48-.14,1.69,0,3.37-.16,5.63-.28-.85-1-1-1.33-1.26-1.48-17.35-10.55-34.68-21.12-52.12-31.52-1-.57-3.07,0-4.25.64C2351.65,12,2343.65,16.82,2335.15,21.88ZM3182.78,40c-.15-1-.12-1.26-.2-1.31-17.56-10.78-35.11-21.58-52.75-32.24a4.33,4.33,0,0,0-3.69.32c-8.26,4.94-16.43,10-25,15.31.79,1.05,1.25,2.2,2.1,2.73,5.85,3.63,11.69,7.3,17.72,10.61,4.06,2.23,7.76,4.91,13.09,4.74,14.48-.47,29-.16,43.48-.16ZM1650.55,40l.35-1.31c-17.73-10.79-35.45-21.61-53.24-32.31a3.87,3.87,0,0,0-3.33.18c-8.34,5.06-16.6,10.26-25.07,15.53.68,1.07,1,2.2,1.72,2.63,6.48,3.85,13.31,7.19,19.48,11.48,4.51,3.14,9.06,4,14.32,3.87,10.66-.23,21.32-.07,32-.07Zm-765.82-.3c-.18-.76-.15-1.22-.33-1.33C866.93,27.68,849.46,17,831.89,6.53c-.91-.55-2.87-.11-4,.53-8.19,4.8-16.27,9.76-24.92,15,1,1.11,1.64,2.25,2.62,2.84,6.32,3.81,13,7.1,19,11.35,4.37,3.09,8.78,3.84,13.84,3.78,13.83-.16,27.65,0,41.48-.07C881.51,40,883.08,39.77,884.73,39.66ZM886,44.87a29.89,29.89,0,0,0-4.18-.79q-24.7,0-49.4,0a6.71,6.71,0,0,0-3.29.84c-7.75,4.6-15.4,9.38-23.17,13.93-3.08,1.8-3,3,0,4.73,7.48,4.38,14.79,9,22.3,13.37a4.9,4.9,0,0,0,4.1-.37C849.83,66.35,867.22,56,886,44.87Zm299.57-22.81a30.71,30.71,0,0,0,3.4,2.93c6.67,4.15,13.26,8.46,20.15,12.21a21.89,21.89,0,0,0,9.69,2.64c14.63.29,29.26.15,43.89.13,1.58,0,3.16-.22,4.69-.33,0-.62.05-.85,0-.89-17.5-10.79-35-21.6-52.58-32.24-.93-.57-2.92-.17-4,.47C1202.44,11.82,1194.22,16.83,1185.54,22.06ZM1951.62,22c1.1,1.19,1.72,2.25,2.64,2.8,6.47,3.87,12.94,7.75,19.55,11.37,2.91,1.6,6.13,3.61,9.25,3.68,15.45.39,30.92.2,46.38.17,1.38,0,2.75-.3,5.2-.59-18.59-11.35-36.11-22.1-53.75-32.68-1-.6-3.13-.19-4.31.49C1968.35,11.91,1960.23,16.83,1951.62,22Zm1532,0c1,1.12,1.56,2.22,2.47,2.77,6.47,3.87,13.29,7.23,19.44,11.54,4.37,3.08,8.79,3.83,13.85,3.78,13.81-.16,27.62,0,41.42-.06,1.56,0,3.12-.24,6-.46C3548,28,3530.32,17.12,3512.6,6.43c-.89-.53-2.85,0-4,.69C3500.41,11.88,3492.27,16.8,3483.65,21.94Zm-1832,23a18.25,18.25,0,0,0-3-.77q-25.18-.06-50.39,0a6.75,6.75,0,0,0-3.27.93c-7.75,4.6-15.42,9.32-23.17,13.92-2.67,1.58-2.77,2.84,0,4.48,7.58,4.54,15.06,9.24,22.66,13.72a4.16,4.16,0,0,0,3.53.08C1615.55,66.7,1633.12,56.06,1651.62,44.89Zm1531.84,0a23.88,23.88,0,0,0-4-.84q-24.45-.06-48.9,0a7.76,7.76,0,0,0-3.74,1c-7.61,4.51-15.07,9.27-22.75,13.66-3,1.74-3.31,2.86-.25,4.71,7.56,4.55,15,9.24,22.63,13.76a3.8,3.8,0,0,0,3.19.26C3147.39,66.85,3165.05,56.1,3183.46,44.92Zm-765.9,0a25.26,25.26,0,0,0-4.08-.87q-24.45-.06-48.9,0a7.65,7.65,0,0,0-3.74,1c-7.61,4.51-15.07,9.27-22.75,13.66-3,1.73-3.33,2.85-.27,4.7,7.56,4.56,15,9.26,22.64,13.74a4.09,4.09,0,0,0,3.5-.07C2381.6,66.63,2399.18,56,2417.56,45Zm-2298,0a24.47,24.47,0,0,0-4.05-.88Q91,44,66.59,44.08a6.88,6.88,0,0,0-3.31.75C55.37,49.5,47.55,54.28,39.67,59c-2.75,1.64-2.51,2.91.13,4.48,7.58,4.53,15,9.25,22.65,13.74A4.15,4.15,0,0,0,66,77.15C83.6,66.64,101.18,56,119.54,45Zm2598.11-23c1,1.16,1.63,2.24,2.54,2.79,6.47,3.87,13.25,7.27,19.44,11.54A21.51,21.51,0,0,0,2753,40c14-.2,27.93,0,41.9-.07,1.55,0,3.1-.24,5.9-.47C2782,28,2764.32,17.11,2746.59,6.43c-.88-.53-2.85,0-4,.69C2734.41,11.89,2726.28,16.8,2717.65,21.94ZM501.35,39.67l.13-1C484,28,466.44,17.18,448.82,6.59c-1-.59-3.11,0-4.33.7-8.22,4.71-16.34,9.6-24.87,14.65a16.07,16.07,0,0,0,2.77,2.85c6.46,3.88,13.25,7.29,19.42,11.57A20.65,20.65,0,0,0,454.68,40c14-.18,27.93,0,41.9-.06C498.17,40,499.76,39.77,501.35,39.67ZM228.19,22c1.06,1.12,1.76,2.28,2.78,2.89,6.32,3.81,13,7.11,19,11.35,4.34,3.07,8.71,3.88,13.77,3.82C277.5,39.85,291.3,40,305.1,40c1.53,0,3.07-.18,5.4-.33A19.93,19.93,0,0,0,308.7,38c-17-10.39-34-20.81-51.08-31-1.14-.68-3.46-.38-4.73.34C244.69,12,236.63,16.91,228.19,22ZM1076.74,39.6c-1.45-1.09-1.9-1.5-2.4-1.81-16.89-10.34-33.76-20.7-50.73-30.91a5.26,5.26,0,0,0-4.47,0c-8.28,4.86-16.42,10-25.43,15.49,1.42,1.05,2.37,1.9,3.45,2.54,6.36,3.77,13,7.1,19,11.36A20.29,20.29,0,0,0,1029,40c14-.17,28-.05,42-.07C1072.54,40,1074.1,39.77,1076.74,39.6Zm1530.85,0c0-.37.1-.75.16-1.12-17.45-10.64-34.88-21.33-52.41-31.83-1-.62-3.2-.2-4.4.49-8.19,4.75-16.25,9.7-24.71,14.8a16.61,16.61,0,0,0,2.8,2.9c6.33,3.81,12.69,7.58,19.13,11.21,2.62,1.48,5.43,3.64,8.19,3.71,16.16.36,32.32.2,48.48.19A21.69,21.69,0,0,0,2607.59,39.63Zm-766.2.34c.13-.37.25-.75.38-1.13-.49-.36-1-.75-1.46-1.06-16.89-10.34-33.76-20.72-50.72-30.92a5.23,5.23,0,0,0-4.47.07c-8.28,4.85-16.42,9.94-24.68,15,.55.79.8,1.49,1.29,1.82,2,1.33,4.25,2.35,6.14,3.82,12.73,10,26.8,14.4,43.18,12.6C1821.05,39.08,1831.27,40,1841.39,40Zm1532.06,0c.14-.45.29-.9.43-1.35-17.58-10.73-35.13-21.5-52.77-32.13a4.38,4.38,0,0,0-3.77.13c-8.34,5-16.57,10.22-25,15.48a14.51,14.51,0,0,0,2.5,2.73c6.33,3.81,13,7.14,19,11.36,4.34,3,8.72,4,13.8,3.85,10-.21,20-.07,30-.07Zm-444.82,4.83a28.21,28.21,0,0,0-3.7-.68q-24.94-.06-49.89,0a6.72,6.72,0,0,0-3.31.8c-7.58,4.53-15,9.29-22.66,13.72-3.83,2.22-2.88,3.54.22,5.36,7.17,4.21,14.19,8.67,21.4,12.81a5,5,0,0,0,4.23,0C2892.5,66.46,2910,55.94,2928.63,44.79Zm-2298,0a29.38,29.38,0,0,0-3.71-.67q-24.95-.06-49.88,0a6.7,6.7,0,0,0-3.31.8c-7.58,4.53-15,9.29-22.67,13.72-3.81,2.22-2.87,3.54.23,5.36,7.17,4.21,14.2,8.67,21.4,12.81a5,5,0,0,0,4.23,0C594.5,66.46,612,55.94,630.63,44.78Zm1275.18.82-.18-1.11a19.67,19.67,0,0,0-2.81-.42q-24.48,0-49,0a6.84,6.84,0,0,0-3.34.71c-7.86,4.68-15.65,9.5-23.5,14.21-2.88,1.72-2.41,3,.19,4.5,7.41,4.44,14.71,9,22.13,13.47,1,.57,2.73.94,3.56.44C1870.58,66.89,1888.19,56.23,1905.81,45.6ZM930.52,21.89c.87,1.11,1.37,2.25,2.25,2.8,5.84,3.64,11.85,7,17.63,10.75A29.18,29.18,0,0,0,968,40.1c13-.44,26-.11,38.94-.13,1.75,0,3.49-.18,5.23-.28l.6-1.17a5.74,5.74,0,0,1-1.39-.41c-17.19-10.42-34.35-20.9-51.62-31.19-1.14-.67-3.46-.36-4.73.37C947,11.93,939,16.81,930.52,21.89ZM373.83,45.69l-.21-1.17a17.76,17.76,0,0,0-2.77-.45q-24.48,0-49,0a6.8,6.8,0,0,0-3.34.69C310.68,49.46,302.9,54.29,295,59c-2.85,1.7-2.48,2.93.14,4.5,7.42,4.43,14.71,9.06,22.16,13.44a4.5,4.5,0,0,0,3.84.11C338.78,66.67,356.3,56.17,373.83,45.69Zm3320.5-.81a26.34,26.34,0,0,0-4.1-.79q-24.45-.06-48.89,0a7.84,7.84,0,0,0-3.76.93c-7.46,4.41-14.77,9.08-22.3,13.38-4,2.3-3.12,3.76.18,5.68a108.27,108.27,0,0,1,12.11,7.64c7.41,5.76,13.83,6.16,22.13.41C3663.76,62.41,3678.88,54.2,3694.33,44.88Zm-465.85-23c.94,1.17,1.48,2.29,2.37,2.84,5.69,3.56,11.54,6.88,17.19,10.51a29.84,29.84,0,0,0,18.06,4.88c13-.51,26-.13,39-.15,1.73,0,3.46-.2,6.53-.38-18.88-11.55-36.5-22.39-54.24-33-1-.58-3.12.08-4.35.79C3244.9,12,3236.91,16.86,3228.48,21.89ZM2162.73,44.8a37.62,37.62,0,0,0-4.63-.72q-24.45,0-48.89,0a6.89,6.89,0,0,0-3.33.72c-7.73,4.62-15.35,9.4-23.09,14-2.93,1.75-3,3,0,4.78,7.43,4.42,14.71,9.09,22.18,13.42,1,.59,3.07.24,4.2-.42C2126.6,66.32,2144,55.93,2162.73,44.8Zm1276.1.17a18.41,18.41,0,0,0-3.35-.87q-25-.06-50,0a6.7,6.7,0,0,0-3.29.86c-7.57,4.56-15,9.38-22.64,13.75-3.48,2-3.52,3-.09,5,7.33,4.25,14.45,8.88,21.77,13.14a4.94,4.94,0,0,0,4.15,0c10.63-6.14,21.15-12.45,31.7-18.74C3424.07,53.87,3431,49.68,3438.83,45Zm-766.1.07a18.33,18.33,0,0,0-3.63-.95q-24.73-.06-49.46,0a6.66,6.66,0,0,0-3.3.8c-7.72,4.63-15.32,9.43-23.06,14-3.12,1.85-2.86,3,.11,4.71,7.33,4.27,14.46,8.87,21.82,13.08a5.44,5.44,0,0,0,4.49-.19c5.33-2.81,10.55-5.87,15.73-9C2647.62,60.23,2659.78,52.86,2672.73,45ZM1696.55,21.88c.83,1.09,1.32,2.26,2.2,2.8,6.15,3.78,12.4,7.38,18.56,11.13,4.07,2.48,8,4.43,13.19,4.29,14.3-.38,28.63-.11,42.94-.13,1.58,0,3.16-.21,5.35-.37a11.71,11.71,0,0,0-1.38-1.46c-17.18-10.44-34.34-20.92-51.62-31.2-1.14-.68-3.46-.39-4.73.33C1712.86,12,1704.8,16.93,1696.55,21.88ZM1396.63,44.79a28,28,0,0,0-3.71-.68q-24.95-.06-49.88,0a6.72,6.72,0,0,0-3.31.8c-7.58,4.53-15,9.29-22.67,13.72-3.82,2.22-2.87,3.54.23,5.36,7.17,4.21,14.2,8.67,21.4,12.81a5,5,0,0,0,4.23,0C1360.5,66.46,1378,55.94,1396.63,44.79ZM2544,40c.1-.38.21-.76.31-1.14-17.53-10.72-35.05-21.48-52.67-32.06a5.22,5.22,0,0,0-4.45.27c-8.28,4.84-16.42,9.91-25.48,15.43,7.7,4.74,14.9,8.84,21.73,13.49,5,3.43,10.31,4.31,16.24,4.11,9.81-.33,19.64-.1,29.46-.1Zm-1402.91,5a24.55,24.55,0,0,0-3.74-.83q-25,0-50,0a6.74,6.74,0,0,0-3.28.91c-7.56,4.55-15,9.37-22.63,13.75-3.63,2.07-3.23,3,.06,5,7.33,4.25,14.44,8.88,21.73,13.19a4.53,4.53,0,0,0,3.85.17C1104.76,66.7,1122.27,56.19,1141.12,44.92ZM164.48,22c.91,1,1.56,2.22,2.57,2.83,6.46,3.88,13.28,7.23,19.42,11.55A20.31,20.31,0,0,0,199.32,40c14-.17,28,0,42-.06,1.68,0,3.36-.22,6.4-.44-18.79-11.39-36.23-22-53.78-32.46a5.52,5.52,0,0,0-4.73.08C181,11.87,172.89,16.87,164.48,22ZM2289.37,45a20.36,20.36,0,0,0-3.62-.87q-24.49-.08-49,0a7.86,7.86,0,0,0-3.77,1q-11.8,6.94-23.48,14.13c-.91.56-1.36,1.88-2.12,3,8.58,5.13,16.54,10,24.62,14.62a4.93,4.93,0,0,0,4.1,0c5.42-2.93,10.73-6.1,16-9.29C2264.3,60.21,2276.43,52.81,2289.37,45Zm765.12.63-.24-1.28c-1.75-.09-3.51-.26-5.26-.27-13.16,0-26.33.13-39.48-.06-5.6-.08-10.58.56-15.39,4.05-5.77,4.18-12.27,7.37-18.38,11.11-1,.59-1.55,1.8-2.46,2.9,8.63,5.26,16.69,10.24,24.86,15a4.49,4.49,0,0,0,3.84,0C3019.53,66.63,3037,56.1,3054.49,45.59Zm766.93-.66a22.26,22.26,0,0,0-3.71-.85q-24.49-.06-49,0a7.85,7.85,0,0,0-3.76,1q-11.56,6.87-23,14c-1,.64-1.68,1.9-2.66,3.06C3748,67.35,3756,72.21,3764,76.85a4.93,4.93,0,0,0,4.1,0c5.43-2.94,10.74-6.1,16-9.28C3796.33,60.2,3808.44,52.81,3821.42,44.93Zm-2297.89,0a19.89,19.89,0,0,0-3.15-.78c-16.67,0-33.33-.06-50,0a7.77,7.77,0,0,0-3.69,1.19q-11.35,6.77-22.59,13.73a17,17,0,0,0-2.83,3c8.72,5.34,16.76,10.34,24.9,15.17a4.19,4.19,0,0,0,3.57.17C1487.39,66.8,1505,56.13,1523.53,44.88ZM674.4,61.73c9.28,5.43,17.14,10.14,25.15,14.59a5.72,5.72,0,0,0,4.75.28c10.61-6.09,21.09-12.42,31.6-18.7,6.91-4.13,13.8-8.3,20.69-12.45A10.27,10.27,0,0,0,751,44c-12.66,0-25.34.36-38-.14a30,30,0,0,0-19.05,5.33c-3.24,2.23-6.81,4-10.14,6.06C680.9,57.11,678.15,59.14,674.4,61.73ZM739,22c1.08,1.16,1.77,2.32,2.79,2.94,6.31,3.82,12.92,7.19,19,11.38A21.43,21.43,0,0,0,774,40c14-.21,27.93,0,41.9-.07,1.55,0,3.09-.21,6.09-.43C803.08,28,785.46,17.13,767.74,6.48c-.9-.55-2.88,0-4,.63C755.58,11.89,747.5,16.82,739,22ZM3566.34,44.79a32.35,32.35,0,0,0-4.14-.71c-16.16,0-32.31-.07-48.47,0a8.87,8.87,0,0,0-4.18,1.21c-7.62,4.48-15.14,9.15-22.77,13.62-2.9,1.7-3.07,2.94-.09,4.74,7.55,4.55,15,9.31,22.57,13.79a4.24,4.24,0,0,0,3.57-.39C3530.34,66.58,3547.79,56,3566.34,44.79Zm-766.32.1a23.65,23.65,0,0,0-4-.81q-24.24-.07-48.47,0a8.87,8.87,0,0,0-4.14,1.33c-7.63,4.47-15.15,9.12-22.8,13.55-2.79,1.63-2.76,2.9-.12,4.51,4.49,2.76,9.36,5.07,13.35,8.43,7.79,6.56,15.05,5.85,22.51-.18a30.36,30.36,0,0,1,3.25-2.14C2772.81,61.5,2786.06,53.42,2800,44.89ZM2352.4,40c.11-.46.23-.91.34-1.37-17.48-10.53-34.93-21.1-52.47-31.52a5.07,5.07,0,0,0-4.31-.2c-8.29,4.84-16.44,9.93-24.87,15.1.94,1.13,1.5,2.25,2.4,2.79,6.31,3.82,12.9,7.22,19,11.37a22.25,22.25,0,0,0,13.75,3.9c12.13-.24,24.27-.07,36.41-.07Zm-912-17.55c7.7,4.78,14.78,8.81,21.46,13.43,5.18,3.58,10.64,4.32,16.71,4.2,13.13-.26,26.27-.06,39.41-.08,1.55,0,3.1-.21,4.75-.33-.18-.72-.17-.94-.26-1-17.51-10.77-35-21.55-52.6-32.18-.89-.54-2.85,0-3.95.61C1457.72,11.86,1449.65,16.81,1440.37,22.42ZM502.47,44.64c-2.77-.29-4.33-.58-5.88-.59-15.33,0-30.65-.07-46,.06a11.7,11.7,0,0,0-5.54,1.58c-7.37,4.26-14.49,9-22,13-4.18,2.27-2.9,3.5.07,5.29,7.28,4.37,14.5,8.86,21.83,13.15a4.19,4.19,0,0,0,3.55.18C466.19,66.75,483.74,56,502.47,44.64Zm3236.7-22.72c1,1.09,1.65,2.28,2.67,2.91,7.23,4.43,14.46,8.88,21.87,13a16.16,16.16,0,0,0,7.36,2c15.13.19,30.27.11,45.4.09,1.39,0,2.77-.27,5.57-.56-18.88-11.52-36.5-22.33-54.22-33-.89-.54-2.84,0-3.94.64C3755.71,11.88,3747.63,16.82,3739.17,21.92ZM3118.31,40c.14-.41.27-.82.4-1.23-17.64-10.79-35.26-21.61-53-32.27-.9-.54-2.88,0-4,.65-8.17,4.78-16.25,9.71-25.15,15.07,2.24,1.64,4,2.87,5.73,4.21,14,11,29.75,16.15,47.69,13.62a58.83,58.83,0,0,1,8-.05Zm-62.42,0a27.18,27.18,0,0,0-2.28-2c-17.14-10.45-34.28-20.93-51.51-31.23-1-.6-3.11-.25-4.26.42-8.18,4.74-16.25,9.67-24.72,14.76a17,17,0,0,0,2.77,2.91c7.08,4.38,14.13,8.83,21.41,12.86a18.55,18.55,0,0,0,8.33,2.16c12.31.23,24.62.1,36.93.1Zm-1469.23-.33c-.28-.77-.29-1.19-.49-1.31-17.31-10.51-34.63-21-52-31.42a4.72,4.72,0,0,0-4-.26c-8.37,5-16.6,10.17-26.07,16,1.63,1,2.6,1.61,3.59,2.2,6.36,3.74,13,7.12,19,11.34,4.33,3,8.71,3.86,13.77,3.8,13.8-.18,27.6,0,41.4-.07C1583.38,40,1584.94,39.76,1586.66,39.64Zm620.39-17.72c1.17,1.27,1.8,2.32,2.72,2.89,7.08,4.37,14.12,8.83,21.4,12.87a18.49,18.49,0,0,0,8.33,2.19c14.8.22,29.6.12,44.4.1,1.56,0,3.12-.21,4.72-.32-.11-.69-.08-.92-.16-1-17.51-10.77-35-21.57-52.6-32.17-.93-.55-3,.2-4.26.91C2223.53,12.07,2215.54,16.88,2207.05,21.92ZM1268.46,44.74a50.43,50.43,0,0,0-5.36-.68c-15.65,0-31.3-.06-47,0a9.82,9.82,0,0,0-4.66,1.28c-7.64,4.45-15.17,9.09-22.78,13.59-2.91,1.73-2.92,3,.07,4.76,7.46,4.39,14.76,9,22.24,13.4a4.55,4.55,0,0,0,3.86-.14C1232.4,66.53,1249.86,56,1268.46,44.74Zm764.76.83c0-.4-.08-.8-.13-1.2-1.76-.12-3.52-.32-5.28-.32-14.82,0-29.65-.1-44.46.08a15.15,15.15,0,0,0-6.92,2c-7.12,4-13.94,8.59-21.11,12.53-3.55,2-3.93,3.09-.31,5.24,7.43,4.43,14.71,9.12,22.18,13.48.88.51,2.78,0,3.85-.62Q2007.19,61.25,2033.22,45.57ZM675.12,21.94c1.08,1.14,1.78,2.3,2.81,2.92,6.45,3.88,13.24,7.27,19.37,11.6A19.67,19.67,0,0,0,709.67,40c14.13-.14,28.27,0,42.4-.05,1.54,0,3.07-.2,4.61-.31-17.55-11.79-35.2-22.61-52.95-33.25-.86-.52-2.8.12-3.91.77C691.66,12,683.58,16.86,675.12,21.94Zm2955,22.93a30.67,30.67,0,0,0-4.22-.78q-24.21-.06-48.42,0a7.74,7.74,0,0,0-3.77.92c-7.75,4.58-15.41,9.33-23.16,13.92-2.67,1.58-2.79,2.94-.16,4.59,4.32,2.7,8.93,5.06,12.89,8.22,7.46,5.94,13.89,6,22.14.37C3599.55,62.44,3614.64,54.21,3630.16,44.87Zm126.31-4.93c.07-.39.13-.78.2-1.17a23.64,23.64,0,0,0-2.29-1.84c-16.64-10.11-33.28-20.23-50-30.21a4.8,4.8,0,0,0-4.12,0c-8.23,4.91-16.34,10.05-24.71,15.26a13.88,13.88,0,0,0,2.43,2.74c7.12,4.36,14.19,8.83,21.53,12.79a20.91,20.91,0,0,0,9.21,2.36c13.83.24,27.66.09,41.49.08Zm-3190.4,5a16.88,16.88,0,0,0-3.17-.81q-25-.06-49.93,0a6.65,6.65,0,0,0-3.26.94C502,49.63,494.3,54.35,486.55,59c-2.69,1.6-2.71,3-.08,4.59,4.34,2.68,8.95,5,12.9,8.22,7.47,6,13.9,6,22.12.34C535.59,62.44,550.65,54.21,566.07,44.92Zm45.49-23.13c.9,1.24,1.3,2.31,2.07,2.77,7.59,4.54,15.17,9.11,22.91,13.37a16.24,16.24,0,0,0,7.3,2c14.66.18,29.33.1,44,.08,1.58,0,3.15-.2,5.75-.37a34.93,34.93,0,0,0-2.93-2.39C673.88,27,657.13,16.73,640.27,6.66c-1-.6-3.15-.13-4.35.56C627.85,11.9,619.89,16.77,611.56,21.79ZM1458.38,40l.57-1.29c-.41-.24-.83-.47-1.24-.72-17.17-10.5-34.33-21-51.58-31.41-1-.57-3-.23-4,.41-8.15,4.81-16.18,9.81-24.92,15.16,2.26,1.69,4,3.16,5.95,4.43C1403.37,40,1403.38,40,1428,40h30.36Zm1532.93,0c-.85-1.26-1-1.62-1.21-1.77-17.31-10.6-34.62-21.22-52-31.71a4.35,4.35,0,0,0-3.74.11c-8.23,5-16.35,10.1-25.17,15.61,2.15,1.5,3.89,2.77,5.68,4C2935.64,40,2935.64,40,2960.57,40h30.74ZM1332.74,44.6c-3.25-.27-5-.52-6.7-.53-14.64,0-29.29-.16-43.93.07a19.57,19.57,0,0,0-8.81,2.38c-6.86,3.79-13.31,8.35-20.19,12.12-4.13,2.26-2.91,3.61.05,5.39,7.14,4.3,14.22,8.68,21.46,12.81a5,5,0,0,0,4.21-.09C1296.39,66.39,1313.85,55.9,1332.74,44.6Zm892.84-5a33.41,33.41,0,0,0-2.93-2.38q-25.14-15.34-50.36-30.58a4.33,4.33,0,0,0-3.73-.14c-8.34,5-16.57,10.24-24.9,15.44.8,1.1,1.2,2.17,2,2.63,7.59,4.54,15.16,9.11,22.91,13.37a16.2,16.2,0,0,0,7.3,2c14.66.18,29.33.1,44,.08C2221.41,40,2223,39.76,2225.58,39.59Zm-127.45,5.3a28.57,28.57,0,0,0-4.17-.8c-16.14,0-32.28-.07-48.42,0a8.76,8.76,0,0,0-4.16,1.21c-7.47,4.42-14.75,9.16-22.33,13.37-3.57,2-3.2,3.25-.23,5.09,4.34,2.68,9,5,12.94,8.15,7.38,5.94,13.67,5.64,21.67.19C2067.57,62.48,2082.64,54.22,2098.13,44.89Zm766.27,0a30.18,30.18,0,0,0-4.1-.77c-16.31,0-32.61-.07-48.92,0a8.73,8.73,0,0,0-4.12,1.31c-7.47,4.41-14.79,9.08-22.34,13.36-3.62,2-2.83,3.38,0,5.1,7.27,4.4,14.48,8.91,21.84,13.13,1,.58,3.07.24,4.2-.42C2828.43,66.32,2845.81,55.93,2864.4,44.86Zm-1022,.11a26,26,0,0,0-4.11-.88q-24-.08-47.95,0a7.84,7.84,0,0,0-3.77.88c-7.88,4.61-15.67,9.37-23.51,14-2.71,1.61-2.69,2.94.05,4.58,5.61,3.34,11.25,6.67,16.66,10.32,4.93,3.32,9.43,5.18,14.56.21,2-2,5-2.91,7.46-4.42C1815.1,61.64,1828.35,53.56,1842.44,45Zm-765.87-.06a29.6,29.6,0,0,0-4.34-.82q-24-.06-48,0a7.73,7.73,0,0,0-3.76.93c-7.72,4.56-15.33,9.3-23.06,13.85-2.8,1.64-3.44,2.85-.22,4.76,7.43,4.41,14.7,9.08,22.18,13.39,1,.6,3.09.25,4.26-.4,6.55-3.67,13-7.52,19.44-11.39C1054,58.69,1064.78,52.08,1076.57,44.91Zm2088.22-23c1.05,1.21,1.62,2.29,2.52,2.83,7.59,4.53,15.2,9.06,22.92,13.36a14,14,0,0,0,6.36,1.81c15.14.16,30.28.1,45.43.07,1.5,0,3-.24,5.85-.48-18.84-11.36-36.32-22-53.9-32.39a5.52,5.52,0,0,0-4.7,0C3181.19,11.8,3173.27,16.74,3164.79,21.89Zm-766,0c1,1.19,1.61,2.29,2.51,2.83,7.6,4.53,15.2,9.05,22.93,13.36a13.92,13.92,0,0,0,6.35,1.81c15.14.16,30.29.1,45.43.07,1.5,0,3-.24,5.87-.48-18.84-11.36-36.32-22-53.91-32.39a5.56,5.56,0,0,0-4.7,0C2415.2,11.8,2407.27,16.73,2398.79,21.89Zm-2088,22.94A29.26,29.26,0,0,0,307,44.1q-24.48-.06-48.95,0a7.75,7.75,0,0,0-3.7,1.08c-7.58,4.48-15,9.2-22.66,13.56-3.29,1.87-3.61,3-.18,5,7.31,4.29,14.47,8.84,21.79,13.11a4.6,4.6,0,0,0,3.9.26C274.67,66.7,292.1,56.13,310.79,44.83Zm3064,0a27.61,27.61,0,0,0-3.81-.74q-24.46-.06-48.94,0a7.85,7.85,0,0,0-3.71,1.07c-7.58,4.48-15,9.2-22.65,13.56-3.27,1.86-3.67,3-.21,5,7.43,4.39,14.7,9.07,22.13,13.46a4.17,4.17,0,0,0,3.57-.06C3338.66,66.7,3356.09,56.14,3374.78,44.84Zm-766,0a27.3,27.3,0,0,0-3.8-.74q-24.46-.06-48.94,0a7.85,7.85,0,0,0-3.71,1.07c-7.57,4.48-15,9.2-22.65,13.56-3.26,1.86-3.68,3-.22,5,7.44,4.39,14.71,9.07,22.14,13.46a4.17,4.17,0,0,0,3.57-.06C2572.66,66.71,2590.08,56.14,2608.77,44.84ZM948.24,40l.33-1.17C931,28.09,913.41,17.34,895.76,6.73a4.75,4.75,0,0,0-4.1,0c-8.26,4.91-16.39,10.05-24.77,15.24.87,1.07,1.4,2.2,2.29,2.74,7.13,4.36,14.22,8.81,21.56,12.77A21.46,21.46,0,0,0,900,39.86c10.65.29,21.31.11,32,.11Zm684.58-18.09c1,1.17,1.55,2.29,2.45,2.83,7.59,4.53,15.19,9.07,22.93,13.34a15,15,0,0,0,6.84,1.84c14.81.16,29.62.1,44.43.07,1.69,0,3.37-.22,6.28-.42-18.81-11.48-36.36-22.24-54-32.83-1.06-.63-3.25-.32-4.44.38C1649.23,11.79,1641.31,16.72,1632.82,21.88Zm-1532-.06c1,1.19,1.51,2.32,2.4,2.87,7.13,4.35,14.21,8.81,21.55,12.77a20.89,20.89,0,0,0,9.22,2.4c14.47.25,28.95.13,43.43.1,1.71,0,3.43-.22,5.14-.33-17-11.22-34.17-21.4-51.19-31.83-2.73-1.68-4.44-1.94-7.29-.06C116.69,12.61,109,16.94,100.8,21.82Zm1678.12,23a32.27,32.27,0,0,0-4.58-.76c-16,0-31.93-.07-47.89,0a9.68,9.68,0,0,0-4.6,1.42c-7.18,4.21-14.21,8.68-21.43,12.82-3.43,2-4.11,3.52-.37,5.77,7.25,4.38,14.41,8.9,21.7,13.18a4.18,4.18,0,0,0,3.57-.14C1742.94,66.62,1760.49,56,1778.92,44.83ZM1013,44.76a28.26,28.26,0,0,0-3.63-.68c-16.46,0-32.93-.06-49.39,0a8.79,8.79,0,0,0-4.11,1.38q-10.75,6.34-21.39,12.89c-3.9,2.39-4,3.62-.1,6,7,4.39,14.14,8.7,21.32,12.87a4.18,4.18,0,0,0,3.57-.09C976.91,66.64,994.47,56,1013,44.76ZM1587.3,45a24.34,24.34,0,0,0-4.1-.87q-24.24-.08-48.48,0a7.74,7.74,0,0,0-3.72,1c-7.74,4.56-15.39,9.29-23.14,13.84-2.78,1.62-2.81,2.91-.1,4.54,7.44,4.48,14.8,9.08,22.31,13.44a4.59,4.59,0,0,0,3.9,0C1551.52,66.52,1569,56,1587.3,45Zm957.41,0a20.54,20.54,0,0,0-3.83-.86c-16.3,0-32.6-.06-48.89,0a8.69,8.69,0,0,0-4.11,1.39q-10.76,6.34-21.39,12.89c-3.89,2.38-3.94,3.62-.09,6Q2477,71,2487.72,77.27a4.18,4.18,0,0,0,3.57-.09C2508.92,66.64,2526.48,56,2544.71,44.94ZM821.2,45.11a12,12,0,0,0-2.46-.93c-16.82-.06-33.65-.12-50.47-.09a6.63,6.63,0,0,0-3.23,1c-7.74,4.58-15.39,9.31-23.15,13.85-2.72,1.6-2.92,2.88-.16,4.54,7.43,4.48,14.79,9.09,22.32,13.41a5,5,0,0,0,4.22-.3C785.73,66.32,803.1,55.91,821.2,45.11Zm2489.89-.32a27.7,27.7,0,0,0-3.67-.7c-16.46,0-32.92-.07-49.39,0a8.76,8.76,0,0,0-4.11,1.36q-10.76,6.35-21.39,12.88c-3.92,2.41-4,3.63-.16,6,7.05,4.39,14.14,8.71,21.33,12.85a4.69,4.69,0,0,0,3.91-.37C3275.13,66.44,3292.59,55.92,3311.09,44.79Zm-957.35,0a43.42,43.42,0,0,0-4.81-.71c-16,0-32-.07-48,0a8.75,8.75,0,0,0-4.16,1.2c-7.61,4.48-15.11,9.14-22.71,13.62-2.89,1.7-3.28,2.92-.08,4.77,7.24,4.18,14.29,8.68,21.57,12.76a5.9,5.9,0,0,0,5,0C2317.88,66.25,2335.11,55.91,2353.74,44.8ZM247.32,44.73a51.71,51.71,0,0,0-5.24-.67c-15.8,0-31.6-.06-47.4,0a9.73,9.73,0,0,0-4.63,1.3c-7.19,4.19-14.3,8.52-21.41,12.86-4.15,2.53-4.2,3.84,0,6.36,6.71,4,13.47,8,20.34,11.74a5.85,5.85,0,0,0,4.85.19C211.27,66.32,228.61,55.91,247.32,44.73Zm2871,.89c-.06-.42-.11-.83-.16-1.25-1.75-.11-3.5-.3-5.25-.31-14.67,0-29.33-.13-44,.08a17.19,17.19,0,0,0-7.87,2.18c-7.12,4-14,8.44-21,12.58-2.88,1.69-3.34,2.9-.11,4.77,7.23,4.18,14.28,8.68,21.56,12.76a5.9,5.9,0,0,0,5,0C3083.86,66.26,3101.1,55.92,3118.36,45.62ZM1203.33,40c.09-.37.19-.74.28-1.12a26.31,26.31,0,0,0-2.32-1.77q-25.15-15.27-50.35-30.44a4.34,4.34,0,0,0-3.7-.18c-8.32,5-16.52,10.27-24.89,15.52.91,1.15,1.37,2.17,2.16,2.64,6.47,3.86,13.23,7.29,19.43,11.53a22.62,22.62,0,0,0,14.18,3.9c10.8-.27,21.61-.08,32.42-.08ZM437.4,39.68l.19-1C420,27.94,402.49,17.18,384.87,6.56a4.27,4.27,0,0,0-3.71,0c-8.23,5-16.35,10.12-24.83,15.42.85,1,1.39,2.16,2.29,2.7,6.3,3.83,12.84,7.28,19,11.35a24.16,24.16,0,0,0,14.64,4.07c13.45-.3,26.93-.09,40.39-.11C434.22,40,435.81,39.78,437.4,39.68ZM2654.15,21.86c1.2,1.3,1.82,2.35,2.74,2.91,6.82,4.21,13.57,8.56,20.62,12.34a23.16,23.16,0,0,0,10,2.74c14.46.29,28.93.14,43.39.12,1.55,0,3.09-.23,5.52-.41-1.71-1.36-2.53-2.16-3.48-2.74-16.64-10.07-33.27-20.16-50-30.07-1-.6-3.11-.23-4.26.44C2670.63,11.86,2662.67,16.74,2654.15,21.86ZM1970.05,39.6a10.1,10.1,0,0,0-1.34-1.49c-17.28-10.58-34.55-21.18-51.91-31.64a4.32,4.32,0,0,0-3.71.15c-8.22,5-16.34,10.08-24.78,15.33.93,1.09,1.5,2.2,2.41,2.75,6.46,3.87,13.24,7.26,19.43,11.53,4.31,3,8.63,3.89,13.7,3.81,13.63-.21,27.26,0,40.89-.08C1966.32,40,1967.89,39.75,1970.05,39.6ZM3501.36,40l.26-1.27C3484.06,28,3466.51,17.2,3448.88,6.6a4.75,4.75,0,0,0-4,.31c-8.15,4.81-16.19,9.81-24.59,15,.87,1.1,1.39,2.25,2.28,2.78,6.47,3.88,13.25,7.27,19.43,11.54,4.46,3.09,9,4,14.19,3.86,12.8-.23,25.6-.08,38.4-.09Zm-2298,5.46-.21-1c-1.56-.12-3.13-.33-4.69-.33-13.3,0-26.62.17-39.92-.14-5.67-.12-10.56.94-15.32,4.19-5.92,4-12.32,7.34-18.44,11.08-.93.57-1.45,1.83-2.37,3,8.56,5.1,16.5,9.93,24.56,14.54a4.9,4.9,0,0,0,4.12,0c9.23-5.26,18.38-10.67,27.48-16.14C1186.86,55.62,1195.08,50.48,1203.34,45.41Zm2298,0-.21-1c-1.56-.12-3.12-.33-4.68-.33-13.31,0-26.62.17-39.92-.14-5.67-.12-10.56.93-15.33,4.19-5.91,4-12.32,7.33-18.43,11.08-.94.57-1.46,1.82-2.38,3,8.55,5.1,16.49,9.93,24.56,14.54a4.92,4.92,0,0,0,4.11,0q13.84-7.91,27.49-16.15C3484.86,55.62,3493.08,50.48,3501.34,45.41ZM2654.31,62c8.75,5.38,16.87,10.47,25.14,15.33.84.5,2.72-.13,3.81-.77,11.65-6.83,23.25-13.77,34.84-20.7,5.78-3.45,11.52-7,18.37-11.11a32.65,32.65,0,0,0-3.8-.69c-16.14,0-32.27,0-48.41,0a8.54,8.54,0,0,0-4.09,1.25Q2668.5,52.14,2657,59.14C2656,59.73,2655.36,60.86,2654.31,62Zm-766.76-1.73c.44.72.89,1.44,1.34,2.16,8.07,4.9,16.1,9.88,24.27,14.6,1,.56,3,.14,4.15-.53,11.67-6.81,23.26-13.76,34.85-20.7,5.76-3.44,11.48-6.93,17.21-10.4a9.42,9.42,0,0,0-5.28-1.35c-14.31,0-28.62-.16-42.92.09a21.09,21.09,0,0,0-9.25,2.46c-7.17,3.89-14,8.33-21.07,12.48A19,19,0,0,1,1887.55,60.29ZM356.31,62c8.75,5.38,16.87,10.48,25.14,15.33.84.5,2.72-.13,3.81-.77,11.65-6.83,23.25-13.77,34.84-20.7,5.78-3.45,11.52-7,18.37-11.11a32.65,32.65,0,0,0-3.8-.69c-16.14,0-32.27,0-48.41,0a8.54,8.54,0,0,0-4.09,1.25Q370.5,52.14,359,59.14C358,59.73,357.36,60.86,356.31,62ZM1714,45.57l-.18-1.08a36.78,36.78,0,0,0-3.77-.4c-15.47,0-30.94-.08-46.42,0a11.8,11.8,0,0,0-5.5,1.64c-7.51,4.32-14.87,8.89-22.36,13.24-2.62,1.53-3,2.84-.28,4.54,7.49,4.6,14.94,9.27,22.51,13.74a4.2,4.2,0,0,0,3.55-.24C1679.09,66.62,1696.55,56.08,1714,45.57Zm-1531-.66a19.22,19.22,0,0,0-3.12-.81q-24.72,0-49.42,0a7.76,7.76,0,0,0-3.68,1.13c-7.75,4.56-15.43,9.24-23.17,13.83-2.66,1.57-2.8,2.91,0,4.56,4.36,2.63,9,5,12.87,8.19,7.53,6.24,14.06,5.59,22.1.2C152.67,62.56,167.55,54.26,183.05,44.91Zm765.94,0a25.8,25.8,0,0,0-4.14-.83c-16,0-31.94-.07-47.91,0a8.74,8.74,0,0,0-4.16,1.19c-7.77,4.54-15.46,9.2-23.18,13.81-2.67,1.6-2.67,3,.07,4.59,4.38,2.59,9,4.92,12.88,8.16,7.55,6.34,14.11,5.48,22.09.13C918.75,62.55,933.6,54.23,949,44.93Zm2298,0a27.32,27.32,0,0,0-4.2-.8q-24-.06-47.91,0a7.81,7.81,0,0,0-3.76.92c-7.9,4.64-15.73,9.4-23.58,14.11-2.71,1.62-2.56,3,.14,4.6,4.38,2.58,9,4.94,12.89,8.14,7.54,6.17,14.65,6.31,22,0a23.76,23.76,0,0,1,3.33-2Zm-766.93.58-.34-1.42H2475c-13.65,0-27.29.12-40.93-.09a21.82,21.82,0,0,0-13.47,3.77c-5.9,4.06-12.15,7.64-18.43,11.11-3.4,1.89-3.22,3.24-.15,5.08,7.26,4.36,14.46,8.82,21.77,13.09a4.21,4.21,0,0,0,3.53.28C2444.92,66.77,2462.49,56.11,2480.08,45.48Zm1276.33.14c-.09-.42-.17-.84-.25-1.26-1.59-.1-3.17-.29-4.76-.29-11.65,0-23.33.35-35-.16-8.74-.38-16.5,1-23.6,6.54-4.35,3.36-9.42,5.81-14.23,8.56-2.74,1.57-3.52,2.8-.21,4.72A188.43,188.43,0,0,1,3695,74c5.11,3.7,9.59,4.22,14.57,0,2.06-1.73,4.67-2.81,7-4.22Zm-3063.84,0-.33-1.18c-1.58-.11-3.15-.32-4.73-.33-14.32,0-28.65-.16-43,.09a21,21,0,0,0-9.28,2.44c-7.17,3.88-14,8.31-21,12.53-2.54,1.54-2.86,2.83.07,4.55,7.44,4.37,14.69,9.06,22.16,13.38,1,.58,3.08.17,4.23-.5,10.55-6.18,21-12.52,31.48-18.8Q682.36,51.66,692.57,45.58Zm1533-.61a21.18,21.18,0,0,0-3.49-.87q-24.48-.06-49,0a7.82,7.82,0,0,0-3.62,1.25c-7.76,4.54-15.47,9.16-23.19,13.75-2.52,1.5-3,2.79,0,4.53,7.56,4.5,14.95,9.27,22.54,13.7.87.51,2.77-.08,3.87-.72,10.53-6.2,21-12.53,31.47-18.81Zm-765.9-.06a35.17,35.17,0,0,0-4.54-.82c-15.83,0-31.65-.08-47.47,0a9.74,9.74,0,0,0-4.53,1.52c-7.48,4.37-14.81,9-22.35,13.26-3.26,1.86-3.43,3-.13,5,7.29,4.3,14.42,8.88,21.75,13.11a5.09,5.09,0,0,0,4.22-.33c10.55-6.17,21-12.5,31.49-18.79Zm1530.73.73c-.07-.42-.13-.85-.2-1.27-1.58-.1-3.17-.29-4.76-.3-11.32,0-22.67.37-34-.16-9.23-.43-17.54.83-25.07,6.7-4.22,3.28-9.12,5.68-13.76,8.4-2.57,1.5-3.76,2.71-.26,4.71C2918,67,2923.69,70.23,2929,74c5.07,3.63,9.57,4.35,14.57,0,2-1.75,4.66-2.81,7-4.22Z"/></g></g></svg>