<svg xmlns="http://www.w3.org/2000/svg" viewBox="0 0 3830 44.53"><g id="Camada_2" data-name="Camada 2"><g id="Camada_1-2" data-name="Camada 1"><path d="M3830,37.53c-8.38,1.25-14.59-3.75-21.07-7.62-13.78-8.21-27.2-17.06-41.16-24.93-6.62-3.74-14.05-6.07-22.09-3.76-4.72,1.35-8,4.14-9.2,8.69-1.31,5.21-1.93,11.08,2.93,14.72,2.37,1.78,6.38,1.41,9.68,1.8.09,0,1.11-2.84.6-3.74-1.19-2.11-4.23-3.41-1.19-6.48,2.7-2.73,5.12-2.14,7.9-.37,3.54,2.27,5.46,5.49,4.65,9.56-1.73,8.74-4.64,11.15-10.79,12.26-11.51,2.08-20.5-3.89-29.6-9.6-12.59-7.89-25.07-16-38.07-23.21-6.62-3.65-14.11-6-22.14-3.61-4.91,1.46-8.28,4.43-9.19,9.27-1,5.39-1.7,11.46,3.87,14.84,2.45,1.49,6.23.78,9.42,1.07.06-1.26.59-2.76.09-3.72-1.12-2.12-4.09-3.43-1.13-6.54,2.59-2.73,4.86-2,7.44-.52,4.51,2.63,5.73,6.49,4.55,11.47-1.56,6.56-4.66,9.7-10.1,10.6-11.56,1.9-20.55-3.81-29.65-9.49-12.61-7.88-25.09-16-38.05-23.29-6.63-3.71-14.07-5.9-22.13-3.75-4.8,1.29-8.27,4.13-9.22,8.56-1.14,5.37-2.32,11.74,3.41,15.35,2.53,1.59,6.48.92,9.78,1.28,0-1.25.54-2.78,0-3.69-1.27-2.15-4-3.65-1-6.62,2.6-2.61,4.87-1.87,7.5-.33,4.35,2.54,5.67,6.28,4.63,11-1.47,6.72-4.89,10.05-10.36,11-11.57,1.92-20.56-3.83-29.65-9.5-12.61-7.86-25.06-16-38-23.31-6.66-3.75-14.15-5.84-22.2-3.69-4.73,1.26-8.33,4-9.17,8.5-1,5.52-2.29,12,3.71,15.68,2.45,1.5,6.24.79,9.42,1.08,0-1.33.39-2.83-.09-4-.87-2.05-4.19-4-.82-6.06,1.84-1.14,4.94-1.72,6.87-1,4.54,1.75,6.28,6.21,5.27,11.12-1.41,6.92-5,10.27-10.78,11.17-11.39,1.75-20.22-3.89-29.18-9.48-12.62-7.88-25.12-16-38.07-23.32-6.68-3.77-14.17-5.89-22.21-3.74-4.74,1.26-8.24,4.1-9.19,8.53-1.18,5.55-2.16,12,3.8,15.64,2.43,1.48,6.22.73,9.39,1,.05-1.26.62-2.85.06-3.7-1.43-2.18-3.84-3.82-.95-6.68,2.58-2.56,5-1.85,7.59-.24,4.22,2.63,5.49,6.52,4.46,11.18-1.44,6.51-5.16,10-10.55,10.8-11.35,1.76-20.25-3.71-29.21-9.32-12.76-8-25.41-16.15-38.5-23.56-6.53-3.7-13.87-5.59-21.76-3.71-4.87,1.16-8.25,4.13-9.24,8.41-1.23,5.3-2.43,11.65,3.2,15.35,2.49,1.63,6.4,1.09,9.67,1.54.14-1.27.87-3,.31-3.72-1.67-2.15-3.81-3.84-1.08-6.69,2.5-2.61,5-1.92,7.57-.31a9.72,9.72,0,0,1,4.69,10.64c-1.13,6.47-5.21,10.49-10.58,11.34-10.33,1.65-18.82-2.66-27.1-7.91-12.06-7.65-23.89-15.7-36.33-22.64A62.9,62.9,0,0,0,3241.33.43a13.28,13.28,0,0,0-13.61,6c-3.26,5.12-2.93,10.55-.87,15.7a7.46,7.46,0,0,0,8.75,4.77,25.83,25.83,0,0,0,4.74-1.91,20.37,20.37,0,0,1-2-3.43c-.52-1.43-1.41-3.55-.8-4.37a7.27,7.27,0,0,1,4.76-2.7c3.75-.25,7.76,4.08,8.43,8.41.92,5.86-4.07,13.65-9.75,14.55-6.77,1.06-13.54.86-19.62-2.89Q3201.14,22.08,3181,9.39A66.69,66.69,0,0,0,3156.34.14c-4.62-.79-11.66,2.66-14.28,7s-2.29,12,.28,16.07,6.44,4.3,10.42,3.39c.82-.18,1.93-3.36,1.6-3.65-2.88-2.49-4-4.91-.61-7.7,2.35-1.94,7.46-.5,9.75,2.57,3.46,4.63,2.5,9.79,0,13.89-1.7,2.77-5.61,5.09-8.92,5.81-11.24,2.43-20.19-3.57-29.16-9.14-12.8-7.95-25.45-16.2-38.6-23.53-6.63-3.7-14.15-6-22.15-3.58-4.82,1.44-8.14,4.35-9.2,9.26-1.14,5.34-1.56,11.07,3.56,14.5,2.38,1.6,6.15,1.1,9.29,1.55.19-1.34,1-3,.44-4-1.25-2.2-3.77-3.81-.83-6.64,2.62-2.51,4.9-1.76,7.54-.18a9.43,9.43,0,0,1,4.92,9.53c-.95,7.24-5.26,11.5-10.75,12.39-11.53,1.87-20.56-3.79-29.65-9.47-12.77-8-25.34-16.3-38.5-23.55-6.61-3.64-14.21-6-22.21-3.39-4.79,1.57-8.07,4.58-9,9.51-1,5.32-1.42,11.12,3.83,14.42,2.43,1.52,6.29,1.45,9.35,1,2-.29,2.07-2.11.14-4-1.2-1.17-2-4.18-1.31-5.6,1.44-3,4.51-2.94,7.26-1.45,3.77,2,6.19,5.31,5.66,9.62-1,7.74-5,12-10.84,12.89-11.56,1.8-20.53-3.94-29.63-9.63-12.61-7.89-25.09-16-38.08-23.21-6.62-3.67-14.06-6-22.13-3.69-4.77,1.38-8.13,4.25-9.12,8.75-1.16,5.29-2.12,11.44,3.33,15,2.51,1.64,6.46,1.06,9.76,1.49.11-1.25.77-2.9.21-3.69-1.58-2.26-4.45-4.54-.77-6.69,1.86-1.09,5.27-1,7.31,0,4.77,2.26,5.36,6.63,4.17,11.49-1.51,6.17-4.64,9.28-9.93,10.17-11.55,1.92-20.56-3.76-29.66-9.44-12.62-7.87-25.12-16-38.06-23.29-6.8-3.84-14.43-6-22.59-3.68-4.7,1.36-8.07,4.28-8.92,8.86-1,5.46-2,11.74,3.81,15.25,2.44,1.49,6.24.73,9.43,1,.07-1.25.66-2.81.13-3.7-1.28-2.12-4.07-3.55-1.13-6.58,2.56-2.65,4.84-2,7.48-.43,4.32,2.53,5.75,6.23,4.72,11-1.51,6.93-5,10.18-10.82,11.09-11.41,1.79-20.22-4-29.16-9.51-12.64-7.83-25.09-16-38-23.3-6.67-3.79-14.14-5.82-22.17-3.75-4.76,1.22-8.39,4-9.23,8.44-1,5.31-2.46,11.7,3.29,15.35,2.55,1.62,6.46,1.07,9.76,1.51,0-1.33.47-2.82,0-3.94-.82-2-3.86-3.36-1.08-6.27,2.47-2.57,4.81-2.33,7.5-.75q6.46,3.8,4.74,11.46c-1.49,6.62-5,9.9-10.6,10.75-11.36,1.73-20.24-3.8-29.19-9.42-12.75-8-25.31-16.35-38.45-23.63-6.48-3.59-13.92-5.67-21.83-3.51-4.75,1.29-8.25,4.11-9.22,8.49-1.23,5.53-2.21,12,3.73,15.66,2.42,1.49,6.2.78,9.36,1.08.1-1.26.75-2.88.19-3.7-1.45-2.15-3.92-3.74-1.06-6.66,2.55-2.59,5-1.93,7.58-.33,4.24,2.61,5.54,6.49,4.54,11.15-1.39,6.47-5.17,10-10.5,10.86-10.15,1.57-18.57-2.53-26.73-7.7-12.17-7.72-24.08-15.92-36.65-22.92A62.26,62.26,0,0,0,2559.88.36c-5.44-.79-10.91,1.77-14,7.35-2,3.66-1.43,12,.82,15.58,1.83,2.9,4.26,4.09,7.42,3.66a27.71,27.71,0,0,0,5.33-1.81,23.14,23.14,0,0,1-2.12-3.86c-.47-1.4-1.16-3.43-.53-4.34a6.57,6.57,0,0,1,4.42-2.43c3.78-.29,8,3.87,8.46,8.32.58,6-2.79,14.08-11.55,15-10,1.08-18.15-3-26.12-8-12.2-7.71-24.11-15.95-36.7-23A58.14,58.14,0,0,0,2474.92.38a13.45,13.45,0,0,0-14,7.27c-2.09,3.93-1.59,11.85.68,15.62,2.07,3.44,5,4.05,8.41,3.63,1.48-.18,2.86-1.17,4.28-1.8a23.66,23.66,0,0,1-1.91-3.43c-.52-1.44-1.47-3.55-.86-4.38a7.25,7.25,0,0,1,4.72-2.76c3.75-.29,8.09,4,8.42,8.35.45,6.16-2.86,13.94-11.57,15-11.2,1.32-19.85-4.06-28.66-9.53-12.8-8-25.46-16.24-38.63-23.56-6.64-3.69-14.23-5.85-22.19-3.45-4.81,1.45-8,4.46-9,9.4-1,5.51-1.37,11.36,4.1,14.74,2.3,1.42,5.9.84,8.92.86.28,0,1.18-3,.76-3.35-3.34-2.64-4-5.27-.34-8,2.36-1.76,7.6.16,9.6,3.17,4.87,7.27-.69,18.76-9.52,19.7-11.24,1.2-19.91-4-28.73-9.47-12.82-7.92-25.47-16.16-38.6-23.53-6.65-3.73-14.14-5.93-22.14-3.64-4.88,1.39-8.14,4.34-9.25,9.21-1.21,5.34-1.57,11.06,3.49,14.53,2.35,1.61,6.13,1.25,9.28,1.44.3,0,1.42-3.2,1-3.5-3.31-2.62-4-5.24-.4-8,2.33-1.77,7.94.52,9.86,3.71,4.55,7.56-1.89,18.5-10,19.26-11.24,1-19.88-4.22-28.68-9.66-12.79-7.92-25.36-16.27-38.51-23.54-6.61-3.66-14.18-6-22.19-3.46-4.83,1.54-8.1,4.57-9,9.46-1,5.3-1.5,11.11,3.76,14.44,2.42,1.54,6.27,1.49,9.34,1.1,2-.26,2.29-2.13.2-3.9-1.67-1.42-4.33-3.77-1-5.88,1.84-1.19,4.95-1.87,6.89-1.15a8.74,8.74,0,0,1,5.79,9.43c-.84,7.63-5,12-10.79,12.95-11.54,1.8-20.54-3.88-29.65-9.57-12.6-7.89-25.11-16-38.08-23.22-6.8-3.81-14.43-6.11-22.59-3.62-4.88,1.5-8.06,4.67-8.91,9.54-1,5.46-1.36,11.43,4.18,14.76,2.34,1.4,6.09,1.18,9,.66,2.17-.39,2.06-2.13.14-3.9-1.52-1.41-4.41-3.8-.95-5.91,1.85-1.13,4.91-1.78,6.8-1,4.6,1.78,6.27,6.07,5.26,11.06-1.45,7.21-4.7,10.36-10.59,11.28-11.39,1.77-20.23-3.9-29.17-9.46-12.76-7.95-25.27-16.35-38.41-23.61-6.6-3.64-14.23-5.76-22.23-3.42-4.7,1.37-8.1,4.25-9,8.81-1,5.46-2,11.72,3.75,15.27,2.42,1.5,6.22.81,9.41.92.08,0,.77-2.67.25-3.54-1.26-2.11-4.14-3.46-1.24-6.55,2.54-2.7,4.82-2,7.47-.53,4.33,2.49,5.79,6.2,4.79,11-1.45,6.87-5.05,10.24-10.75,11.15-11.41,1.82-20.23-3.92-29.19-9.46-12.64-7.82-25.09-16-38-23.29-6.66-3.78-14.1-5.87-22.15-3.82-4.78,1.22-8.41,3.94-9.28,8.4-1,5.3-2.51,11.73,3.23,15.35,2.64,1.67,6.75,1,10.2,1.42-.08-1.26.17-2.67-.31-3.75-.9-2-3.92-3.31-1.2-6.26,2.43-2.64,4.79-2.39,7.49-.84,4.33,2.49,6,6.35,4.82,11.43-1.48,6.65-5,9.93-10.55,10.82-11.38,1.79-20.26-3.78-29.21-9.38-12.76-8-25.31-16.33-38.45-23.63-6.47-3.59-13.89-5.71-21.81-3.56-4.74,1.28-8.29,4-9.28,8.43-1.24,5.52-2.23,12,3.67,15.67,2.41,1.51,6.19.88,9.35,1,.09,0,.85-2.73.32-3.54-1.42-2.14-4-3.66-1.17-6.63,2.51-2.64,4.93-2,7.56-.43,4.26,2.58,5.59,6.45,4.62,11.12-1.34,6.44-5.16,10.08-10.45,10.92-10.15,1.62-18.58-2.5-26.74-7.65-12.2-7.69-24.09-15.9-36.67-22.9-6.28-3.5-13.68-5.22-20.77-7-4.87-1.2-12.5,3-14.21,7.84-1.81,5.11-2.32,10.61,1.15,15.62,2.77,4,6.71,3.85,10.63,2.91,2.27-.55,3.49-1.95.79-4.16-1.89-1.55-4-4.11-.9-6.07a8.65,8.65,0,0,1,6.91-.76c4.52,1.82,6.11,5.93,5.34,10.65-1.08,6.65-5.3,10.68-11,11.52-10.15,1.5-18.47-2.79-26.63-7.86C1752.43,21.43,1739,12.61,1725,4.74c-6.64-3.74-14.28-5.81-22.26-3.41-4.83,1.46-8,4.69-8.84,9.48-1,5.61-1.18,11.66,4.37,15.12,2.17,1.35,5.84,1,8.62.4,2-.4,2.27-2,.34-4-1.19-1.22-.91-3.87-1.29-5.87,2.36-.43,5-1.77,7-1.1,4.24,1.39,6.58,6.71,5.71,11-1.35,6.65-5.35,10.59-11,11.45-11.34,1.73-20.21-3.77-29.17-9.37-12.79-8-25.48-16.2-38.63-23.57-6.83-3.83-14.6-5.95-22.66-3.38-4.72,1.5-7.84,4.67-8.65,9.7-.91,5.61-1,11.35,4.46,14.66,2.2,1.34,5.69.68,8.58.56.38,0,1.29-3.05.91-3.35-3.32-2.58-4.08-5.19-.47-7.94,2.36-1.8,7.58,0,9.63,3.07,4.9,7.23-.57,18.78-9.42,19.74-11.42,1.25-20.18-4.14-29.14-9.71-12.66-7.87-25.22-15.93-38.21-23.23-6.66-3.74-14.11-5.95-22.12-3.69-4.89,1.38-8.18,4.29-9.3,9.15-1.23,5.33-1.63,11.06,3.41,14.56,2.34,1.63,6.12,1.24,9.28,1.5.16,0,1.18-2.86.68-3.76-1.21-2.17-4-3.65-1-6.59,2.76-2.77,5.16-1.87,7.91-.1,3.62,2.32,5.32,5.87,4.58,9.67-1.51,7.73-5.36,11.23-11,12.09-11.55,1.74-20.5-4-29.58-9.72-12.61-7.91-25.11-16-38.12-23.25-6.63-3.67-14.16-6-22.16-3.5-4.83,1.51-8.15,4.5-9.11,9.39-1,5.29-1.54,11.11,3.69,14.46,2.41,1.55,6.24,1.51,9.33,1.18,2-.21,2.38-2,.32-3.89-1.61-1.43-4-3.15-1.32-6.08,2.43-2.63,4.81-2.44,7.49-.9,3.73,2.16,6.16,5.4,5.29,9.75-1.62,8.14-3.88,11.27-11.12,12.51-11.34,2-20.2-3.91-29.15-9.51-12.74-8-25.27-16.33-38.44-23.53-6.59-3.6-14.21-5.86-22.22-3.36-4.88,1.52-8.11,4.62-9,9.49-1,5.44-1.42,11.43,4.12,14.78,2.34,1.41,6,.68,9,.92.05-1.32.46-2.77.05-3.93-.72-2-3.83-3.3-1-6.26,2.5-2.64,4.77-2.33,7.43-.79,4.47,2.58,5.89,6.39,4.76,11.39-1.55,6.85-4.73,9.94-10.43,10.85-11.39,1.81-20.24-3.85-29.19-9.41-12.77-7.93-25.27-16.34-38.42-23.59-6.59-3.64-14.17-5.86-22.2-3.5-4.71,1.38-8.15,4.22-9,8.76-1,5.43-2.1,11.73,3.67,15.29,2.44,1.5,6.3,1.38,9.37,1,2-.28,2.21-2.11.16-3.87-1.68-1.44-4.21-3.92-1-6a8.75,8.75,0,0,1,6.83-.92c4.53,1.76,6.31,5.71,5.47,10.54-1.22,7.06-5,10.77-10.82,11.69-11.6,1.83-20.52-4-29.59-9.71-12.59-7.89-25-16.12-38-23.32-6.65-3.69-14.27-5.65-22.28-3.45-5,1.38-9,5.51-9.28,10.69a40.13,40.13,0,0,0,.19,8c.82,5.57,8.94,9.39,13.51,6.32.56-.37.39-2.57-.1-3.62-.93-2-4-3.29-1.31-6.24s5.06-2.41,7.9-.66c4.25,2.63,5.51,6.41,4.48,11.13-1.46,6.68-4.93,10-10.5,10.88-11.56,1.81-20.53-3.89-29.62-9.62-12.59-7.94-25.06-16.11-38-23.34-6.5-3.61-13.88-5.68-21.8-3.62-4.77,1.25-8.32,4-9.33,8.38-1.27,5.51-2.25,12,3.61,15.69,2.4,1.52,6.25,1.46,9.3,1.05,2.14-.28,2.27-2.12.22-3.89-1.76-1.51-4.11-4-.9-6a8.83,8.83,0,0,1,6.92-.8c4.55,1.83,6.06,6,5.3,10.69-1,6.47-5.14,10.63-10.5,11.47-10.33,1.62-18.85-2.59-27.15-7.9-12-7.67-23.84-15.69-36.28-22.59-6.3-3.48-13.67-5.23-20.75-7C1023.16-1,1015.62,3.11,1013.8,8c-1.9,5.09-2.32,10.56,1.07,15.59,2.74,4.07,6.67,3.89,10.59,3,2.23-.5,3.59-1.87.92-4.13-1.88-1.58-4-4.06-1-6.07a8.56,8.56,0,0,1,6.9-.85c4.5,1.8,6.14,5.89,5.4,10.61-1,6.64-5.25,10.74-10.9,11.59-10.14,1.53-18.48-2.76-26.65-7.81C986.47,21.5,973,12.67,959,4.78,952.4,1,944.79-1,936.81,1.32c-4.85,1.43-8,4.64-8.9,9.42-1,5.59-1.26,11.66,4.31,15.13,2.17,1.35,5.8,1,8.6.49,2-.37,2.58-2.14.36-3.95-2-1.6-3.78-4.22-.85-6.12a8.67,8.67,0,0,1,7-.71c4.4,1.87,6.17,5.89,5.36,10.63-1.12,6.61-5.32,10.66-10.9,11.53-11.34,1.76-20.22-3.74-29.18-9.33-12.81-8-25.49-16.19-38.64-23.56C867.11,1,859.38-1.23,851.29,1.4c-4.7,1.52-7.88,4.62-8.71,9.65-.92,5.6-1,11.34,4.41,14.67,2.19,1.35,5.67.75,8.55.65.42,0,1.38-3,1-3.33-3.22-2.55-4.22-5.13-.58-7.95,2.34-1.82,7.57-.06,9.65,3,4.94,7.19-.45,18.79-9.3,19.79-11.43,1.31-20.21-4.07-29.16-9.65-12.79-8-25.39-16.3-38.58-23.54-6.46-3.55-13.88-5.77-21.74-3.45-4.86,1.43-8.21,4.25-9.35,9.1-1.26,5.32-1.69,11.1,3.34,14.57,2.45,1.68,6.49,1.72,9.7,1.39,2-.21,2.13-2.2.15-4-1.71-1.51-4.07-4-.78-6a9,9,0,0,1,6.89-.79c4.09,1.51,6,5.52,5.6,9.56-.67,7.17-5.33,11.75-11.07,12.64-11.56,1.78-20.5-4-29.59-9.68-12.63-7.88-25.12-16-38.13-23.23C697,1.18,689.5-1.23,681.48,1.26c-4.83,1.5-8.19,4.45-9.17,9.34-1,5.28-1.58,11.1,3.62,14.49,2.41,1.56,6.18,1,9.34,1.44.12-1.33.72-2.87.25-3.94-.9-2-3.9-3.24-1.26-6.2,2.39-2.67,4.81-2.5,7.49-1,3.76,2.12,6.1,5.37,5.38,9.72-1.36,8.13-5,11.75-11.06,12.66-11.39,1.7-20.23-4-29.18-9.54-12.75-8-25.28-16.33-38.45-23.52-6.58-3.59-14.17-6-22.2-3.44-4.86,1.54-8.16,4.56-9,9.44-1,5.43-1.5,11.43,4,14.8,2.35,1.42,6,.73,9,1,.09-1.31.58-2.77.18-3.9-.74-2-3.84-3.27-1.15-6.26,2.44-2.71,4.75-2.39,7.42-.88,4.49,2.54,5.95,6.36,4.84,11.36-1.52,6.83-4.74,10-10.38,10.9-11.56,1.81-20.51-3.95-29.59-9.65-12.6-7.9-25-16.11-38-23.29-6.61-3.65-14.14-5.87-22.18-3.56-4.75,1.35-8.18,4.22-9.07,8.72-1.06,5.4-2.2,11.72,3.61,15.3,2.44,1.51,6.27,1.41,9.34,1,2.06-.25,2.29-2,.28-3.85-1.62-1.46-4.31-3.86-1-6a8.77,8.77,0,0,1,6.83-1c4.53,1.72,6.33,5.69,5.54,10.51-1.17,7.06-5,10.83-10.77,11.76-11.59,1.85-20.53-4-29.61-9.66-12.59-7.89-25-16.12-38-23.31-6.64-3.68-14.22-5.8-22.26-3.53-5.05,1.43-9.05,5.47-9.34,10.64a40,40,0,0,0,.17,8c.8,5.62,8.75,9.43,13.46,6.43.58-.37.54-2.64,0-3.61-1.15-2.13-4.16-3.54-1.07-6.58,2.61-2.55,4.92-2,7.53-.39,4.28,2.57,5.57,6.37,4.56,11.09-1.41,6.68-4.9,10.05-10.44,10.94-11.56,1.85-20.54-3.85-29.63-9.57-12.6-7.92-25.07-16.09-38.06-23.33C357,1.22,349.57-.88,341.67,1.17c-4.95,1.27-8.55,4.11-9.5,8.78-1.11,5.38-2.13,11.67,3.64,15.23,2.45,1.51,6.23,1.48,9.29,1.13,2.14-.24,2.39-2.06.34-3.87-1.74-1.53-4.17-4-1-6a8.82,8.82,0,0,1,6.91-.89c4.47,1.72,6.32,6.44,5.3,11.15-1.42,6.59-5.3,10.26-10.86,11.1-11.17,1.68-20-3.67-28.8-9.15-12.92-8-25.62-16.42-38.87-23.86-6.5-3.65-13.91-5.65-21.8-3.55-4.76,1.27-8.18,4.15-9.11,8.56-1.16,5.54-2.18,12,3.77,15.64,2.41,1.48,6.2.7,9.37.95,0-1.26.52-2.85-.06-3.72-1.37-2.06-3.91-4.15-1-6.2a8.55,8.55,0,0,1,6.89-.94c4.52,1.77,6.15,5.89,5.47,10.59-1,6.62-5.22,10.79-10.83,11.66C250.71,39.31,242.35,35,234.19,30,220.5,21.57,207.07,12.74,193.1,4.83,186.45,1.06,178.87-1,170.87,1.3c-4.88,1.41-8.07,4.6-9,9.37-1,5.57-1.34,11.66,4.26,15.15,2.17,1.35,5.77,1,8.57.57,2-.33,2.7-2.08.49-3.93-2-1.62-3.85-4.17-1-6.11a8.53,8.53,0,0,1,6.94-.81c4.42,1.83,6.16,5.9,5.42,10.6-1,6.54-5.32,10.71-10.83,11.59-11.34,1.81-20.23-3.67-29.2-9.27-12.8-8-25.5-16.17-38.64-23.57-6.82-3.84-14.53-6.13-22.62-3.5C80.69,2.9,77.4,5.9,76.59,11c-.89,5.58-1.06,11.34,4.35,14.69,2.19,1.36,5.66.81,8.54.72.44,0,1.46-3,1.13-3.29-3.16-2.52-4.37-5.07-.68-8,2.36-1.86,7.54-.2,9.67,2.86,5,7.16-.33,18.81-9.19,19.85-11.42,1.34-20.22-4-29.18-9.59C48.46,20.25,35.84,12,22.65,4.71,15.88,1,8.1-1.4,0,1.53v26c6.25-1.41,6.25-1.41,3-7.23-1.47-2.67.74-5.76,4.21-5.91,4.75-.2,10.44,6.12,9.23,10.76C14.29,33.55,11.2,39.08,0,37.53v7c2-.05,4-.15,6-.15H3736q47,0,94,.16Z"/></g></g></svg>