<svg xmlns="http://www.w3.org/2000/svg" viewBox="0 0 3830 142"><defs><style>.cls-1{fill:none;}</style></defs><g id="Camada_2" data-name="Camada 2"><g id="Camada_1-2" data-name="Camada 1"><path d="M0,0V6L28,22.37C22,26,17.08,29.17,12,32c-3.89,2.19-8,4-12,6v7c8.18,4.71,16.39,9.36,24.52,14.15,2.3,1.35,2.39,2.84-.19,4.35C16.18,68.26,8.1,73.16,0,78v6c22-.15,44-.43,66-.44,41.49,0,83,.17,124.48.16,43.48,0,87-.18,130.45-.17,44.32,0,88.64.2,133,.24q63,.06,126,0,128.46,0,256.93-.06,127.22,0,254.43,0,127.72,0,255.44,0t255.43,0q80.23,0,160.47-.07c30.16,0,60.32-.15,90.48-.14q67.73,0,135.46.13,60.48,0,121,0,66.72,0,133.46.07c40.33,0,80.65-.18,121-.18,41.16,0,82.32.19,123.48.18,43.82,0,87.64-.19,131.46-.18,44.32,0,88.64.2,133,.24q63.23.08,126.47,0l255.93,0q78.48,0,157-.07c31.33,0,62.66-.15,94-.14q67.48,0,135,.14,60.49,0,121,0,67.48,0,135,0c18,0,36,.2,54,.3V78l-54.52-32.48.43-1.52H3830V40h-54.49l-.27-1.32c6.92-4.2,13.81-8.44,20.76-12.59Q3813,16,3830,6V0c-1.83,0-3.67.07-5.5.07h-310L1647.78.08H240Q120,.08,0,0ZM1239.82,22.13a20.86,20.86,0,0,1-3,2.83c-6.33,3.8-13,7.08-19,11.37-4,2.92-8.06,3.74-12.78,3.69-14.14-.15-28.29,0-42.44-.06-1.56,0-3.12-.2-4.68-.31.07-.66,0-.9.11-.95,17.56-10.72,35.1-21.47,52.75-32.05,1-.58,3.08,0,4.26.65C1223.1,12,1231.05,16.85,1239.82,22.13ZM1924.11,40l-.45-1.33c17.7-10.71,35.38-21.45,53.15-32a4.71,4.71,0,0,1,4,.32c8.22,4.91,16.33,10,25.45,15.65-4.53,2.85-8.61,5.08-12.34,7.8-9.56,7-19.69,10.8-32,9.82C1949.41,39.18,1936.73,40,1924.11,40ZM3537.66,22c-1,1.16-1.54,2.27-2.44,2.81-6.32,3.81-13,7.06-19,11.37-4.51,3.26-9.07,3.88-14.26,3.82-13.81-.16-27.63,0-41.44-.06-1.55,0-3.1-.2-4.71-.32.15-.7.13-.93.22-1,17.56-10.72,35.11-21.46,52.76-32,1-.57,3.05,0,4.25.72C3521.12,12,3529.09,16.88,3537.66,22Zm-766.08,0c-.84,1.08-1.34,2.25-2.23,2.78-6.32,3.82-13,7.1-19,11.37-4.64,3.3-9.38,4-14.75,3.88-13.65-.19-27.3-.05-41-.07-1.57,0-3.14-.18-4.82-.28.21-.78.2-1.23.39-1.35,17.47-10.6,34.93-21.21,52.5-31.64,1-.59,3.1-.12,4.28.56C2755.07,12,2763,16.83,2771.58,22ZM392.1,40c-.15-.45-.29-.91-.43-1.36q26.55-16.06,53.15-32.06a4.34,4.34,0,0,1,3.71,0c8.32,5,16.52,10.29,25.43,15.89-2,1.48-3.73,2.62-5.33,3.87C454.71,37.12,439.3,42.75,421.45,40A15.9,15.9,0,0,0,419,40Zm592-18c-.83,1.06-1.39,2.3-2.35,2.91-5.69,3.59-11.56,6.9-17.2,10.57A29.07,29.07,0,0,1,947,40.1C933.67,39.66,920.35,40,907,40c-1.55,0-3.09-.2-5.43-.37a21.44,21.44,0,0,1,1.78-1.53C920.56,27.63,937.71,17.16,955,6.89c1.12-.66,3.44-.3,4.71.44C967.78,12,975.71,16.88,984.11,22ZM136.63,40c-.12-.4-.23-.79-.34-1.19C154,28,171.62,17.15,189.39,6.5c1-.57,3.12.14,4.36.86,8.05,4.69,16,9.55,24.41,14.6-.9,1.09-1.5,2.3-2.47,2.92-5.54,3.51-11.24,6.79-16.76,10.34a28.24,28.24,0,0,1-17.54,4.88c-9.62-.53-19.3-.13-28.95-.13Zm911.89-18c-1.06,1.21-1.64,2.3-2.54,2.84-6.48,3.87-13.26,7.27-19.44,11.54A20.67,20.67,0,0,1,1013.71,40c-14.13-.2-28.26,0-42.4-.07-1.61,0-3.22-.22-4.83-.33,17.37-11.49,34.69-21.94,52.15-32.18a6.37,6.37,0,0,1,5.38,0C1032.15,12.05,1040.1,16.93,1048.52,21.94ZM2434.43,39.65c.08-.66.05-.89.13-.94,17.53-10.75,35.05-21.52,52.65-32.16a4.38,4.38,0,0,1,3.76,0c8.35,5.05,16.58,10.28,25.11,15.63-.85,1.07-1.35,2.17-2.22,2.71-5.7,3.57-11.38,7.19-17.26,10.45-4.19,2.32-8,5-13.53,4.85-14.63-.51-29.29-.16-43.93-.18C2437.57,40,2436,39.76,2434.43,39.65ZM3282.22,22c-1,1.17-1.65,2.33-2.62,2.94-5.54,3.52-11.06,7.11-16.81,10.26-3.62,2-7.6,4.47-11.49,4.6-15.63.53-31.29.23-46.93.2-1.34,0-2.68-.27-5.2-.54,18.72-11.39,36.26-22.12,53.92-32.65,1.08-.64,3.4-.07,4.71.68C3265.75,12,3273.58,16.79,3282.22,22Zm-18.93,17.56c18.72-11.46,36.29-22.26,54-32.88,1-.63,3.27-.24,4.48.46,8.19,4.77,16.25,9.76,24.44,14.73-.9,1-1.61,2.39-2.73,3.08-6.29,3.86-12.93,7.2-18.95,11.43a20.45,20.45,0,0,1-12.83,3.7c-14.13-.19-28.26,0-42.39-.08C3267.71,40,3266.14,39.74,3263.29,39.52ZM1668.62,40l-.35-1.23c17.57-10.68,35.12-21.39,52.77-31.93a5.21,5.21,0,0,1,4.44.18c8.15,4.8,16.16,9.84,24.62,15.06-.84,1-1.45,2.21-2.43,2.83-5.54,3.52-11.24,6.8-16.76,10.35a28.4,28.4,0,0,1-17.53,4.88c-10.29-.53-20.63-.14-31-.14Zm64.13,0-.37-1.2c17.54-10.65,35.06-21.34,52.68-31.84,1.16-.69,3.5-.43,4.77.3C1798,12,1806.08,16.92,1814.5,22a15.36,15.36,0,0,1-2.71,2.83c-6.31,3.82-13,7.13-19,11.37-4.35,3.07-8.71,4-13.8,3.83-7.64-.24-15.3-.06-23-.06Zm766,0c-.13-.42-.26-.85-.4-1.27,17.47-10.5,34.91-21,52.46-31.38a6,6,0,0,1,5,0c8.21,4.68,16.26,9.66,24.66,14.72a16.3,16.3,0,0,1-2.76,2.84c-6.32,3.82-13,7.13-19,11.37-4.35,3.07-8.72,3.95-13.8,3.82-9.48-.23-19-.07-28.44-.08Zm-2298,0c-.13-.41-.26-.81-.38-1.21,17.53-10.64,35-21.33,52.67-31.82,1.15-.69,3.5-.45,4.76.28,8.2,4.72,16.25,9.7,24.67,14.78a15.3,15.3,0,0,1-2.68,2.83c-6.32,3.81-13,7.12-19,11.37A21.2,21.2,0,0,1,247,40c-7.31-.24-14.63-.06-21.94-.06Zm3510.7,0-.37-1.3q26.59-16.2,53.23-32.32a3.88,3.88,0,0,1,3.32.17c8.35,5.06,16.61,10.26,25.29,15.67-.93,1.07-1.49,2.13-2.37,2.66-6.33,3.78-13,7.09-19,11.3-4.5,3.15-9,4-14.32,3.9-12-.24-24-.08-36-.08ZM1494.85,21.88c-.79,1.24-1.1,2.36-1.83,2.8-6.32,3.8-12.74,7.44-19.08,11.22-3.79,2.26-7.35,4.32-12.21,4.2-14.49-.37-29-.12-43.48-.14-1.69,0-3.37-.16-5.63-.28.85-1,1-1.33,1.26-1.48,17.35-10.55,34.68-21.12,52.12-31.52,1-.57,3.07,0,4.25.64C1478.35,12,1486.35,16.82,1494.85,21.88ZM647.22,40c.15-1,.12-1.26.2-1.31C665,27.88,682.53,17.08,700.17,6.42a4.33,4.33,0,0,1,3.69.32c8.26,4.94,16.43,10,25,15.31-.79,1.05-1.25,2.2-2.1,2.73C720.88,28.41,715,32.08,709,35.39c-4.06,2.23-7.76,4.91-13.09,4.74-14.48-.47-29-.16-43.48-.16Zm1532.23,0-.35-1.31c17.73-10.79,35.45-21.61,53.24-32.31a3.87,3.87,0,0,1,3.33.18c8.34,5.06,16.6,10.26,25.07,15.53-.68,1.07-1,2.2-1.72,2.63-6.48,3.85-13.31,7.19-19.48,11.48-4.51,3.14-9.06,4-14.32,3.87-10.66-.23-21.32-.07-32-.07Zm765.82-.3c.18-.76.15-1.22.33-1.33,17.47-10.65,34.94-21.31,52.51-31.8.91-.55,2.87-.11,4,.53,8.19,4.8,16.27,9.76,24.92,15-1,1.11-1.64,2.25-2.62,2.84-6.32,3.81-13,7.1-19,11.35-4.37,3.09-8.78,3.84-13.84,3.78-13.83-.16-27.65,0-41.48-.07C2948.49,40,2946.92,39.77,2945.27,39.66ZM2944,44.87a29.89,29.89,0,0,1,4.18-.79q24.7,0,49.4,0a6.71,6.71,0,0,1,3.29.84c7.75,4.6,15.4,9.38,23.17,13.93,3.08,1.8,3,3,0,4.73-7.48,4.38-14.79,9-22.3,13.37a4.9,4.9,0,0,1-4.1-.37C2980.17,66.35,2962.78,56,2944,44.87ZM2644.46,22.06a30.71,30.71,0,0,1-3.4,2.93c-6.67,4.15-13.26,8.46-20.15,12.21a21.89,21.89,0,0,1-9.69,2.64c-14.63.29-29.26.15-43.89.13-1.58,0-3.16-.22-4.69-.33,0-.62,0-.85,0-.89,17.5-10.79,35-21.6,52.58-32.24.93-.57,2.92-.17,4,.47C2627.56,11.82,2635.78,16.83,2644.46,22.06ZM1878.38,22c-1.1,1.19-1.72,2.25-2.64,2.8-6.47,3.87-12.94,7.75-19.55,11.37-2.91,1.6-6.13,3.61-9.25,3.68-15.45.39-30.92.2-46.38.17-1.38,0-2.75-.3-5.2-.59C1814,28,1831.47,17.28,1849.11,6.7c1-.6,3.13-.19,4.31.49C1861.65,11.91,1869.77,16.83,1878.38,22Zm-1532,0c-1,1.12-1.56,2.22-2.47,2.77-6.47,3.87-13.29,7.23-19.44,11.54-4.37,3.08-8.79,3.83-13.85,3.78-13.81-.16-27.62,0-41.42-.06-1.56,0-3.12-.24-5.95-.46C282.05,28,299.68,17.12,317.4,6.43c.89-.53,2.85,0,4,.69C329.59,11.88,337.73,16.8,346.35,21.94Zm1832,23a18.25,18.25,0,0,1,3-.77q25.18-.06,50.39,0a6.75,6.75,0,0,1,3.27.93c7.75,4.6,15.42,9.32,23.17,13.92,2.67,1.58,2.77,2.84,0,4.48-7.58,4.54-15.06,9.24-22.66,13.72a4.16,4.16,0,0,1-3.53.08C2214.45,66.7,2196.88,56.06,2178.38,44.89Zm-1531.84,0a23.88,23.88,0,0,1,4-.84q24.45-.06,48.9,0a7.76,7.76,0,0,1,3.74,1c7.61,4.51,15.07,9.27,22.75,13.66,3,1.74,3.31,2.86.25,4.71-7.56,4.55-15,9.24-22.63,13.76a3.8,3.8,0,0,1-3.19.26C682.61,66.85,665,56.1,646.54,44.92Zm765.9,0a25.26,25.26,0,0,1,4.08-.87q24.45-.06,48.9,0a7.65,7.65,0,0,1,3.74,1c7.61,4.51,15.07,9.27,22.75,13.66,3,1.73,3.33,2.85.27,4.7-7.56,4.56-15,9.26-22.64,13.74a4.09,4.09,0,0,1-3.5-.07C1448.4,66.63,1430.82,56,1412.44,45Zm2298,0a24.47,24.47,0,0,1,4.05-.88q24.45-.06,48.9,0a6.88,6.88,0,0,1,3.31.75c7.91,4.67,15.73,9.45,23.61,14.16,2.75,1.64,2.51,2.91-.13,4.48-7.58,4.53-15,9.25-22.65,13.74a4.15,4.15,0,0,1-3.51-.06C3746.4,66.64,3728.82,56,3710.46,45Zm-2598.11-23c-1,1.16-1.63,2.24-2.54,2.79-6.47,3.87-13.25,7.27-19.44,11.54A21.51,21.51,0,0,1,1077,40c-14-.2-27.93,0-41.9-.07-1.55,0-3.1-.24-5.9-.47,18.82-11.54,36.45-22.39,54.18-33.07.88-.53,2.85,0,4,.69C1095.59,11.89,1103.72,16.8,1112.35,21.94Zm2216.3,17.73-.13-1c17.53-10.74,35-21.52,52.66-32.11,1-.59,3.11,0,4.33.7,8.22,4.71,16.34,9.6,24.87,14.65a16.07,16.07,0,0,1-2.77,2.85c-6.46,3.88-13.25,7.29-19.42,11.57A20.65,20.65,0,0,1,3375.32,40c-14-.18-27.93,0-41.9-.06C3331.83,40,3330.24,39.77,3328.65,39.67ZM3601.81,22c-1.06,1.12-1.76,2.28-2.78,2.89-6.32,3.81-13,7.11-19,11.35-4.34,3.07-8.71,3.88-13.77,3.82-13.79-.18-27.59-.05-41.39-.06-1.53,0-3.07-.18-5.4-.33a19.93,19.93,0,0,1,1.8-1.67c17-10.39,34-20.81,51.08-31,1.14-.68,3.46-.38,4.73.34C3585.31,12,3593.37,16.91,3601.81,22ZM2753.26,39.6c1.45-1.09,1.9-1.5,2.4-1.81,16.89-10.34,33.76-20.7,50.73-30.91a5.26,5.26,0,0,1,4.47,0c8.28,4.86,16.42,10,25.43,15.49-1.42,1.05-2.37,1.9-3.45,2.54-6.36,3.77-13,7.1-19,11.36A20.29,20.29,0,0,1,2801,40c-14-.17-28-.05-42-.07C2757.46,40,2755.9,39.77,2753.26,39.6Zm-1530.85,0c-.05-.37-.1-.75-.16-1.12,17.45-10.64,34.88-21.33,52.41-31.83,1-.62,3.2-.2,4.4.49,8.19,4.75,16.25,9.7,24.71,14.8a16.61,16.61,0,0,1-2.8,2.9c-6.33,3.81-12.69,7.58-19.13,11.21-2.62,1.48-5.43,3.64-8.19,3.71-16.16.36-32.32.2-48.48.19A21.69,21.69,0,0,1,1222.41,39.63Zm766.2.34c-.13-.37-.25-.75-.38-1.13.49-.36,1-.75,1.46-1.06,16.89-10.34,33.76-20.72,50.72-30.92a5.23,5.23,0,0,1,4.47.07c8.28,4.85,16.42,9.94,24.68,15-.55.79-.8,1.49-1.29,1.82-2,1.33-4.25,2.35-6.14,3.82-12.73,10-26.8,14.4-43.18,12.6C2009,39.08,1998.73,40,1988.61,40ZM456.55,40c-.14-.45-.29-.9-.43-1.35,17.58-10.73,35.13-21.5,52.77-32.13a4.38,4.38,0,0,1,3.77.13c8.34,5,16.57,10.22,25,15.48a14.51,14.51,0,0,1-2.5,2.73c-6.33,3.81-13,7.14-19,11.36-4.34,3-8.72,4-13.8,3.85-10-.21-20-.07-30-.07Zm444.82,4.83a28.21,28.21,0,0,1,3.7-.68q24.95-.06,49.89,0a6.72,6.72,0,0,1,3.31.8c7.58,4.53,15,9.29,22.66,13.72,3.83,2.22,2.88,3.54-.22,5.36-7.17,4.21-14.19,8.67-21.4,12.81a5,5,0,0,1-4.23,0C937.5,66.46,920,55.94,901.37,44.79Zm2298,0a29.38,29.38,0,0,1,3.71-.67q24.95-.06,49.88,0a6.7,6.7,0,0,1,3.31.8c7.58,4.53,15,9.29,22.67,13.72,3.81,2.22,2.87,3.54-.23,5.36-7.17,4.21-14.2,8.67-21.4,12.81a5,5,0,0,1-4.23,0C3235.5,66.46,3218,55.94,3199.37,44.78Zm-1275.18.82.18-1.11a19.67,19.67,0,0,1,2.81-.42q24.48,0,49,0a6.84,6.84,0,0,1,3.34.71c7.86,4.68,15.65,9.5,23.5,14.21,2.88,1.72,2.41,3-.19,4.5-7.41,4.44-14.71,9-22.13,13.47-1,.57-2.73.94-3.56.44C1959.42,66.89,1941.81,56.23,1924.19,45.6Zm975.29-23.71c-.87,1.11-1.37,2.25-2.25,2.8-5.84,3.64-11.85,7-17.63,10.75A29.18,29.18,0,0,1,2862,40.1c-13-.44-26-.11-38.94-.13-1.75,0-3.49-.18-5.23-.28l-.6-1.17a5.74,5.74,0,0,0,1.39-.41c17.19-10.42,34.35-20.9,51.62-31.19,1.14-.67,3.46-.36,4.73.37C2883.05,11.93,2891,16.81,2899.48,21.89Zm556.69,23.8.21-1.17a17.76,17.76,0,0,1,2.77-.45q24.48,0,49,0a6.8,6.8,0,0,1,3.34.69c7.87,4.69,15.65,9.52,23.51,14.22,2.85,1.7,2.48,2.93-.14,4.5-7.42,4.43-14.71,9.06-22.16,13.44a4.5,4.5,0,0,1-3.84.11C3491.22,66.67,3473.7,56.17,3456.17,45.69Zm-3320.5-.81a26.34,26.34,0,0,1,4.1-.79q24.45-.06,48.89,0a7.84,7.84,0,0,1,3.76.93c7.46,4.41,14.77,9.08,22.3,13.38,4,2.3,3.12,3.76-.18,5.68a108.27,108.27,0,0,0-12.11,7.64c-7.41,5.76-13.83,6.16-22.13.41C166.24,62.41,151.12,54.2,135.67,44.88Zm465.85-23c-.94,1.17-1.48,2.29-2.37,2.84-5.69,3.56-11.54,6.88-17.19,10.51a29.84,29.84,0,0,1-18.06,4.88c-13-.51-26-.13-38.95-.15-1.73,0-3.46-.2-6.53-.38,18.88-11.55,36.5-22.39,54.24-33,1-.58,3.12.08,4.35.79C585.1,12,593.09,16.86,601.52,21.89ZM1667.27,44.8a37.62,37.62,0,0,1,4.63-.72q24.45,0,48.89,0a6.89,6.89,0,0,1,3.33.72c7.73,4.62,15.35,9.4,23.09,14,2.93,1.75,3,3,0,4.78-7.43,4.42-14.71,9.09-22.18,13.42-1,.59-3.07.24-4.2-.42C1703.4,66.32,1686,55.93,1667.27,44.8ZM391.17,45a18.41,18.41,0,0,1,3.35-.87q25-.06,50,0a6.7,6.7,0,0,1,3.29.86c7.57,4.56,15,9.38,22.64,13.75,3.48,2,3.52,3,.09,5-7.33,4.25-14.45,8.88-21.77,13.14a4.94,4.94,0,0,1-4.15,0C434,70.62,423.43,64.31,412.88,58,405.93,53.87,399,49.68,391.17,45Zm766.1.07a18.33,18.33,0,0,1,3.63-.95q24.74-.06,49.46,0a6.66,6.66,0,0,1,3.3.8c7.72,4.63,15.32,9.43,23.06,14,3.12,1.85,2.86,3-.11,4.71-7.33,4.27-14.46,8.87-21.82,13.08a5.44,5.44,0,0,1-4.49-.19c-5.33-2.81-10.55-5.87-15.73-9C1182.38,60.23,1170.22,52.86,1157.27,45Zm976.18-23.16c-.83,1.09-1.32,2.26-2.2,2.8-6.15,3.78-12.4,7.38-18.56,11.13-4.07,2.48-8,4.43-13.19,4.29-14.3-.38-28.63-.11-42.94-.13-1.58,0-3.16-.21-5.35-.37a11.71,11.71,0,0,1,1.38-1.46c17.18-10.44,34.34-20.92,51.62-31.2,1.14-.68,3.46-.39,4.73.33C2117.14,12,2125.2,16.93,2133.45,21.88Zm299.92,22.91a28,28,0,0,1,3.71-.68q24.95-.06,49.88,0a6.72,6.72,0,0,1,3.31.8c7.58,4.53,15,9.29,22.67,13.72,3.82,2.22,2.87,3.54-.23,5.36-7.17,4.21-14.2,8.67-21.4,12.81a5,5,0,0,1-4.23,0C2469.5,66.46,2452,55.94,2433.37,44.79ZM1286,40c-.1-.38-.21-.76-.31-1.14,17.53-10.72,35-21.48,52.67-32.06a5.22,5.22,0,0,1,4.45.27c8.28,4.84,16.42,9.91,25.48,15.43-7.7,4.74-14.9,8.84-21.73,13.49-5,3.43-10.31,4.31-16.24,4.11-9.81-.33-19.64-.1-29.46-.1Zm1402.91,5a24.55,24.55,0,0,1,3.74-.83q25,0,50,0a6.74,6.74,0,0,1,3.28.91c7.56,4.55,15,9.37,22.63,13.75,3.63,2.07,3.23,3-.06,5-7.33,4.25-14.44,8.88-21.73,13.19a4.53,4.53,0,0,1-3.85.17C2725.24,66.7,2707.73,56.19,2688.88,44.92Zm976.64-23c-.91,1-1.56,2.22-2.57,2.83-6.46,3.88-13.28,7.23-19.42,11.55A20.31,20.31,0,0,1,3630.68,40c-14-.17-28,0-41.95-.06-1.68,0-3.36-.22-6.4-.44,18.79-11.39,36.23-22,53.78-32.46a5.52,5.52,0,0,1,4.73.08C3649.05,11.87,3657.11,16.87,3665.52,22ZM1540.63,45a20.36,20.36,0,0,1,3.62-.87q24.49-.08,49,0a7.86,7.86,0,0,1,3.77,1q11.8,6.94,23.48,14.13c.91.56,1.36,1.88,2.12,3-8.58,5.13-16.54,10-24.62,14.62a4.93,4.93,0,0,1-4.1,0c-5.42-2.93-10.73-6.1-16-9.29C1565.7,60.21,1553.57,52.81,1540.63,45Zm-765.12.63.24-1.28c1.75-.09,3.51-.26,5.26-.27,13.16,0,26.33.13,39.48-.06,5.6-.08,10.58.56,15.39,4.05,5.77,4.18,12.27,7.37,18.38,11.11,1,.59,1.55,1.8,2.46,2.9-8.63,5.26-16.69,10.24-24.86,15A4.49,4.49,0,0,1,828,77C810.47,66.63,793,56.1,775.51,45.59ZM8.58,44.93a22.26,22.26,0,0,1,3.71-.85q24.5-.06,49,0a7.85,7.85,0,0,1,3.76,1Q76.6,52,88,59.08c1,.64,1.68,1.9,2.66,3.06C82,67.35,74,72.21,66,76.85a4.93,4.93,0,0,1-4.1,0c-5.43-2.94-10.74-6.1-16-9.28C33.67,60.2,21.56,52.81,8.58,44.93Zm2297.89,0a19.89,19.89,0,0,1,3.15-.78c16.67,0,33.33-.06,50,0a7.77,7.77,0,0,1,3.69,1.19q11.35,6.77,22.59,13.73a17,17,0,0,1,2.83,3c-8.72,5.34-16.76,10.34-24.9,15.17a4.19,4.19,0,0,1-3.57.17C2342.61,66.8,2325.05,56.13,2306.47,44.88ZM3155.6,61.73c-9.28,5.43-17.14,10.14-25.15,14.59a5.72,5.72,0,0,1-4.75.28c-10.61-6.09-21.09-12.42-31.6-18.7-6.91-4.13-13.8-8.3-20.69-12.45A10.27,10.27,0,0,1,3079,44c12.66,0,25.34.36,38-.14a30,30,0,0,1,19.05,5.33c3.24,2.23,6.81,4,10.14,6.06C3149.1,57.11,3151.85,59.14,3155.6,61.73ZM3091,22c-1.08,1.16-1.77,2.32-2.79,2.94-6.31,3.82-12.92,7.19-19,11.38A21.43,21.43,0,0,1,3056,40c-14-.21-27.93,0-41.9-.07-1.55,0-3.09-.21-6.09-.43,18.94-11.59,36.56-22.41,54.28-33.06.9-.55,2.88,0,4,.63C3074.42,11.89,3082.5,16.82,3091,22ZM263.66,44.79a32.35,32.35,0,0,1,4.14-.71c16.16,0,32.31-.07,48.47,0a8.87,8.87,0,0,1,4.18,1.21c7.62,4.48,15.14,9.15,22.77,13.62,2.9,1.7,3.07,2.94.09,4.74-7.55,4.55-15,9.31-22.57,13.79a4.24,4.24,0,0,1-3.57-.39C299.66,66.58,282.21,56,263.66,44.79Zm766.32.1a23.65,23.65,0,0,1,4-.81q24.24-.07,48.47,0a8.87,8.87,0,0,1,4.14,1.33c7.63,4.47,15.15,9.12,22.8,13.55,2.79,1.63,2.76,2.9.12,4.51-4.49,2.76-9.36,5.07-13.35,8.43-7.79,6.56-15,5.85-22.51-.18a30.36,30.36,0,0,0-3.25-2.14C1057.19,61.5,1043.94,53.42,1030,44.89ZM1477.6,40c-.11-.46-.23-.91-.34-1.37,17.48-10.53,34.93-21.1,52.47-31.52a5.07,5.07,0,0,1,4.31-.2c8.29,4.84,16.44,9.93,24.87,15.1-.94,1.13-1.5,2.25-2.4,2.79-6.31,3.82-12.9,7.22-19,11.37a22.25,22.25,0,0,1-13.75,3.9c-12.13-.24-24.27-.07-36.41-.07Zm912-17.55c-7.7,4.78-14.78,8.81-21.46,13.43-5.18,3.58-10.64,4.32-16.71,4.2-13.13-.26-26.27-.06-39.41-.08-1.55,0-3.1-.21-4.75-.33.18-.72.17-.94.26-1,17.51-10.77,35-21.55,52.6-32.18.89-.54,2.85,0,4,.61C2372.28,11.86,2380.35,16.81,2389.63,22.42Zm937.9,22.22c2.77-.29,4.33-.58,5.88-.59,15.33,0,30.65-.07,46,.06a11.7,11.7,0,0,1,5.54,1.58c7.37,4.26,14.49,9,22,13,4.18,2.27,2.9,3.5-.07,5.29-7.28,4.37-14.5,8.86-21.83,13.15a4.19,4.19,0,0,1-3.55.18C3363.81,66.75,3346.26,56,3327.53,44.64ZM90.83,21.92c-1,1.09-1.65,2.28-2.67,2.91-7.23,4.43-14.46,8.88-21.87,13a16.16,16.16,0,0,1-7.36,2c-15.13.19-30.27.11-45.4.09-1.39,0-2.77-.27-5.57-.56,18.88-11.52,36.5-22.33,54.22-33,.89-.54,2.84,0,3.94.64C74.29,11.88,82.37,16.82,90.83,21.92ZM711.69,40c-.14-.41-.27-.82-.4-1.23,17.64-10.79,35.26-21.61,53-32.27.9-.54,2.88,0,4,.65,8.17,4.78,16.25,9.71,25.15,15.07-2.24,1.64-4,2.87-5.73,4.21-14,11-29.75,16.15-47.69,13.62a58.83,58.83,0,0,0-8-.05Zm62.42,0a27.18,27.18,0,0,1,2.28-2c17.14-10.45,34.28-20.93,51.51-31.23,1-.6,3.11-.25,4.26.42,8.18,4.74,16.25,9.67,24.72,14.76a17,17,0,0,1-2.77,2.91C847,29.23,840,33.68,832.7,37.71a18.55,18.55,0,0,1-8.33,2.16c-12.31.23-24.62.1-36.93.1Zm1469.23-.33c.28-.77.29-1.19.49-1.31,17.31-10.51,34.63-21,52-31.42a4.72,4.72,0,0,1,4-.26c8.37,5,16.6,10.17,26.07,16-1.63,1-2.6,1.61-3.59,2.2-6.36,3.74-13,7.12-19,11.34-4.33,3-8.71,3.86-13.77,3.8-13.8-.18-27.6,0-41.4-.07C2246.62,40,2245.06,39.76,2243.34,39.64ZM1623,21.92c-1.17,1.27-1.8,2.32-2.72,2.89-7.08,4.37-14.12,8.83-21.4,12.87a18.49,18.49,0,0,1-8.33,2.19c-14.8.22-29.6.12-44.4.1-1.56,0-3.12-.21-4.72-.32.11-.69.08-.92.16-1,17.51-10.77,35-21.57,52.6-32.17.93-.55,3,.2,4.26.91C1606.47,12.07,1614.46,16.88,1623,21.92Zm938.59,22.82a50.43,50.43,0,0,1,5.36-.68c15.65,0,31.3-.06,47,0a9.82,9.82,0,0,1,4.66,1.28c7.64,4.45,15.17,9.09,22.78,13.59,2.91,1.73,2.92,3-.07,4.76-7.46,4.39-14.76,9-22.24,13.4a4.55,4.55,0,0,1-3.86-.14C2597.6,66.53,2580.14,56,2561.54,44.74Zm-764.76.83c0-.4.08-.8.13-1.2,1.76-.12,3.52-.32,5.28-.32,14.82,0,29.65-.1,44.46.08a15.15,15.15,0,0,1,6.92,2c7.12,4,13.94,8.59,21.11,12.53,3.55,2,3.93,3.09.31,5.24-7.43,4.43-14.71,9.12-22.18,13.48-.88.51-2.78,0-3.85-.62Q1822.82,61.25,1796.78,45.57Zm1358.1-23.63c-1.08,1.14-1.78,2.3-2.81,2.92-6.45,3.88-13.24,7.27-19.37,11.6A19.67,19.67,0,0,1,3120.33,40c-14.13-.14-28.27,0-42.4-.05-1.54,0-3.07-.2-4.61-.31,17.55-11.79,35.2-22.61,52.95-33.25.86-.52,2.8.12,3.91.77C3138.34,12,3146.42,16.86,3154.88,21.94Zm-2955,22.93a30.67,30.67,0,0,1,4.22-.78q24.21-.06,48.42,0a7.74,7.74,0,0,1,3.77.92c7.75,4.58,15.41,9.33,23.16,13.92,2.67,1.58,2.79,2.94.16,4.59-4.32,2.7-8.93,5.06-12.89,8.22-7.46,5.94-13.89,6-22.14.37C230.45,62.44,215.36,54.21,199.84,44.87ZM73.53,39.94c-.07-.39-.13-.78-.2-1.17a23.64,23.64,0,0,1,2.29-1.84c16.64-10.11,33.28-20.23,50-30.21a4.8,4.8,0,0,1,4.12,0C138,11.62,146.08,16.76,154.45,22A13.88,13.88,0,0,1,152,24.71c-7.12,4.36-14.19,8.83-21.53,12.79a20.91,20.91,0,0,1-9.21,2.36c-13.83.24-27.66.09-41.49.08Zm3190.4,5a16.88,16.88,0,0,1,3.17-.81q25-.06,49.93,0a6.65,6.65,0,0,1,3.26.94c7.74,4.6,15.41,9.32,23.16,13.92,2.69,1.6,2.71,3,.08,4.59-4.34,2.68-9,5-12.9,8.22-7.47,6-13.9,6-22.12.34C3294.41,62.44,3279.35,54.21,3263.93,44.92Zm-45.49-23.13c-.9,1.24-1.3,2.31-2.07,2.77-7.59,4.54-15.17,9.11-22.91,13.37a16.24,16.24,0,0,1-7.3,2c-14.66.18-29.33.1-44,.08-1.58,0-3.15-.2-5.75-.37a34.93,34.93,0,0,1,2.93-2.39c16.77-10.22,33.52-20.47,50.38-30.54,1-.6,3.15-.13,4.35.56C3202.15,11.9,3210.11,16.77,3218.44,21.79ZM2371.62,40l-.57-1.29c.41-.24.83-.47,1.24-.72,17.17-10.5,34.33-21,51.58-31.41,1-.57,3-.23,4,.41,8.15,4.81,16.18,9.81,24.92,15.16-2.26,1.69-4,3.16-5.95,4.43C2426.63,40,2426.62,40,2402,40h-30.36ZM838.69,40c.85-1.26,1-1.62,1.21-1.77,17.31-10.6,34.62-21.22,52-31.71a4.35,4.35,0,0,1,3.74.11c8.23,5,16.35,10.1,25.17,15.61-2.15,1.5-3.89,2.77-5.68,4C894.36,40,894.36,40,869.43,40H838.69ZM2497.26,44.6c3.25-.27,5-.52,6.7-.53,14.64,0,29.29-.16,43.93.07a19.57,19.57,0,0,1,8.81,2.38c6.86,3.79,13.31,8.35,20.19,12.12,4.13,2.26,2.91,3.61,0,5.39-7.14,4.3-14.22,8.68-21.46,12.81a5,5,0,0,1-4.21-.09C2533.61,66.39,2516.15,55.9,2497.26,44.6Zm-892.84-5a33.41,33.41,0,0,1,2.93-2.38q25.14-15.34,50.36-30.58a4.33,4.33,0,0,1,3.73-.14c8.34,5,16.57,10.24,24.9,15.44-.8,1.1-1.2,2.17-2,2.63-7.59,4.54-15.16,9.11-22.91,13.37a16.2,16.2,0,0,1-7.3,2c-14.66.18-29.33.1-44,.08C1608.59,40,1607,39.76,1604.42,39.59Zm127.45,5.3a28.57,28.57,0,0,1,4.17-.8c16.14,0,32.28-.07,48.42,0a8.76,8.76,0,0,1,4.16,1.21c7.47,4.42,14.75,9.16,22.33,13.37,3.57,2,3.2,3.25.23,5.09-4.34,2.68-9,5-12.94,8.15-7.38,5.94-13.67,5.64-21.67.19C1762.43,62.48,1747.36,54.22,1731.87,44.89Zm-766.27,0a30.18,30.18,0,0,1,4.1-.77c16.31,0,32.61-.07,48.92,0a8.73,8.73,0,0,1,4.12,1.31c7.47,4.41,14.79,9.08,22.34,13.36,3.62,2,2.83,3.38,0,5.1-7.27,4.4-14.48,8.91-21.84,13.13-1,.58-3.07.24-4.2-.42C1001.57,66.32,984.19,55.93,965.6,44.86Zm1022,.11a26,26,0,0,1,4.11-.88q24-.08,47.95,0a7.84,7.84,0,0,1,3.77.88c7.88,4.61,15.67,9.37,23.51,14,2.71,1.61,2.69,2.94-.05,4.58-5.61,3.34-11.25,6.67-16.66,10.32-4.93,3.32-9.43,5.18-14.56.21-2-2-5-2.91-7.46-4.42C2014.9,61.64,2001.65,53.56,1987.56,45Zm765.87-.06a29.6,29.6,0,0,1,4.34-.82q24-.06,47.95,0a7.73,7.73,0,0,1,3.76.93c7.72,4.56,15.33,9.3,23.06,13.85,2.8,1.64,3.44,2.85.22,4.76-7.43,4.41-14.7,9.08-22.18,13.39-1,.6-3.09.25-4.26-.4-6.55-3.67-13-7.52-19.44-11.39C2776,58.69,2765.22,52.08,2753.43,44.91Zm-2088.22-23c-1.05,1.21-1.62,2.29-2.52,2.83-7.59,4.53-15.2,9.06-22.92,13.36a14,14,0,0,1-6.36,1.81c-15.14.16-30.28.1-45.43.07-1.5,0-3-.24-5.85-.48C601,28.12,618.45,17.51,636,7.09a5.52,5.52,0,0,1,4.7,0C648.81,11.8,656.73,16.74,665.21,21.89Zm766,0c-1,1.19-1.61,2.29-2.51,2.83-7.6,4.53-15.2,9.05-22.93,13.36a13.92,13.92,0,0,1-6.35,1.81c-15.14.16-30.29.1-45.43.07-1.5,0-3-.24-5.87-.48,18.84-11.36,36.32-22,53.91-32.39a5.56,5.56,0,0,1,4.7,0C1414.8,11.8,1422.73,16.73,1431.21,21.89Zm2088,22.94a29.26,29.26,0,0,1,3.83-.73q24.48-.06,48.95,0a7.75,7.75,0,0,1,3.7,1.08c7.58,4.48,15,9.2,22.66,13.56,3.29,1.87,3.61,3,.18,5-7.31,4.29-14.47,8.84-21.79,13.11a4.6,4.6,0,0,1-3.9.26C3555.33,66.7,3537.9,56.13,3519.21,44.83Zm-3064,0A27.61,27.61,0,0,1,459,44.1q24.47-.06,48.94,0a7.85,7.85,0,0,1,3.71,1.07c7.58,4.48,15,9.2,22.65,13.56,3.27,1.86,3.67,3,.21,5-7.43,4.39-14.7,9.07-22.13,13.46a4.17,4.17,0,0,1-3.57-.06C491.34,66.7,473.91,56.14,455.22,44.84Zm766,0a27.3,27.3,0,0,1,3.8-.74q24.46-.06,48.94,0a7.85,7.85,0,0,1,3.71,1.07c7.57,4.48,15,9.2,22.65,13.56,3.26,1.86,3.68,3,.22,5-7.44,4.39-14.71,9.07-22.14,13.46a4.17,4.17,0,0,1-3.57-.06C1257.34,66.71,1239.92,56.14,1221.23,44.84ZM2881.76,40l-.33-1.17c17.59-10.71,35.16-21.46,52.81-32.07a4.75,4.75,0,0,1,4.1,0c8.26,4.91,16.39,10.05,24.77,15.24-.87,1.07-1.4,2.2-2.29,2.74-7.13,4.36-14.22,8.81-21.56,12.77a21.46,21.46,0,0,1-9.22,2.41c-10.65.29-21.31.11-32,.11ZM2197.18,21.88c-1,1.17-1.55,2.29-2.45,2.83-7.59,4.53-15.19,9.07-22.93,13.34a15,15,0,0,1-6.84,1.84c-14.81.16-29.62.1-44.43.07-1.69,0-3.37-.22-6.28-.42,18.81-11.48,36.36-22.24,54-32.83,1.06-.63,3.25-.32,4.44.38C2180.77,11.79,2188.69,16.72,2197.18,21.88Zm1532-.06c-1,1.19-1.51,2.32-2.4,2.87-7.13,4.35-14.21,8.81-21.55,12.77a20.89,20.89,0,0,1-9.22,2.4c-14.47.25-29,.13-43.43.1-1.71,0-3.43-.22-5.14-.33,17-11.22,34.17-21.4,51.19-31.83,2.73-1.68,4.44-1.94,7.29-.06C3713.31,12.61,3721.05,16.94,3729.2,21.82Zm-1678.12,23a32.27,32.27,0,0,1,4.58-.76c16,0,31.93-.07,47.89,0a9.68,9.68,0,0,1,4.6,1.42c7.18,4.21,14.21,8.68,21.43,12.82,3.43,2,4.11,3.52.37,5.77-7.25,4.38-14.41,8.9-21.7,13.18a4.18,4.18,0,0,1-3.57-.14C2087.06,66.62,2069.51,56,2051.08,44.83Zm765.9-.07a28.26,28.26,0,0,1,3.63-.68c16.46,0,32.93-.06,49.39,0a8.79,8.79,0,0,1,4.11,1.38q10.76,6.34,21.39,12.89c3.9,2.39,4,3.62.1,6-7,4.39-14.14,8.7-21.32,12.87a4.18,4.18,0,0,1-3.57-.09C2853.09,66.64,2835.53,56,2817,44.76ZM2242.7,45a24.34,24.34,0,0,1,4.1-.87q24.24-.08,48.48,0a7.74,7.74,0,0,1,3.72,1c7.74,4.56,15.39,9.29,23.14,13.84,2.78,1.62,2.81,2.91.1,4.54-7.44,4.48-14.8,9.08-22.31,13.44a4.59,4.59,0,0,1-3.9,0C2278.48,66.52,2261,56,2242.7,45Zm-957.41,0a20.54,20.54,0,0,1,3.83-.86c16.3,0,32.6-.06,48.89,0a8.69,8.69,0,0,1,4.11,1.39q10.76,6.34,21.39,12.89c3.89,2.38,3.94,3.62.09,6Q1353,71,1342.28,77.27a4.18,4.18,0,0,1-3.57-.09C1321.08,66.64,1303.52,56,1285.29,44.94Zm1723.51.17a12,12,0,0,1,2.46-.93c16.82-.06,33.65-.12,50.47-.09a6.63,6.63,0,0,1,3.23,1c7.74,4.58,15.39,9.31,23.15,13.85,2.72,1.6,2.92,2.88.16,4.54-7.43,4.48-14.79,9.09-22.32,13.41a5,5,0,0,1-4.22-.3C3044.27,66.32,3026.9,55.91,3008.8,45.11ZM518.91,44.79a27.7,27.7,0,0,1,3.67-.7c16.46,0,32.92-.07,49.39,0a8.76,8.76,0,0,1,4.11,1.36q10.75,6.35,21.39,12.88c3.92,2.41,4,3.63.16,6-7,4.39-14.14,8.71-21.33,12.85a4.69,4.69,0,0,1-3.91-.37C554.87,66.44,537.41,55.92,518.91,44.79Zm957.35,0a43.42,43.42,0,0,1,4.81-.71c16,0,32-.07,48,0a8.75,8.75,0,0,1,4.16,1.2c7.61,4.48,15.11,9.14,22.71,13.62,2.89,1.7,3.28,2.92.08,4.77-7.24,4.18-14.29,8.68-21.57,12.76a5.9,5.9,0,0,1-5,0C1512.12,66.25,1494.89,55.91,1476.26,44.8Zm2106.42-.07a51.71,51.71,0,0,1,5.24-.67c15.8,0,31.6-.06,47.4,0a9.73,9.73,0,0,1,4.63,1.3c7.19,4.19,14.3,8.52,21.41,12.86,4.15,2.53,4.2,3.84,0,6.36-6.71,4-13.47,8-20.34,11.74a5.85,5.85,0,0,1-4.85.19C3618.73,66.32,3601.39,55.91,3582.68,44.73Zm-2871,.89c.06-.42.11-.83.16-1.25,1.75-.11,3.5-.3,5.25-.31,14.67,0,29.33-.13,44,.08a17.19,17.19,0,0,1,7.87,2.18c7.12,4,14,8.44,21,12.58,2.88,1.69,3.34,2.9.11,4.77-7.23,4.18-14.28,8.68-21.56,12.76a5.9,5.9,0,0,1-5,0C746.14,66.26,728.9,55.92,711.64,45.62Zm1915-5.65c-.09-.37-.19-.74-.28-1.12a26.31,26.31,0,0,1,2.32-1.77q25.15-15.27,50.35-30.44a4.34,4.34,0,0,1,3.7-.18c8.32,5,16.52,10.27,24.89,15.52-.91,1.15-1.37,2.17-2.16,2.64-6.47,3.86-13.23,7.29-19.43,11.53a22.62,22.62,0,0,1-14.18,3.9c-10.8-.27-21.61-.08-32.42-.08Zm765.93-.29-.19-1c17.56-10.72,35.1-21.48,52.72-32.1a4.27,4.27,0,0,1,3.71,0c8.23,5,16.35,10.12,24.83,15.42-.85,1-1.39,2.16-2.29,2.7-6.3,3.83-12.84,7.28-19,11.35a24.16,24.16,0,0,1-14.64,4.07c-13.45-.3-26.93-.09-40.39-.11C3395.78,40,3394.19,39.78,3392.6,39.68ZM1175.85,21.86c-1.2,1.3-1.82,2.35-2.74,2.91-6.82,4.21-13.57,8.56-20.62,12.34a23.16,23.16,0,0,1-10,2.74c-14.46.29-28.93.14-43.39.12-1.55,0-3.09-.23-5.52-.41,1.71-1.36,2.53-2.16,3.48-2.74,16.64-10.07,33.27-20.16,50-30.07,1-.6,3.11-.23,4.26.44C1159.37,11.86,1167.33,16.74,1175.85,21.86ZM1860,39.6a10.1,10.1,0,0,1,1.34-1.49c17.28-10.58,34.55-21.18,51.91-31.64a4.32,4.32,0,0,1,3.71.15c8.22,5,16.34,10.08,24.78,15.33-.93,1.09-1.5,2.2-2.41,2.75-6.46,3.87-13.24,7.26-19.43,11.53-4.31,3-8.63,3.89-13.7,3.81-13.63-.21-27.26,0-40.89-.08C1863.68,40,1862.11,39.75,1860,39.6ZM328.64,40l-.26-1.27C345.94,28,363.49,17.2,381.12,6.6a4.75,4.75,0,0,1,4,.31c8.15,4.81,16.19,9.81,24.59,15-.87,1.1-1.39,2.25-2.28,2.78C401,28.52,394.17,31.91,388,36.18c-4.46,3.09-9,4-14.19,3.86C361,39.81,348.2,40,335.4,40Zm2298,5.46.21-1c1.56-.12,3.13-.33,4.69-.33,13.3,0,26.62.17,39.92-.14,5.67-.12,10.56.94,15.32,4.19,5.92,4,12.32,7.34,18.44,11.08.93.57,1.45,1.83,2.37,3-8.56,5.1-16.5,9.93-24.56,14.54a4.9,4.9,0,0,1-4.12,0c-9.23-5.26-18.38-10.67-27.48-16.14C2643.14,55.62,2634.92,50.48,2626.66,45.41Zm-2298,0,.21-1c1.56-.12,3.12-.33,4.68-.33,13.31,0,26.62.17,39.92-.14,5.67-.12,10.56.93,15.33,4.19,5.91,4,12.32,7.33,18.43,11.08.94.57,1.46,1.82,2.38,3-8.55,5.1-16.49,9.93-24.56,14.54a4.92,4.92,0,0,1-4.11,0q-13.85-7.91-27.49-16.15C345.14,55.62,336.92,50.48,328.66,45.41Zm847,16.61c-8.75,5.38-16.87,10.47-25.14,15.33-.84.5-2.72-.13-3.81-.77-11.65-6.83-23.25-13.77-34.84-20.7-5.78-3.45-11.52-7-18.37-11.11a32.65,32.65,0,0,1,3.8-.69c16.14,0,32.27,0,48.41,0a8.54,8.54,0,0,1,4.09,1.25q11.67,6.77,23.19,13.77C1174,59.73,1174.64,60.86,1175.69,62Zm766.76-1.73c-.44.72-.89,1.44-1.34,2.16-8.07,4.9-16.1,9.88-24.27,14.6-1,.56-3,.14-4.15-.53-11.67-6.81-23.26-13.76-34.85-20.7-5.76-3.44-11.48-6.93-17.21-10.4a9.42,9.42,0,0,1,5.28-1.35c14.31,0,28.62-.16,42.92.09a21.09,21.09,0,0,1,9.25,2.46c7.17,3.89,14,8.33,21.07,12.48A19,19,0,0,0,1942.45,60.29ZM3473.69,62c-8.75,5.38-16.87,10.48-25.14,15.33-.84.5-2.72-.13-3.81-.77-11.65-6.83-23.25-13.77-34.84-20.7-5.78-3.45-11.52-7-18.37-11.11a32.65,32.65,0,0,1,3.8-.69c16.14,0,32.27,0,48.41,0a8.54,8.54,0,0,1,4.09,1.25q11.67,6.77,23.19,13.77C3472,59.73,3472.64,60.86,3473.69,62ZM2116,45.57l.18-1.08a36.78,36.78,0,0,1,3.77-.4c15.47,0,30.94-.08,46.42,0a11.8,11.8,0,0,1,5.5,1.64c7.51,4.32,14.87,8.89,22.36,13.24,2.62,1.53,3,2.84.28,4.54-7.49,4.6-14.94,9.27-22.51,13.74a4.2,4.2,0,0,1-3.55-.24C2150.91,66.62,2133.45,56.08,2116,45.57Zm1531-.66a19.22,19.22,0,0,1,3.12-.81q24.72,0,49.42,0a7.76,7.76,0,0,1,3.68,1.13c7.75,4.56,15.43,9.24,23.17,13.83,2.66,1.57,2.8,2.91,0,4.56-4.36,2.63-9,5-12.87,8.19-7.53,6.24-14.06,5.59-22.1.2C3677.33,62.56,3662.45,54.26,3647,44.91Zm-765.94,0a25.8,25.8,0,0,1,4.14-.83c16,0,31.94-.07,47.91,0a8.74,8.74,0,0,1,4.16,1.19c7.77,4.54,15.46,9.2,23.18,13.81,2.67,1.6,2.67,3-.07,4.59-4.38,2.59-9,4.92-12.88,8.16-7.55,6.34-14.11,5.48-22.09.13C2911.25,62.55,2896.4,54.23,2881,44.93Zm-2298,0a27.32,27.32,0,0,1,4.2-.8q24-.06,47.91,0a7.81,7.81,0,0,1,3.76.92c7.9,4.64,15.73,9.4,23.58,14.11,2.71,1.62,2.56,3-.14,4.6-4.38,2.58-9,4.94-12.89,8.14-7.54,6.17-14.65,6.31-22,0a23.76,23.76,0,0,0-3.33-2Zm766.93.58.34-1.42H1355c13.65,0,27.29.12,40.93-.09a21.82,21.82,0,0,1,13.47,3.77c5.9,4.06,12.15,7.64,18.43,11.11,3.4,1.89,3.22,3.24.15,5.08-7.26,4.36-14.46,8.82-21.77,13.09a4.21,4.21,0,0,1-3.53.28C1385.08,66.77,1367.51,56.11,1349.92,45.48ZM73.59,45.62c.09-.42.17-.84.25-1.26,1.59-.1,3.17-.29,4.76-.29,11.65,0,23.33.35,35-.16,8.74-.38,16.5,1,23.6,6.54,4.35,3.36,9.42,5.81,14.23,8.56,2.74,1.57,3.52,2.8.21,4.72A188.43,188.43,0,0,0,135,74c-5.11,3.7-9.59,4.22-14.57,0-2.06-1.73-4.67-2.81-7-4.22Zm3063.84,0,.33-1.18c1.58-.11,3.15-.32,4.73-.33,14.32,0,28.65-.16,43,.09a21,21,0,0,1,9.28,2.44c7.17,3.88,14.05,8.31,21,12.53,2.54,1.54,2.86,2.83-.07,4.55-7.44,4.37-14.69,9.06-22.16,13.38-1,.58-3.08.17-4.23-.5-10.55-6.18-21-12.52-31.48-18.8Q3147.65,51.66,3137.43,45.58Zm-1533-.61a21.18,21.18,0,0,1,3.49-.87q24.48-.06,49,0a7.82,7.82,0,0,1,3.62,1.25c7.76,4.54,15.47,9.16,23.19,13.75,2.52,1.5,3,2.79,0,4.53-7.56,4.5-15,9.27-22.54,13.7-.87.51-2.77-.08-3.87-.72-10.53-6.2-21-12.53-31.47-18.81Zm765.9-.06a35.17,35.17,0,0,1,4.54-.82c15.83,0,31.65-.08,47.47,0a9.74,9.74,0,0,1,4.53,1.52c7.48,4.37,14.81,9,22.35,13.26,3.26,1.86,3.43,3,.13,5-7.29,4.3-14.42,8.88-21.75,13.11a5.09,5.09,0,0,1-4.22-.33c-10.55-6.17-21-12.5-31.49-18.79Zm-1530.73.73c.07-.42.13-.85.2-1.27,1.58-.1,3.17-.29,4.76-.3,11.32,0,22.67.37,34-.16,9.23-.43,17.54.83,25.07,6.7,4.22,3.28,9.12,5.68,13.76,8.4,2.57,1.5,3.76,2.71.26,4.71C912,67,906.31,70.23,901,74c-5.07,3.63-9.57,4.35-14.57,0-2-1.75-4.66-2.81-7-4.22Z"/><path class="cls-1" d="M3830,84c-18-.1-36-.27-54-.3q-67.47-.08-135,0-60.5,0-121,0-67.49,0-135-.14c-31.32,0-62.65.12-94,.14q-78.48.06-157,.07l-255.93,0q-63.24,0-126.47,0c-44.32,0-88.64-.23-133-.24-43.82,0-87.64.18-131.46.18-41.16,0-82.32-.18-123.48-.18-40.32,0-80.64.16-121,.18q-66.74,0-133.46-.07-60.49,0-121,0-67.74,0-135.46-.13c-30.16,0-60.32.12-90.48.14q-80.24.06-160.47.07-127.71,0-255.43,0t-255.44,0q-127.22,0-254.43,0-128.47,0-256.93.06-63,0-126,0c-44.33,0-88.65-.23-133-.24-43.48,0-87,.17-130.45.17-41.5,0-83-.18-124.48-.16-22,0-44,.29-66,.44v37c8.46-.06,16.93-.29,25.38-.09,3.73.08,4.88-1.06,4.86-4.82-.08-10.73.08-10.73,10.8-10.11a11,11,0,0,1,1.75.56c0,3.33-.31,7,.16,10.55.18,1.36,2.09,3.53,3.27,3.57,8.47.31,17,.16,25.9.16.27-5,.52-9.71.78-14.58H85.21v14.59h23.45c6.54,0,6.54,0,6.58-6.39.05-8.38.05-8.38,8.28-8.27,1.15,0,2.29.14,4.42.28,0,3.53-.3,7,.15,10.38.18,1.44,1.89,3.78,3,3.82,8.61.32,17.25.18,26.22.18.2-1.88.48-3.33.51-4.78.22-10.51-1.88-10.21,10.93-9.73.28,0,.55.31,1.2.68.2,4.34.42,8.9.63,13.47h29.8c0-3,.09-5.65,0-8.29-.18-4.32,1.42-6.32,6.11-6.1,6.58.32,6.59.07,6.61,6.48,0,1.67-.33,3.45.15,5,.41,1.26,1.76,3.12,2.74,3.15,8.76.24,17.54.14,27.05.14,0-3.06,0-5.51,0-8,.05-6.72.07-6.41,6.6-6.8,4.69-.28,6.37,1.35,5.86,5.87a21.38,21.38,0,0,0,.08,6c.19,1,1.34,2.7,2.08,2.71,9.09.19,18.18.12,27.42.12.22-4.63-1-9.67,1-12.24,1.85-2.4,7.1-2.18,11.9-3.37v15.42h29.9c0-2.77.21-5.39,0-8-.47-4.76.88-7.45,6.25-6.43a6.7,6.7,0,0,0,2,0c3.26-.43,4.53,1.06,4.42,4.25-.13,3.4,0,6.81,0,10.43H370c.47-4.59-.39-9.63,1.71-12.46,1.73-2.33,7-2,11.54-3.07v15.54c8.54,0,16.5-.21,24.45.08,4.1.15,5.47-1,5.43-5.27-.11-10.14-2-9.62,10.16-9.42a17.17,17.17,0,0,1,2.28.49,94.3,94.3,0,0,0,.12,10.21c.15,1.37,1.63,3.67,2.56,3.7,8.93.28,17.86.17,26.59.17a10.52,10.52,0,0,0,.8-2,26.78,26.78,0,0,0,.19-3c.23-11-2.22-10.12,11.24-9.76.27,0,.52.36,1.16.84a86.39,86.39,0,0,0,.13,10.14c.15,1.33,1.76,3.53,2.77,3.57,8.77.28,17.55.16,26.95.16V106.22h12.78v14.61c9.16,0,17.47-.17,25.77.07,3.7.11,4.45-1.49,4.53-4.73.24-10.68.33-10.68,10.84-10.12.29,0,.57.3,1.38.75,0,3.17-.32,6.67.15,10.06.21,1.44,2.06,3.74,3.23,3.78,8.6.33,17.22.18,26.44.18V106.31h12.9v14.51c9.46,0,18.26.12,27.06-.16,1,0,2.56-2.23,2.7-3.55a101.84,101.84,0,0,0,.13-10.78h12.45c0,3.89-.21,7.4.12,10.86.12,1.26,1.51,3.41,2.37,3.43,8.93.25,17.86.16,27.38.16V106.37h12.87v14.46c6.93,0,13.24,0,19.55,0,10,0,10,0,10.35-10.19,0-.67-.22-1.53.11-2,.78-1,1.75-2.5,2.78-2.62a89.12,89.12,0,0,1,9.77-.12c0,4.18,0,7.66,0,11.13-.06,2.73,1.08,3.85,3.89,3.8,7.16-.12,14.33-.2,21.49,0,3.41.12,4.4-1.25,4.26-4.36-.16-3.4,0-6.82,0-10.35H766.2v14.65h19.64c10.08,0,10.08,0,10.31-10.2,0-.66-.23-1.53.1-2,.77-1,1.74-2.5,2.76-2.62a89.26,89.26,0,0,1,9.78-.12c0,4.18.05,7.65,0,11.12-.06,2.73,1.09,3.85,3.89,3.81,8.32-.12,16.63,0,25.46,0,.26-5,.5-9.69.76-14.6h12.29v14.6c8.7,0,16.83-.26,24.93.1,4.41.2,5.28-1.47,5.21-5.45-.16-9.62,0-9.62,9.66-9.31.65,0,1.3.16,3,.38a96.25,96.25,0,0,0,.14,10.74c.15,1.27,1.87,3.35,2.92,3.38,8.63.28,17.26.16,26.25.16.21-1.84.5-3.28.53-4.74.21-10.58-1.85-10.23,10.88-9.78.29,0,.57.29,1.23.66.21,4.33.43,8.89.66,13.52h29.79c0-3,.09-5.63,0-8.26-.17-4.28,1.33-6.37,6.06-6.15,6.64.32,6.65.07,6.66,6.93,0,1.17.11,2.35,0,3.5-.3,3.24,1.09,4.45,4.34,4.38,7-.16,14-.22,21,0,3.46.12,5-1,4.62-4.49a29.19,29.19,0,0,1,0-3.5c0-6.77.07-6.46,6.55-6.85,4.63-.27,6.41,1.27,5.91,5.82a18.65,18.65,0,0,0,.1,6c.24,1.11,1.61,2.8,2.51,2.82,8.93.21,17.87.13,26.83.13.37-4.78-.67-9.93,1.42-12.67,1.75-2.29,7.18-1.77,11.77-2.64v15h29.36c.14-2.2.37-4.3.39-6.4.07-8.19,0-8,8.18-8.06,3.72,0,4.6,1.58,4.47,4.78s0,6.5,0,9.74H1136c.43-4.3-.44-9.34,1.66-12.18,1.73-2.34,7-2.06,11.46-3.13,0,4.94.15,8.25,0,11.55-.18,3.06,1,4.12,4.05,4.06,7-.15,14-.32,21,0,4.26.23,4.94-1.59,4.94-5.24,0-10.21-1.93-9.64,10.15-9.46a17.92,17.92,0,0,1,2.34.48c0,3,.21,6.1-.06,9.18-.35,4,1.32,5.18,5.18,5,6.65-.27,13.34-.3,20,0,3.93.18,5.26-1,5.23-5-.09-11.4-1.72-9.93,10.62-9.9.44,0,.87.35,1.69.69a91.56,91.56,0,0,0,.13,10.34c.15,1.34,1.73,3.57,2.72,3.6,8.78.29,17.56.17,27,.17V106.34H1277v14.49c9,0,17.32-.17,25.62.07,3.65.11,4.49-1.39,4.57-4.68.26-10.68.35-10.68,10.8-10.18.29,0,.57.28,1.42.73,0,3.16-.32,6.66.15,10,.2,1.45,2,3.77,3.18,3.82,8.6.32,17.23.17,26.46.17V106.29h12.9v14.53c9.45,0,18.25.12,27-.16,1,0,2.61-2.2,2.75-3.51a102.93,102.93,0,0,0,.13-10.85h12.45c0,3.88-.21,7.38.11,10.84.12,1.27,1.49,3.45,2.34,3.47,8.93.26,17.86.16,27.38.16V106.35h12.88v14.48h18.54c10.91,0,10.91,0,11.39-10.65,0-.5-.16-1.16.09-1.46.83-1,1.74-2.54,2.75-2.66a89.93,89.93,0,0,1,9.82-.12c0,4.14,0,7.61,0,11.08-.06,2.69,1,3.9,3.84,3.85,7.33-.13,14.67-.15,22,0,2.89.06,3.85-1.1,3.78-3.81-.1-3.58,0-7.17,0-10.91h12.87v14.2a10.45,10.45,0,0,0,1.63.4q8.49,0,17,.06c11,0,11,0,11.37-10.64,0-.5-.18-1.17.07-1.47.82-1,1.73-2.54,2.74-2.66a89.89,89.89,0,0,1,9.82-.12,102.18,102.18,0,0,0,.13,11.06c.16,1.35,1.73,3.6,2.71,3.64,8.75.28,17.52.16,27,.16V106.21h12.72v14.62c8.77,0,16.77-.25,24.75.09,4.3.19,5.34-1.32,5.26-5.39-.19-9.64,0-9.65,9.6-9.36.66,0,1.31.15,3,.35a95.9,95.9,0,0,0,.14,10.72c.14,1.29,1.84,3.39,2.88,3.43,8.63.28,17.27.16,26.28.16.21-1.8.51-3.24.54-4.69.2-10.69-1.78-10.26,10.84-9.83.29,0,.57.27,1.27.62.21,4.34.43,8.9.65,13.57h29.8c0-3,.08-5.6,0-8.23-.16-4.23,1.24-6.42,6-6.19,6.68.32,6.69.07,6.7,6.89,0,1.16.1,2.34,0,3.5-.29,3.18,1,4.49,4.29,4.42q10.74-.26,21.5,0c3,.07,4.37-.87,4.16-3.94-.11-1.66.15-3.35,0-5-.5-4.63,1.49-5.86,6-6,5-.12,7.13,1.24,6.46,6.35a15.22,15.22,0,0,0,.08,5.47c.28,1.12,1.59,2.83,2.47,2.85,8.94.21,17.88.13,26.89.13.35-4.74-.7-9.87,1.39-12.63,1.74-2.3,7.16-1.81,11.38-2.64.28,6,.49,10.5.7,14.93h29.48c0-2.36,0-4.32,0-6.28,0-8.22,0-8,8.12-8.1,3.67,0,4.65,1.48,4.51,4.74s0,6.51,0,10H1902c.2-1.7.44-3,.47-4.28.27-11.09.25-11.09,11.29-10.21.28,0,.53.35,1.35.93,0,2.75.17,5.89-.05,9-.24,3.44,1,4.75,4.51,4.62,6.83-.23,13.68-.33,20.49,0,4.21.22,5-1.48,5-5.19,0-10.3-1.9-9.68,10.09-9.52a20.69,20.69,0,0,1,2.38.47c0,3.29.11,6.73,0,10.16-.14,3,1.1,4.1,4.11,4,7.16-.16,14.34-.27,21.49,0,3.95.17,4.76-1.48,4.75-5,0-11.52-1.62-9.94,10.6-10a6.57,6.57,0,0,1,1.74.67,93.63,93.63,0,0,0,.12,10.32c.16,1.36,1.71,3.62,2.69,3.65,8.77.29,17.56.17,27,.17V106.32h12.92v14.5c8.83,0,17-.23,25.1.1,4.12.17,5.11-1.37,5.13-5.16.07-10.84.2-10.84,11.22-9.62.14,0,.25.2,1,.83,0,2.92-.32,6.42.15,9.8.2,1.47,2,3.82,3.13,3.86,8.61.33,17.24.18,26.48.18V106.27H2128v14.56c9.44,0,18.24.11,27-.16,1,0,2.65-2.18,2.79-3.47a101.25,101.25,0,0,0,.14-10.91h12.45c0,3.85-.21,7.35.11,10.81.12,1.28,1.46,3.48,2.29,3.51,8.93.25,17.87.16,27.4.16V106.33h12.87v14.5c8.92,0,17.23-.17,25.53.07,3.65.11,4.48-1.35,4.51-4.67.1-10.91.2-10.91,11.19-10.14.28,0,.54.31,1.4.83,0,3.12-.21,6.61.1,10,.12,1.31,1.38,3.6,2.18,3.62,8.92.26,17.86.17,27.46.17v-14.6h12.67v14.67c9,0,17.3-.16,25.6.07,3.65.1,4.47-1.31,4.48-4.67,0-10.9.14-10.9,11.16-10.14.28,0,.55.31,1.41.84a87,87,0,0,0,.13,10c.15,1.36,1.7,3.64,2.67,3.67,8.75.29,17.52.17,27,.17V106.21h12.72v14.62c8.76,0,16.76-.23,24.73.09,4.24.17,5.4-1.21,5.31-5.35-.19-9.66,0-9.67,9.55-9.4.66,0,1.32.14,3.07.33,0,3.54-.31,7.17.16,10.69.18,1.34,2.11,3.44,3.31,3.48,8.47.3,16.95.16,25.81.16.22-1.75.53-3.2.56-4.64.18-10.8-1.71-10.28,10.79-9.89.3,0,.58.25,1.31.6.21,4.33.43,8.89.65,13.62h29.37c.34-4.24-.34-8.62,1.19-12,2.24-5,7.29-1.38,12-2.57,0,3.77.18,6.88,0,10-.26,3.61.95,5.12,4.78,5,7-.25,14-.25,21,0,3.45.12,4.44-1.32,4.21-4.4-.11-1.49.13-3,0-4.5-.49-4.57,1.34-6.2,6-5.92,6.38.37,6.39.08,6.45,6.71a26.16,26.16,0,0,0,.17,5.47c.22,1,1.53,2.4,2.38,2.42,8.94.17,17.88.11,26.93.11.35-4.71-.72-9.83,1.36-12.59,1.74-2.31,7.15-1.86,11.41-2.73.28,6,.49,10.52.7,15h29.48c0-2.34,0-4.29,0-6.25,0-8.26,0-8.07,8.07-8.14,3.61,0,4.7,1.4,4.56,4.68s0,6.53,0,9.87H2668c.17-1.46.43-2.74.47-4,.27-11.08.26-11.08,11.24-10.26.28,0,.53.33,1.39.89,0,2.58.2,5.56,0,8.51-.33,3.82.89,5.37,5,5.18a178.47,178.47,0,0,1,19.49,0c4.55.28,5.66-1.38,5.55-5.66-.23-9.45,0-9.46,9.54-9.08.65,0,1.31.15,2.92.34,0,3.41.11,6.84,0,10.26-.13,3,1,4.15,4.07,4.09,7.16-.16,14.34-.27,21.49,0,3.89.16,4.81-1.38,4.8-4.91,0-11.61-1.6-10,10.54-10a7.12,7.12,0,0,1,1.79.64,93.6,93.6,0,0,0,.12,10.32c.15,1.36,1.68,3.65,2.64,3.69,8.78.28,17.57.16,27,.16V106.3h12.93v14.52c8.82,0,17-.22,25.08.1,4.07.16,5.16-1.27,5.19-5.11.07-10.8.2-10.8,11.18-9.7.13,0,.25.2,1,.86a68.71,68.71,0,0,0,.15,9.76c.2,1.47,2,3.86,3.09,3.9,8.61.33,17.24.18,26.48.18V106.28H2894v14.55c9.44,0,18.23.11,27-.16,1,0,2.69-2.14,2.83-3.43a102.09,102.09,0,0,0,.13-11h12.69v14.21h29.54V106.31h12.87v14.52c8.91,0,17.22-.16,25.51.07,3.6.1,4.53-1.25,4.56-4.62.11-10.91.22-10.92,11.15-10.2.28,0,.55.29,1.43.8a89.21,89.21,0,0,0,.13,10c.15,1.38,1.66,3.68,2.61,3.71,8.76.29,17.54.17,27,.17V106.32h12.84v14.51c8.82,0,17.13-.16,25.43.07,3.59.1,4.51-1.21,4.52-4.62,0-10.9.16-10.91,11.12-10.21.29,0,.55.3,1.45.82a89,89,0,0,0,.12,10c.16,1.37,1.67,3.68,2.63,3.71,8.76.29,17.54.17,27,.17V106.36h12.9v14.47H3169c9.72,0,9.77,0,10.26-9.71.16-3.39,1.35-5.31,5.1-5,2.25.19,4.53,0,7.61,0,0,4.09-.32,7.59.15,11,.19,1.36,2.09,3.48,3.27,3.53,8.48.3,17,.16,25.34.16a7.16,7.16,0,0,0,.8-1.63,22.46,22.46,0,0,0,.29-3c.39-11,.39-11,11.23-9.86.14,0,.25.2.89.73.18,4.1.39,8.66.61,13.43h29.4c.32-4.22-.36-8.58,1.14-12,2.21-5,7.3-1.35,12-2.69a85.64,85.64,0,0,1-.06,9c-.57,4.95,1.54,6.44,6.25,6,4.31-.36,8.66-.08,13-.08,10.11,0,10,0,10.86-10.28.12-1.5,1.21-3.78,2.37-4.17,7-2.35,9.93,0,10,7.35a15.81,15.81,0,0,0,.15,4.47c.3,1,1.51,2.44,2.34,2.46,8.94.18,17.89.11,27,.11.33-4.66-.75-9.78,1.32-12.54,1.74-2.33,7.15-1.91,11.44-2.81.28,6,.49,10.52.69,15h29.2c.11-2.3.26-4.26.28-6.22.05-8.29,0-8.11,8-8.18,3.56,0,4.76,1.29,4.61,4.64s0,6.53,0,9.92H3434c.18-1.43.45-2.71.49-4,.29-11.06.28-11.06,11.19-10.32.29,0,.55.31,1.44.86v6.5c0,7.14,0,7.15,7.37,7.15,5.67,0,11.35-.3,17,.09,4.49.31,5.69-1.25,5.61-5.6-.18-10-1.34-9.18,9.48-9.12a22.27,22.27,0,0,1,3,.48c0,3.3.17,6.45,0,9.57-.23,3.41,1,4.76,4.53,4.64,6.83-.23,13.68-.31,20.49,0,4.23.21,5.44-1.25,5.37-5.37-.21-11.56-.84-9.36,10-9.58a13.19,13.19,0,0,1,2.33.44c0,3.59-.21,7.07.1,10.51.11,1.32,1.34,3.64,2.12,3.66,9.07.26,18.16.16,27.85.16v-14.8h12.43c0,4,.14,7.31,0,10.6s.9,4.52,4.27,4.35c4.82-.24,9.66,0,14.49,0,11,0,11,0,11.73-11,0-.5-.13-1.16.12-1.47.76-.89,1.62-2.25,2.54-2.33,3.05-.3,6.15-.11,9.54-.11,0,4.1-.27,7.46.12,10.74.17,1.44,1.63,3.87,2.57,3.91,8.91.3,17.83.17,27.18.17V106.29H3660v14.2H3690V106.26h12.62v14.25h29.53V106.3H3745v14.53c8.9,0,17.21-.16,25.5.07,3.55.1,4.57-1.14,4.6-4.58.12-10.91.24-10.91,11.1-10.26.29,0,.57.28,1.48.77a89.35,89.35,0,0,0,.13,10c.15,1.38,1.63,3.72,2.57,3.75,8.76.29,17.54.17,27,.17V106H3830Z"/><path class="cls-1" d="M0,127v15H3830V127c-2.5,0-5,0-7.5,0q-1643,0-3286.07,0Q268.22,127,0,127Z"/><path d="M0,127q268.22,0,536.43,0,1643,0,3286.07,0c2.5,0,5,0,7.5,0V106h-12.6v14.79c-9.44,0-18.22.12-27-.17-.94,0-2.42-2.37-2.57-3.75a89.35,89.35,0,0,1-.13-10c-.91-.49-1.19-.75-1.48-.77-10.86-.65-11-.65-11.1,10.26,0,3.44-1,4.68-4.6,4.58-8.29-.23-16.6-.07-25.5-.07V106.3h-12.88v14.21h-29.53V106.26H3690v14.23H3660v-14.2h-12.72v14.48c-9.35,0-18.27.13-27.18-.17-.94,0-2.4-2.47-2.57-3.91-.39-3.28-.12-6.64-.12-10.74-3.39,0-6.49-.19-9.54.11-.92.08-1.78,1.44-2.54,2.33-.25.31-.09,1-.12,1.47-.75,11-.75,11-11.73,11-4.83,0-9.67-.19-14.49,0-3.37.17-4.44-1.17-4.27-4.35s0-6.59,0-10.6h-12.43v14.8c-9.69,0-18.78.1-27.85-.16-.78,0-2-2.34-2.12-3.66-.31-3.44-.1-6.92-.1-10.51a13.19,13.19,0,0,0-2.33-.44c-10.82.22-10.19-2-10,9.58.07,4.12-1.14,5.58-5.37,5.37-6.81-.33-13.66-.25-20.49,0-3.57.12-4.76-1.23-4.53-4.64.21-3.12,0-6.27,0-9.57a22.27,22.27,0,0,0-3-.48c-10.82-.06-9.66-.93-9.48,9.12.08,4.35-1.12,5.91-5.61,5.6-5.64-.39-11.32-.09-17-.09-7.36,0-7.36,0-7.37-7.15v-6.5c-.89-.55-1.15-.84-1.44-.86-10.91-.74-10.9-.74-11.19,10.32,0,1.28-.31,2.56-.49,4h-29.56c0-3.39-.11-6.66,0-9.92s-1-4.67-4.61-4.64c-8,.07-8-.11-8,8.18,0,2-.17,3.92-.28,6.22h-29.2c-.2-4.53-.41-9.08-.69-15-4.29.9-9.7.48-11.44,2.81-2.07,2.76-1,7.88-1.32,12.54-9.1,0-18.05.07-27-.11-.83,0-2-1.46-2.34-2.46a15.81,15.81,0,0,1-.15-4.47c0-7.36-3-9.7-10-7.35-1.16.39-2.25,2.67-2.37,4.17-.83,10.27-.75,10.28-10.86,10.28-4.34,0-8.69-.28-13,.08-4.71.4-6.82-1.09-6.25-6a85.64,85.64,0,0,0,.06-9c-4.69,1.34-9.78-2.34-12,2.69-1.5,3.4-.82,7.76-1.14,12h-29.4c-.22-4.77-.43-9.33-.61-13.43-.64-.53-.75-.72-.89-.73-10.84-1.16-10.84-1.16-11.23,9.86a22.46,22.46,0,0,1-.29,3,7.16,7.16,0,0,1-.8,1.63c-8.37,0-16.86.14-25.34-.16-1.18,0-3.08-2.17-3.27-3.53-.47-3.38-.15-6.88-.15-11-3.08,0-5.36.15-7.61,0-3.75-.32-4.94,1.6-5.1,5-.49,9.72-.54,9.72-10.26,9.71h-19.55V106.36h-12.9v14.43c-9.45,0-18.23.12-27-.17-1,0-2.47-2.34-2.63-3.71a89,89,0,0,1-.12-10c-.9-.52-1.16-.8-1.45-.82-11-.7-11.08-.69-11.12,10.21,0,3.41-.93,4.72-4.52,4.62-8.3-.23-16.61-.07-25.43-.07V106.32h-12.84v14.47c-9.43,0-18.21.12-27-.17-.95,0-2.46-2.33-2.61-3.71a89.21,89.21,0,0,1-.13-10c-.88-.51-1.15-.78-1.43-.8-10.93-.72-11-.71-11.15,10.2,0,3.37-1,4.72-4.56,4.62-8.29-.23-16.6-.07-25.51-.07V106.31H2966.2v14.18h-29.54V106.28H2924a102.09,102.09,0,0,1-.13,11c-.14,1.29-1.81,3.4-2.83,3.43-8.79.27-17.58.16-27,.16V106.28h-12.9v14.53c-9.24,0-17.87.15-26.48-.18-1.13,0-2.89-2.43-3.09-3.9a68.71,68.71,0,0,1-.15-9.76c-.77-.66-.89-.85-1-.86-11-1.1-11.11-1.1-11.18,9.7,0,3.84-1.12,5.27-5.19,5.11-8.12-.32-16.26-.1-25.08-.1V106.3H2796v14.5c-9.42,0-18.21.12-27-.16-1,0-2.49-2.33-2.64-3.69a93.6,93.6,0,0,1-.12-10.32,7.12,7.12,0,0,0-1.79-.64c-12.14,0-10.58-1.6-10.54,10,0,3.53-.91,5.07-4.8,4.91-7.15-.3-14.33-.19-21.49,0-3.06.06-4.2-1.1-4.07-4.09.14-3.42,0-6.85,0-10.26-1.61-.19-2.27-.32-2.92-.34-9.57-.38-9.77-.37-9.54,9.08.11,4.28-1,5.94-5.55,5.66a178.47,178.47,0,0,0-19.49,0c-4.08.19-5.3-1.36-5-5.18.25-3,0-5.93,0-8.51-.86-.56-1.11-.87-1.39-.89-11-.82-11-.82-11.24,10.26,0,1.29-.3,2.57-.47,4h-29.58c0-3.34-.1-6.61,0-9.87s-.95-4.72-4.56-4.68c-8,.07-8-.12-8.07,8.14,0,2,0,3.91,0,6.25h-29.48c-.21-4.48-.42-9-.7-15-4.26.87-9.67.42-11.41,2.73-2.08,2.76-1,7.88-1.36,12.59-9,0-18,.06-26.93-.11-.85,0-2.16-1.45-2.38-2.42a26.16,26.16,0,0,1-.17-5.47c-.06-6.63-.07-6.34-6.45-6.71-4.67-.28-6.5,1.35-6,5.92.16,1.49-.08,3,0,4.5.23,3.08-.76,4.52-4.21,4.4-7-.23-14-.23-21,0-3.83.13-5-1.38-4.78-5,.22-3.09,0-6.2,0-10-4.67,1.19-9.72-2.4-12,2.57-1.53,3.38-.85,7.76-1.19,12h-29.37c-.22-4.73-.44-9.29-.65-13.62-.73-.35-1-.59-1.31-.6-12.5-.39-10.61-.91-10.79,9.89,0,1.44-.34,2.89-.56,4.64-8.86,0-17.34.14-25.81-.16-1.2,0-3.13-2.14-3.31-3.48-.47-3.52-.16-7.15-.16-10.69-1.75-.19-2.41-.31-3.07-.33-9.54-.27-9.74-.26-9.55,9.4.09,4.14-1.07,5.52-5.31,5.35-8-.32-16-.09-24.73-.09V106.21h-12.72V120.8c-9.46,0-18.23.12-27-.17-1,0-2.52-2.31-2.67-3.67a87,87,0,0,1-.13-10c-.86-.53-1.13-.82-1.41-.84-11-.76-11.13-.76-11.16,10.14,0,3.36-.83,4.77-4.48,4.67-8.3-.23-16.62-.07-25.6-.07V106.16h-12.67v14.6c-9.6,0-18.54.09-27.46-.17-.8,0-2.06-2.31-2.18-3.62-.31-3.44-.1-6.93-.1-10-.86-.52-1.12-.81-1.4-.83-11-.77-11.09-.77-11.19,10.14,0,3.32-.86,4.78-4.51,4.67-8.3-.24-16.61-.07-25.53-.07v-14.5h-12.87v14.44c-9.53,0-18.47.09-27.4-.16-.83,0-2.17-2.23-2.29-3.51-.32-3.46-.11-7-.11-10.81H2158a101.25,101.25,0,0,1-.14,10.91c-.14,1.29-1.78,3.43-2.79,3.47-8.78.27-17.58.16-27,.16V106.27h-12.9v14.54c-9.24,0-17.87.15-26.48-.18-1.14,0-2.93-2.39-3.13-3.86-.47-3.38-.15-6.88-.15-9.8-.74-.63-.85-.82-1-.83-11-1.22-11.15-1.22-11.22,9.62,0,3.79-1,5.33-5.13,5.16-8.12-.33-16.27-.1-25.1-.1v-14.5H2030v14.49c-9.42,0-18.21.12-27-.17-1,0-2.53-2.29-2.69-3.65a93.63,93.63,0,0,1-.12-10.32,6.57,6.57,0,0,0-1.74-.67c-12.22,0-10.63-1.57-10.6,10,0,3.48-.8,5.13-4.75,5-7.15-.3-14.33-.19-21.49,0-3,.06-4.25-1-4.11-4,.14-3.43,0-6.87,0-10.16a20.69,20.69,0,0,0-2.38-.47c-12-.16-10.11-.78-10.09,9.52,0,3.71-.79,5.41-5,5.19-6.81-.36-13.66-.26-20.49,0-3.56.13-4.75-1.18-4.51-4.62.22-3.12.05-6.26.05-9-.82-.58-1.07-.9-1.35-.93-11-.88-11-.88-11.29,10.21,0,1.29-.27,2.58-.47,4.28h-29.57c0-3.51-.1-6.77,0-10s-.84-4.77-4.51-4.74c-8.1.07-8.1-.12-8.12,8.1,0,2,0,3.92,0,6.28h-29.48c-.21-4.43-.42-9-.7-14.93-4.22.83-9.64.34-11.38,2.64-2.09,2.76-1,7.89-1.39,12.63-9,0-18,.08-26.89-.13-.88,0-2.19-1.73-2.47-2.85a15.22,15.22,0,0,1-.08-5.47c.67-5.11-1.45-6.47-6.46-6.35-4.55.11-6.54,1.34-6,6,.18,1.64-.08,3.33,0,5,.21,3.07-1.17,4-4.16,3.94q-10.75-.25-21.5,0c-3.29.07-4.58-1.24-4.29-4.42.1-1.16,0-2.34,0-3.5,0-6.82,0-6.57-6.7-6.89-4.78-.23-6.18,2-6,6.19.1,2.63,0,5.27,0,8.23h-29.8c-.22-4.67-.44-9.23-.65-13.57-.7-.35-1-.61-1.27-.62-12.62-.43-10.64-.86-10.84,9.83,0,1.45-.33,2.89-.54,4.69-9,0-17.65.12-26.28-.16-1,0-2.74-2.14-2.88-3.43a95.9,95.9,0,0,1-.14-10.72c-1.71-.2-2.36-.33-3-.35-9.59-.29-9.79-.28-9.6,9.36.08,4.07-1,5.58-5.26,5.39-8-.34-16-.09-24.75-.09V106.21H1604.6V120.8c-9.45,0-18.22.12-27-.16-1,0-2.55-2.29-2.71-3.64a102.18,102.18,0,0,1-.13-11.06,89.89,89.89,0,0,0-9.82.12c-1,.12-1.92,1.66-2.74,2.66-.25.3,0,1-.07,1.47-.41,10.65-.41,10.66-11.37,10.64q-8.49,0-17-.06a10.45,10.45,0,0,1-1.63-.4v-14.2H1519.3c0,3.74-.07,7.33,0,10.91.07,2.71-.89,3.87-3.78,3.81-7.33-.17-14.67-.15-22,0-2.85,0-3.9-1.16-3.84-3.85.07-3.47,0-6.94,0-11.08a89.93,89.93,0,0,0-9.82.12c-1,.12-1.92,1.66-2.75,2.66-.25.3-.07,1-.09,1.46-.48,10.64-.48,10.65-11.39,10.65h-18.54V106.35h-12.88v14.42c-9.52,0-18.45.1-27.38-.16-.85,0-2.22-2.2-2.34-3.47-.32-3.46-.11-7-.11-10.84H1392a102.93,102.93,0,0,1-.13,10.85c-.14,1.31-1.75,3.48-2.75,3.51-8.79.28-17.59.16-27,.16V106.29h-12.9v14.52c-9.23,0-17.86.15-26.46-.17-1.16,0-3-2.37-3.18-3.82-.47-3.39-.15-6.89-.15-10-.85-.45-1.13-.71-1.42-.73-10.45-.5-10.54-.5-10.8,10.18-.08,3.29-.92,4.79-4.57,4.68-8.3-.24-16.61-.07-25.62-.07V106.34H1264v14.47c-9.41,0-18.19.12-27-.17-1,0-2.57-2.26-2.72-3.6a91.56,91.56,0,0,1-.13-10.34c-.82-.34-1.25-.69-1.69-.69-12.34,0-10.71-1.5-10.62,9.9,0,4-1.3,5.18-5.23,5-6.65-.31-13.34-.28-20,0-3.86.16-5.53-1-5.18-5,.27-3.08.06-6.22.06-9.18a17.92,17.92,0,0,0-2.34-.48c-12.08-.18-10.14-.75-10.15,9.46,0,3.65-.68,5.47-4.94,5.24-7-.36-14-.19-21,0-3,.06-4.23-1-4.05-4.06.19-3.3,0-6.61,0-11.55-4.48,1.07-9.73.79-11.46,3.13-2.1,2.84-1.23,7.88-1.66,12.18h-29.55c0-3.24-.1-6.49,0-9.74s-.75-4.81-4.47-4.78c-8.14.06-8.11-.13-8.18,8.06,0,2.1-.25,4.2-.39,6.4h-29.36v-15c-4.59.87-10,.35-11.77,2.64-2.09,2.74-1,7.89-1.42,12.67-9,0-17.9.08-26.83-.13-.9,0-2.27-1.71-2.51-2.82a18.65,18.65,0,0,1-.1-6c.5-4.55-1.28-6.09-5.91-5.82-6.48.39-6.5.08-6.55,6.85a29.19,29.19,0,0,0,0,3.5c.38,3.52-1.16,4.61-4.62,4.49-7-.22-14-.16-21,0-3.25.07-4.64-1.14-4.34-4.38.11-1.15,0-2.33,0-3.5,0-6.86,0-6.61-6.66-6.93-4.73-.22-6.23,1.87-6.06,6.15.11,2.63,0,5.28,0,8.26H936.56c-.23-4.63-.45-9.19-.66-13.52-.66-.37-.94-.65-1.23-.66-12.73-.45-10.67-.8-10.88,9.78,0,1.46-.32,2.9-.53,4.74-9,0-17.62.12-26.25-.16-1,0-2.77-2.11-2.92-3.38a96.25,96.25,0,0,1-.14-10.74c-1.67-.22-2.32-.35-3-.38-9.65-.31-9.82-.31-9.66,9.31.07,4-.8,5.65-5.21,5.45-8.1-.36-16.23-.1-24.93-.1v-14.6H838.89c-.26,4.91-.5,9.62-.76,14.6-8.83,0-17.14-.08-25.46,0-2.8,0-3.95-1.08-3.89-3.81.06-3.47,0-6.94,0-11.12a89.26,89.26,0,0,0-9.78.12c-1,.12-2,1.6-2.76,2.62-.33.43-.08,1.3-.1,2-.23,10.19-.23,10.19-10.31,10.2H766.2V106.19H753.31c0,3.53-.12,7,0,10.35.14,3.11-.85,4.48-4.26,4.36-7.16-.23-14.33-.15-21.49,0-2.81,0-4-1.07-3.89-3.8.07-3.47,0-6.95,0-11.13a89.12,89.12,0,0,0-9.77.12c-1,.12-2,1.6-2.78,2.62-.33.43-.09,1.29-.11,2-.3,10.17-.3,10.18-10.35,10.19-6.31,0-12.62,0-19.55,0V106.37H668.3v14.41c-9.52,0-18.45.09-27.38-.16-.86,0-2.25-2.17-2.37-3.43-.33-3.46-.12-7-.12-10.86H626a101.84,101.84,0,0,1-.13,10.78c-.14,1.32-1.72,3.52-2.7,3.55-8.8.28-17.6.16-27.06.16V106.31h-12.9v14.51c-9.22,0-17.84.15-26.44-.18-1.17,0-3-2.34-3.23-3.78-.47-3.39-.15-6.89-.15-10.06-.81-.45-1.09-.74-1.38-.75-10.51-.56-10.6-.56-10.84,10.12-.08,3.24-.83,4.84-4.53,4.73-8.3-.24-16.61-.07-25.77-.07V106.22H498.07v14.59c-9.4,0-18.18.12-26.95-.16-1,0-2.62-2.24-2.77-3.57a86.39,86.39,0,0,1-.13-10.14c-.64-.48-.89-.83-1.16-.84-13.46-.36-11-1.21-11.24,9.76a26.78,26.78,0,0,1-.19,3,10.52,10.52,0,0,1-.8,2c-8.73,0-17.66.11-26.59-.17-.93,0-2.41-2.33-2.56-3.7a94.3,94.3,0,0,1-.12-10.21,17.17,17.17,0,0,0-2.28-.49c-12.17-.2-10.27-.72-10.16,9.42,0,4.24-1.33,5.42-5.43,5.27-7.95-.29-15.91-.08-24.45-.08V105.29c-4.54,1-9.81.74-11.54,3.07-2.1,2.83-1.24,7.87-1.71,12.46H340.46c0-3.62-.1-7,0-10.43.11-3.19-1.16-4.68-4.42-4.25a6.7,6.7,0,0,1-2,0c-5.37-1-6.72,1.67-6.25,6.43.25,2.58,0,5.2,0,8H298V105.12c-4.8,1.19-10,1-11.9,3.37-2,2.57-.8,7.61-1,12.24-9.24,0-18.33.07-27.42-.12-.74,0-1.89-1.68-2.08-2.71a21.38,21.38,0,0,1-.08-6c.51-4.52-1.17-6.15-5.86-5.87-6.53.39-6.55.08-6.6,6.8,0,2.45,0,4.9,0,8-9.51,0-18.29.1-27.05-.14-1,0-2.33-1.89-2.74-3.15-.48-1.51-.14-3.29-.15-5,0-6.41,0-6.16-6.61-6.48-4.69-.22-6.29,1.78-6.11,6.1.11,2.64,0,5.29,0,8.29h-29.8c-.21-4.57-.43-9.13-.63-13.47-.65-.37-.92-.67-1.2-.68-12.81-.48-10.71-.78-10.93,9.73,0,1.45-.31,2.9-.51,4.78-9,0-17.61.14-26.22-.18-1.08,0-2.79-2.38-3-3.82-.45-3.37-.15-6.85-.15-10.38-2.13-.14-3.27-.27-4.42-.28-8.23-.11-8.23-.11-8.28,8.27,0,6.38,0,6.38-6.58,6.39H85.21V106.24H72.9c-.26,4.87-.51,9.58-.78,14.58-9,0-17.43.15-25.9-.16-1.18,0-3.09-2.21-3.27-3.57-.47-3.56-.16-7.22-.16-10.55A11,11,0,0,0,41,106c-10.72-.62-10.88-.62-10.8,10.11,0,3.76-1.13,4.9-4.86,4.82-8.45-.2-16.92,0-25.38.09Z"/><path class="cls-1" d="M3830,6q-17,10-34,20.09c-6.95,4.15-13.84,8.39-20.76,12.59l.27,1.32H3830Z"/><path class="cls-1" d="M3830,44h-54.09l-.43,1.52L3830,78Z"/><path class="cls-1" d="M0,38c4-2,8.12-3.78,12-6,5.07-2.86,10-6,16-9.66L0,6Z"/><path class="cls-1" d="M0,78c8.1-4.84,16.18-9.74,24.33-14.5,2.58-1.51,2.49-3,.19-4.35C16.39,54.36,8.18,49.71,0,45Z"/><path class="cls-1" d="M1239.82,22.13C1231.05,16.85,1223.1,12,1215,7.3c-1.18-.69-3.29-1.23-4.26-.65C1193.12,17.23,1175.58,28,1158,38.7c-.08,0,0,.29-.11.95,1.56.11,3.12.31,4.68.31,14.15,0,28.3-.09,42.44.06,4.72,0,8.73-.77,12.78-3.69,6-4.29,12.66-7.57,19-11.37A20.86,20.86,0,0,0,1239.82,22.13Z"/><path class="cls-1" d="M1924.11,40c12.62,0,25.3-.78,37.84.23,12.3,1,22.43-2.81,32-9.82,3.73-2.72,7.81-4.95,12.34-7.8-9.12-5.64-17.23-10.74-25.45-15.65a4.71,4.71,0,0,0-4-.32c-17.77,10.58-35.45,21.32-53.15,32Z"/><path class="cls-1" d="M3537.66,22c-8.57-5.14-16.54-10-24.6-14.68-1.2-.7-3.29-1.29-4.25-.72-17.65,10.57-35.2,21.31-52.76,32-.09.06-.07.29-.22,1,1.61.12,3.16.32,4.71.32,13.81,0,27.63-.1,41.44.06,5.19.06,9.75-.56,14.26-3.82,6-4.31,12.66-7.56,19-11.37C3536.12,24.29,3536.68,23.18,3537.66,22Z"/><path class="cls-1" d="M2771.58,22C2763,16.83,2755.07,12,2747,7.25c-1.18-.68-3.29-1.15-4.28-.56-17.57,10.43-35,21-52.5,31.64-.19.12-.18.57-.39,1.35,1.68.1,3.25.28,4.82.28,13.65,0,27.3-.12,41,.07,5.37.07,10.11-.58,14.75-3.88,6-4.27,12.67-7.55,19-11.37C2770.24,24.25,2770.74,23.08,2771.58,22Z"/><path class="cls-1" d="M392.1,40H419a15.9,15.9,0,0,1,2.49,0c17.85,2.75,33.26-2.88,47.18-13.67,1.6-1.25,3.28-2.39,5.33-3.87-8.91-5.6-17.11-10.84-25.43-15.89a4.34,4.34,0,0,0-3.71,0q-26.64,15.93-53.15,32.06C391.81,39.07,392,39.53,392.1,40Z"/><path class="cls-1" d="M984.11,22c-8.4-5.07-16.33-10-24.41-14.62-1.27-.74-3.59-1.1-4.71-.44-17.28,10.27-34.43,20.74-51.61,31.17a21.44,21.44,0,0,0-1.78,1.53c2.34.17,3.88.36,5.43.37,13.32,0,26.64-.3,39.94.14a29.07,29.07,0,0,0,17.59-4.67c5.64-3.67,11.51-7,17.2-10.57C982.72,24.25,983.28,23,984.11,22Z"/><path class="cls-1" d="M136.63,40h15.81c9.65,0,19.33-.4,28.95.13a28.24,28.24,0,0,0,17.54-4.88c5.52-3.55,11.22-6.83,16.76-10.34,1-.62,1.57-1.83,2.47-2.92-8.41-5.05-16.36-9.91-24.41-14.6-1.24-.72-3.4-1.43-4.36-.86C171.62,17.15,154,28,136.29,38.78,136.4,39.18,136.51,39.57,136.63,40Z"/><path class="cls-1" d="M1048.52,21.94c-8.42-5-16.37-9.89-24.51-14.44a6.37,6.37,0,0,0-5.38,0c-17.46,10.24-34.78,20.69-52.15,32.18,1.61.11,3.22.32,4.83.33,14.14,0,28.27-.13,42.4.07a20.67,20.67,0,0,0,12.83-3.72c6.18-4.27,13-7.67,19.44-11.54C1046.88,24.24,1047.46,23.15,1048.52,21.94Z"/><path class="cls-1" d="M2434.43,39.65c1.58.11,3.14.3,4.71.31,14.64,0,29.3-.33,43.93.18,5.51.19,9.34-2.53,13.53-4.85,5.88-3.26,11.56-6.88,17.26-10.45.87-.54,1.37-1.64,2.22-2.71-8.53-5.35-16.76-10.58-25.11-15.63a4.38,4.38,0,0,0-3.76,0c-17.6,10.64-35.12,21.41-52.65,32.16C2434.48,38.76,2434.51,39,2434.43,39.65Z"/><path class="cls-1" d="M3282.22,22c-8.64-5.17-16.47-9.94-24.42-14.51-1.31-.75-3.63-1.32-4.71-.68-17.66,10.53-35.2,21.26-53.92,32.65,2.52.27,3.86.54,5.2.54,15.64,0,31.3.33,46.93-.2,3.89-.13,7.87-2.61,11.49-4.6,5.75-3.15,11.27-6.74,16.81-10.26C3280.57,24.29,3281.2,23.13,3282.22,22Z"/><path class="cls-1" d="M3263.29,39.52c2.85.22,4.42.44,6,.44,14.13,0,28.26-.11,42.39.08a20.45,20.45,0,0,0,12.83-3.7c6-4.23,12.66-7.57,18.95-11.43,1.12-.69,1.83-2,2.73-3.08-8.19-5-16.25-10-24.44-14.73-1.21-.7-3.43-1.09-4.48-.46C3299.58,17.26,3282,28.06,3263.29,39.52Z"/><path class="cls-1" d="M1668.62,40h13.81c10.32,0,20.66-.39,31,.14a28.4,28.4,0,0,0,17.53-4.88c5.52-3.55,11.22-6.83,16.76-10.35,1-.62,1.59-1.82,2.43-2.83-8.46-5.22-16.47-10.26-24.62-15.06a5.21,5.21,0,0,0-4.44-.18c-17.65,10.54-35.2,21.25-52.77,31.93Z"/><path class="cls-1" d="M1732.75,40h23.32c7.65,0,15.31-.18,23,.06,5.09.16,9.45-.76,13.8-3.83,6-4.24,12.66-7.55,19-11.37A15.36,15.36,0,0,0,1814.5,22c-8.42-5.08-16.47-10-24.67-14.77-1.27-.73-3.61-1-4.77-.3-17.62,10.5-35.14,21.19-52.68,31.84Z"/><path class="cls-1" d="M2498.74,40h17.8c9.48,0,19-.15,28.44.08,5.08.13,9.45-.75,13.8-3.82,6-4.24,12.65-7.55,19-11.37a16.3,16.3,0,0,0,2.76-2.84c-8.4-5.06-16.45-10-24.66-14.72a6,6,0,0,0-5,0c-17.55,10.34-35,20.88-52.46,31.38C2498.48,39.1,2498.61,39.53,2498.74,40Z"/><path class="cls-1" d="M200.77,40h24.32c7.31,0,14.63-.18,21.94.06a21.2,21.2,0,0,0,13.8-3.83c6-4.25,12.66-7.56,19-11.37A15.3,15.3,0,0,0,282.49,22C274.07,16.92,266,11.94,257.82,7.22c-1.26-.73-3.61-1-4.76-.28-17.63,10.49-35.14,21.18-52.67,31.82C200.51,39.16,200.64,39.56,200.77,40Z"/><path class="cls-1" d="M3711.47,40h9.79c12,0,24-.16,36,.08,5.27.1,9.82-.75,14.32-3.9,6-4.21,12.68-7.52,19-11.3.88-.53,1.44-1.59,2.37-2.66-8.68-5.41-16.94-10.61-25.29-15.67a3.88,3.88,0,0,0-3.32-.17q-26.68,16.07-53.23,32.32Z"/><path class="cls-1" d="M1494.85,21.88c-8.5-5.06-16.5-9.9-24.6-14.56-1.18-.69-3.28-1.21-4.25-.64-17.44,10.4-34.77,21-52.12,31.52-.26.15-.41.47-1.26,1.48,2.26.12,3.94.27,5.63.28,14.49,0,29-.23,43.48.14,4.86.12,8.42-1.94,12.21-4.2,6.34-3.78,12.76-7.42,19.08-11.22C1493.75,24.24,1494.06,23.12,1494.85,21.88Z"/><path class="cls-1" d="M647.22,40h5.22c14.5,0,29-.31,43.48.16,5.33.17,9-2.51,13.09-4.74,6-3.31,11.87-7,17.72-10.61.85-.53,1.31-1.68,2.1-2.73-8.54-5.27-16.71-10.37-25-15.31a4.33,4.33,0,0,0-3.69-.32C682.53,17.08,665,27.88,647.42,38.66,647.34,38.71,647.37,39,647.22,40Z"/><path class="cls-1" d="M2179.45,40h13.78c10.67,0,21.33-.16,32,.07,5.26.12,9.81-.73,14.32-3.87,6.17-4.29,13-7.63,19.48-11.48.73-.43,1-1.56,1.72-2.63-8.47-5.27-16.73-10.47-25.07-15.53a3.87,3.87,0,0,0-3.33-.18c-17.79,10.7-35.51,21.52-53.24,32.31Z"/><path class="cls-1" d="M2945.27,39.66c1.65.11,3.22.29,4.79.29,13.83,0,27.65-.09,41.48.07,5.06.06,9.47-.69,13.84-3.78,6-4.25,12.67-7.54,19-11.35,1-.59,1.62-1.73,2.62-2.84-8.65-5.23-16.73-10.19-24.92-15-1.09-.64-3.05-1.08-4-.53-17.57,10.49-35,21.15-52.51,31.8C2945.42,38.44,2945.45,38.9,2945.27,39.66Z"/><path class="cls-1" d="M2944,44.87c18.75,11.12,36.14,21.48,53.61,31.72a4.9,4.9,0,0,0,4.1.37c7.51-4.32,14.82-9,22.3-13.37,3-1.77,3.11-2.93,0-4.73-7.77-4.55-15.42-9.33-23.17-13.93a6.71,6.71,0,0,0-3.29-.84q-24.71-.08-49.4,0A29.89,29.89,0,0,0,2944,44.87Z"/><path class="cls-1" d="M2644.46,22.06c-8.68-5.23-16.9-10.24-25.21-15.08-1.1-.64-3.09-1-4-.47-17.59,10.64-35.08,21.45-52.58,32.24-.06,0,0,.27,0,.89,1.53.11,3.11.33,4.69.33,14.63,0,29.26.16,43.89-.13a21.89,21.89,0,0,0,9.69-2.64c6.89-3.75,13.48-8.06,20.15-12.21A30.71,30.71,0,0,0,2644.46,22.06Z"/><path class="cls-1" d="M1878.38,22c-8.61-5.12-16.73-10-25-14.76-1.18-.68-3.31-1.09-4.31-.49C1831.47,17.28,1814,28,1795.36,39.38c2.45.29,3.82.59,5.2.59,15.46,0,30.93.22,46.38-.17,3.12-.07,6.34-2.08,9.25-3.68,6.61-3.62,13.08-7.5,19.55-11.37C1876.66,24.2,1877.28,23.14,1878.38,22Z"/><path class="cls-1" d="M346.35,21.94c-8.62-5.14-16.76-10.06-25-14.82-1.12-.65-3.08-1.22-4-.69C299.68,17.12,282.05,28,263.22,39.51c2.83.22,4.39.46,5.95.46,13.8,0,27.61-.1,41.42.06,5.06,0,9.48-.7,13.85-3.78,6.15-4.31,13-7.67,19.44-11.54C344.79,24.16,345.37,23.06,346.35,21.94Z"/><path class="cls-1" d="M2178.38,44.89c18.5,11.17,36.07,21.81,53.72,32.34a4.16,4.16,0,0,0,3.53-.08c7.6-4.48,15.08-9.18,22.66-13.72,2.73-1.64,2.63-2.9,0-4.48-7.75-4.6-15.42-9.32-23.17-13.92a6.75,6.75,0,0,0-3.27-.93q-25.2-.08-50.39,0A18.25,18.25,0,0,0,2178.38,44.89Z"/><path class="cls-1" d="M646.54,44.92C665,56.1,682.61,66.85,700.35,77.5a3.8,3.8,0,0,0,3.19-.26c7.59-4.52,15.07-9.21,22.63-13.76,3.06-1.85,2.79-3-.25-4.71-7.68-4.39-15.14-9.15-22.75-13.66a7.76,7.76,0,0,0-3.74-1q-24.45-.1-48.9,0A23.88,23.88,0,0,0,646.54,44.92Z"/><path class="cls-1" d="M1412.44,45c18.38,11.07,36,21.68,53.6,32.19a4.09,4.09,0,0,0,3.5.07c7.61-4.48,15.08-9.18,22.64-13.74,3.06-1.85,2.76-3-.27-4.7-7.68-4.39-15.14-9.15-22.75-13.66a7.65,7.65,0,0,0-3.74-1q-24.45-.1-48.9,0A25.26,25.26,0,0,0,1412.44,45Z"/><path class="cls-1" d="M3710.46,45C3728.82,56,3746.4,66.64,3764,77.15a4.15,4.15,0,0,0,3.51.06c7.61-4.49,15.07-9.21,22.65-13.74,2.64-1.57,2.88-2.84.13-4.48-7.88-4.71-15.7-9.49-23.61-14.16a6.88,6.88,0,0,0-3.31-.75q-24.45-.06-48.9,0A24.47,24.47,0,0,0,3710.46,45Z"/><path class="cls-1" d="M1112.35,21.94c-8.63-5.14-16.76-10-25-14.82-1.12-.65-3.09-1.22-4-.69-17.73,10.68-35.36,21.53-54.18,33.07,2.8.23,4.35.47,5.9.47,14,0,27.93-.13,41.9.07a21.51,21.51,0,0,0,13.34-3.77c6.19-4.27,13-7.67,19.44-11.54C1110.72,24.18,1111.32,23.1,1112.35,21.94Z"/><path class="cls-1" d="M3328.65,39.67c1.59.1,3.18.3,4.77.3,14,0,27.93-.12,41.9.06a20.65,20.65,0,0,0,12.87-3.67c6.17-4.28,13-7.69,19.42-11.57a16.07,16.07,0,0,0,2.77-2.85c-8.53-5.05-16.65-9.94-24.87-14.65-1.22-.7-3.35-1.29-4.33-.7-17.62,10.59-35.13,21.37-52.66,32.11Z"/><path class="cls-1" d="M3601.81,22c-8.44-5.06-16.5-10-24.7-14.7-1.27-.72-3.59-1-4.73-.34-17.1,10.23-34.08,20.65-51.08,31a19.93,19.93,0,0,0-1.8,1.67c2.33.15,3.87.32,5.4.33,13.8,0,27.6-.12,41.39.06,5.06.06,9.43-.75,13.77-3.82,6-4.24,12.65-7.54,19-11.35C3600.05,24.25,3600.75,23.09,3601.81,22Z"/><path class="cls-1" d="M2753.26,39.6c2.64.17,4.2.36,5.75.36,14,0,28-.1,42,.07a20.29,20.29,0,0,0,12.81-3.74c6-4.26,12.67-7.59,19-11.36,1.08-.64,2-1.49,3.45-2.54-9-5.54-17.15-10.63-25.43-15.49a5.26,5.26,0,0,0-4.47,0c-17,10.21-33.84,20.57-50.73,30.91C2755.16,38.1,2754.71,38.51,2753.26,39.6Z"/><path class="cls-1" d="M1222.41,39.63a21.69,21.69,0,0,0,2.76.35c16.16,0,32.32.17,48.48-.19,2.76-.07,5.57-2.23,8.19-3.71,6.44-3.63,12.8-7.4,19.13-11.21a16.61,16.61,0,0,0,2.8-2.9c-8.46-5.1-16.52-10-24.71-14.8-1.2-.69-3.37-1.11-4.4-.49-17.53,10.5-35,21.19-52.41,31.83C1222.31,38.88,1222.36,39.26,1222.41,39.63Z"/><path class="cls-1" d="M1988.61,40c10.12,0,20.34-.89,30.34.2,16.38,1.8,30.45-2.65,43.18-12.6,1.89-1.47,4.13-2.49,6.14-3.82.49-.33.74-1,1.29-1.82-8.26-5.06-16.4-10.15-24.68-15a5.23,5.23,0,0,0-4.47-.07c-17,10.2-33.83,20.58-50.72,30.92-.51.31-1,.7-1.46,1.06C1988.36,39.22,1988.48,39.6,1988.61,40Z"/><path class="cls-1" d="M456.55,40h15.82c10,0,20-.14,30,.07,5.08.1,9.46-.81,13.8-3.85,6-4.22,12.69-7.55,19-11.36a14.51,14.51,0,0,0,2.5-2.73c-8.44-5.26-16.67-10.46-25-15.48a4.38,4.38,0,0,0-3.77-.13c-17.64,10.63-35.19,21.4-52.77,32.13C456.26,39.06,456.41,39.51,456.55,40Z"/><path class="cls-1" d="M901.37,44.79c18.64,11.15,36.13,21.67,53.71,32a5,5,0,0,0,4.23,0c7.21-4.14,14.23-8.6,21.4-12.81,3.1-1.82,4-3.14.22-5.36-7.64-4.43-15.08-9.19-22.66-13.72a6.72,6.72,0,0,0-3.31-.8q-24.94-.06-49.89,0A28.21,28.21,0,0,0,901.37,44.79Z"/><path class="cls-1" d="M3199.37,44.78c18.63,11.16,36.13,21.68,53.71,32a5,5,0,0,0,4.23,0c7.2-4.14,14.23-8.6,21.4-12.81,3.1-1.82,4-3.14.23-5.36-7.64-4.43-15.09-9.19-22.67-13.72a6.7,6.7,0,0,0-3.31-.8q-24.93-.06-49.88,0A29.38,29.38,0,0,0,3199.37,44.78Z"/><path class="cls-1" d="M1924.19,45.6c17.62,10.63,35.23,21.29,52.91,31.81.83.5,2.59.13,3.56-.44,7.42-4.42,14.72-9,22.13-13.47,2.6-1.55,3.07-2.78.19-4.5-7.85-4.71-15.64-9.53-23.5-14.21a6.84,6.84,0,0,0-3.34-.71q-24.48-.06-49,0a19.67,19.67,0,0,0-2.81.42Z"/><path class="cls-1" d="M2899.48,21.89c-8.46-5.08-16.43-10-24.53-14.6-1.27-.73-3.59-1-4.73-.37-17.27,10.29-34.43,20.77-51.62,31.19a5.74,5.74,0,0,1-1.39.41l.6,1.17c1.74.1,3.48.28,5.23.28,13,0,26-.31,38.94.13a29.18,29.18,0,0,0,17.62-4.66c5.78-3.74,11.79-7.11,17.63-10.75C2898.11,24.14,2898.61,23,2899.48,21.89Z"/><path class="cls-1" d="M3456.17,45.69c17.53,10.48,35,21,52.65,31.35a4.5,4.5,0,0,0,3.84-.11c7.45-4.38,14.74-9,22.16-13.44,2.62-1.57,3-2.8.14-4.5-7.86-4.7-15.64-9.53-23.51-14.22a6.8,6.8,0,0,0-3.34-.69q-24.48-.06-49,0a17.76,17.76,0,0,0-2.77.45Z"/><path class="cls-1" d="M135.67,44.88c15.45,9.32,30.57,17.53,44.63,27.25,8.3,5.75,14.72,5.35,22.13-.41a108.27,108.27,0,0,1,12.11-7.64c3.3-1.92,4.2-3.38.18-5.68-7.53-4.3-14.84-9-22.3-13.38a7.84,7.84,0,0,0-3.76-.93q-24.45-.08-48.89,0A26.34,26.34,0,0,0,135.67,44.88Z"/><path class="cls-1" d="M601.52,21.89C593.09,16.86,585.1,12,577,7.34c-1.23-.71-3.38-1.37-4.35-.79C554.92,17.2,537.3,28,518.42,39.59c3.07.18,4.8.38,6.53.38,13,0,26-.36,38.95.15A29.84,29.84,0,0,0,582,35.24c5.65-3.63,11.5-7,17.19-10.51C600,24.18,600.58,23.06,601.52,21.89Z"/><path class="cls-1" d="M1667.27,44.8c18.73,11.13,36.13,21.52,53.59,31.78,1.13.66,3.19,1,4.2.42,7.47-4.33,14.75-9,22.18-13.42,3-1.79,2.9-3,0-4.78-7.74-4.6-15.36-9.38-23.09-14a6.89,6.89,0,0,0-3.33-.72q-24.43-.06-48.89,0A37.62,37.62,0,0,0,1667.27,44.8Z"/><path class="cls-1" d="M391.17,45c7.83,4.71,14.76,8.9,21.71,13.05,10.55,6.29,21.07,12.6,31.7,18.74a4.94,4.94,0,0,0,4.15,0c7.32-4.26,14.44-8.89,21.77-13.14,3.43-2,3.39-3-.09-5-7.67-4.37-15.07-9.19-22.64-13.75a6.7,6.7,0,0,0-3.29-.86q-25-.08-50,0A18.41,18.41,0,0,0,391.17,45Z"/><path class="cls-1" d="M1157.27,45c13,7.82,25.11,15.19,37.3,22.49,5.18,3.1,10.4,6.16,15.73,9a5.44,5.44,0,0,0,4.49.19c7.36-4.21,14.49-8.81,21.82-13.08,3-1.74,3.23-2.86.11-4.71-7.74-4.58-15.34-9.38-23.06-14a6.66,6.66,0,0,0-3.3-.8q-24.73-.08-49.46,0A18.33,18.33,0,0,0,1157.27,45Z"/><path class="cls-1" d="M2133.45,21.88c-8.25-4.95-16.31-9.9-24.51-14.61-1.27-.72-3.59-1-4.73-.33-17.28,10.28-34.44,20.76-51.62,31.2a11.71,11.71,0,0,0-1.38,1.46c2.19.16,3.77.37,5.35.37,14.31,0,28.64-.25,42.94.13,5.17.14,9.12-1.81,13.19-4.29,6.16-3.75,12.41-7.35,18.56-11.13C2132.13,24.14,2132.62,23,2133.45,21.88Z"/><path class="cls-1" d="M2433.37,44.79c18.63,11.15,36.13,21.67,53.71,32a5,5,0,0,0,4.23,0c7.2-4.14,14.23-8.6,21.4-12.81,3.1-1.82,4.05-3.14.23-5.36-7.64-4.43-15.09-9.19-22.67-13.72a6.72,6.72,0,0,0-3.31-.8q-24.95-.06-49.88,0A28,28,0,0,0,2433.37,44.79Z"/><path class="cls-1" d="M1286,40h14.86c9.82,0,19.65-.23,29.46.1,5.93.2,11.2-.68,16.24-4.11,6.83-4.65,14-8.75,21.73-13.49-9.06-5.52-17.2-10.59-25.48-15.43a5.22,5.22,0,0,0-4.45-.27c-17.62,10.58-35.14,21.34-52.67,32.06C1285.76,39.2,1285.87,39.58,1286,40Z"/><path class="cls-1" d="M2688.88,44.92c18.85,11.27,36.36,21.78,54,32.15a4.53,4.53,0,0,0,3.85-.17c7.29-4.31,14.4-8.94,21.73-13.19,3.29-1.91,3.69-2.89.06-5-7.66-4.38-15.07-9.2-22.63-13.75a6.74,6.74,0,0,0-3.28-.91q-25-.08-50,0A24.55,24.55,0,0,0,2688.88,44.92Z"/><path class="cls-1" d="M3665.52,22c-8.41-5.1-16.47-10.1-24.68-14.82a5.52,5.52,0,0,0-4.73-.08c-17.55,10.44-35,21.07-53.78,32.46,3,.22,4.72.44,6.4.44,14,0,28-.11,41.95.06a20.31,20.31,0,0,0,12.85-3.68c6.14-4.32,13-7.67,19.42-11.55C3664,24.19,3664.61,23,3665.52,22Z"/><path class="cls-1" d="M1540.63,45c12.94,7.85,25.07,15.25,37.23,22.58,5.29,3.19,10.6,6.36,16,9.29a4.93,4.93,0,0,0,4.1,0c8.08-4.64,16-9.49,24.62-14.62-.76-1.11-1.21-2.43-2.12-3Q1608.83,52,1597,45.09a7.86,7.86,0,0,0-3.77-1q-24.48-.09-49,0A20.36,20.36,0,0,0,1540.63,45Z"/><path class="cls-1" d="M775.51,45.59C793,56.1,810.47,66.63,828,77a4.49,4.49,0,0,0,3.84,0c8.17-4.78,16.23-9.76,24.86-15-.91-1.1-1.5-2.31-2.46-2.9-6.11-3.74-12.61-6.93-18.38-11.11-4.81-3.49-9.79-4.13-15.39-4.05-13.15.19-26.32.05-39.48.06-1.75,0-3.51.18-5.26.27Z"/><path class="cls-1" d="M8.58,44.93c13,7.88,25.09,15.27,37.25,22.6,5.29,3.18,10.6,6.34,16,9.28a4.93,4.93,0,0,0,4.1,0c8.08-4.64,16-9.5,24.73-14.71-1-1.16-1.62-2.42-2.66-3.06Q76.62,52,65,45.11a7.85,7.85,0,0,0-3.76-1q-24.5-.09-49,0A22.26,22.26,0,0,0,8.58,44.93Z"/><path class="cls-1" d="M2306.47,44.88c18.58,11.25,36.14,21.92,53.78,32.47a4.19,4.19,0,0,0,3.57-.17c8.14-4.83,16.18-9.83,24.9-15.17a17,17,0,0,0-2.83-3q-11.23-7-22.59-13.73a7.77,7.77,0,0,0-3.69-1.19c-16.66-.07-33.32,0-50,0A19.89,19.89,0,0,0,2306.47,44.88Z"/><path class="cls-1" d="M3155.6,61.73c-3.75-2.59-6.5-4.62-9.39-6.44-3.33-2.1-6.9-3.83-10.14-6.06A30,30,0,0,0,3117,43.9c-12.64.5-25.32.12-38,.14a10.27,10.27,0,0,0-5.63,1.41c6.89,4.15,13.78,8.32,20.69,12.45,10.51,6.28,21,12.61,31.6,18.7a5.72,5.72,0,0,0,4.75-.28C3138.46,71.87,3146.32,67.16,3155.6,61.73Z"/><path class="cls-1" d="M3091,22c-8.51-5.13-16.59-10.06-24.76-14.84-1.11-.65-3.09-1.18-4-.63C3044.54,17.13,3026.92,28,3008,39.54c3,.22,4.54.42,6.09.43,14,0,27.94-.14,41.9.07a21.43,21.43,0,0,0,13.28-3.77c6.05-4.19,12.66-7.56,19-11.38C3089.24,24.27,3089.93,23.11,3091,22Z"/><path class="cls-1" d="M263.66,44.79c18.55,11.21,36,21.79,53.51,32.27a4.24,4.24,0,0,0,3.57.39c7.59-4.48,15-9.24,22.57-13.79,3-1.8,2.81-3-.09-4.74-7.63-4.47-15.15-9.14-22.77-13.62a8.87,8.87,0,0,0-4.18-1.21C300.11,44,284,44,267.8,44.08A32.35,32.35,0,0,0,263.66,44.79Z"/><path class="cls-1" d="M1030,44.89c14,8.53,27.21,16.61,40.45,24.71a30.36,30.36,0,0,1,3.25,2.14c7.46,6,14.72,6.74,22.51.18,4-3.36,8.86-5.67,13.35-8.43,2.64-1.61,2.67-2.88-.12-4.51-7.65-4.43-15.17-9.08-22.8-13.55a8.87,8.87,0,0,0-4.14-1.33q-24.24-.14-48.47,0A23.65,23.65,0,0,0,1030,44.89Z"/><path class="cls-1" d="M1477.6,40h9.78c12.14,0,24.28-.17,36.41.07a22.25,22.25,0,0,0,13.75-3.9c6.07-4.15,12.66-7.55,19-11.37.9-.54,1.46-1.66,2.4-2.79-8.43-5.17-16.58-10.26-24.87-15.1a5.07,5.07,0,0,0-4.31.2c-17.54,10.42-35,21-52.47,31.52C1477.37,39.06,1477.49,39.51,1477.6,40Z"/><path class="cls-1" d="M2389.63,22.42c-9.28-5.61-17.35-10.56-25.52-15.35-1.1-.64-3.06-1.15-4-.61-17.59,10.63-35.09,21.41-52.6,32.18-.09.06-.08.28-.26,1,1.65.12,3.2.33,4.75.33,13.14,0,26.28-.18,39.41.08,6.07.12,11.53-.62,16.71-4.2C2374.85,31.23,2381.93,27.2,2389.63,22.42Z"/><path class="cls-1" d="M3327.53,44.64c18.73,11.39,36.28,22.11,53.9,32.7a4.19,4.19,0,0,0,3.55-.18c7.33-4.29,14.55-8.78,21.83-13.15,3-1.79,4.25-3,.07-5.29-7.47-4.06-14.59-8.77-22-13a11.7,11.7,0,0,0-5.54-1.58c-15.32-.13-30.64-.09-46-.06C3331.86,44.06,3330.3,44.35,3327.53,44.64Z"/><path class="cls-1" d="M90.83,21.92c-8.46-5.1-16.54-10-24.71-14.83-1.1-.64-3.05-1.18-3.94-.64C44.46,17.08,26.84,27.89,8,39.41c2.8.29,4.18.56,5.57.56,15.13,0,30.27.1,45.4-.09a16.16,16.16,0,0,0,7.36-2c7.41-4.14,14.64-8.59,21.87-13C89.18,24.2,89.85,23,90.83,21.92Z"/><path class="cls-1" d="M711.69,40H732a58.83,58.83,0,0,1,8,.05c17.94,2.53,33.65-2.58,47.69-13.62,1.7-1.34,3.49-2.57,5.73-4.21-8.9-5.36-17-10.29-25.15-15.07-1.11-.65-3.09-1.19-4-.65-17.72,10.66-35.34,21.48-53,32.27C711.42,39.15,711.55,39.56,711.69,40Z"/><path class="cls-1" d="M774.11,40h13.33c12.31,0,24.62.13,36.93-.1a18.55,18.55,0,0,0,8.33-2.16c7.28-4,14.33-8.48,21.41-12.86a17,17,0,0,0,2.77-2.91c-8.47-5.09-16.54-10-24.72-14.76-1.15-.67-3.25-1-4.26-.42C810.67,17.06,793.53,27.54,776.39,38A27.18,27.18,0,0,0,774.11,40Z"/><path class="cls-1" d="M2243.34,39.64c1.72.12,3.28.32,4.85.32,13.8,0,27.6-.11,41.4.07,5.06.06,9.44-.76,13.77-3.8,6-4.22,12.63-7.6,19-11.34,1-.59,2-1.2,3.59-2.2-9.47-5.87-17.7-11.07-26.07-16a4.72,4.72,0,0,0-4,.26c-17.39,10.39-34.71,20.91-52,31.42C2243.63,38.45,2243.62,38.87,2243.34,39.64Z"/><path class="cls-1" d="M1623,21.92c-8.49-5-16.48-9.85-24.55-14.5-1.23-.71-3.33-1.46-4.26-.91-17.6,10.6-35.09,21.4-52.6,32.17-.08,0,0,.28-.16,1,1.6.11,3.16.32,4.72.32,14.8,0,29.6.12,44.4-.1a18.49,18.49,0,0,0,8.33-2.19c7.28-4,14.32-8.5,21.4-12.87C1621.15,24.24,1621.78,23.19,1623,21.92Z"/><path class="cls-1" d="M2561.54,44.74C2580.14,56,2597.6,66.53,2615.13,77a4.55,4.55,0,0,0,3.86.14c7.48-4.36,14.78-9,22.24-13.4,3-1.76,3-3,.07-4.76-7.61-4.5-15.14-9.14-22.78-13.59a9.82,9.82,0,0,0-4.66-1.28c-15.66-.09-31.31-.07-47,0A50.43,50.43,0,0,0,2561.54,44.74Z"/><path class="cls-1" d="M1796.78,45.57q26.07,15.61,52.18,31.17c1.07.64,3,1.13,3.85.62,7.47-4.36,14.75-9,22.18-13.48,3.62-2.15,3.24-3.28-.31-5.24-7.17-3.94-14-8.49-21.11-12.53a15.15,15.15,0,0,0-6.92-2c-14.81-.18-29.64-.11-44.46-.08-1.76,0-3.52.2-5.28.32C1796.86,44.77,1796.82,45.17,1796.78,45.57Z"/><path class="cls-1" d="M3154.88,21.94c-8.46-5.08-16.54-10-24.7-14.76-1.11-.65-3-1.29-3.91-.77-17.75,10.64-35.4,21.46-52.95,33.25,1.54.11,3.07.31,4.61.31,14.13,0,28.27-.09,42.4.05a19.67,19.67,0,0,0,12.37-3.56c6.13-4.33,12.92-7.72,19.37-11.6C3153.1,24.24,3153.8,23.08,3154.88,21.94Z"/><path class="cls-1" d="M199.84,44.87c15.52,9.34,30.61,17.57,44.7,27.24,8.25,5.67,14.68,5.57,22.14-.37,4-3.16,8.57-5.52,12.89-8.22,2.63-1.65,2.51-3-.16-4.59C271.66,54.34,264,49.59,256.25,45a7.74,7.74,0,0,0-3.77-.92q-24.21-.09-48.42,0A30.67,30.67,0,0,0,199.84,44.87Z"/><path class="cls-1" d="M73.53,39.94h6.26c13.83,0,27.66.16,41.49-.08a20.91,20.91,0,0,0,9.21-2.36c7.34-4,14.41-8.43,21.53-12.79A13.88,13.88,0,0,0,154.45,22C146.08,16.76,138,11.62,129.74,6.71a4.8,4.8,0,0,0-4.12,0c-16.72,10-33.36,20.1-50,30.21a23.64,23.64,0,0,0-2.29,1.84C73.4,39.16,73.46,39.55,73.53,39.94Z"/><path class="cls-1" d="M3263.93,44.92c15.42,9.29,30.48,17.52,44.58,27.18,8.22,5.63,14.65,5.66,22.12-.34,3.95-3.18,8.56-5.54,12.9-8.22,2.63-1.62,2.61-3-.08-4.59-7.75-4.6-15.42-9.32-23.16-13.92a6.65,6.65,0,0,0-3.26-.94q-25-.06-49.93,0A16.88,16.88,0,0,0,3263.93,44.92Z"/><path class="cls-1" d="M3218.44,21.79c-8.33-5-16.29-9.89-24.36-14.57-1.2-.69-3.34-1.16-4.35-.56-16.86,10.07-33.61,20.32-50.38,30.54a34.93,34.93,0,0,0-2.93,2.39c2.6.17,4.17.36,5.75.37,14.66,0,29.33.1,44-.08a16.24,16.24,0,0,0,7.3-2c7.74-4.26,15.32-8.83,22.91-13.37C3217.14,24.1,3217.54,23,3218.44,21.79Z"/><path class="cls-1" d="M2371.62,40H2402c24.64,0,24.65,0,44.9-13.43,1.92-1.27,3.69-2.74,5.95-4.43-8.74-5.35-16.77-10.35-24.92-15.16-1.08-.64-3.09-1-4-.41-17.25,10.37-34.41,20.91-51.58,31.41-.41.25-.83.48-1.24.72Z"/><path class="cls-1" d="M838.69,40h30.74c24.93,0,24.93,0,45.7-13.8,1.79-1.19,3.53-2.46,5.68-4C912,16.7,903.87,11.56,895.64,6.6a4.35,4.35,0,0,0-3.74-.11C874.52,17,857.21,27.6,839.9,38.2,839.66,38.35,839.54,38.71,838.69,40Z"/><path class="cls-1" d="M2497.26,44.6c18.89,11.3,36.35,21.79,53.91,32.15a5,5,0,0,0,4.21.09c7.24-4.13,14.32-8.51,21.46-12.81,3-1.78,4.18-3.13,0-5.39-6.88-3.77-13.33-8.33-20.19-12.12a19.57,19.57,0,0,0-8.81-2.38c-14.64-.23-29.29-.11-43.93-.07C2502.23,44.08,2500.51,44.33,2497.26,44.6Z"/><path class="cls-1" d="M1604.42,39.59c2.6.17,4.17.36,5.75.37,14.66,0,29.33.1,44-.08a16.2,16.2,0,0,0,7.3-2c7.75-4.26,15.32-8.83,22.91-13.37.77-.46,1.17-1.53,2-2.63-8.33-5.2-16.56-10.42-24.9-15.44a4.33,4.33,0,0,0-3.73.14q-25.24,15.18-50.36,30.58A33.41,33.41,0,0,0,1604.42,39.59Z"/><path class="cls-1" d="M1731.87,44.89c15.49,9.33,30.56,17.59,44.7,27.22,8,5.45,14.29,5.75,21.67-.19,3.94-3.18,8.6-5.47,12.94-8.15,3-1.84,3.34-3.11-.23-5.09-7.58-4.21-14.86-9-22.33-13.37a8.76,8.76,0,0,0-4.16-1.21c-16.14-.08-32.28-.05-48.42,0A28.57,28.57,0,0,0,1731.87,44.89Z"/><path class="cls-1" d="M965.6,44.86c18.59,11.07,36,21.46,53.42,31.72,1.13.66,3.18,1,4.2.42,7.36-4.22,14.57-8.73,21.84-13.13,2.85-1.72,3.64-3,0-5.1-7.55-4.28-14.87-9-22.34-13.36a8.73,8.73,0,0,0-4.12-1.31c-16.31-.08-32.61-.05-48.92,0A30.18,30.18,0,0,0,965.6,44.86Z"/><path class="cls-1" d="M1987.56,45c14.09,8.59,27.34,16.67,40.61,24.72,2.48,1.51,5.44,2.47,7.46,4.42,5.13,5,9.63,3.11,14.56-.21,5.41-3.65,11-7,16.66-10.32,2.74-1.64,2.76-3,.05-4.58-7.84-4.67-15.63-9.43-23.51-14a7.84,7.84,0,0,0-3.77-.88q-24-.07-47.95,0A26,26,0,0,0,1987.56,45Z"/><path class="cls-1" d="M2753.43,44.91c11.79,7.17,22.6,13.78,33.45,20.32,6.44,3.87,12.89,7.72,19.44,11.39,1.17.65,3.23,1,4.26.4,7.48-4.31,14.75-9,22.18-13.39,3.22-1.91,2.58-3.12-.22-4.76-7.73-4.55-15.34-9.29-23.06-13.85a7.73,7.73,0,0,0-3.76-.93q-24-.09-47.95,0A29.6,29.6,0,0,0,2753.43,44.91Z"/><path class="cls-1" d="M665.21,21.89c-8.48-5.15-16.4-10.09-24.48-14.75a5.52,5.52,0,0,0-4.7,0c-17.58,10.42-35.06,21-53.9,32.39,2.86.24,4.35.48,5.85.48,15.15,0,30.29.09,45.43-.07a14,14,0,0,0,6.36-1.81c7.72-4.3,15.33-8.83,22.92-13.36C663.59,24.18,664.16,23.1,665.21,21.89Z"/><path class="cls-1" d="M1431.21,21.89c-8.48-5.16-16.41-10.09-24.48-14.75a5.56,5.56,0,0,0-4.7,0c-17.59,10.43-35.07,21-53.91,32.39,2.87.24,4.37.48,5.87.48,15.14,0,30.29.09,45.43-.07a13.92,13.92,0,0,0,6.35-1.81c7.73-4.31,15.33-8.83,22.93-13.36C1429.6,24.18,1430.18,23.08,1431.21,21.89Z"/><path class="cls-1" d="M3519.21,44.83c18.69,11.3,36.12,21.87,53.63,32.3a4.6,4.6,0,0,0,3.9-.26c7.32-4.27,14.48-8.82,21.79-13.11,3.43-2,3.11-3.16-.18-5-7.65-4.36-15.08-9.08-22.66-13.56a7.75,7.75,0,0,0-3.7-1.08q-24.48-.09-48.95,0A29.26,29.26,0,0,0,3519.21,44.83Z"/><path class="cls-1" d="M455.22,44.84c18.69,11.3,36.12,21.86,53.62,32.32a4.17,4.17,0,0,0,3.57.06c7.43-4.39,14.7-9.07,22.13-13.46,3.46-2,3.06-3.18-.21-5-7.64-4.36-15.07-9.08-22.65-13.56A7.85,7.85,0,0,0,508,44.09Q483.51,44,459,44.1A27.61,27.61,0,0,0,455.22,44.84Z"/><path class="cls-1" d="M1221.23,44.84c18.69,11.3,36.11,21.87,53.61,32.32a4.17,4.17,0,0,0,3.57.06c7.43-4.39,14.7-9.07,22.14-13.46,3.46-2,3-3.18-.22-5-7.64-4.36-15.08-9.08-22.65-13.56a7.85,7.85,0,0,0-3.71-1.07q-24.48-.09-48.94,0A27.3,27.3,0,0,0,1221.23,44.84Z"/><path class="cls-1" d="M2881.76,40h16.32c10.65,0,21.31.18,32-.11a21.46,21.46,0,0,0,9.22-2.41c7.34-4,14.43-8.41,21.56-12.77.89-.54,1.42-1.67,2.29-2.74-8.38-5.19-16.51-10.33-24.77-15.24a4.75,4.75,0,0,0-4.1,0c-17.65,10.61-35.22,21.36-52.81,32.07Z"/><path class="cls-1" d="M2197.18,21.88c-8.49-5.16-16.41-10.09-24.47-14.79-1.19-.7-3.38-1-4.44-.38-17.66,10.59-35.21,21.35-54,32.83,2.91.2,4.59.42,6.28.42,14.81,0,29.62.09,44.43-.07a15,15,0,0,0,6.84-1.84c7.74-4.27,15.34-8.81,22.93-13.34C2195.63,24.17,2196.19,23.05,2197.18,21.88Z"/><path class="cls-1" d="M3729.2,21.82c-8.15-4.88-15.89-9.21-23.26-14.08-2.85-1.88-4.56-1.62-7.29.06-17,10.43-34.18,20.61-51.19,31.83,1.71.11,3.43.33,5.14.33,14.48,0,29,.15,43.43-.1a20.89,20.89,0,0,0,9.22-2.4c7.34-4,14.42-8.42,21.55-12.77C3727.69,24.14,3728.23,23,3729.2,21.82Z"/><path class="cls-1" d="M2051.08,44.83c18.43,11.14,36,21.79,53.6,32.33a4.18,4.18,0,0,0,3.57.14c7.29-4.28,14.45-8.8,21.7-13.18,3.74-2.25,3.06-3.81-.37-5.77-7.22-4.14-14.25-8.61-21.43-12.82a9.68,9.68,0,0,0-4.6-1.42c-16-.11-31.93-.08-47.89,0A32.27,32.27,0,0,0,2051.08,44.83Z"/><path class="cls-1" d="M2817,44.76c18.55,11.22,36.11,21.88,53.73,32.42a4.18,4.18,0,0,0,3.57.09c7.18-4.17,14.28-8.48,21.32-12.87,3.86-2.4,3.8-3.63-.1-6q-10.65-6.52-21.39-12.89a8.79,8.79,0,0,0-4.11-1.38c-16.46-.09-32.93-.06-49.39,0A28.26,28.26,0,0,0,2817,44.76Z"/><path class="cls-1" d="M2242.7,45c18.3,11,35.78,21.55,53.33,32a4.59,4.59,0,0,0,3.9,0c7.51-4.36,14.87-9,22.31-13.44,2.71-1.63,2.68-2.92-.1-4.54-7.75-4.55-15.4-9.28-23.14-13.84a7.74,7.74,0,0,0-3.72-1q-24.24-.09-48.48,0A24.34,24.34,0,0,0,2242.7,45Z"/><path class="cls-1" d="M1285.29,44.94c18.23,11,35.79,21.7,53.42,32.24a4.18,4.18,0,0,0,3.57.09q10.77-6.26,21.32-12.86c3.85-2.4,3.8-3.64-.09-6q-10.65-6.53-21.39-12.89a8.69,8.69,0,0,0-4.11-1.39c-16.29-.09-32.59-.07-48.89,0A20.54,20.54,0,0,0,1285.29,44.94Z"/><path class="cls-1" d="M3008.8,45.11c18.1,10.8,35.47,21.21,52.93,31.49a5,5,0,0,0,4.22.3c7.53-4.32,14.89-8.93,22.32-13.41,2.76-1.66,2.56-2.94-.16-4.54-7.76-4.54-15.41-9.27-23.15-13.85a6.63,6.63,0,0,0-3.23-1c-16.82,0-33.65,0-50.47.09A12,12,0,0,0,3008.8,45.11Z"/><path class="cls-1" d="M518.91,44.79c18.5,11.13,36,21.65,53.48,32.07a4.69,4.69,0,0,0,3.91.37c7.19-4.14,14.28-8.46,21.33-12.85,3.83-2.4,3.76-3.62-.16-6q-10.65-6.51-21.39-12.88A8.76,8.76,0,0,0,572,44.11c-16.47-.09-32.93-.06-49.39,0A27.7,27.7,0,0,0,518.91,44.79Z"/><path class="cls-1" d="M1476.26,44.8c18.63,11.11,35.86,21.45,53.2,31.61a5.9,5.9,0,0,0,5,0c7.28-4.08,14.33-8.58,21.57-12.76,3.2-1.85,2.81-3.07-.08-4.77-7.6-4.48-15.1-9.14-22.71-13.62a8.75,8.75,0,0,0-4.16-1.2c-16-.07-32,0-48,0A43.42,43.42,0,0,0,1476.26,44.8Z"/><path class="cls-1" d="M3582.68,44.73c18.71,11.18,36.05,21.59,53.51,31.82a5.85,5.85,0,0,0,4.85-.19c6.87-3.74,13.63-7.7,20.34-11.74,4.18-2.52,4.13-3.83,0-6.36-7.11-4.34-14.22-8.67-21.41-12.86a9.73,9.73,0,0,0-4.63-1.3c-15.8-.1-31.6-.07-47.4,0A51.71,51.71,0,0,0,3582.68,44.73Z"/><path class="cls-1" d="M711.64,45.62c17.26,10.3,34.5,20.64,51.84,30.8a5.9,5.9,0,0,0,5,0c7.28-4.08,14.33-8.58,21.56-12.76,3.23-1.87,2.77-3.08-.11-4.77-7-4.14-13.88-8.59-21-12.58A17.19,17.19,0,0,0,761,44.14c-14.66-.21-29.32-.1-44-.08-1.75,0-3.5.2-5.25.31C711.75,44.79,711.7,45.2,711.64,45.62Z"/><path class="cls-1" d="M2626.67,40h12.79c10.81,0,21.62-.19,32.42.08a22.62,22.62,0,0,0,14.18-3.9c6.2-4.24,13-7.67,19.43-11.53.79-.47,1.25-1.49,2.16-2.64-8.37-5.25-16.57-10.48-24.89-15.52a4.34,4.34,0,0,0-3.7.18q-25.23,15.12-50.35,30.44a26.31,26.31,0,0,0-2.32,1.77C2626.48,39.23,2626.58,39.6,2626.67,40Z"/><path class="cls-1" d="M3392.6,39.68c1.59.1,3.18.28,4.77.28,13.46,0,26.94-.19,40.39.11A24.16,24.16,0,0,0,3452.4,36c6.14-4.07,12.68-7.52,19-11.35.9-.54,1.44-1.66,2.29-2.7-8.48-5.3-16.6-10.45-24.83-15.42a4.27,4.27,0,0,0-3.71,0c-17.62,10.62-35.16,21.38-52.72,32.1Z"/><path class="cls-1" d="M1175.85,21.86c-8.52-5.12-16.48-10-24.56-14.67-1.15-.67-3.25-1-4.26-.44-16.73,9.91-33.36,20-50,30.07-1,.58-1.77,1.38-3.48,2.74,2.43.18,4,.4,5.52.41,14.46,0,28.93.17,43.39-.12a23.16,23.16,0,0,0,10-2.74c7-3.78,13.8-8.13,20.62-12.34C1174,24.21,1174.65,23.16,1175.85,21.86Z"/><path class="cls-1" d="M1860,39.6c2.16.15,3.73.36,5.31.36,13.63,0,27.26-.13,40.89.08,5.07.08,9.39-.83,13.7-3.81,6.19-4.27,13-7.66,19.43-11.53.91-.55,1.48-1.66,2.41-2.75-8.44-5.25-16.56-10.38-24.78-15.33a4.32,4.32,0,0,0-3.71-.15c-17.36,10.46-34.63,21.06-51.91,31.64A10.1,10.1,0,0,0,1860,39.6Z"/><path class="cls-1" d="M328.64,40h6.76c12.8,0,25.6-.14,38.4.09,5.22.1,9.73-.77,14.19-3.86,6.18-4.27,13-7.66,19.43-11.54.89-.53,1.41-1.68,2.28-2.78-8.4-5.14-16.44-10.14-24.59-14.95a4.75,4.75,0,0,0-4-.31C363.49,17.2,345.94,28,328.38,38.68Z"/><path class="cls-1" d="M2626.66,45.41c8.26,5.07,16.48,10.21,24.79,15.2,9.1,5.47,18.25,10.88,27.48,16.14a4.9,4.9,0,0,0,4.12,0c8.06-4.61,16-9.44,24.56-14.54-.92-1.2-1.44-2.46-2.37-3-6.12-3.74-12.52-7.05-18.44-11.08-4.76-3.25-9.65-4.31-15.32-4.19-13.3.31-26.62.1-39.92.14-1.56,0-3.13.21-4.69.33Z"/><path class="cls-1" d="M328.66,45.41c8.26,5.07,16.48,10.21,24.79,15.2q13.67,8.22,27.49,16.15a4.92,4.92,0,0,0,4.11,0c8.07-4.61,16-9.44,24.56-14.54-.92-1.21-1.44-2.46-2.38-3-6.11-3.75-12.52-7.05-18.43-11.08-4.77-3.26-9.66-4.31-15.33-4.19-13.3.31-26.61.1-39.92.14-1.56,0-3.12.21-4.68.33Z"/><path class="cls-1" d="M1175.69,62c-1-1.16-1.7-2.29-2.67-2.88q-11.52-7-23.19-13.77a8.54,8.54,0,0,0-4.09-1.25c-16.14-.09-32.27-.06-48.41,0a32.65,32.65,0,0,0-3.8.69c6.85,4.15,12.59,7.66,18.37,11.11,11.59,6.93,23.19,13.87,34.84,20.7,1.09.64,3,1.27,3.81.77C1158.82,72.49,1166.94,67.4,1175.69,62Z"/><path class="cls-1" d="M1942.45,60.29a19,19,0,0,1-3.3-1.19c-7-4.15-13.9-8.59-21.07-12.48a21.09,21.09,0,0,0-9.25-2.46c-14.3-.25-28.61-.11-42.92-.09a9.42,9.42,0,0,0-5.28,1.35c5.73,3.47,11.45,7,17.21,10.4,11.59,6.94,23.18,13.89,34.85,20.7,1.13.67,3.17,1.09,4.15.53,8.17-4.72,16.2-9.7,24.27-14.6C1941.56,61.73,1942,61,1942.45,60.29Z"/><path class="cls-1" d="M3473.69,62c-1.05-1.16-1.7-2.29-2.67-2.88q-11.52-7-23.19-13.77a8.54,8.54,0,0,0-4.09-1.25c-16.14-.09-32.27-.06-48.41,0a32.65,32.65,0,0,0-3.8.69c6.85,4.15,12.59,7.66,18.37,11.11,11.59,6.93,23.19,13.87,34.84,20.7,1.09.64,3,1.27,3.81.77C3456.82,72.5,3464.94,67.4,3473.69,62Z"/><path class="cls-1" d="M2116,45.57c17.47,10.51,34.93,21.05,52.45,31.48a4.2,4.2,0,0,0,3.55.24c7.57-4.47,15-9.14,22.51-13.74,2.76-1.7,2.34-3-.28-4.54-7.49-4.35-14.85-8.92-22.36-13.24a11.8,11.8,0,0,0-5.5-1.64c-15.48-.12-30.95-.07-46.42,0a36.78,36.78,0,0,0-3.77.4Z"/><path class="cls-1" d="M3647,44.91c15.5,9.35,30.38,17.65,44.47,27.12,8,5.39,14.57,6,22.1-.2,3.88-3.22,8.51-5.56,12.87-8.19,2.75-1.65,2.61-3,0-4.56-7.74-4.59-15.42-9.27-23.17-13.83a7.76,7.76,0,0,0-3.68-1.13q-24.7-.1-49.42,0A19.22,19.22,0,0,0,3647,44.91Z"/><path class="cls-1" d="M2881,44.93c15.39,9.3,30.24,17.62,44.35,27.06,8,5.35,14.54,6.21,22.09-.13,3.86-3.24,8.5-5.57,12.88-8.16,2.74-1.62,2.74-3,.07-4.59-7.72-4.61-15.41-9.27-23.18-13.81a8.74,8.74,0,0,0-4.16-1.19c-16-.08-31.94,0-47.91,0A25.8,25.8,0,0,0,2881,44.93Z"/><path class="cls-1" d="M583,44.9l41.1,24.88a23.76,23.76,0,0,1,3.33,2c7.34,6.35,14.45,6.21,22,0,3.9-3.2,8.51-5.56,12.89-8.14,2.7-1.6,2.85-3,.14-4.6-7.85-4.71-15.68-9.47-23.58-14.11a7.81,7.81,0,0,0-3.76-.92q-24-.09-47.91,0A27.32,27.32,0,0,0,583,44.9Z"/><path class="cls-1" d="M1349.92,45.48c17.59,10.63,35.16,21.29,52.8,31.82a4.21,4.21,0,0,0,3.53-.28c7.31-4.27,14.51-8.73,21.77-13.09,3.07-1.84,3.25-3.19-.15-5.08-6.28-3.47-12.53-7.05-18.43-11.11A21.82,21.82,0,0,0,1396,44c-13.64.21-27.28.08-40.93.09h-4.78Z"/><path class="cls-1" d="M73.59,45.62l39.83,24.19c2.34,1.41,5,2.49,7,4.22,5,4.22,9.46,3.7,14.57,0a188.43,188.43,0,0,1,16.61-10.3c3.31-1.92,2.53-3.15-.21-4.72-4.81-2.75-9.88-5.2-14.23-8.56-7.1-5.5-14.86-6.92-23.6-6.54-11.64.51-23.32.13-35,.16-1.59,0-3.17.19-4.76.29C73.76,44.78,73.68,45.2,73.59,45.62Z"/><path class="cls-1" d="M3137.43,45.58q10.2,6.09,20.4,12.18c10.48,6.28,20.93,12.62,31.48,18.8,1.15.67,3.22,1.08,4.23.5,7.47-4.32,14.72-9,22.16-13.38,2.93-1.72,2.61-3,.07-4.55-7-4.22-13.86-8.65-21-12.53a21,21,0,0,0-9.28-2.44c-14.32-.25-28.65-.11-43-.09-1.58,0-3.15.22-4.73.33Z"/><path class="cls-1" d="M1604.44,45l21.43,12.84c10.48,6.28,20.94,12.61,31.47,18.81,1.1.64,3,1.23,3.87.72,7.59-4.43,15-9.2,22.54-13.7,2.93-1.74,2.48-3,0-4.53-7.72-4.59-15.43-9.21-23.19-13.75a7.82,7.82,0,0,0-3.62-1.25q-24.48-.11-49,0A21.18,21.18,0,0,0,1604.44,45Z"/><path class="cls-1" d="M2370.34,44.91l21.56,12.94c10.48,6.29,20.94,12.62,31.49,18.79a5.09,5.09,0,0,0,4.22.33c7.33-4.23,14.46-8.81,21.75-13.11,3.3-1.94,3.13-3.11-.13-5-7.54-4.27-14.87-8.89-22.35-13.26a9.74,9.74,0,0,0-4.53-1.52c-15.82-.1-31.64-.06-47.47,0A35.17,35.17,0,0,0,2370.34,44.91Z"/><path class="cls-1" d="M839.61,45.64l39.84,24.18c2.34,1.41,5,2.47,7,4.22,5,4.32,9.5,3.6,14.57,0,5.29-3.78,11-7.05,16.61-10.29,3.5-2,2.31-3.21-.26-4.71-4.64-2.72-9.54-5.12-13.76-8.4-7.53-5.87-15.84-7.13-25.07-6.7-11.3.53-22.65.13-34,.16-1.59,0-3.18.2-4.76.3C839.74,44.79,839.68,45.22,839.61,45.64Z"/></g></g></svg>