<svg xmlns="http://www.w3.org/2000/svg" viewBox="0 0 3830 87"><defs><style>.cls-1{fill:none;}</style></defs><g id="Camada_2" data-name="Camada 2"><g id="Camada_1-2" data-name="Camada 1"><path class="cls-1" d="M0,49V38c2.12-.82,4.87-1.06,6.27-2.56C12.49,28.77,9,16.63,0,13V0C1.83,0,3.67.07,5.5.07h3580Q3707.77.07,3830,0V13c-8.1-2.93-15.88-.54-22.65,3.18-13.19,7.24-25.81,15.54-38.58,23.54-9,5.6-17.76,10.93-29.18,9.59-8.86-1-14.17-12.69-9.19-19.85,2.13-3.06,7.31-4.72,9.67-2.86,3.69,2.9,2.48,5.45-.68,8-.33.27.69,3.28,1.13,3.29,2.88.09,6.35.64,8.54-.72,5.41-3.35,5.24-9.11,4.35-14.69-.81-5.07-4.1-8.08-8.77-9.59-8.09-2.62-15.8-.34-22.62,3.5-13.14,7.4-25.84,15.57-38.64,23.57-9,5.6-17.86,11.08-29.2,9.27-5.51-.88-9.81-5.05-10.83-11.59-.74-4.7,1-8.77,5.42-10.6a8.53,8.53,0,0,1,6.94.81c2.9,1.94,1,4.49-.95,6.12-2.21,1.84-1.52,3.59.49,3.92,2.8.46,6.4.78,8.57-.57,5.6-3.49,5.28-9.57,4.26-15.15-.88-4.77-4.07-8-8.95-9.37-8-2.31-15.58-.24-22.23,3.53-14,7.91-27.4,16.74-41.09,25.16-8.16,5-16.52,9.32-26.67,7.76-5.61-.87-9.87-5-10.83-11.66-.68-4.7,1-8.81,5.47-10.59a8.56,8.56,0,0,1,6.89,1c2.95,2,.41,4.13-1,6.19-.58.87-.07,2.46-.06,3.72,3.17-.25,7,.53,9.37-.95,5.95-3.64,4.93-10.1,3.77-15.64-.93-4.41-4.35-7.29-9.11-8.56-7.89-2.1-15.3-.1-21.8,3.55-13.25,7.44-26,15.84-38.87,23.86-8.83,5.48-17.63,10.83-28.8,9.15-5.56-.84-9.44-4.51-10.86-11.09-1-4.72.83-9.44,5.3-11.16a8.82,8.82,0,0,1,6.91.89c3.17,2.05.74,4.5-1,6-2,1.81-1.8,3.63.34,3.87,3.06.36,6.84.38,9.29-1.13,5.77-3.56,4.75-9.85,3.64-15.22-.95-4.68-4.55-7.52-9.5-8.79-7.9-2.05-15.28,0-21.77,3.66-13,7.24-25.46,15.41-38.06,23.33-9.09,5.72-18.07,11.42-29.63,9.57-5.54-.89-9-4.26-10.44-10.94-1-4.72.28-8.51,4.56-11.09,2.61-1.57,4.92-2.16,7.53.39,3.09,3,.08,4.45-1.07,6.58-.52,1-.56,3.24,0,3.61,4.71,3,12.66-.81,13.46-6.43a40,40,0,0,0,.17-8c-.29-5.17-4.29-9.21-9.34-10.64-8-2.27-15.62-.15-22.26,3.53-13,7.19-25.38,15.42-38,23.31-9.08,5.68-18,11.51-29.61,9.66-5.78-.93-9.6-4.7-10.77-11.76-.79-4.82,1-8.79,5.54-10.51a8.77,8.77,0,0,1,6.83,1c3.26,2.11.57,4.51-1.05,6-2,1.81-1.78,3.6.28,3.85,3.07.38,6.9.47,9.34-1,5.81-3.58,4.67-9.9,3.61-15.3-.89-4.5-4.32-7.37-9.07-8.72-8-2.31-15.57-.09-22.18,3.56-13,7.18-25.44,15.39-38,23.29-9.08,5.7-18,11.46-29.59,9.65-5.64-.88-8.86-4.07-10.38-10.9-1.11-5,.35-8.82,4.84-11.36,2.67-1.51,5-1.83,7.42.88,2.69,3-.41,4.22-1.15,6.26-.4,1.13.09,2.59.18,3.9,3-.26,6.66.43,9-1,5.55-3.37,5-9.37,4.05-14.8-.87-4.87-4.17-7.9-9-9.44-8-2.54-15.62-.15-22.2,3.44-13.17,7.19-25.7,15.57-38.45,23.52-9,5.58-17.79,11.24-29.18,9.54-6.07-.91-9.7-4.52-11.06-12.66-.72-4.35,1.62-7.6,5.38-9.72,2.68-1.51,5.1-1.68,7.49,1,2.64,3-.36,4.18-1.26,6.2-.47,1.07.13,2.61.25,3.94,3.16-.42,6.93.13,9.34-1.44,5.2-3.39,4.67-9.21,3.62-14.49-1-4.89-4.34-7.84-9.17-9.34-8-2.49-15.52-.08-22.14,3.58-13,7.19-25.5,15.35-38.13,23.23-9.09,5.68-18,11.46-29.59,9.68-5.74-.89-10.4-5.47-11.07-12.64-.38-4,1.51-8,5.6-9.56a9,9,0,0,1,6.89.79c3.29,2,.93,4.46-.78,6-2,1.76-1.89,3.75.15,4,3.21.33,7.25.29,9.7-1.39,5-3.47,4.6-9.24,3.34-14.57-1.14-4.85-4.49-7.67-9.35-9.1-7.86-2.32-15.28-.1-21.74,3.45-13.19,7.24-25.79,15.56-38.58,23.54-9,5.58-17.73,11-29.16,9.65-8.85-1-14.24-12.6-9.3-19.79,2.08-3,7.31-4.79,9.65-3,3.64,2.82,2.64,5.4-.58,8-.35.29.61,3.31,1,3.33,2.88.1,6.36.7,8.55-.65,5.41-3.33,5.33-9.07,4.41-14.67-.83-5-4-8.13-8.71-9.65-8.09-2.63-15.82-.37-22.64,3.45-13.15,7.37-25.83,15.58-38.64,23.56-9,5.59-17.84,11.09-29.18,9.33-5.58-.87-9.78-4.92-10.9-11.53-.81-4.74,1-8.76,5.36-10.63a8.67,8.67,0,0,1,7,.71c2.93,1.9,1.11,4.52-.85,6.13-2.22,1.81-1.66,3.57.36,3.94,2.8.51,6.43.87,8.6-.49,5.57-3.47,5.34-9.54,4.31-15.13-.87-4.78-4.05-8-8.9-9.42-8-2.36-15.59-.28-22.23,3.46-14,7.89-27.43,16.72-41.09,25.16-8.17,5.05-16.51,9.34-26.65,7.81-5.65-.85-9.87-4.95-10.9-11.58-.74-4.73.9-8.82,5.4-10.62a8.56,8.56,0,0,1,6.9.85c3,2,.88,4.49-1,6.07-2.67,2.26-1.31,3.63.92,4.13,3.92.89,7.85,1.07,10.59-3,3.39-5,3-10.5,1.07-15.59-1.82-4.9-9.36-9-14.23-7.79-7.08,1.78-14.45,3.53-20.75,7-12.44,6.9-24.27,14.92-36.28,22.59-8.3,5.31-16.82,9.52-27.15,7.9-5.36-.84-9.46-5-10.5-11.47-.76-4.74.75-8.86,5.3-10.69a8.79,8.79,0,0,1,6.92.81c3.21,2,.86,4.51-.9,6-2.05,1.77-1.92,3.61.22,3.89,3.05.41,6.9.47,9.3-1C2734,33,2733,26.52,2731.74,21c-1-4.36-4.56-7.13-9.33-8.38-7.92-2.06-15.3,0-21.8,3.62-13,7.23-25.46,15.4-38.05,23.34-9.09,5.73-18.06,11.43-29.62,9.62-5.57-.87-9-4.2-10.5-10.88-1-4.72.23-8.5,4.48-11.13,2.84-1.75,5.33-2.19,7.9.66s-.38,4.23-1.31,6.24c-.49,1-.66,3.25-.1,3.62,4.57,3.07,12.69-.75,13.51-6.32a40.13,40.13,0,0,0,.19-8c-.29-5.18-4.26-9.31-9.28-10.69-8-2.2-15.63-.24-22.28,3.45-13,7.2-25.38,15.43-38,23.32-9.07,5.69-18,11.54-29.59,9.71-5.8-.91-9.6-4.63-10.82-11.69-.84-4.83.94-8.78,5.47-10.54a8.75,8.75,0,0,1,6.83.92c3.26,2,.73,4.52-.95,6-2.05,1.76-1.86,3.59.16,3.87,3.07.42,6.93.54,9.37-1,5.77-3.56,4.71-9.86,3.67-15.28-.87-4.55-4.31-7.39-9-8.77-8-2.36-15.61-.14-22.2,3.5-13.15,7.25-25.65,15.66-38.42,23.59-8.95,5.56-17.8,11.22-29.19,9.41-5.7-.91-8.88-4-10.43-10.85-1.13-5,.29-8.81,4.76-11.39,2.66-1.54,4.93-1.85,7.43.79,2.79,3-.32,4.22-1,6.26-.41,1.16,0,2.61,0,3.93,3.05-.24,6.68.49,9-.92,5.54-3.35,5.08-9.33,4.12-14.78-.86-4.87-4.09-8-9-9.49-8-2.5-15.63-.23-22.22,3.37-13.17,7.19-25.7,15.55-38.44,23.52-9,5.6-17.81,11.47-29.15,9.52-7.24-1.25-9.5-4.38-11.12-12.52-.87-4.35,1.56-7.59,5.29-9.75,2.68-1.54,5.06-1.73,7.49.9,2.72,2.93.29,4.65-1.32,6.08-2.06,1.84-1.63,3.68.32,3.89,3.09.33,6.92.37,9.33-1.18,5.23-3.35,4.73-9.17,3.69-14.46-1-4.89-4.28-7.88-9.11-9.39-8-2.51-15.53-.16-22.16,3.5-13,7.2-25.51,15.34-38.12,23.25-9.08,5.7-18,11.46-29.58,9.72-5.69-.85-9.54-4.35-11.05-12.09-.74-3.8,1-7.35,4.58-9.67,2.75-1.77,5.15-2.67,7.91.1,2.93,2.94.18,4.42-1,6.59-.5.9.52,3.78.68,3.76,3.16-.26,6.94.13,9.28-1.5,5-3.5,4.64-9.23,3.41-14.56-1.12-4.86-4.41-7.77-9.3-9.15-8-2.26-15.46,0-22.12,3.69-13,7.3-25.55,15.36-38.21,23.23-9,5.57-17.72,11-29.14,9.71-8.85-1-14.32-12.51-9.42-19.74,2-3,7.27-4.87,9.63-3.07,3.61,2.75,2.85,5.36-.47,7.94-.38.3.53,3.33.91,3.35,2.89.12,6.38.78,8.58-.56,5.41-3.31,5.37-9,4.46-14.66-.81-5-3.93-8.2-8.65-9.7-8.06-2.57-15.83-.45-22.66,3.38-13.15,7.37-25.84,15.57-38.63,23.57-9,5.6-17.83,11.1-29.17,9.37-5.65-.86-9.65-4.8-11-11.45-.87-4.25,1.47-9.57,5.71-11,2-.67,4.68.67,7,1.1-.38,2-.1,4.65-1.29,5.87-1.93,2-1.68,3.63.34,4,2.78.56,6.45,1,8.62-.4,5.55-3.46,5.38-9.51,4.37-15.12-.86-4.79-4-8-8.84-9.48-8-2.4-15.62-.33-22.26,3.41-14,7.87-27.44,16.69-41.09,25.16-8.16,5.07-16.48,9.36-26.63,7.86-5.66-.84-9.88-4.87-11-11.52-.77-4.72.82-8.83,5.34-10.65a8.65,8.65,0,0,1,6.91.76c3.06,2,1,4.52-.9,6.07-2.7,2.21-1.48,3.61.79,4.16,3.92.94,7.86,1.1,10.63-2.91,3.47-5,3-10.51,1.15-15.62-1.71-4.83-9.34-9-14.21-7.84-7.09,1.75-14.49,3.47-20.77,7-12.58,7-24.47,15.21-36.67,22.9-8.16,5.15-16.59,9.27-26.74,7.65-5.29-.84-9.11-4.48-10.45-10.92-1-4.67.36-8.54,4.62-11.12,2.63-1.58,5-2.21,7.56.43,2.83,3,.25,4.49-1.17,6.63-.53.81.23,3.54.32,3.54,3.16-.13,6.94.5,9.35-1,5.9-3.69,4.91-10.15,3.67-15.67-1-4.39-4.54-7.15-9.28-8.43-7.92-2.15-15.34,0-21.81,3.56-13.14,7.3-25.69,15.66-38.45,23.63-9,5.6-17.83,11.17-29.21,9.38-5.58-.88-9.07-4.17-10.55-10.82-1.13-5.08.49-8.94,4.82-11.43,2.7-1.55,5.06-1.8,7.49.84,2.72,3-.3,4.24-1.2,6.26-.48,1.08-.23,2.49-.31,3.75,3.45-.4,7.56.25,10.2-1.42,5.74-3.62,4.27-10,3.23-15.35-.87-4.46-4.5-7.18-9.28-8.4-8.05-2.05-15.49,0-22.15,3.82-12.92,7.33-25.37,15.47-38,23.29-9,5.54-17.78,11.28-29.19,9.46-5.7-.91-9.3-4.28-10.75-11.15-1-4.75.46-8.45,4.79-10.95,2.65-1.52,4.93-2.17,7.47.53,2.9,3.09,0,4.44-1.24,6.55-.52.87.17,3.54.25,3.54,3.19-.11,7,.59,9.41-.92,5.71-3.55,4.8-9.81,3.75-15.27-.87-4.56-4.27-7.44-9-8.81-8-2.34-15.63-.22-22.23,3.42-13.14,7.26-25.65,15.66-38.41,23.61-8.94,5.56-17.78,11.24-29.17,9.46-5.89-.92-9.14-4.07-10.59-11.28-1-5,.66-9.28,5.26-11.06,1.89-.73,4.95-.08,6.8,1.05,3.46,2.11.57,4.5-1,5.91-1.92,1.78-2,3.51.14,3.9,2.92.53,6.67.74,9-.66,5.54-3.33,5.14-9.3,4.18-14.76-.85-4.87-4-8-8.91-9.54-8.16-2.49-15.79-.19-22.59,3.62-13,7.25-25.48,15.33-38.08,23.22-9.11,5.69-18.11,11.38-29.65,9.57-5.83-.91-9.95-5.32-10.79-13a8.74,8.74,0,0,1,5.79-9.43c1.94-.72,5,0,6.89,1.15,3.28,2.11.62,4.46-1,5.88-2.09,1.77-1.83,3.65.2,3.9,3.07.39,6.92.44,9.34-1.1,5.26-3.32,4.78-9.14,3.76-14.44-1-4.89-4.22-7.92-9-9.46-8-2.54-15.58-.2-22.19,3.46-13.15,7.27-25.72,15.62-38.51,23.54-8.8,5.44-17.44,10.7-28.68,9.66-8.13-.76-14.57-11.7-10-19.26,1.92-3.19,7.53-5.48,9.86-3.71,3.56,2.71,2.91,5.33-.4,8-.39.3.73,3.52,1,3.5,3.15-.19,6.93.17,9.28-1.44,5.06-3.47,4.7-9.18,3.49-14.52-1.11-4.88-4.37-7.82-9.25-9.22-8-2.28-15.49-.09-22.14,3.64-13.13,7.37-25.78,15.61-38.6,23.53-8.82,5.45-17.49,10.67-28.73,9.47-8.83-.94-14.39-12.43-9.52-19.7,2-3,7.24-4.93,9.6-3.17,3.63,2.68,3,5.31-.34,8-.42.32.48,3.36.76,3.35,3,0,6.62.56,8.92-.86,5.47-3.38,5.12-9.23,4.1-14.74-.92-4.94-4.15-7.95-9-9.4-8-2.4-15.55-.24-22.19,3.45-13.17,7.32-25.83,15.59-38.63,23.56-8.81,5.47-17.46,10.85-28.66,9.53-8.71-1-12-8.81-11.57-15,.33-4.39,4.67-8.64,8.42-8.35a7.25,7.25,0,0,1,4.72,2.76c.61.83-.34,2.94-.86,4.38a23.66,23.66,0,0,1-1.91,3.43c1.42.63,2.8,1.62,4.28,1.8,3.39.42,6.34-.19,8.41-3.63,2.27-3.77,2.77-11.69.68-15.62a13.45,13.45,0,0,0-14-7.27,58.14,58.14,0,0,0-20.41,6.49c-12.59,7-24.5,15.26-36.7,23-8,5-16.11,9.1-26.12,8-8.76-.95-12.13-9-11.55-15,.42-4.45,4.68-8.61,8.46-8.32a6.57,6.57,0,0,1,4.42,2.43c.63.91-.06,2.94-.53,4.34a23.14,23.14,0,0,1-2.12,3.86,27.71,27.71,0,0,0,5.33,1.81c3.16.43,5.59-.76,7.42-3.66,2.25-3.57,2.84-11.92.82-15.58-3.07-5.58-8.54-8.14-14-7.34a61.81,61.81,0,0,0-20.81,6.76c-12.57,7-24.48,15.19-36.65,22.91-8.16,5.17-16.58,9.27-26.73,7.7-5.33-.82-9.11-4.39-10.5-10.86-1-4.66.3-8.54,4.54-11.15,2.61-1.6,5-2.26,7.58.33,2.86,2.92.39,4.51-1.06,6.66-.56.82.09,2.44.19,3.7,3.16-.3,6.94.41,9.36-1.08,5.94-3.67,5-10.13,3.73-15.66-1-4.38-4.47-7.2-9.22-8.49-7.91-2.16-15.35-.08-21.83,3.51-13.14,7.28-25.7,15.63-38.45,23.63-9,5.62-17.83,11.15-29.19,9.42-5.61-.85-9.11-4.12-10.6-10.75q-1.74-7.65,4.74-11.46c2.69-1.58,5-1.82,7.5.75,2.78,2.91-.26,4.22-1.08,6.27-.45,1.13,0,2.61,0,3.94,3.3-.44,7.21.11,9.76-1.51,5.75-3.65,4.28-10,3.29-15.34-.84-4.48-4.47-7.23-9.23-8.45-8-2.07-15.5,0-22.17,3.75-12.92,7.33-25.37,15.47-38,23.3-8.94,5.54-17.75,11.3-29.16,9.51-5.8-.91-9.31-4.16-10.82-11.09-1-4.75.4-8.45,4.72-11,2.64-1.55,4.92-2.23,7.48.42,2.94,3,.15,4.46-1.13,6.59-.53.88.06,2.44.13,3.69,3.19-.27,7,.49,9.43-1,5.78-3.51,4.81-9.79,3.81-15.25-.85-4.58-4.22-7.5-8.92-8.86-8.16-2.37-15.79-.16-22.59,3.68-12.94,7.31-25.44,15.42-38.06,23.29-9.1,5.68-18.11,11.36-29.66,9.44-5.29-.88-8.42-4-9.93-10.17-1.19-4.86-.6-9.22,4.17-11.49,2-1,5.45-1.07,7.31,0,3.68,2.15.81,4.43-.77,6.69-.56.79.1,2.44.21,3.69,3.3-.43,7.25.15,9.76-1.48,5.45-3.56,4.49-9.71,3.33-15-1-4.5-4.35-7.37-9.12-8.75-8.07-2.31-15.51,0-22.13,3.69-13,7.2-25.47,15.32-38.08,23.21-9.1,5.69-18.07,11.43-29.63,9.63-5.87-.92-9.89-5.14-10.84-12.89-.53-4.31,1.89-7.58,5.66-9.62,2.75-1.49,5.82-1.6,7.26,1.45.66,1.42-.11,4.43-1.31,5.6-1.93,1.86-1.87,3.68.14,4,3.06.43,6.92.5,9.35-1,5.25-3.3,4.83-9.1,3.83-14.42-.93-4.93-4.21-7.94-9-9.5-8-2.61-15.6-.26-22.21,3.38C815.37,23.41,802.8,31.75,790,39.71c-9.09,5.68-18.12,11.34-29.65,9.47-5.49-.89-9.8-5.15-10.75-12.39a9.43,9.43,0,0,1,4.92-9.53c2.64-1.57,4.92-2.33,7.54.18,2.94,2.83.42,4.44-.83,6.64-.53.94.25,2.62.44,4,3.14-.45,6.91.05,9.29-1.55,5.12-3.43,4.7-9.16,3.56-14.5-1.06-4.91-4.38-7.82-9.2-9.26-8-2.4-15.52-.12-22.15,3.58-13.15,7.33-25.8,15.58-38.6,23.53-9,5.57-17.92,11.57-29.16,9.14-3.31-.72-7.22-3-8.92-5.8-2.52-4.11-3.48-9.27,0-13.9,2.29-3.07,7.4-4.51,9.75-2.57,3.37,2.79,2.27,5.21-.61,7.7-.33.29.78,3.47,1.6,3.65,4,.91,7.77.77,10.42-3.39s3-11.65.28-16.07-9.66-7.78-14.28-7A66.49,66.49,0,0,0,649,20.86Q628.89,33.6,608.61,46.07C602.53,49.82,595.76,50,589,49c-5.68-.9-10.67-8.68-9.75-14.55.67-4.33,4.68-8.66,8.43-8.41a7.27,7.27,0,0,1,4.76,2.7c.61.82-.28,2.94-.8,4.37a20,20,0,0,1-2,3.43,26.61,26.61,0,0,0,4.74,1.92,7.48,7.48,0,0,0,8.75-4.78c2.06-5.14,2.39-10.58-.87-15.7a13.28,13.28,0,0,0-13.61-6,62.9,62.9,0,0,0-20.31,6.74c-12.44,6.94-24.27,15-36.33,22.64-8.28,5.25-16.77,9.56-27.1,7.91-5.37-.85-9.45-4.86-10.58-11.34A9.7,9.7,0,0,1,499,27.22c2.61-1.62,5.07-2.31,7.57.3,2.73,2.85.59,4.54-1.08,6.69-.56.73.17,2.45.31,3.72,3.27-.45,7.18.09,9.67-1.54,5.63-3.7,4.43-10,3.2-15.34-1-4.29-4.37-7.26-9.24-8.42-7.89-1.88-15.23,0-21.76,3.71C474.62,23.75,462,31.92,449.21,39.9c-9,5.61-17.86,11.08-29.21,9.32-5.39-.84-9.11-4.29-10.55-10.8-1-4.66.24-8.55,4.46-11.18,2.58-1.61,5-2.32,7.59.24,2.89,2.86.48,4.5-.95,6.68-.56.85,0,2.44.06,3.7,3.17-.27,7,.48,9.39-1,6-3.64,5-10.09,3.8-15.64-.95-4.43-4.45-7.27-9.19-8.53-8-2.15-15.53,0-22.21,3.74C389.45,23.75,377,31.87,364.33,39.75c-9,5.59-17.79,11.23-29.18,9.48-5.83-.9-9.37-4.25-10.78-11.17-1-4.91.73-9.37,5.27-11.12,1.93-.74,5-.16,6.87,1,3.37,2.1.05,4-.82,6.06-.48,1.13-.09,2.63-.09,4,3.18-.29,7,.42,9.42-1.08,6-3.66,4.74-10.16,3.71-15.68-.84-4.49-4.44-7.24-9.17-8.5-8.05-2.15-15.54-.06-22.2,3.69-12.94,7.29-25.39,15.45-38,23.31-9.09,5.67-18.08,11.42-29.65,9.5-5.47-.91-8.89-4.25-10.36-11-1-4.73.28-8.47,4.63-11,2.63-1.54,4.9-2.28,7.5.33,2.94,3,.25,4.47-1,6.62-.54.91,0,2.44,0,3.69,3.3-.36,7.25.31,9.78-1.28,5.73-3.61,4.55-10,3.41-15.35-.95-4.43-4.42-7.27-9.22-8.55-8.06-2.16-15.5,0-22.13,3.74-13,7.26-25.44,15.41-38.05,23.29-9.1,5.68-18.09,11.39-29.65,9.49-5.44-.9-8.54-4-10.1-10.6-1.18-5,0-8.84,4.55-11.47,2.58-1.5,4.85-2.21,7.44.52,3,3.11,0,4.42-1.13,6.54-.5,1,0,2.46.09,3.72,3.19-.29,7,.42,9.42-1.07,5.57-3.38,4.88-9.45,3.87-14.84-.91-4.84-4.28-7.81-9.19-9.27-8-2.37-15.52,0-22.14,3.61-13,7.18-25.48,15.32-38.07,23.21-9.1,5.71-18.09,11.69-29.6,9.6C73.59,48,70.68,45.61,69,36.87c-.81-4.07,1.11-7.29,4.65-9.56,2.78-1.77,5.2-2.36,7.9.38,3,3.06,0,4.36-1.19,6.47-.51.9.51,3.75.6,3.74,3.3-.39,7.31,0,9.68-1.8,4.86-3.64,4.24-9.51,2.93-14.72C92.37,16.83,89,14,84.32,12.69c-8-2.31-15.47,0-22.09,3.76-14,7.87-27.38,16.72-41.16,24.94C14.59,45.25,8.38,50.25,0,49Z"/><path d="M0,49c8.38,1.25,14.59-3.75,21.07-7.61,13.78-8.22,27.2-17.07,41.16-24.94,6.62-3.73,14.05-6.07,22.09-3.76,4.72,1.35,8.05,4.14,9.2,8.69,1.31,5.21,1.93,11.08-2.93,14.72-2.37,1.78-6.38,1.41-9.68,1.8-.09,0-1.11-2.84-.6-3.74,1.19-2.11,4.23-3.41,1.19-6.47-2.7-2.74-5.12-2.15-7.9-.38-3.54,2.27-5.46,5.49-4.65,9.56C70.68,45.61,73.59,48,79.74,49.13c11.51,2.09,20.5-3.89,29.6-9.6,12.59-7.89,25.07-16,38.07-23.21,6.62-3.65,14.11-6,22.14-3.61,4.91,1.46,8.28,4.43,9.19,9.27,1,5.39,1.7,11.46-3.87,14.84-2.45,1.49-6.23.78-9.42,1.07-.06-1.26-.59-2.76-.09-3.72,1.12-2.12,4.09-3.43,1.13-6.54-2.59-2.73-4.86-2-7.44-.52-4.51,2.63-5.73,6.49-4.55,11.47,1.56,6.56,4.66,9.7,10.1,10.6,11.56,1.9,20.55-3.81,29.65-9.49,12.61-7.88,25.09-16,38.05-23.29,6.63-3.71,14.07-5.9,22.13-3.74,4.8,1.28,8.27,4.12,9.22,8.55,1.14,5.37,2.32,11.74-3.41,15.35-2.53,1.59-6.48.92-9.78,1.28,0-1.25-.54-2.78,0-3.69,1.27-2.15,4-3.65,1-6.62-2.6-2.61-4.87-1.87-7.5-.33-4.35,2.54-5.67,6.28-4.63,11,1.47,6.72,4.89,10.06,10.36,11,11.57,1.92,20.56-3.83,29.65-9.5,12.61-7.86,25.06-16,38-23.31,6.66-3.75,14.15-5.84,22.2-3.69,4.73,1.26,8.33,4,9.17,8.5,1,5.52,2.29,12-3.71,15.68-2.45,1.5-6.24.79-9.42,1.08,0-1.33-.39-2.83.09-4,.87-2,4.19-4,.82-6.06-1.84-1.14-4.94-1.72-6.87-1-4.54,1.75-6.28,6.21-5.27,11.12,1.41,6.92,4.95,10.27,10.78,11.17,11.39,1.75,20.22-3.89,29.18-9.48,12.62-7.88,25.12-16,38.07-23.32,6.68-3.77,14.17-5.89,22.21-3.74,4.74,1.26,8.24,4.1,9.19,8.53,1.18,5.55,2.16,12-3.8,15.64-2.43,1.48-6.22.73-9.39,1-.05-1.26-.62-2.85-.06-3.7,1.43-2.18,3.84-3.82.95-6.68-2.58-2.56-5-1.85-7.59-.24-4.22,2.63-5.49,6.52-4.46,11.18,1.44,6.51,5.16,10,10.55,10.8,11.35,1.76,20.25-3.71,29.21-9.32,12.76-8,25.41-16.15,38.5-23.56,6.53-3.7,13.87-5.59,21.76-3.71,4.87,1.16,8.25,4.13,9.24,8.42,1.23,5.29,2.43,11.64-3.2,15.34-2.49,1.63-6.4,1.09-9.67,1.54-.14-1.27-.87-3-.31-3.72,1.67-2.15,3.81-3.84,1.08-6.69-2.5-2.61-5-1.92-7.57-.3a9.7,9.7,0,0,0-4.69,10.63c1.13,6.48,5.21,10.49,10.58,11.34,10.33,1.65,18.82-2.66,27.1-7.91,12.06-7.65,23.89-15.7,36.33-22.64a62.9,62.9,0,0,1,20.31-6.74,13.28,13.28,0,0,1,13.61,6c3.26,5.12,2.93,10.56.87,15.7a7.48,7.48,0,0,1-8.75,4.78,26.61,26.61,0,0,1-4.74-1.92,20,20,0,0,0,2-3.43c.52-1.43,1.41-3.55.8-4.37a7.27,7.27,0,0,0-4.76-2.7c-3.75-.25-7.76,4.08-8.43,8.41-.92,5.87,4.07,13.65,9.75,14.55,6.77,1.06,13.54.86,19.62-2.89Q628.86,33.56,649,20.86a66.49,66.49,0,0,1,24.66-9.24c4.62-.8,11.66,2.65,14.28,7s2.29,12-.28,16.07-6.44,4.3-10.42,3.39c-.82-.18-1.93-3.36-1.6-3.65,2.88-2.49,4-4.91.61-7.7-2.35-1.94-7.46-.5-9.75,2.57-3.46,4.63-2.5,9.79,0,13.9,1.7,2.76,5.61,5.08,8.92,5.8,11.24,2.43,20.19-3.57,29.16-9.14,12.8-8,25.45-16.2,38.6-23.53,6.63-3.7,14.15-6,22.15-3.58,4.82,1.44,8.14,4.35,9.2,9.26,1.14,5.34,1.56,11.07-3.56,14.5-2.38,1.6-6.15,1.1-9.29,1.55-.19-1.34-1-3-.44-4,1.25-2.2,3.77-3.81.83-6.64-2.62-2.51-4.9-1.75-7.54-.18a9.43,9.43,0,0,0-4.92,9.53c1,7.24,5.26,11.5,10.75,12.39,11.53,1.87,20.56-3.79,29.65-9.47,12.77-8,25.34-16.3,38.5-23.55,6.61-3.64,14.21-6,22.21-3.38,4.79,1.56,8.07,4.57,9,9.5,1,5.32,1.42,11.12-3.83,14.42-2.43,1.52-6.29,1.45-9.35,1-2-.29-2.07-2.11-.14-4,1.2-1.17,2-4.18,1.31-5.6-1.44-3-4.51-2.94-7.26-1.45-3.77,2-6.19,5.31-5.66,9.62,1,7.75,5,12,10.84,12.89,11.56,1.8,20.53-3.94,29.63-9.63,12.61-7.89,25.09-16,38.08-23.21,6.62-3.67,14.06-6,22.13-3.69,4.77,1.38,8.13,4.25,9.12,8.75,1.16,5.29,2.12,11.44-3.33,15-2.51,1.63-6.46,1-9.76,1.48-.11-1.25-.77-2.9-.21-3.69,1.58-2.26,4.45-4.54.77-6.69-1.86-1.09-5.27-1-7.31,0C920,29.78,919.41,34.14,920.6,39c1.51,6.17,4.64,9.29,9.93,10.17,11.55,1.92,20.56-3.76,29.66-9.44,12.62-7.87,25.12-16,38.06-23.29,6.8-3.84,14.43-6.05,22.59-3.68,4.7,1.36,8.07,4.28,8.92,8.86,1,5.46,2,11.74-3.81,15.25-2.44,1.49-6.24.73-9.43,1-.07-1.25-.66-2.81-.13-3.69,1.28-2.13,4.07-3.56,1.13-6.59-2.56-2.65-4.84-2-7.48-.42-4.32,2.52-5.75,6.22-4.72,11,1.51,6.93,5,10.18,10.82,11.09,11.41,1.79,20.22-4,29.16-9.51,12.64-7.83,25.09-16,38-23.3,6.67-3.79,14.14-5.82,22.17-3.75,4.76,1.22,8.39,4,9.23,8.45,1,5.31,2.46,11.69-3.29,15.34-2.55,1.62-6.46,1.07-9.76,1.51,0-1.33-.47-2.81,0-3.94.82-2.05,3.86-3.36,1.08-6.27-2.47-2.57-4.81-2.33-7.5-.75q-6.46,3.79-4.74,11.46c1.49,6.63,5,9.9,10.6,10.75,11.36,1.73,20.24-3.8,29.19-9.42,12.75-8,25.31-16.35,38.45-23.63,6.48-3.59,13.92-5.67,21.83-3.51,4.75,1.29,8.25,4.11,9.22,8.49,1.23,5.53,2.21,12-3.73,15.66-2.42,1.49-6.2.78-9.36,1.08-.1-1.26-.75-2.88-.19-3.7,1.45-2.15,3.92-3.74,1.06-6.66-2.55-2.59-5-1.93-7.58-.33-4.24,2.61-5.54,6.49-4.54,11.15,1.39,6.47,5.17,10,10.5,10.86,10.15,1.57,18.57-2.53,26.73-7.7,12.17-7.72,24.08-15.92,36.65-22.91a61.81,61.81,0,0,1,20.81-6.76c5.44-.8,10.91,1.76,14,7.34,2,3.66,1.43,12-.82,15.58-1.83,2.9-4.26,4.09-7.42,3.66a27.71,27.71,0,0,1-5.33-1.81,23.14,23.14,0,0,0,2.12-3.86c.47-1.4,1.16-3.43.53-4.34a6.57,6.57,0,0,0-4.42-2.43c-3.78-.29-8,3.87-8.46,8.32-.58,6,2.79,14.08,11.55,15,10,1.08,18.15-3,26.12-8,12.2-7.71,24.11-16,36.7-23a58.14,58.14,0,0,1,20.41-6.49,13.45,13.45,0,0,1,14,7.27c2.09,3.93,1.59,11.85-.68,15.62-2.07,3.44-5,4-8.41,3.63-1.48-.18-2.86-1.17-4.28-1.8a23.66,23.66,0,0,0,1.91-3.43c.52-1.44,1.47-3.55.86-4.38a7.25,7.25,0,0,0-4.72-2.76c-3.75-.29-8.09,4-8.42,8.35-.45,6.16,2.86,13.94,11.57,15,11.2,1.32,19.85-4.06,28.66-9.53,12.8-8,25.46-16.24,38.63-23.56,6.64-3.69,14.23-5.85,22.19-3.45,4.81,1.45,8,4.46,9,9.4,1,5.51,1.37,11.36-4.1,14.74-2.3,1.42-5.9.84-8.92.86-.28,0-1.18-3-.76-3.35,3.34-2.64,4-5.27.34-7.95-2.36-1.76-7.6.17-9.6,3.17-4.87,7.27.69,18.76,9.52,19.7,11.24,1.2,19.91-4,28.73-9.47,12.82-7.92,25.47-16.16,38.6-23.53,6.65-3.73,14.14-5.92,22.14-3.64,4.88,1.4,8.14,4.34,9.25,9.22,1.21,5.34,1.57,11-3.49,14.52-2.35,1.61-6.13,1.25-9.28,1.44-.3,0-1.42-3.2-1-3.5,3.31-2.62,4-5.24.4-7.95-2.33-1.77-7.94.52-9.86,3.71-4.55,7.56,1.89,18.5,10,19.26,11.24,1,19.88-4.22,28.68-9.66,12.79-7.92,25.36-16.27,38.51-23.54,6.61-3.66,14.18-6,22.19-3.46,4.83,1.54,8.1,4.57,9,9.46,1,5.3,1.5,11.12-3.76,14.44-2.42,1.54-6.27,1.49-9.34,1.1-2-.25-2.29-2.13-.2-3.9,1.67-1.42,4.33-3.77,1-5.88-1.85-1.19-5-1.87-6.89-1.15a8.74,8.74,0,0,0-5.79,9.43c.84,7.63,5,12,10.79,13,11.54,1.81,20.54-3.88,29.65-9.57,12.6-7.89,25.11-16,38.08-23.22,6.8-3.81,14.43-6.11,22.59-3.62,4.88,1.5,8.06,4.67,8.91,9.54,1,5.46,1.36,11.43-4.18,14.76-2.34,1.4-6.09,1.19-9,.66-2.17-.39-2.06-2.12-.14-3.9,1.52-1.41,4.41-3.8,1-5.91-1.85-1.13-4.91-1.78-6.8-1.05-4.6,1.78-6.27,6.07-5.26,11.06,1.45,7.21,4.7,10.36,10.59,11.28,11.39,1.78,20.23-3.9,29.17-9.46,12.76-8,25.27-16.35,38.41-23.61,6.6-3.64,14.23-5.76,22.23-3.42,4.7,1.37,8.1,4.25,9,8.81,1,5.46,2,11.72-3.75,15.27-2.42,1.51-6.22.81-9.41.92-.08,0-.77-2.67-.25-3.54,1.26-2.11,4.14-3.46,1.24-6.55-2.54-2.7-4.82-2-7.47-.53-4.33,2.5-5.79,6.2-4.79,11,1.45,6.87,5,10.24,10.75,11.15,11.41,1.82,20.23-3.92,29.19-9.46,12.64-7.82,25.09-16,38-23.29,6.66-3.78,14.1-5.87,22.15-3.82,4.78,1.22,8.41,3.94,9.28,8.4,1,5.3,2.51,11.73-3.23,15.35-2.64,1.67-6.75,1-10.2,1.42.08-1.26-.17-2.67.31-3.75.9-2,3.92-3.31,1.2-6.26-2.43-2.64-4.79-2.39-7.49-.84-4.33,2.49-6,6.35-4.82,11.43,1.48,6.65,5,9.94,10.55,10.82,11.38,1.79,20.26-3.78,29.21-9.38,12.76-8,25.31-16.33,38.45-23.63,6.47-3.59,13.89-5.71,21.81-3.56,4.74,1.28,8.29,4,9.28,8.43,1.24,5.52,2.23,12-3.67,15.67-2.41,1.51-6.19.88-9.35,1-.09,0-.85-2.73-.32-3.54,1.42-2.14,4-3.66,1.17-6.63-2.51-2.64-4.93-2-7.56-.43-4.26,2.58-5.59,6.45-4.62,11.12,1.34,6.44,5.16,10.08,10.45,10.92,10.15,1.62,18.58-2.5,26.74-7.65,12.2-7.69,24.09-15.9,36.67-22.9,6.28-3.5,13.68-5.22,20.77-7,4.87-1.2,12.5,3,14.21,7.84,1.81,5.11,2.32,10.61-1.15,15.62-2.77,4-6.71,3.85-10.63,2.91-2.27-.55-3.49-1.95-.79-4.16,1.89-1.55,4-4.11.9-6.07a8.65,8.65,0,0,0-6.91-.76c-4.52,1.82-6.11,5.93-5.34,10.65,1.08,6.65,5.3,10.68,11,11.52,10.15,1.5,18.47-2.79,26.63-7.86C2077.57,32.9,2091,24.08,2105,16.21c6.64-3.74,14.28-5.81,22.26-3.41,4.83,1.46,8,4.69,8.84,9.48,1,5.61,1.18,11.66-4.37,15.12-2.17,1.35-5.84,1-8.62.4-2-.4-2.27-2-.34-4,1.19-1.22.91-3.87,1.29-5.87-2.36-.43-5-1.77-7-1.1-4.24,1.39-6.58,6.71-5.71,11,1.35,6.65,5.35,10.59,11,11.45,11.34,1.73,20.21-3.77,29.17-9.37,12.79-8,25.48-16.2,38.63-23.57,6.83-3.83,14.6-5.95,22.66-3.38,4.72,1.5,7.84,4.67,8.65,9.7.91,5.61,1,11.35-4.46,14.66-2.2,1.34-5.69.68-8.58.56-.38,0-1.29-3.05-.91-3.35,3.32-2.58,4.08-5.19.47-7.94-2.36-1.8-7.58,0-9.63,3.07-4.9,7.23.57,18.78,9.42,19.74,11.42,1.25,20.18-4.14,29.14-9.71,12.66-7.87,25.22-15.93,38.21-23.23,6.66-3.74,14.11-6,22.12-3.69,4.89,1.38,8.18,4.29,9.3,9.15,1.23,5.33,1.63,11.06-3.41,14.56-2.34,1.63-6.12,1.24-9.28,1.5-.16,0-1.18-2.86-.68-3.76,1.21-2.17,4-3.65,1-6.59-2.76-2.77-5.16-1.87-7.91-.1-3.62,2.32-5.32,5.87-4.58,9.67,1.51,7.74,5.36,11.24,11.05,12.09,11.55,1.74,20.5-4,29.58-9.72,12.61-7.91,25.11-16,38.12-23.25,6.63-3.66,14.16-6,22.16-3.5,4.83,1.51,8.15,4.5,9.11,9.39,1,5.29,1.54,11.11-3.69,14.46-2.41,1.55-6.24,1.51-9.33,1.18-1.95-.21-2.38-2.05-.32-3.89,1.61-1.43,4-3.15,1.32-6.08-2.43-2.63-4.81-2.44-7.49-.9-3.73,2.16-6.16,5.4-5.29,9.75,1.62,8.14,3.88,11.27,11.12,12.52,11.34,2,20.2-3.92,29.15-9.52,12.74-8,25.27-16.33,38.44-23.52,6.59-3.6,14.21-5.87,22.22-3.37,4.88,1.52,8.11,4.62,9,9.49,1,5.45,1.42,11.43-4.12,14.78-2.34,1.41-6,.68-9,.92,0-1.32-.46-2.77,0-3.93.72-2,3.83-3.3,1-6.26-2.5-2.64-4.77-2.33-7.43-.79-4.47,2.58-5.89,6.39-4.76,11.39,1.55,6.85,4.73,9.94,10.43,10.85,11.39,1.81,20.24-3.85,29.19-9.41,12.77-7.93,25.27-16.34,38.42-23.59,6.59-3.64,14.17-5.86,22.2-3.5,4.71,1.38,8.15,4.22,9,8.77,1,5.42,2.1,11.72-3.67,15.28-2.44,1.5-6.3,1.38-9.37,1-2-.28-2.21-2.11-.16-3.87,1.68-1.44,4.21-3.92.95-6a8.75,8.75,0,0,0-6.83-.92c-4.53,1.76-6.31,5.71-5.47,10.54,1.22,7.06,5,10.78,10.82,11.69,11.6,1.83,20.52-4,29.59-9.71,12.59-7.89,25-16.12,38-23.32,6.65-3.69,14.27-5.65,22.28-3.45,5,1.38,9,5.51,9.28,10.69a40.13,40.13,0,0,1-.19,8c-.82,5.57-8.94,9.39-13.51,6.32-.56-.37-.39-2.57.1-3.62.93-2,4-3.29,1.31-6.24s-5.06-2.41-7.9-.66c-4.25,2.63-5.51,6.41-4.48,11.13,1.46,6.68,4.93,10,10.5,10.88,11.56,1.81,20.53-3.89,29.62-9.62,12.59-7.94,25.06-16.11,38.05-23.34,6.5-3.61,13.88-5.68,21.8-3.62,4.77,1.25,8.32,4,9.33,8.38,1.27,5.51,2.25,12-3.61,15.69-2.4,1.52-6.25,1.46-9.3,1-2.14-.28-2.27-2.12-.22-3.89,1.76-1.51,4.11-4,.9-6a8.79,8.79,0,0,0-6.92-.81c-4.55,1.83-6.06,5.95-5.3,10.69,1,6.47,5.14,10.63,10.5,11.47,10.33,1.62,18.85-2.59,27.15-7.9,12-7.67,23.84-15.69,36.28-22.59,6.3-3.48,13.67-5.23,20.75-7,4.87-1.23,12.41,2.89,14.23,7.79,1.9,5.09,2.32,10.56-1.07,15.59-2.74,4.07-6.67,3.89-10.59,3-2.23-.5-3.59-1.87-.92-4.13,1.88-1.58,4-4.06,1-6.07a8.56,8.56,0,0,0-6.9-.85c-4.5,1.8-6.14,5.89-5.4,10.62,1,6.63,5.25,10.73,10.9,11.58,10.14,1.53,18.48-2.76,26.65-7.81C2843.53,33,2857,24.14,2871,16.25c6.64-3.74,14.25-5.82,22.23-3.46,4.85,1.43,8,4.64,8.9,9.42,1,5.59,1.26,11.66-4.31,15.13-2.17,1.36-5.8,1-8.6.49-2-.37-2.58-2.13-.36-3.94,2-1.61,3.78-4.23.85-6.13a8.67,8.67,0,0,0-7-.71c-4.4,1.87-6.17,5.89-5.36,10.63,1.12,6.61,5.32,10.66,10.9,11.53,11.34,1.76,20.22-3.74,29.18-9.33,12.81-8,25.49-16.19,38.64-23.56,6.82-3.82,14.55-6.08,22.64-3.45,4.7,1.52,7.88,4.62,8.71,9.65.92,5.6,1,11.34-4.41,14.67-2.19,1.35-5.67.75-8.55.65-.42,0-1.38-3-1-3.33,3.22-2.55,4.22-5.13.58-7.95-2.34-1.82-7.57-.06-9.65,3-4.94,7.19.45,18.79,9.3,19.79,11.43,1.31,20.21-4.07,29.16-9.65,12.79-8,25.39-16.3,38.58-23.54,6.46-3.55,13.88-5.77,21.74-3.45,4.86,1.43,8.21,4.25,9.35,9.1,1.26,5.33,1.69,11.1-3.34,14.57-2.45,1.68-6.49,1.72-9.7,1.39-2-.21-2.13-2.2-.15-4,1.71-1.51,4.07-4,.78-6a9,9,0,0,0-6.89-.79c-4.09,1.51-6,5.52-5.6,9.56.67,7.17,5.33,11.75,11.07,12.64,11.56,1.78,20.5-4,29.59-9.68,12.63-7.88,25.12-16,38.13-23.23,6.62-3.66,14.12-6.07,22.14-3.58,4.83,1.5,8.19,4.45,9.17,9.34,1,5.28,1.58,11.1-3.62,14.49-2.41,1.57-6.18,1-9.34,1.44-.12-1.33-.72-2.87-.25-3.94.9-2,3.9-3.24,1.26-6.2-2.39-2.67-4.81-2.5-7.49-1-3.76,2.12-6.1,5.37-5.38,9.72,1.36,8.14,5,11.75,11.06,12.66,11.39,1.7,20.23-4,29.18-9.54,12.75-7.95,25.28-16.33,38.45-23.52,6.58-3.59,14.17-6,22.2-3.44,4.86,1.54,8.16,4.57,9,9.44,1,5.43,1.5,11.43-4.05,14.8-2.35,1.42-6,.73-9,1-.09-1.31-.58-2.77-.18-3.9.74-2,3.84-3.27,1.15-6.26-2.44-2.71-4.75-2.39-7.42-.88-4.49,2.54-6,6.36-4.84,11.36,1.52,6.83,4.74,10,10.38,10.9,11.56,1.81,20.51-4,29.59-9.65,12.6-7.9,25-16.11,38-23.29,6.61-3.65,14.14-5.87,22.18-3.56,4.75,1.35,8.18,4.22,9.07,8.72,1.06,5.4,2.2,11.72-3.61,15.3-2.44,1.51-6.27,1.42-9.34,1-2.06-.25-2.29-2-.28-3.85,1.62-1.46,4.31-3.86,1.05-6a8.77,8.77,0,0,0-6.83-1c-4.53,1.72-6.33,5.69-5.54,10.51,1.17,7.06,5,10.83,10.77,11.76,11.59,1.85,20.53-4,29.61-9.66,12.59-7.89,25-16.12,38-23.31,6.64-3.68,14.22-5.8,22.26-3.53,5,1.43,9,5.47,9.34,10.64a40,40,0,0,1-.17,8c-.8,5.62-8.75,9.43-13.46,6.43-.58-.37-.54-2.64,0-3.61,1.15-2.13,4.16-3.54,1.07-6.58-2.61-2.55-4.92-2-7.53-.39-4.28,2.58-5.57,6.37-4.56,11.09,1.41,6.68,4.9,10.05,10.44,10.94,11.56,1.85,20.54-3.85,29.63-9.57,12.6-7.92,25.07-16.09,38.06-23.33,6.49-3.61,13.87-5.71,21.77-3.66,5,1.27,8.55,4.11,9.5,8.79,1.11,5.37,2.13,11.66-3.64,15.22-2.45,1.51-6.23,1.49-9.29,1.13-2.14-.24-2.39-2.06-.34-3.87,1.74-1.53,4.17-4,1-6a8.82,8.82,0,0,0-6.91-.89c-4.47,1.72-6.32,6.44-5.3,11.16,1.42,6.58,5.3,10.25,10.86,11.09,11.17,1.68,20-3.67,28.8-9.15,12.92-8,25.62-16.42,38.87-23.86,6.5-3.65,13.91-5.65,21.8-3.55,4.76,1.27,8.18,4.15,9.11,8.56,1.16,5.54,2.18,12-3.77,15.64-2.41,1.48-6.2.7-9.37.95,0-1.26-.52-2.85.06-3.72,1.37-2.06,3.91-4.15,1-6.19a8.56,8.56,0,0,0-6.89-1c-4.52,1.78-6.15,5.89-5.47,10.59,1,6.62,5.22,10.79,10.83,11.66,10.15,1.56,18.51-2.74,26.67-7.76,13.69-8.42,27.12-17.25,41.09-25.16,6.65-3.77,14.23-5.84,22.23-3.53,4.88,1.41,8.07,4.6,8.95,9.37,1,5.58,1.34,11.66-4.26,15.15-2.17,1.35-5.77,1-8.57.57-2-.33-2.7-2.08-.49-3.92,2-1.63,3.85-4.18.95-6.12a8.53,8.53,0,0,0-6.94-.81c-4.42,1.83-6.16,5.9-5.42,10.6,1,6.54,5.32,10.71,10.83,11.59,11.34,1.81,20.23-3.67,29.2-9.27,12.8-8,25.5-16.17,38.64-23.57,6.82-3.84,14.53-6.12,22.62-3.5,4.67,1.51,8,4.52,8.77,9.59.89,5.58,1.06,11.34-4.35,14.69-2.19,1.36-5.66.81-8.54.72-.44,0-1.46-3-1.13-3.29,3.16-2.52,4.37-5.07.68-8-2.36-1.86-7.54-.2-9.67,2.86-5,7.16.33,18.81,9.19,19.85,11.42,1.34,20.22-4,29.18-9.59,12.77-8,25.39-16.3,38.58-23.54,6.77-3.72,14.55-6.11,22.65-3.18V39c-6.25-1.41-6.25-1.41-3-7.23,1.47-2.67-.74-5.76-4.21-5.91-4.75-.2-10.44,6.12-9.23,10.76C3815.71,45,3818.8,50.55,3830,49v7c-2,0-4-.15-6-.15H94q-47,0-94,.15Z"/><path class="cls-1" d="M0,56q47-.07,94-.15H3824c2,0,4,.1,6,.15V81h-37.86c-.42-2.29-.3-4-1-5.14-.92-1.39-2.52-3.22-3.89-3.27-7.65-.32-15.33-.15-23-.15-2.54,0-4.23.91-4,3.82.3,3.49-1.29,4.59-4.73,4.52q-15-.27-30,0c-3.49.06-5.5-1-5.46-4.68,0-2.82-1.3-3.74-4-3.7-7.33.11-14.66.08-22,0-2.73,0-4.55.57-4.25,3.87.32,3.5-1.52,4.53-4.87,4.46-8.17-.17-16.33,0-24.5,0-7.94,0-7.94,0-9.7-8.22-8.66,0-17.45-.12-26.23.16-1,0-2.64,2.24-2.73,3.53-.25,3.36-1.48,4.61-4.94,4.55-10.33-.17-20.67-.13-31,0-3.3,0-5.13-.81-4.81-4.45a19.27,19.27,0,0,0-.29-3.42h-29.28c-1,7.8-1,7.8-8.61,7.81-8.5,0-17-.11-25.5.06-3,.06-5-.46-4.65-3.94.37-3.79-1.82-4.45-4.91-4.42-6,.08-12,0-18,0-7.6,0-7.59,0-9,7.21-.05.28-.38.51-.81,1.06-11.25,0-22.73,0-34.21,0-3.15,0-4.3-1.59-4.71-4.53-.18-1.31-1.39-3.52-2.19-3.55-9.12-.25-18.24-.16-27.35-.16a10.43,10.43,0,0,0-.46,2.56c.58,4.61-1.32,6-5.93,5.76-8.81-.38-17.66-.2-26.49,0-3.63.07-5.65-.93-5.82-5,0-1.15-1.62-3.18-2.53-3.2-9-.24-17.9-.15-27-.15-.17,1.94-.4,3.25-.39,4.55,0,2.75-1.19,3.77-4,3.74-10.83-.11-21.67.1-32.49-.2-1.42,0-3.05-2.13-4.05-3.62-.64-1-.32-2.55-.48-4.45-9.11,0-18.06-.1-27,.15-.94,0-2.58,2-2.61,3.18-.12,4.06-2.2,5-5.8,4.94q-14-.21-28,0c-3.05,0-4.92-.72-4.76-4s-1.46-4.39-4.57-4.34c-7.33.1-14.66.12-22,0-3.06,0-4.86,1-4.65,4.27s-1.34,4.18-4.52,4.1c-8.83-.2-17.67-.06-26.5-.07-8.38,0-8.38,0-9.88-7.83h-29c-.88,7.84-.88,7.84-8.53,7.84h-21c-8.07,0-8.07,0-9.54-7.91h-29.15c-.26,2.7-.49,5.13-.73,7.7h-37.43a24.44,24.44,0,0,1-.86-4c-.13-2.91-1.46-4.13-4.4-4.09-7.5.11-15,.07-22.5,0-2.82,0-4.44,1-4.17,4.14.28,3.28-1.38,4.26-4.54,4.21q-15.24-.24-30.49,0c-3.34,0-4.83-1.19-5.26-4.48-.17-1.34-1.41-3.61-2.22-3.63-9.1-.26-18.21-.17-27.49-.17-.19,2,.09,3.53-.52,4.53-.86,1.42-2.34,3.45-3.6,3.49-10,.3-20,.36-30,0-1.58-.06-3.29-2.41-4.51-4-.67-.88-.42-2.45-.64-4.07-8.32,0-16.31.09-24.29,0-3.34,0-5.47.59-5.14,4.61.22,2.62-1.25,3.75-4,3.72-10.83-.1-21.67-.06-32.5,0-2.71,0-4.08-.92-4-3.75,0-1.31-.13-2.62-.21-4.18h-29.29c-1.26,7.88-1.26,7.88-9,7.89-8.5,0-17-.1-25.49.07-2.87,0-4.63-.63-4.33-3.76.34-3.62-1.48-4.65-4.74-4.61q-11,.14-22,0c-3.27,0-5.09,1-4.71,4.63.33,3.2-1.49,3.77-4.32,3.72-8.83-.15-17.66-.06-26.49-.05-8.17,0-8.17,0-10-7.78h-29c-.92,7.76-.92,7.77-8.61,7.78-8.17,0-16.33-.1-24.5.05-3.48.07-5.53-1.05-5.34-4.76.15-3-1.39-3.7-4-3.59-3,.12-6,0-9,0h-16.55c-1.12,8.27-1.12,8.28-8.84,8.28q-11.25,0-22.5,0c-8.62,0-8.62,0-10.7-8.23-8.7,0-17.52-.1-26.32.14-1,0-2.77,1.95-2.78,3,0,4.4-2.38,5.19-6.13,5.13-9.17-.15-18.34-.17-27.5,0-3.33.07-5.13-.87-5-4.37s-2-4.06-4.85-4c-5.34.08-10.67,0-16,0-8.86,0-8.86,0-11.4,8.26-11.66,0-23.47.13-35.26-.18-1.35,0-2.86-2.4-3.86-4-.61-1-.4-2.46-.57-3.76H2366.5a9.6,9.6,0,0,0-.33,2.29c.66,4.74-1.56,5.88-6,5.72-8.83-.32-17.67-.18-26.5-.06-3.59,0-5.67-.92-5.72-5,0-1.1-1.64-3.1-2.57-3.12-9-.24-17.94-.15-27-.15-.32,3-.58,5.54-.85,8.07h-37.13a9.58,9.58,0,0,1-1-2.91c.14-4.58-2.34-5.45-6.36-5.29-6.66.27-13.33.13-20,0-3.14,0-5.19.73-4.87,4.48.22,2.59-.95,3.91-3.83,3.88-10.67-.12-21.34.08-32-.19-1.43,0-4-2-4-3.12,0-4.86-2.66-5.35-6.45-5.06-2.65.21-5.33,0-8,0h-15.54c-1.08,8.19-1.08,8.22-8.58,8.26-7,0-14,0-21,0-8.1,0-8.1,0-10.15-8.25-8.51,0-17.15-.14-25.77.17-1.13,0-3,2.33-3.09,3.69-.3,3.47-1.75,4.48-5.09,4.41-8.66-.18-17.33,0-26,0s-8.58,0-10.35-8h-28.7c-1.56,7.94-1.56,8-9.93,8-8.17,0-16.34-.13-24.5.07-3.15.08-4.85-.75-4.53-4.08s-1.58-4.31-4.54-4.28c-6,.06-12,0-18,0-7.79,0-7.79,0-9.42,7.33-.06.27-.42.48-.85.94h-29.75c-8.09,0-8.09,0-9.64-7.87h-29.1a9.48,9.48,0,0,0-.35,2.35c.67,4.82-1.68,5.76-6,5.61-9-.32-18-.17-27,0-3.32,0-4.85-1.19-5.15-4.57-.12-1.28-1.41-3.51-2.21-3.54-9.09-.25-18.19-.16-26.72-.16-2.22,3.17,1.15,8.42-5.17,8.29-10.66-.22-21.33-.13-32,0-3.2,0-4.63-1.22-4.55-4.39a32.74,32.74,0,0,0-.42-3.9c-9,0-17.76-.12-26.56.15-1.07,0-2.87,2.11-3,3.34-.26,3.7-2,4.84-5.45,4.79-9.5-.12-19-.15-28.5,0-3.17,0-4.78-1-4.63-4.19.16-3.39-1.7-4.25-4.69-4.2-5.83.1-11.67,0-17.5.06-8,0-7.94,0-9.61,7.27-.07.28-.39.49-.82,1-9.77,0-19.75,0-29.73,0-8.06,0-8.06,0-9.82-7.77h-29c-.74,7.78-.74,7.78-8.12,7.78h-21c-8.28,0-8.28,0-10-7.89h-29.06c-.3,2.8-.55,5.21-.81,7.62h-37.48c-.31-1.68-.21-3.38-1-4.53-.91-1.4-2.49-3.27-3.85-3.32-7.65-.32-15.33-.15-23-.15-2.52,0-4.3.84-4,3.77.37,4-1.76,4.63-5.19,4.57q-14.74-.27-29.5,0c-3.45.06-5.54-.94-5.5-4.63,0-2.78-1.21-3.79-4-3.75-7.33.11-14.66.07-22,0-2.68,0-4.61.47-4.3,3.82s-1.43,4.58-4.82,4.51c-8.17-.18-16.33,0-24.5,0s-8.07,0-9.72-8.23c-8.65,0-17.43-.1-26.21.14-1,0-2.74,1.94-2.76,3-.09,3.79-1.43,5.25-5.42,5.12-8.82-.27-17.66-.06-26.49-.06-8.06,0-8.06,0-9.35-7.82h-29.06c-1.07,7.82-1.07,7.82-8.58,7.83-8.67,0-17.34-.11-26,.08-3,.06-4.48-.9-4.19-3.91.35-3.74-1.74-4.5-4.87-4.47-7.34.08-14.67.06-22,0-2.93,0-4.93.78-4.57,4.25s-1.3,4.16-4.46,4.1c-10-.18-20-.15-30,0-3.65,0-5.57-1.1-5.8-5-.07-1.14-1.66-3.11-2.6-3.14-9-.24-17.93-.14-26.88-.14A10.39,10.39,0,0,0,1113,75c.55,4.53-1.19,6-5.88,5.82-8.64-.41-17.33-.24-26,0-4,.09-6.43-.81-6.38-5.41,0-1-1.59-2.75-2.47-2.77-9-.21-17.92-.12-26.87-.12a10.15,10.15,0,0,0-.53,2.49c.53,4.59-1.36,6-6,5.85-9-.38-18-.11-27-.1-7.09,0-7.08,0-8-7.13,0-.27-.38-.5-.9-1.12-8.34,0-17-.12-25.63.14-1.13,0-3.08,2-3.13,3.16-.19,4-2.14,5-5.79,5q-14-.23-28,0c-3,0-5-.63-4.81-4,.19-3.69-1.85-4.45-5-4.39-7,.12-14,.16-21,0-3.47-.08-5.5.88-5.24,4.73.22,3.24-1.67,3.68-4.43,3.64-9-.14-18,0-27-.06-8,0-8,0-9.41-7.85H834.36c-.1,1.74-.25,3-.23,4.37,0,2.47-1,3.55-3.58,3.52-10-.1-20,.13-30-.22-1.52-.06-3.18-2.38-4.35-4-.67-.9-.45-2.44-.65-3.83H766.3c-.25,2.73-.48,5.16-.72,7.76H728.12a36.92,36.92,0,0,1-.88-4.46c-.19-2.79-1.71-3.65-4.3-3.62-7.5.07-15,0-22.5,0-2.79,0-4.49.95-4.22,4.09.32,3.71-1.8,4.3-5,4.25-9.83-.15-19.66-.18-29.49,0-3.71.08-5.57-1-5.86-4.93-.09-1.19-1.67-3.2-2.62-3.23-8.94-.24-17.89-.14-27.07-.14-.18,2.13.11,3.82-.54,5s-2.27,3-3.5,3.06c-10,.26-20,.34-30,0-1.59,0-3.33-2.37-4.56-4-.67-.88-.41-2.47-.62-4.12-8.29,0-16.28.08-24.26,0-3.28,0-5.53.47-5.18,4.56.21,2.59-1.18,3.8-4,3.77q-16.24-.15-32.5,0c-3.11,0-4.19-1.31-4-4.21a35.78,35.78,0,0,0-.22-3.75H487.55c-1.33,7.9-1.33,7.9-9.49,7.91s-16.33-.13-24.49.06c-3.21.08-5.28-.48-4.91-4.21.31-3.12-1.36-4.13-4.16-4.13-7.67,0-15.33,0-23,0-2.74,0-4.58.87-4.23,4,.4,3.68-1.53,4.35-4.8,4.28-8.66-.2-17.33-.08-26-.06-8.3,0-8.3,0-10.06-7.81h-29c-.4,2.88-.73,5.27-1.08,7.82-10.84,0-21.16-.11-31.49.06-3.85.06-6.06-.94-6-5.23,0-1-1.17-2.86-1.83-2.87-9.24-.2-18.49-.13-27.59-.13-1.16,8.15-1.16,8.16-8.8,8.16-9,0-18-.12-27,.07-3.77.09-5.74-1-5.44-5a16.26,16.26,0,0,0-.51-3.25c-9,0-17.78-.11-26.58.13-1,0-2.81,1.93-2.82,3,0,4.35-2.29,5.25-6.09,5.18q-13.75-.24-27.5,0c-3.27.06-5.19-.77-5-4.32s-1.92-4.11-4.8-4.06c-5.67.09-11.34,0-17,0-8.17,0-8.16,0-10,7.39-.07.27-.41.48-.76.87-11.39,0-22.88,0-34.37,0-3.13,0-4.49-1.51-4.51-4.56a23.81,23.81,0,0,0-.51-3.39H68.4c-.11,1.65-.31,3-.26,4.27.1,2.78-1.13,3.75-3.91,3.71-9.83-.12-19.67-.08-29.5,0-3,0-4.66-1.23-4.65-4.41A36.66,36.66,0,0,0,29.46,72H0Z"/><path d="M0,72H29.46a36.66,36.66,0,0,1,.62,4.31c0,3.18,1.61,4.43,4.65,4.41,9.83,0,19.67-.08,29.5,0,2.78,0,4-.93,3.91-3.71,0-1.31.15-2.62.26-4.27H97.66a23.81,23.81,0,0,1,.51,3.39c0,3,1.38,4.57,4.51,4.56,11.49,0,23,0,34.37,0,.35-.39.69-.6.76-.87,1.88-7.37,1.87-7.37,10-7.39,5.66,0,11.33,0,17,0,2.88-.05,5,.56,4.8,4.06s1.75,4.38,5,4.32q13.74-.27,27.5,0c3.8.07,6-.83,6.09-5.18,0-1,1.81-2.94,2.82-3,8.8-.24,17.62-.13,26.58-.13a16.26,16.26,0,0,1,.51,3.25c-.3,4,1.67,5.14,5.44,5,9-.19,18-.06,27-.07,7.64,0,7.64,0,8.8-8.16,9.1,0,18.35-.07,27.59.13.66,0,1.83,1.87,1.83,2.87,0,4.29,2.17,5.29,6,5.23,10.33-.17,20.65-.06,31.49-.06.35-2.55.68-4.94,1.08-7.82h29c1.76,7.84,1.76,7.83,10.06,7.81,8.66,0,17.33-.14,26,.06,3.27.07,5.2-.6,4.8-4.28-.35-3.18,1.49-4.06,4.23-4,7.67,0,15.33,0,23,0,2.8,0,4.47,1,4.16,4.13-.37,3.73,1.7,4.29,4.91,4.21,8.16-.19,16.33-.06,24.49-.06s8.16,0,9.49-7.91H516.8a35.78,35.78,0,0,1,.22,3.75c-.16,2.9.92,4.25,4,4.21q16.25-.2,32.5,0c2.81,0,4.2-1.18,4-3.77-.35-4.09,1.9-4.6,5.18-4.56,8,.12,16,0,24.26,0,.21,1.65-.05,3.24.62,4.12,1.23,1.61,3,3.93,4.56,4,10,.35,20,.27,30,0,1.23,0,2.78-1.75,3.5-3.06s.36-2.87.54-5c9.18,0,18.13-.1,27.07.14,1,0,2.53,2,2.62,3.23.29,3.89,2.15,5,5.86,4.93,9.83-.19,19.66-.16,29.49,0,3.19,0,5.31-.54,5-4.25-.27-3.14,1.43-4.1,4.22-4.09,7.5,0,15,0,22.5,0,2.59,0,4.11.83,4.3,3.62a36.92,36.92,0,0,0,.88,4.46h37.46c.24-2.6.47-5,.72-7.76h29.25c.2,1.39,0,2.93.65,3.83,1.17,1.59,2.83,3.91,4.35,4,10,.35,20,.12,30,.22,2.62,0,3.61-1,3.58-3.52,0-1.32.13-2.63.23-4.37h29.23C865,80.71,865,80.71,873,80.71c9,0,18-.08,27,.06,2.76,0,4.65-.4,4.43-3.64-.26-3.85,1.77-4.81,5.24-4.73,7,.15,14,.11,21,0,3.17-.06,5.21.7,5,4.39-.17,3.36,1.81,4,4.81,4q14-.22,28,0c3.65.06,5.6-1,5.79-5,.05-1.15,2-3.12,3.13-3.16,8.64-.26,17.29-.14,25.63-.14.52.62.86.85.9,1.12.91,7.14.9,7.13,8,7.13,9,0,18-.28,27,.1,4.64.19,6.53-1.26,6-5.85a10.15,10.15,0,0,1,.53-2.49c9,0,17.91-.09,26.87.12.88,0,2.47,1.81,2.47,2.77,0,4.6,2.38,5.5,6.38,5.41,8.66-.2,17.35-.37,26,0,4.69.22,6.43-1.29,5.88-5.82a10.39,10.39,0,0,1,.48-2.53c9,0,17.92-.1,26.88.14.94,0,2.53,2,2.6,3.14.23,3.91,2.15,5.06,5.8,5,10-.14,20-.17,30,0,3.16.06,4.82-.75,4.46-4.1s1.64-4.26,4.57-4.25c7.33,0,14.66.07,22,0,3.13,0,5.22.73,4.87,4.47-.29,3,1.19,4,4.19,3.91,8.66-.19,17.33-.08,26-.08,7.51,0,7.51,0,8.58-7.83h29.06c1.29,7.82,1.29,7.83,9.35,7.82,8.83,0,17.67-.21,26.49.06,4,.13,5.33-1.33,5.42-5.12,0-1.07,1.77-3,2.76-3,8.78-.24,17.56-.14,26.21-.14,1.65,8.25,1.65,8.25,9.72,8.23s16.33-.16,24.5,0c3.39.07,5.14-1.06,4.82-4.51s1.62-3.84,4.3-3.82c7.33.06,14.66.1,22,0,2.76,0,4,1,4,3.75,0,3.69,2,4.69,5.5,4.63q14.75-.25,29.5,0c3.43.06,5.56-.61,5.19-4.57-.28-2.93,1.5-3.77,4-3.77,7.66,0,15.34-.17,23,.15,1.36,0,2.94,1.92,3.85,3.32.74,1.15.64,2.85,1,4.53h37.48c.26-2.41.51-4.82.81-7.62h29.06c1.68,7.89,1.68,7.89,10,7.89h21c7.38,0,7.38,0,8.12-7.78h29c1.76,7.77,1.76,7.77,9.82,7.77,10,0,20,0,29.73,0,.43-.5.75-.71.82-1,1.67-7.26,1.66-7.26,9.61-7.27,5.83,0,11.67,0,17.5-.06,3,0,4.85.81,4.69,4.2-.15,3.21,1.46,4.24,4.63,4.19,9.5-.18,19-.15,28.5,0,3.48,0,5.19-1.09,5.45-4.79.09-1.23,1.89-3.3,3-3.34,8.8-.27,17.61-.15,26.56-.15a32.74,32.74,0,0,1,.42,3.9c-.08,3.17,1.35,4.43,4.55,4.39,10.66-.11,21.33-.2,32,0,6.32.13,3-5.12,5.17-8.29,8.53,0,17.63-.09,26.72.16.8,0,2.09,2.26,2.21,3.54.3,3.38,1.83,4.61,5.15,4.57,9-.13,18-.28,27,0,4.37.15,6.72-.79,6-5.61a9.48,9.48,0,0,1,.35-2.35h29.1c1.55,7.9,1.55,7.89,9.64,7.87h29.75c.43-.46.79-.67.85-.94,1.63-7.32,1.63-7.33,9.42-7.33,6,0,12,0,18,0,3,0,4.88.82,4.54,4.28s1.38,4.16,4.53,4.08c8.16-.2,16.33-.06,24.5-.07,8.37,0,8.37,0,9.93-8h28.7c1.77,7.94,1.77,8,10.35,8s17.34-.14,26,0c3.34.07,4.79-.94,5.09-4.41.12-1.36,2-3.65,3.09-3.69,8.62-.31,17.26-.17,25.77-.17,2,8.27,2,8.27,10.15,8.25,7,0,14,0,21,0,7.5,0,7.5-.07,8.58-8.26h15.54c2.67,0,5.35.18,8,0,3.79-.29,6.46.2,6.45,5.06,0,1.09,2.59,3.08,4,3.12,10.66.27,21.33.07,32,.19,2.88,0,4.05-1.29,3.83-3.88-.32-3.75,1.73-4.51,4.87-4.48,6.67.08,13.34.22,20,0,4-.16,6.5.71,6.36,5.29a9.58,9.58,0,0,0,1,2.91h37.13c.27-2.53.53-5.07.85-8.07,9.09,0,18.07-.09,27,.15.93,0,2.56,2,2.57,3.12.05,4.07,2.13,5,5.72,5,8.83-.12,17.67-.26,26.5.06,4.43.16,6.65-1,6-5.72a9.6,9.6,0,0,1,.33-2.29h29.21c.17,1.3,0,2.79.57,3.76,1,1.57,2.51,3.94,3.86,4,11.79.31,23.6.18,35.26.18,2.54-8.24,2.54-8.24,11.4-8.26,5.33,0,10.66,0,16,0,2.85-.05,5,.48,4.85,4s1.64,4.44,5,4.37c9.16-.19,18.33-.17,27.5,0,3.75.06,6.09-.73,6.13-5.13,0-1.06,1.78-3,2.78-3,8.8-.24,17.62-.14,26.32-.14,2.08,8.24,2.08,8.24,10.7,8.23q11.25,0,22.5,0c7.72,0,7.72,0,8.84-8.28h16.55c3,0,6,.1,9,0,2.62-.11,4.16.62,4,3.59-.19,3.71,1.86,4.83,5.34,4.76,8.17-.15,16.33,0,24.5-.05,7.69,0,7.69,0,8.61-7.78h29c1.87,7.81,1.87,7.8,10,7.78,8.83,0,17.66-.1,26.49.05,2.83,0,4.65-.52,4.32-3.72-.38-3.61,1.44-4.67,4.71-4.63q11,.14,22,0c3.26,0,5.08,1,4.74,4.61-.3,3.13,1.46,3.81,4.33,3.76,8.49-.17,17-.07,25.49-.07,7.76,0,7.76,0,9-7.89h29.29c.08,1.56.26,2.87.21,4.18-.11,2.83,1.26,3.77,4,3.75,10.83-.09,21.67-.13,32.5,0,2.78,0,4.25-1.1,4-3.72-.33-4,1.8-4.66,5.14-4.61,8,.13,16,0,24.29,0,.22,1.62,0,3.19.64,4.07,1.22,1.62,2.93,4,4.51,4,10,.35,20,.29,30,0,1.26,0,2.74-2.07,3.6-3.49.61-1,.33-2.54.52-4.53,9.28,0,18.39-.09,27.49.17.81,0,2.05,2.29,2.22,3.63.43,3.29,1.92,4.53,5.26,4.48q15.24-.24,30.49,0c3.16,0,4.82-.93,4.54-4.21-.27-3.11,1.35-4.15,4.17-4.14,7.5,0,15,.07,22.5,0,2.94,0,4.27,1.18,4.4,4.09a24.44,24.44,0,0,0,.86,4h37.43c.24-2.57.47-5,.73-7.7h29.15c1.47,7.91,1.47,7.91,9.54,7.91h21c7.65,0,7.65,0,8.53-7.84h29c1.5,7.83,1.5,7.83,9.88,7.83,8.83,0,17.67-.13,26.5.07,3.18.08,4.73-.8,4.52-4.1s1.59-4.31,4.65-4.27c7.33.1,14.66.08,22,0,3.11,0,4.72,1,4.57,4.34s1.71,4.09,4.76,4q14-.22,28,0c3.6,0,5.68-.88,5.8-4.94,0-1.14,1.67-3.16,2.61-3.18,8.94-.25,17.89-.15,27-.15.16,1.9-.16,3.5.48,4.45,1,1.49,2.63,3.58,4.05,3.62,10.82.3,21.66.09,32.49.2,2.78,0,4-1,4-3.74,0-1.3.22-2.61.39-4.55,9.13,0,18.08-.09,27,.15.91,0,2.49,2,2.53,3.2.17,4,2.19,5,5.82,5,8.83-.16,17.68-.34,26.49,0,4.61.2,6.51-1.15,5.93-5.76a10.43,10.43,0,0,1,.46-2.56c9.11,0,18.23-.09,27.35.16.8,0,2,2.24,2.19,3.55.41,2.94,1.56,4.54,4.71,4.53,11.48,0,23,0,34.21,0,.43-.55.76-.78.81-1.06,1.42-7.2,1.41-7.2,9-7.21,6,0,12,0,18,0,3.09,0,5.28.63,4.91,4.42-.35,3.48,1.66,4,4.65,3.94,8.5-.17,17-.06,25.5-.06,7.6,0,7.6,0,8.61-7.81h29.28a19.27,19.27,0,0,1,.29,3.42c-.32,3.64,1.51,4.5,4.81,4.45,10.33-.16,20.67-.2,31,0,3.46.06,4.69-1.19,4.94-4.55.09-1.29,1.74-3.5,2.73-3.53,8.78-.28,17.57-.16,26.23-.16,1.76,8.24,1.76,8.24,9.7,8.22,8.17,0,16.33-.15,24.5,0,3.35.07,5.19-1,4.87-4.46-.3-3.3,1.52-3.9,4.25-3.87,7.33.07,14.66.1,22,0,2.71,0,4,.88,4,3.7,0,3.66,2,4.74,5.46,4.68q15-.25,30,0c3.44.07,5-1,4.73-4.52-.25-2.91,1.44-3.82,4-3.82,7.66,0,15.34-.17,23,.15,1.37,0,3,1.88,3.89,3.27.75,1.14.63,2.85,1,5.14H3830v6c-2.16-.06-4.33-.18-6.49-.18H6.49c-2.16,0-4.33.12-6.49.18Z"/><path class="cls-1" d="M3830,49c-11.2,1.55-14.29-4-16.48-12.38-1.21-4.64,4.48-11,9.23-10.76,3.47.15,5.68,3.24,4.21,5.91-3.21,5.82-3.21,5.82,3,7.23Z"/></g></g></svg>