<svg xmlns="http://www.w3.org/2000/svg" viewBox="0 0 3830 151.03"><defs><style>.cls-1{fill:none;}</style></defs><g id="Camada_2" data-name="Camada 2"><g id="Camada_1-2" data-name="Camada 1"><path d="M3830,24v6l-28,16.37c6,3.64,10.88,6.8,15.95,9.66,3.89,2.19,8,4,12,6v7c-8.18,4.71-16.39,9.36-24.52,14.15-2.3,1.35-2.39,2.84.19,4.35,8.15,4.76,16.23,9.65,24.33,14.5v6c-22-.15-44-.43-66-.44-41.49,0-83,.16-124.48.16-43.48,0-87-.18-130.45-.17-44.32,0-88.64.2-133,.24q-63,.06-126,0-128.46,0-256.93-.06-127.21,0-254.43,0H2483.36q-127.72,0-255.43,0-80.23,0-160.47-.07c-30.16,0-60.32-.15-90.48-.14q-67.73,0-135.46.13-60.48,0-121,0-66.72,0-133.46.07c-40.33,0-80.65-.18-121-.18-41.16,0-82.32.19-123.48.18-43.82,0-87.64-.19-131.46-.18-44.32,0-88.64.2-133,.24q-63.23.08-126.47,0l-255.93,0q-78.48,0-157-.07c-31.33,0-62.66-.15-94-.14q-67.49,0-135,.14-60.5,0-121,0-67.49,0-135,0c-18,0-36,.2-54,.3v-6L54.52,69.52,54.09,68H0V64H54.49l.27-1.32C47.84,58.48,41,54.24,34,50.09Q17,40,0,30V24c1.83,0,3.67.07,5.5.07h310l1866.76,0H3590Q3710,24.08,3830,24ZM2590.18,46.13a20.86,20.86,0,0,0,3,2.83c6.33,3.8,13,7.08,19,11.37,4,2.92,8.06,3.74,12.78,3.69,14.14-.15,28.29,0,42.44-.06,1.56,0,3.12-.2,4.68-.31-.07-.66,0-.9-.11-.95-17.56-10.72-35.1-21.47-52.75-32.05-1-.58-3.08,0-4.26.65C2606.9,36,2599,40.85,2590.18,46.13ZM1905.89,64l.45-1.33c-17.7-10.71-35.38-21.45-53.15-32a4.71,4.71,0,0,0-4,.32c-8.22,4.91-16.33,10-25.45,15.65,4.53,2.85,8.61,5.08,12.34,7.8,9.56,7,19.69,10.8,32,9.82C1880.59,63.18,1893.27,64,1905.89,64ZM292.34,46c1,1.16,1.54,2.27,2.44,2.81,6.32,3.81,13,7.06,19,11.37,4.51,3.26,9.07,3.88,14.26,3.82,13.81-.16,27.63,0,41.44-.06,1.55,0,3.1-.21,4.71-.32-.15-.7-.13-.93-.22-1-17.56-10.72-35.11-21.46-52.76-32-1-.57-3.05,0-4.25.72C308.88,36,300.91,40.88,292.34,46Zm766.08,0c.84,1.08,1.34,2.25,2.23,2.78,6.32,3.82,13,7.1,19,11.37,4.64,3.3,9.38,3.95,14.75,3.88,13.65-.19,27.3-.05,40.95-.07,1.57,0,3.14-.18,4.82-.28-.21-.78-.2-1.23-.39-1.35-17.47-10.6-34.93-21.21-52.5-31.64-1-.59-3.1-.12-4.28.56C1074.93,36,1067,40.83,1058.42,46ZM3437.9,64c.15-.46.29-.91.43-1.36q-26.55-16.07-53.15-32.06a4.34,4.34,0,0,0-3.71,0c-8.32,5-16.52,10.29-25.43,15.89,2.05,1.48,3.73,2.62,5.33,3.87,13.92,10.79,29.33,16.42,47.18,13.67a15.9,15.9,0,0,1,2.49,0Zm-592-18c.83,1.06,1.39,2.3,2.35,2.91,5.69,3.59,11.56,6.9,17.2,10.57A29,29,0,0,0,2883,64.09c13.3-.43,26.62-.11,39.94-.13,1.55,0,3.09-.2,5.43-.37a21.44,21.44,0,0,0-1.78-1.53c-17.18-10.43-34.33-20.9-51.61-31.17-1.12-.66-3.44-.3-4.71.44C2862.22,36,2854.29,40.88,2845.89,46Zm847.48,18c.12-.4.23-.79.34-1.19C3676,52,3658.38,41.15,3640.61,30.5c-1-.57-3.12.14-4.36.86-8.05,4.69-16,9.55-24.41,14.6.9,1.09,1.5,2.3,2.47,2.92,5.54,3.51,11.24,6.79,16.76,10.34a28.24,28.24,0,0,0,17.54,4.88c9.62-.53,19.3-.13,28.95-.13Zm-911.89-18c1.06,1.21,1.64,2.3,2.54,2.84,6.48,3.87,13.26,7.27,19.44,11.54A20.67,20.67,0,0,0,2816.29,64c14.13-.2,28.26-.05,42.4-.08,1.61,0,3.22-.21,4.83-.32-17.37-11.49-34.69-21.94-52.15-32.18a6.37,6.37,0,0,0-5.38,0C2797.85,36.05,2789.9,40.93,2781.48,45.94ZM1395.57,63.65c-.08-.66,0-.89-.13-.94-17.53-10.75-35-21.52-52.65-32.16a4.38,4.38,0,0,0-3.76-.05c-8.35,5-16.58,10.28-25.11,15.63.85,1.07,1.35,2.17,2.22,2.71,5.7,3.57,11.38,7.19,17.26,10.45,4.19,2.32,8,5,13.53,4.85,14.63-.51,29.29-.16,43.93-.19C1392.43,64,1394,63.76,1395.57,63.65ZM547.78,46c1,1.17,1.65,2.33,2.62,2.94,5.54,3.52,11.06,7.11,16.81,10.26,3.62,2,7.6,4.47,11.49,4.6,15.63.53,31.29.23,46.93.2,1.34,0,2.68-.27,5.2-.54C612.11,52,594.57,41.3,576.91,30.77c-1.08-.64-3.4-.07-4.71.68C564.25,36,556.42,40.79,547.78,46Zm18.93,17.56c-18.72-11.46-36.29-22.26-54-32.88-1.05-.63-3.27-.24-4.48.46-8.19,4.77-16.25,9.76-24.44,14.73.9,1,1.61,2.39,2.73,3.08,6.29,3.86,12.93,7.2,18.95,11.43A20.45,20.45,0,0,0,518.33,64c14.13-.19,28.26-.05,42.39-.08C562.29,64,563.86,63.74,566.71,63.52ZM2161.38,64l.35-1.23c-17.57-10.68-35.12-21.39-52.77-31.93a5.21,5.21,0,0,0-4.44.18c-8.15,4.8-16.16,9.84-24.62,15.06.84,1,1.45,2.21,2.43,2.83,5.54,3.52,11.24,6.8,16.76,10.35a28.4,28.4,0,0,0,17.53,4.88c10.29-.53,20.63-.14,31-.14Zm-64.13,0,.37-1.2c-17.54-10.65-35.06-21.34-52.68-31.84-1.16-.69-3.5-.43-4.77.3C2032,36,2023.92,40.92,2015.5,46a15.36,15.36,0,0,0,2.71,2.83c6.31,3.82,13,7.13,19,11.37,4.35,3.07,8.71,4,13.8,3.83,7.64-.24,15.3-.06,22.95-.06Zm-766,0c.13-.42.26-.85.4-1.27-17.47-10.5-34.91-21-52.46-31.39a6,6,0,0,0-5,0c-8.21,4.68-16.26,9.66-24.66,14.72a16.3,16.3,0,0,0,2.76,2.84c6.32,3.82,13,7.13,19,11.37,4.35,3.07,8.72,3.95,13.8,3.82,9.48-.23,19-.08,28.44-.08Zm2298,0c.13-.41.26-.81.38-1.21-17.53-10.64-35-21.33-52.67-31.82-1.15-.69-3.5-.45-4.76.28-8.2,4.72-16.25,9.7-24.67,14.78a15.3,15.3,0,0,0,2.68,2.83c6.32,3.81,13,7.12,19,11.37A21.2,21.2,0,0,0,3583,64c7.31-.25,14.63-.06,21.94-.06ZM118.53,64l.37-1.3Q92.31,46.46,65.67,30.34a3.88,3.88,0,0,0-3.32.17C54,35.57,45.74,40.77,37.06,46.18c.93,1.07,1.49,2.13,2.37,2.66,6.33,3.78,13,7.09,19,11.3,4.5,3.15,9,4,14.32,3.9,12-.24,24-.08,36-.08ZM2335.15,45.88c.79,1.24,1.1,2.36,1.83,2.8,6.32,3.8,12.74,7.44,19.08,11.22,3.79,2.26,7.35,4.32,12.21,4.2,14.49-.37,29-.12,43.48-.14,1.69,0,3.37-.16,5.63-.28a10.91,10.91,0,0,0-1.26-1.49c-17.35-10.54-34.68-21.11-52.12-31.51-1-.57-3.07-.05-4.25.64C2351.65,36,2343.65,40.82,2335.15,45.88ZM3182.78,64c-.15-1-.12-1.26-.2-1.31-17.56-10.78-35.11-21.58-52.75-32.24a4.33,4.33,0,0,0-3.69.32c-8.26,4.94-16.43,10-25,15.31.79,1.05,1.25,2.2,2.1,2.73,5.85,3.63,11.69,7.3,17.72,10.61,4.06,2.23,7.76,4.91,13.09,4.74,14.48-.47,29-.16,43.48-.16ZM1650.55,64l.35-1.31c-17.73-10.79-35.45-21.61-53.24-32.31a3.84,3.84,0,0,0-3.33.18c-8.34,5.06-16.6,10.26-25.07,15.53.68,1.07,1,2.2,1.72,2.63,6.48,3.85,13.31,7.19,19.48,11.48,4.51,3.14,9.06,4,14.32,3.87,10.66-.23,21.32-.07,32-.07Zm-765.82-.3c-.18-.76-.15-1.22-.33-1.33C866.93,51.68,849.46,41,831.89,30.53c-.91-.55-2.87-.11-4,.53-8.19,4.8-16.27,9.76-24.92,15,1,1.11,1.64,2.25,2.62,2.84,6.32,3.81,13,7.1,19,11.35,4.37,3.09,8.78,3.84,13.84,3.78,13.83-.16,27.65,0,41.48-.07C881.51,64,883.08,63.77,884.73,63.66ZM886,68.87a29.89,29.89,0,0,0-4.18-.79q-24.7,0-49.4,0a6.71,6.71,0,0,0-3.29.84c-7.75,4.6-15.4,9.38-23.17,13.93-3.08,1.8-3,3,0,4.73,7.48,4.38,14.79,9,22.3,13.37a4.9,4.9,0,0,0,4.1-.37C849.83,90.35,867.22,80,886,68.87Zm299.57-22.81a30.71,30.71,0,0,0,3.4,2.93c6.67,4.15,13.26,8.46,20.15,12.21a21.89,21.89,0,0,0,9.69,2.64c14.63.29,29.26.15,43.89.13,1.58,0,3.16-.22,4.69-.34,0-.61.05-.84,0-.88-17.5-10.79-35-21.6-52.58-32.24-.93-.57-2.92-.17-4,.47C1202.44,35.82,1194.22,40.83,1185.54,46.06ZM1951.62,46c1.1,1.19,1.72,2.25,2.64,2.8,6.47,3.87,12.94,7.75,19.55,11.37,2.91,1.6,6.13,3.61,9.25,3.68,15.45.39,30.92.2,46.38.17,1.38,0,2.75-.3,5.2-.59-18.59-11.35-36.11-22.11-53.75-32.68-1-.6-3.13-.19-4.31.49C1968.35,35.91,1960.23,40.83,1951.62,46Zm1532,0c1,1.12,1.56,2.22,2.47,2.77,6.47,3.87,13.29,7.23,19.44,11.54,4.37,3.08,8.79,3.83,13.85,3.78,13.81-.16,27.62,0,41.42-.06,1.56,0,3.12-.24,6-.46C3548,52,3530.32,41.12,3512.6,30.43c-.89-.53-2.85,0-4,.69C3500.41,35.88,3492.27,40.8,3483.65,45.94Zm-1832,23a18.25,18.25,0,0,0-3-.77q-25.18-.06-50.39,0a6.75,6.75,0,0,0-3.27.93c-7.75,4.6-15.42,9.32-23.17,13.92-2.67,1.58-2.77,2.84,0,4.48,7.58,4.54,15.06,9.24,22.66,13.72a4.16,4.16,0,0,0,3.53.08C1615.55,90.7,1633.12,80.06,1651.62,68.89Zm1531.84,0a22.89,22.89,0,0,0-4-.84q-24.45-.06-48.9,0a7.76,7.76,0,0,0-3.74,1c-7.61,4.51-15.07,9.27-22.75,13.66-3,1.74-3.31,2.86-.25,4.71,7.56,4.55,15,9.24,22.63,13.76a3.8,3.8,0,0,0,3.19.26C3147.39,90.85,3165.05,80.1,3183.46,68.92Zm-765.9,0a25.26,25.26,0,0,0-4.08-.87q-24.45-.06-48.9,0a7.65,7.65,0,0,0-3.74,1c-7.61,4.51-15.07,9.27-22.75,13.66-3,1.73-3.33,2.85-.27,4.7,7.56,4.56,15,9.26,22.64,13.74a4.09,4.09,0,0,0,3.5-.07C2381.6,90.63,2399.18,80,2417.56,69Zm-2298,0a24.47,24.47,0,0,0-4.05-.88Q91,68,66.59,68.08a6.88,6.88,0,0,0-3.31.75C55.37,73.5,47.55,78.28,39.67,83c-2.75,1.64-2.51,2.91.13,4.48,7.58,4.53,15,9.25,22.65,13.73a4.11,4.11,0,0,0,3.51,0C83.6,90.64,101.18,80,119.54,69Zm2598.11-23c1,1.16,1.63,2.24,2.54,2.79,6.47,3.86,13.25,7.27,19.44,11.54A21.51,21.51,0,0,0,2753,64c14-.2,27.93-.05,41.9-.07,1.55,0,3.1-.24,5.9-.47C2782,52,2764.32,41.11,2746.59,30.43c-.88-.53-2.85,0-4,.69C2734.41,35.89,2726.28,40.8,2717.65,45.94ZM501.35,63.67l.13-1C484,52,466.44,41.18,448.82,30.59c-1-.59-3.11,0-4.33.7-8.22,4.71-16.34,9.59-24.87,14.65a16.07,16.07,0,0,0,2.77,2.85c6.46,3.88,13.25,7.29,19.42,11.57A20.65,20.65,0,0,0,454.68,64c14-.18,27.93,0,41.9-.06C498.17,64,499.76,63.77,501.35,63.67ZM228.19,46a16.57,16.57,0,0,0,2.78,2.9c6.32,3.81,13,7.11,19,11.35,4.34,3.07,8.71,3.88,13.77,3.82C277.5,63.85,291.3,64,305.1,64c1.53,0,3.07-.18,5.4-.33A19.93,19.93,0,0,0,308.7,62c-17-10.39-34-20.81-51.08-31-1.14-.68-3.46-.38-4.73.34C244.69,36,236.63,40.9,228.19,46ZM1076.74,63.6c-1.45-1.1-1.9-1.5-2.4-1.81-16.89-10.34-33.76-20.71-50.73-30.91a5.26,5.26,0,0,0-4.47,0c-8.28,4.85-16.42,10-25.43,15.49,1.42,1,2.37,1.9,3.45,2.54,6.36,3.77,13,7.1,19,11.36A20.29,20.29,0,0,0,1029,64c14-.17,28-.05,42-.07C1072.54,64,1074.1,63.77,1076.74,63.6Zm1530.85,0c0-.37.1-.75.16-1.12-17.45-10.64-34.88-21.33-52.41-31.83-1-.62-3.2-.2-4.4.49-8.19,4.75-16.25,9.7-24.71,14.8a16.61,16.61,0,0,0,2.8,2.9c6.33,3.81,12.69,7.58,19.13,11.21,2.62,1.48,5.43,3.64,8.19,3.71,16.16.36,32.32.2,48.48.19A21.69,21.69,0,0,0,2607.59,63.63Zm-766.2.34c.13-.37.25-.75.38-1.13-.49-.36-1-.75-1.46-1.06-16.89-10.35-33.76-20.72-50.72-30.92a5.23,5.23,0,0,0-4.47.07c-8.28,4.84-16.42,9.94-24.68,15,.55.79.8,1.49,1.29,1.82,2,1.32,4.25,2.35,6.14,3.82,12.73,10,26.8,14.4,43.18,12.6C1821.05,63.08,1831.27,64,1841.39,64Zm1532.06,0c.14-.45.29-.9.43-1.35-17.58-10.73-35.13-21.5-52.77-32.13a4.38,4.38,0,0,0-3.77.13c-8.34,5-16.57,10.22-25,15.48a14.51,14.51,0,0,0,2.5,2.73c6.33,3.81,13,7.14,19,11.36,4.34,3,8.72,3.95,13.8,3.85,10-.21,20-.07,30-.07Zm-444.82,4.83a28.21,28.21,0,0,0-3.7-.68Q2900,68,2875,68.09a6.72,6.72,0,0,0-3.31.8c-7.58,4.53-15,9.29-22.66,13.72-3.83,2.22-2.88,3.54.22,5.36,7.17,4.21,14.19,8.67,21.4,12.81a5,5,0,0,0,4.23,0C2892.5,90.46,2910,79.94,2928.63,68.79Zm-2298,0a29.38,29.38,0,0,0-3.71-.67Q602,68,577,68.09a6.7,6.7,0,0,0-3.31.8c-7.58,4.53-15,9.29-22.67,13.72-3.81,2.22-2.87,3.54.23,5.36,7.17,4.21,14.2,8.67,21.4,12.81a5,5,0,0,0,4.23,0C594.5,90.46,612,79.94,630.63,68.78Zm1275.18.82-.18-1.11a19.67,19.67,0,0,0-2.81-.42q-24.48,0-49,0a6.73,6.73,0,0,0-3.34.71c-7.86,4.68-15.65,9.5-23.5,14.21-2.88,1.72-2.41,3,.19,4.5,7.41,4.44,14.71,9,22.13,13.47,1,.57,2.73.94,3.56.44C1870.58,90.89,1888.19,80.23,1905.81,69.6ZM930.52,45.89c.87,1.11,1.37,2.25,2.25,2.8,5.84,3.64,11.85,7,17.63,10.75A29.18,29.18,0,0,0,968,64.1c13-.44,26-.11,38.94-.13,1.75,0,3.49-.18,5.23-.28l.6-1.17a5.74,5.74,0,0,1-1.39-.41c-17.19-10.42-34.35-20.91-51.62-31.19-1.14-.67-3.46-.36-4.73.37C947,35.93,939,40.81,930.52,45.89ZM373.83,69.69l-.21-1.17a17.76,17.76,0,0,0-2.77-.45q-24.48,0-49,0a6.8,6.8,0,0,0-3.34.69C310.68,73.46,302.9,78.29,295,83c-2.85,1.7-2.48,2.93.14,4.5,7.42,4.43,14.71,9.06,22.16,13.44a4.5,4.5,0,0,0,3.84.11C338.78,90.67,356.3,80.17,373.83,69.69Zm3320.5-.81a26.34,26.34,0,0,0-4.1-.79q-24.45-.06-48.89,0a7.84,7.84,0,0,0-3.76.93c-7.46,4.41-14.77,9.08-22.3,13.38-4,2.3-3.12,3.76.18,5.68a108.27,108.27,0,0,1,12.11,7.64c7.41,5.76,13.83,6.16,22.13.41C3663.76,86.41,3678.88,78.2,3694.33,68.88Zm-465.85-23c.94,1.17,1.48,2.28,2.37,2.84,5.69,3.56,11.54,6.88,17.19,10.51a29.84,29.84,0,0,0,18.06,4.88c13-.51,26-.13,39-.15,1.73,0,3.46-.2,6.53-.38-18.88-11.55-36.5-22.39-54.24-33-1-.58-3.12.08-4.35.79C3244.9,36,3236.91,40.86,3228.48,45.89ZM2162.73,68.8a37.62,37.62,0,0,0-4.63-.72q-24.45-.06-48.89,0a6.89,6.89,0,0,0-3.33.72c-7.73,4.62-15.35,9.4-23.09,14-2.93,1.75-3,3,0,4.78,7.43,4.42,14.71,9.09,22.18,13.42,1,.59,3.07.24,4.2-.42C2126.6,90.32,2144,79.93,2162.73,68.8Zm1276.1.17a18.41,18.41,0,0,0-3.35-.87q-25-.06-50,0a6.7,6.7,0,0,0-3.29.86c-7.57,4.56-15,9.38-22.64,13.75-3.48,2-3.52,3-.09,5,7.33,4.25,14.45,8.88,21.77,13.14a4.94,4.94,0,0,0,4.15,0c10.63-6.14,21.15-12.45,31.7-18.74C3424.07,77.87,3431,73.68,3438.83,69Zm-766.1.07a18.33,18.33,0,0,0-3.63-1q-24.73-.07-49.46,0a6.66,6.66,0,0,0-3.3.8c-7.72,4.63-15.32,9.43-23.06,14-3.12,1.85-2.86,3,.11,4.71,7.33,4.27,14.46,8.87,21.82,13.08a5.44,5.44,0,0,0,4.49-.19c5.33-2.81,10.55-5.87,15.73-9C2647.62,84.23,2659.78,76.86,2672.73,69ZM1696.55,45.88c.83,1.08,1.32,2.26,2.2,2.8,6.15,3.78,12.4,7.38,18.56,11.13,4.07,2.48,8,4.43,13.19,4.29,14.3-.38,28.63-.11,42.94-.13,1.58,0,3.16-.21,5.35-.37a11.71,11.71,0,0,0-1.38-1.46c-17.18-10.45-34.34-20.92-51.62-31.2-1.14-.68-3.46-.39-4.73.33C1712.86,36,1704.8,40.93,1696.55,45.88ZM1396.63,68.79a28,28,0,0,0-3.71-.68Q1368,68,1343,68.09a6.72,6.72,0,0,0-3.31.8c-7.58,4.53-15,9.29-22.67,13.72-3.82,2.22-2.87,3.54.23,5.36,7.17,4.21,14.2,8.67,21.4,12.81a5,5,0,0,0,4.23,0C1360.5,90.46,1378,79.94,1396.63,68.79ZM2544,64c.1-.38.21-.76.31-1.14-17.53-10.72-35.05-21.48-52.67-32.07a5.26,5.26,0,0,0-4.45.28c-8.28,4.84-16.42,9.91-25.48,15.43,7.7,4.74,14.9,8.84,21.73,13.49,5,3.43,10.31,4.31,16.24,4.11,9.81-.33,19.64-.1,29.46-.1Zm-1402.91,5a24.55,24.55,0,0,0-3.74-.83q-25,0-50,0a6.74,6.74,0,0,0-3.28.91c-7.56,4.55-15,9.37-22.63,13.75-3.63,2.07-3.23,3,.06,5,7.33,4.25,14.44,8.88,21.73,13.19a4.53,4.53,0,0,0,3.85.17C1104.76,90.7,1122.27,80.19,1141.12,68.92ZM164.48,46c.91,1,1.56,2.22,2.57,2.83,6.46,3.87,13.28,7.23,19.42,11.55A20.31,20.31,0,0,0,199.32,64c14-.17,28,0,42-.06,1.68,0,3.36-.22,6.4-.44-18.79-11.39-36.23-22-53.78-32.46a5.52,5.52,0,0,0-4.73.08C181,35.87,172.89,40.87,164.48,46ZM2289.37,69a19.49,19.49,0,0,0-3.62-.87q-24.49-.07-49,0a7.86,7.86,0,0,0-3.77,1q-11.8,6.94-23.48,14.13c-.91.56-1.36,1.88-2.12,3,8.58,5.13,16.54,10,24.62,14.62a4.93,4.93,0,0,0,4.1,0c5.42-2.93,10.73-6.1,16-9.29C2264.3,84.21,2276.43,76.81,2289.37,69Zm765.12.63-.24-1.28c-1.75-.09-3.51-.26-5.26-.27-13.16,0-26.33.13-39.48-.06-5.6-.08-10.58.56-15.39,4-5.77,4.18-12.27,7.37-18.38,11.11-1,.59-1.55,1.8-2.46,2.9,8.63,5.26,16.69,10.24,24.86,15a4.49,4.49,0,0,0,3.84,0C3019.53,90.63,3037,80.1,3054.49,69.59Zm766.93-.66a22.26,22.26,0,0,0-3.71-.85q-24.49-.06-49,0a7.85,7.85,0,0,0-3.76,1q-11.56,6.87-23,14c-1,.64-1.68,1.9-2.66,3.06C3748,91.35,3756,96.21,3764,100.85a4.93,4.93,0,0,0,4.1,0c5.43-2.94,10.74-6.1,16-9.29C3796.33,84.2,3808.44,76.81,3821.42,68.93Zm-2297.89-.05a19.89,19.89,0,0,0-3.15-.78c-16.67,0-33.33-.06-50,0a7.66,7.66,0,0,0-3.69,1.19q-11.35,6.77-22.59,13.73a17,17,0,0,0-2.83,3c8.72,5.34,16.76,10.34,24.9,15.17a4.19,4.19,0,0,0,3.57.17C1487.39,90.8,1505,80.13,1523.53,68.88ZM674.4,85.73c9.28,5.43,17.14,10.14,25.15,14.59a5.75,5.75,0,0,0,4.75.28c10.61-6.09,21.09-12.42,31.6-18.7,6.91-4.13,13.8-8.3,20.69-12.45A10.27,10.27,0,0,0,751,68c-12.66,0-25.34.36-38-.14a30,30,0,0,0-19.05,5.33c-3.24,2.23-6.81,4-10.14,6.06C680.9,81.11,678.15,83.14,674.4,85.73ZM739,46c1.08,1.16,1.77,2.32,2.79,2.94,6.31,3.82,12.92,7.19,19,11.38A21.43,21.43,0,0,0,774,64c14-.21,27.93-.05,41.9-.07,1.55,0,3.09-.21,6.09-.43C803.08,52,785.46,41.13,767.74,30.47c-.9-.54-2.88,0-4,.64C755.58,35.89,747.5,40.82,739,46ZM3566.34,68.79a32.35,32.35,0,0,0-4.14-.71c-16.16,0-32.31-.07-48.47,0a8.87,8.87,0,0,0-4.18,1.21c-7.62,4.48-15.14,9.15-22.77,13.62-2.9,1.7-3.07,2.94-.09,4.74,7.55,4.55,15,9.31,22.57,13.79a4.24,4.24,0,0,0,3.57-.39C3530.34,90.58,3547.79,80,3566.34,68.79Zm-766.32.1a23.65,23.65,0,0,0-4-.81q-24.24-.08-48.47,0a8.87,8.87,0,0,0-4.14,1.33c-7.63,4.47-15.15,9.12-22.8,13.55-2.79,1.63-2.76,2.9-.12,4.51,4.49,2.76,9.36,5.07,13.35,8.43,7.79,6.56,15.05,5.85,22.51-.18a30.36,30.36,0,0,1,3.25-2.14C2772.81,85.5,2786.06,77.42,2800,68.89ZM2352.4,64c.11-.46.23-.91.34-1.37-17.48-10.53-34.93-21.1-52.47-31.52a5.07,5.07,0,0,0-4.31-.2c-8.29,4.84-16.44,9.93-24.87,15.1.94,1.13,1.5,2.25,2.4,2.79,6.31,3.82,12.9,7.22,19,11.37a22.25,22.25,0,0,0,13.75,3.9c12.13-.24,24.27-.07,36.41-.07Zm-912-17.55c7.7,4.78,14.78,8.81,21.46,13.43,5.18,3.58,10.64,4.32,16.71,4.2,13.13-.26,26.27-.06,39.41-.08,1.55,0,3.1-.21,4.75-.33-.18-.72-.17-.94-.26-1-17.51-10.77-35-21.55-52.6-32.18-.89-.54-2.85,0-3.95.61C1457.72,35.86,1449.65,40.81,1440.37,46.42ZM502.47,68.64c-2.77-.29-4.33-.58-5.88-.59-15.33,0-30.65-.07-46,.06a11.7,11.7,0,0,0-5.54,1.58c-7.37,4.26-14.49,9-22,13-4.18,2.27-2.9,3.5.07,5.29,7.28,4.37,14.5,8.86,21.83,13.15a4.19,4.19,0,0,0,3.55.18C466.19,90.75,483.74,80,502.47,68.64Zm3236.7-22.72c1,1.09,1.65,2.28,2.67,2.91,7.23,4.43,14.46,8.88,21.87,13a16.16,16.16,0,0,0,7.36,2c15.13.19,30.27.11,45.4.09,1.39,0,2.77-.27,5.57-.56-18.88-11.52-36.5-22.33-54.22-33-.89-.53-2.84,0-3.94.65C3755.71,35.88,3747.63,40.82,3739.17,45.92ZM3118.31,64c.14-.41.27-.82.4-1.23-17.64-10.79-35.26-21.61-53-32.27-.9-.54-2.88,0-4,.65-8.17,4.78-16.25,9.71-25.15,15.07,2.24,1.64,4,2.87,5.73,4.21,14,11,29.75,16.15,47.69,13.62a58.83,58.83,0,0,1,8,0Zm-62.42,0a27.18,27.18,0,0,0-2.28-2c-17.14-10.45-34.28-20.93-51.51-31.23-1-.6-3.11-.25-4.26.42-8.18,4.74-16.25,9.67-24.72,14.76a17,17,0,0,0,2.77,2.91c7.08,4.38,14.13,8.83,21.41,12.86a18.55,18.55,0,0,0,8.33,2.16c12.31.23,24.62.1,36.93.1Zm-1469.23-.33c-.28-.77-.29-1.19-.49-1.31-17.31-10.51-34.63-21-52-31.42a4.72,4.72,0,0,0-4-.26c-8.37,5-16.6,10.17-26.07,16,1.63,1,2.6,1.61,3.59,2.2,6.36,3.74,13,7.12,19,11.34,4.33,3,8.71,3.86,13.77,3.8,13.8-.18,27.6-.05,41.4-.07C1583.38,64,1584.94,63.76,1586.66,63.64Zm620.39-17.72c1.17,1.27,1.8,2.32,2.72,2.89,7.08,4.37,14.12,8.83,21.4,12.87a18.49,18.49,0,0,0,8.33,2.19c14.8.22,29.6.12,44.4.1,1.56,0,3.12-.21,4.72-.32-.11-.69-.08-.92-.16-1-17.51-10.77-35-21.57-52.6-32.17-.93-.55-3,.2-4.26.91C2223.53,36.07,2215.54,40.88,2207.05,45.92ZM1268.46,68.74a50.43,50.43,0,0,0-5.36-.68c-15.65,0-31.3-.06-47,0a9.82,9.82,0,0,0-4.66,1.28c-7.64,4.45-15.17,9.09-22.78,13.59-2.91,1.73-2.92,3,.07,4.76,7.46,4.39,14.76,9,22.24,13.4a4.55,4.55,0,0,0,3.86-.14C1232.4,90.53,1249.86,80,1268.46,68.74Zm764.76.83c0-.4-.08-.8-.13-1.2-1.76-.12-3.52-.32-5.28-.32-14.82,0-29.65-.1-44.46.08a15.15,15.15,0,0,0-6.92,2c-7.12,4-13.94,8.59-21.11,12.53-3.55,2-3.93,3.09-.31,5.24,7.43,4.43,14.71,9.12,22.18,13.48.88.51,2.78,0,3.85-.62Q2007.19,85.25,2033.22,69.57ZM675.12,45.94c1.08,1.14,1.78,2.3,2.81,2.92,6.45,3.88,13.24,7.27,19.37,11.59A19.62,19.62,0,0,0,709.67,64c14.13-.14,28.27,0,42.4,0,1.54,0,3.07-.2,4.61-.31-17.55-11.79-35.2-22.61-52.95-33.25-.86-.52-2.8.12-3.91.77C691.66,36,683.58,40.86,675.12,45.94Zm2955,22.93a29.19,29.19,0,0,0-4.22-.78q-24.21-.06-48.42,0a7.74,7.74,0,0,0-3.77.92c-7.75,4.58-15.41,9.33-23.16,13.92-2.67,1.58-2.79,2.94-.16,4.59,4.32,2.7,8.93,5.06,12.89,8.22,7.46,5.94,13.89,6,22.14.37C3599.55,86.44,3614.64,78.21,3630.16,68.87Zm126.31-4.93c.07-.39.13-.78.2-1.17a23.64,23.64,0,0,0-2.29-1.84c-16.64-10.11-33.28-20.23-50-30.21a4.8,4.8,0,0,0-4.12,0c-8.23,4.91-16.34,10-24.71,15.26a13.88,13.88,0,0,0,2.43,2.74c7.12,4.36,14.19,8.83,21.53,12.79a20.91,20.91,0,0,0,9.21,2.36c13.83.24,27.66.09,41.49.08Zm-3190.4,5a16.88,16.88,0,0,0-3.17-.81q-25-.06-49.93,0a6.65,6.65,0,0,0-3.26.94C502,73.62,494.3,78.35,486.55,83c-2.69,1.6-2.71,3-.08,4.59,4.34,2.68,8.95,5,12.9,8.22,7.47,6,13.9,6,22.12.34C535.59,86.44,550.65,78.21,566.07,68.92Zm45.49-23.13c.9,1.24,1.3,2.31,2.07,2.77,7.59,4.54,15.17,9.11,22.91,13.37a16.24,16.24,0,0,0,7.3,2c14.66.18,29.33.1,44,.08,1.58,0,3.15-.2,5.75-.37a34.93,34.93,0,0,0-2.93-2.39C673.88,51,657.13,40.73,640.27,30.66c-1-.6-3.15-.13-4.35.56C627.85,35.9,619.89,40.77,611.56,45.79ZM1458.38,64l.57-1.29c-.41-.24-.83-.47-1.24-.72-17.17-10.5-34.33-21-51.58-31.41-1-.57-3-.23-4,.41-8.15,4.81-16.18,9.81-24.92,15.16,2.26,1.69,4,3.16,5.95,4.43C1403.37,64,1403.38,64,1428,64h30.36Zm1532.93,0c-.85-1.26-1-1.62-1.21-1.77-17.31-10.6-34.62-21.22-52-31.71a4.35,4.35,0,0,0-3.74.11c-8.23,5-16.35,10.1-25.17,15.61,2.15,1.5,3.89,2.77,5.68,4C2935.64,64,2935.64,64,2960.57,64h30.74ZM1332.74,68.6c-3.25-.27-5-.52-6.7-.53-14.64,0-29.29-.16-43.93.07a19.57,19.57,0,0,0-8.81,2.38c-6.86,3.79-13.31,8.35-20.19,12.12-4.13,2.26-2.91,3.61.05,5.39,7.14,4.3,14.22,8.68,21.46,12.81a5,5,0,0,0,4.21-.09C1296.39,90.39,1313.85,79.9,1332.74,68.6Zm892.84-5a33.41,33.41,0,0,0-2.93-2.38c-16.76-10.23-33.53-20.47-50.36-30.58a4.33,4.33,0,0,0-3.73-.14c-8.34,5-16.57,10.24-24.9,15.44.8,1.1,1.2,2.17,2,2.63,7.59,4.54,15.16,9.11,22.91,13.37a16.2,16.2,0,0,0,7.3,2c14.66.18,29.33.1,44,.08C2221.41,64,2223,63.76,2225.58,63.59Zm-127.45,5.3a28.57,28.57,0,0,0-4.17-.8c-16.14,0-32.28-.07-48.42,0a8.54,8.54,0,0,0-4.16,1.21c-7.47,4.42-14.75,9.16-22.33,13.37-3.57,2-3.2,3.25-.23,5.09,4.34,2.68,9,5,12.94,8.15,7.38,5.94,13.67,5.64,21.67.19C2067.57,86.48,2082.64,78.22,2098.13,68.89Zm766.27,0a30.18,30.18,0,0,0-4.1-.77c-16.31,0-32.61-.07-48.92,0a8.73,8.73,0,0,0-4.12,1.31c-7.47,4.41-14.79,9.08-22.34,13.36-3.62,2-2.83,3.38,0,5.1,7.27,4.4,14.48,8.91,21.84,13.13,1,.58,3.07.24,4.2-.42C2828.43,90.32,2845.81,79.93,2864.4,68.86Zm-1022,.11a26,26,0,0,0-4.11-.88q-24-.07-47.95,0a7.84,7.84,0,0,0-3.77.88c-7.88,4.61-15.67,9.37-23.51,14-2.71,1.61-2.69,2.94.05,4.58,5.61,3.34,11.25,6.67,16.66,10.32,4.93,3.32,9.43,5.18,14.56.21,2-2,5-2.91,7.46-4.42C1815.1,85.64,1828.35,77.56,1842.44,69Zm-765.87-.06a29.6,29.6,0,0,0-4.34-.82q-24-.07-48,0a7.73,7.73,0,0,0-3.76.93c-7.72,4.56-15.33,9.3-23.06,13.85-2.8,1.64-3.44,2.85-.22,4.76,7.43,4.41,14.7,9.07,22.18,13.39,1,.6,3.09.25,4.26-.4,6.55-3.67,13-7.52,19.44-11.39C1054,82.69,1064.78,76.08,1076.57,68.91Zm2088.22-23c1.05,1.21,1.62,2.29,2.52,2.83,7.59,4.53,15.2,9.06,22.92,13.36a14,14,0,0,0,6.36,1.81c15.14.15,30.28.1,45.43.07,1.5,0,3-.24,5.85-.48-18.84-11.36-36.32-22-53.9-32.39a5.52,5.52,0,0,0-4.7.05C3181.19,35.8,3173.27,40.74,3164.79,45.89Zm-766,0c1,1.19,1.61,2.29,2.51,2.83,7.6,4.53,15.2,9.05,22.93,13.36a13.92,13.92,0,0,0,6.35,1.81c15.14.15,30.29.1,45.43.07,1.5,0,3-.24,5.87-.48-18.84-11.36-36.32-22-53.91-32.39a5.52,5.52,0,0,0-4.7.05C2415.2,35.8,2407.27,40.73,2398.79,45.89Zm-2088,22.94A29.26,29.26,0,0,0,307,68.1q-24.48-.06-48.95,0a7.75,7.75,0,0,0-3.7,1.08c-7.58,4.48-15,9.2-22.66,13.56-3.29,1.87-3.61,3-.18,5,7.31,4.29,14.47,8.84,21.79,13.11a4.6,4.6,0,0,0,3.9.26C274.67,90.7,292.1,80.13,310.79,68.83Zm3064,0a27.61,27.61,0,0,0-3.81-.74q-24.46-.06-48.94,0a7.85,7.85,0,0,0-3.71,1.07c-7.58,4.48-15,9.2-22.65,13.56-3.27,1.86-3.67,3-.21,5,7.43,4.39,14.7,9.07,22.13,13.46a4.17,4.17,0,0,0,3.57-.06C3338.66,90.7,3356.09,80.14,3374.78,68.84Zm-766,0a27.3,27.3,0,0,0-3.8-.74q-24.46-.06-48.94,0a7.74,7.74,0,0,0-3.71,1.07c-7.57,4.48-15,9.2-22.65,13.56-3.26,1.86-3.68,3-.22,5,7.44,4.39,14.71,9.07,22.14,13.46a4.17,4.17,0,0,0,3.57-.06C2572.66,90.7,2590.08,80.14,2608.77,68.84ZM948.24,64l.33-1.17C931,52.08,913.41,41.33,895.76,30.73a4.75,4.75,0,0,0-4.1,0c-8.26,4.91-16.39,10.05-24.77,15.24.87,1.07,1.4,2.2,2.29,2.74,7.13,4.36,14.22,8.81,21.56,12.77A21.46,21.46,0,0,0,900,63.86c10.65.29,21.31.11,32,.11Zm684.58-18.09c1,1.17,1.55,2.29,2.45,2.83,7.59,4.53,15.19,9.07,22.93,13.34a15,15,0,0,0,6.84,1.84c14.81.16,29.62.1,44.43.07,1.69,0,3.37-.22,6.28-.42-18.81-11.48-36.36-22.24-54-32.83-1.06-.63-3.25-.32-4.44.38C1649.23,35.79,1641.31,40.71,1632.82,45.88Zm-1532-.06c1,1.19,1.51,2.32,2.4,2.87,7.13,4.35,14.21,8.81,21.55,12.77a21,21,0,0,0,9.22,2.4c14.47.25,28.95.12,43.43.1,1.71,0,3.43-.22,5.14-.33-17-11.22-34.17-21.4-51.19-31.83-2.73-1.68-4.44-1.94-7.29-.06C116.69,36.61,109,40.94,100.8,45.82Zm1678.12,23a32.27,32.27,0,0,0-4.58-.76c-16,0-31.93-.07-47.89,0a9.68,9.68,0,0,0-4.6,1.42c-7.18,4.21-14.21,8.68-21.43,12.82-3.43,2-4.11,3.51-.37,5.77,7.25,4.38,14.41,8.9,21.7,13.18a4.15,4.15,0,0,0,3.57-.15C1742.94,90.62,1760.49,80,1778.92,68.83ZM1013,68.76a26.51,26.51,0,0,0-3.63-.68c-16.46,0-32.93-.06-49.39,0a8.68,8.68,0,0,0-4.11,1.38q-10.75,6.35-21.39,12.89c-3.9,2.39-4,3.62-.1,6,7,4.39,14.14,8.7,21.32,12.87a4.18,4.18,0,0,0,3.57-.09C976.91,90.64,994.47,80,1013,68.76ZM1587.3,69a24.34,24.34,0,0,0-4.1-.87q-24.24-.07-48.48,0a7.74,7.74,0,0,0-3.72,1c-7.74,4.56-15.39,9.29-23.14,13.84-2.78,1.62-2.81,2.91-.1,4.54,7.44,4.48,14.8,9.08,22.31,13.44a4.59,4.59,0,0,0,3.9,0C1551.52,90.52,1569,80,1587.3,69Zm957.41,0a20.54,20.54,0,0,0-3.83-.86c-16.3,0-32.6-.06-48.89,0a8.69,8.69,0,0,0-4.11,1.39q-10.76,6.34-21.39,12.89c-3.89,2.38-3.94,3.62-.09,6Q2477,95,2487.72,101.27a4.18,4.18,0,0,0,3.57-.09C2508.92,90.64,2526.48,80,2544.71,68.94ZM821.2,69.11a11.33,11.33,0,0,0-2.46-.93c-16.82-.06-33.65-.12-50.47-.09a6.63,6.63,0,0,0-3.23,1c-7.74,4.58-15.39,9.31-23.15,13.85-2.72,1.6-2.92,2.88-.16,4.54,7.43,4.48,14.79,9.09,22.32,13.41a5,5,0,0,0,4.22-.3C785.73,90.32,803.1,79.91,821.2,69.11Zm2489.89-.32a27.7,27.7,0,0,0-3.67-.7c-16.46,0-32.92-.07-49.39,0a8.76,8.76,0,0,0-4.11,1.36q-10.76,6.34-21.39,12.88c-3.92,2.4-4,3.63-.16,6,7.05,4.39,14.14,8.71,21.33,12.85a4.69,4.69,0,0,0,3.91-.37C3275.13,90.44,3292.59,79.92,3311.09,68.79Zm-957.35,0a43.42,43.42,0,0,0-4.81-.71c-16,0-32-.07-48,0a8.75,8.75,0,0,0-4.16,1.2c-7.61,4.48-15.11,9.14-22.71,13.62-2.89,1.7-3.28,2.92-.08,4.77,7.24,4.18,14.29,8.68,21.57,12.76a5.94,5.94,0,0,0,5,0C2317.88,90.25,2335.11,79.91,2353.74,68.8ZM247.32,68.73a51.71,51.71,0,0,0-5.24-.67c-15.8,0-31.6-.06-47.4,0a9.73,9.73,0,0,0-4.63,1.3c-7.19,4.19-14.3,8.52-21.41,12.86-4.15,2.53-4.2,3.84,0,6.36,6.71,4,13.47,8,20.34,11.74a5.85,5.85,0,0,0,4.85.19C211.27,90.32,228.61,79.91,247.32,68.73Zm2871,.89c-.06-.42-.11-.83-.16-1.25-1.75-.11-3.5-.3-5.25-.31-14.67,0-29.33-.13-44,.08a17.19,17.19,0,0,0-7.87,2.18c-7.12,4-14,8.44-21,12.58-2.88,1.69-3.34,2.9-.11,4.77,7.23,4.18,14.28,8.68,21.56,12.76a5.9,5.9,0,0,0,5,0C3083.86,90.26,3101.1,79.92,3118.36,69.62ZM1203.33,64c.09-.37.19-.74.28-1.12a26.31,26.31,0,0,0-2.32-1.77q-25.15-15.27-50.35-30.44a4.34,4.34,0,0,0-3.7-.18c-8.32,5-16.52,10.27-24.89,15.52.91,1.15,1.37,2.17,2.16,2.63,6.47,3.87,13.23,7.3,19.43,11.54a22.62,22.62,0,0,0,14.18,3.9c10.8-.27,21.61-.08,32.42-.08ZM437.4,63.68l.19-1c-17.56-10.72-35.1-21.48-52.72-32.1a4.27,4.27,0,0,0-3.71,0c-8.23,5-16.35,10.12-24.83,15.42.85,1,1.39,2.16,2.29,2.7,6.3,3.83,12.84,7.28,19,11.35a24.16,24.16,0,0,0,14.64,4.07c13.45-.3,26.93-.09,40.39-.11C434.22,64,435.81,63.78,437.4,63.68ZM2654.15,45.86c1.2,1.3,1.82,2.35,2.74,2.91,6.82,4.21,13.57,8.56,20.62,12.34a23,23,0,0,0,10,2.73c14.46.3,28.93.15,43.39.13,1.55,0,3.09-.23,5.52-.41-1.71-1.36-2.53-2.16-3.48-2.74-16.64-10.07-33.27-20.16-50-30.07-1-.6-3.11-.23-4.26.44C2670.63,35.86,2662.67,40.74,2654.15,45.86ZM1970.05,63.6a10.1,10.1,0,0,0-1.34-1.49c-17.28-10.58-34.55-21.18-51.91-31.64a4.32,4.32,0,0,0-3.71.15c-8.22,4.95-16.34,10.08-24.78,15.33.93,1.09,1.5,2.2,2.41,2.75,6.46,3.87,13.24,7.26,19.43,11.53,4.31,3,8.63,3.89,13.7,3.81,13.63-.21,27.26-.05,40.89-.08C1966.32,64,1967.89,63.75,1970.05,63.6ZM3501.36,64l.26-1.27C3484.06,52,3466.51,41.2,3448.88,30.6a4.75,4.75,0,0,0-4,.31c-8.15,4.81-16.19,9.81-24.59,15,.87,1.1,1.39,2.25,2.28,2.78,6.47,3.88,13.25,7.27,19.43,11.54,4.46,3.09,9,4,14.19,3.86,12.8-.23,25.6-.08,38.4-.09Zm-2298,5.46-.21-1c-1.56-.12-3.13-.33-4.69-.33-13.3,0-26.62.17-39.92-.14-5.67-.13-10.56.94-15.32,4.19-5.92,4-12.32,7.34-18.44,11.08-.93.57-1.45,1.82-2.37,3,8.56,5.1,16.5,9.93,24.56,14.54a4.9,4.9,0,0,0,4.12,0c9.23-5.26,18.38-10.67,27.48-16.14C1186.86,79.62,1195.08,74.48,1203.34,69.41Zm2298,0-.21-1c-1.56-.12-3.12-.33-4.68-.33-13.31,0-26.62.17-39.92-.14-5.67-.12-10.56.93-15.33,4.19-5.91,4-12.32,7.33-18.43,11.08-.94.57-1.46,1.82-2.38,3,8.55,5.1,16.49,9.93,24.56,14.54a4.92,4.92,0,0,0,4.11,0q13.84-7.91,27.49-16.15C3484.86,79.62,3493.08,74.48,3501.34,69.41ZM2654.31,86c8.75,5.38,16.87,10.47,25.14,15.33.84.5,2.72-.13,3.81-.77,11.65-6.83,23.25-13.77,34.84-20.7,5.78-3.45,11.52-7,18.37-11.11a30.49,30.49,0,0,0-3.8-.69c-16.14,0-32.27,0-48.41,0a8.66,8.66,0,0,0-4.09,1.26Q2668.5,76.13,2657,83.14C2656,83.73,2655.36,84.86,2654.31,86Zm-766.76-1.73c.44.72.89,1.44,1.34,2.16,8.07,4.9,16.1,9.88,24.27,14.6,1,.56,3,.14,4.15-.53,11.67-6.81,23.26-13.76,34.85-20.7,5.76-3.44,11.48-6.93,17.21-10.4a9.42,9.42,0,0,0-5.28-1.35c-14.31,0-28.62-.16-42.92.09a21.09,21.09,0,0,0-9.25,2.46c-7.17,3.89-14,8.32-21.07,12.48A19,19,0,0,1,1887.55,84.29ZM356.31,86c8.75,5.38,16.87,10.47,25.14,15.33.84.5,2.72-.13,3.81-.77,11.65-6.83,23.25-13.77,34.84-20.7,5.78-3.45,11.52-7,18.37-11.11a32.65,32.65,0,0,0-3.8-.69c-16.14,0-32.27,0-48.41,0a8.66,8.66,0,0,0-4.09,1.26Q370.5,76.13,359,83.14C358,83.73,357.36,84.86,356.31,86ZM1714,69.57l-.18-1.08a36.78,36.78,0,0,0-3.77-.4c-15.47,0-30.94-.08-46.42,0a11.8,11.8,0,0,0-5.5,1.64c-7.51,4.32-14.87,8.89-22.36,13.24-2.62,1.53-3,2.84-.28,4.54,7.49,4.6,14.94,9.27,22.51,13.74a4.2,4.2,0,0,0,3.55-.24C1679.09,90.62,1696.55,80.08,1714,69.57Zm-1531-.66a19.22,19.22,0,0,0-3.12-.81q-24.72,0-49.42,0a7.76,7.76,0,0,0-3.68,1.13c-7.75,4.56-15.43,9.24-23.17,13.83-2.66,1.57-2.8,2.91,0,4.56,4.36,2.63,9,5,12.87,8.19,7.53,6.24,14.06,5.59,22.1.2C152.67,86.56,167.55,78.26,183.05,68.91Zm765.94,0a25.8,25.8,0,0,0-4.14-.83c-16,0-31.94-.07-47.91,0a8.74,8.74,0,0,0-4.16,1.19c-7.77,4.54-15.46,9.2-23.18,13.81-2.67,1.59-2.67,3,.07,4.59,4.38,2.59,9,4.92,12.88,8.16,7.55,6.34,14.11,5.48,22.09.13C918.75,86.55,933.6,78.23,949,68.93Zm2298,0a27.32,27.32,0,0,0-4.2-.8q-24-.06-47.91,0a7.81,7.81,0,0,0-3.76.92c-7.9,4.64-15.73,9.4-23.58,14.11-2.71,1.62-2.56,3,.14,4.6,4.38,2.58,9,4.94,12.89,8.14,7.54,6.17,14.65,6.31,22,0a22.86,22.86,0,0,1,3.33-2Zm-766.93.58-.34-1.42H2475c-13.65,0-27.29.12-40.93-.09a21.82,21.82,0,0,0-13.47,3.77c-5.9,4.06-12.15,7.64-18.43,11.11-3.4,1.89-3.22,3.24-.15,5.08,7.26,4.36,14.46,8.82,21.77,13.09a4.21,4.21,0,0,0,3.53.28C2444.92,90.77,2462.49,80.11,2480.08,69.48Zm1276.33.14c-.09-.42-.17-.84-.25-1.26-1.59-.1-3.17-.29-4.76-.29-11.65,0-23.33.35-35-.16-8.74-.38-16.5,1-23.6,6.54-4.35,3.36-9.42,5.81-14.23,8.56-2.74,1.57-3.52,2.8-.21,4.72A188.43,188.43,0,0,1,3695,98c5.11,3.7,9.59,4.22,14.57,0,2.06-1.73,4.67-2.81,7-4.22Zm-3063.84,0-.33-1.18c-1.58-.11-3.15-.32-4.73-.33-14.32,0-28.65-.16-43,.09a21,21,0,0,0-9.28,2.44c-7.17,3.88-14,8.31-21,12.53-2.54,1.54-2.86,2.83.07,4.55,7.44,4.37,14.69,9.06,22.16,13.38,1,.58,3.08.17,4.23-.5,10.55-6.18,21-12.52,31.48-18.8Q682.36,75.66,692.57,69.58Zm1533-.61a21.18,21.18,0,0,0-3.49-.87q-24.48-.06-49,0a7.82,7.82,0,0,0-3.62,1.25c-7.76,4.54-15.47,9.16-23.19,13.75-2.52,1.5-3,2.79,0,4.53,7.56,4.5,14.95,9.27,22.54,13.7.87.51,2.77-.08,3.87-.72,10.53-6.2,21-12.53,31.47-18.81Zm-765.9-.06a35.17,35.17,0,0,0-4.54-.82c-15.83,0-31.65-.08-47.47,0a9.74,9.74,0,0,0-4.53,1.52c-7.48,4.37-14.81,9-22.35,13.26-3.26,1.86-3.43,3-.13,5,7.29,4.3,14.42,8.88,21.75,13.11a5.09,5.09,0,0,0,4.22-.33c10.55-6.17,21-12.5,31.49-18.79Zm1530.73.73c-.07-.42-.13-.85-.2-1.27-1.58-.1-3.17-.29-4.76-.3-11.32,0-22.67.37-34-.16-9.23-.43-17.54.83-25.07,6.7-4.22,3.28-9.12,5.68-13.76,8.4-2.57,1.5-3.76,2.71-.26,4.71C2918,91,2923.69,94.23,2929,98c5.07,3.63,9.57,4.35,14.57,0,2-1.75,4.66-2.81,7-4.22Z"/><path class="cls-1" d="M0,108c18-.1,36-.28,54-.3q67.47-.08,135,0,60.49,0,121,0,67.48,0,135-.14c31.32,0,62.65.12,94,.14q78.48.06,157,.07l255.93,0q63.24,0,126.47,0c44.32,0,88.64-.23,133-.24,43.82,0,87.64.18,131.46.18,41.16,0,82.32-.18,123.48-.18,40.32,0,80.64.16,121,.18q66.74,0,133.46-.07,60.49,0,121,0,67.74,0,135.46-.13c30.16,0,60.32.12,90.48.14q80.23.06,160.47.07,127.71,0,255.43,0H2738.8q127.22,0,254.43,0,128.47,0,256.93.06,63,0,126,0c44.33,0,88.65-.23,133-.24,43.48,0,87,.17,130.45.17,41.5,0,83-.18,124.48-.16,22,0,44,.29,66,.44v37c-8.46-.06-16.93-.29-25.38-.09-3.73.08-4.88-1.06-4.86-4.82.08-10.73-.08-10.73-10.8-10.11a11,11,0,0,0-1.75.56c0,3.33.31,7-.16,10.55-.18,1.36-2.09,3.53-3.27,3.57-8.47.31-17,.16-25.9.16-.27-5-.52-9.71-.78-14.58h-12.31v14.59h-23.45c-6.54,0-6.54,0-6.58-6.39-.05-8.38-.05-8.38-8.28-8.27-1.15,0-2.29.14-4.42.28,0,3.53.3,7-.15,10.38-.18,1.44-1.89,3.78-3,3.82-8.61.32-17.25.18-26.22.18-.2-1.88-.48-3.33-.51-4.78-.22-10.51,1.88-10.21-10.93-9.73-.28,0-.55.31-1.2.68-.2,4.34-.42,8.9-.63,13.47h-29.8c0-3-.09-5.65,0-8.29.18-4.32-1.42-6.32-6.11-6.1-6.58.32-6.59.07-6.61,6.48,0,1.67.33,3.45-.15,5-.41,1.26-1.76,3.12-2.74,3.15-8.76.24-17.54.14-27,.14,0-3.06,0-5.51,0-8-.05-6.72-.07-6.41-6.6-6.8-4.69-.28-6.37,1.35-5.86,5.87a21.38,21.38,0,0,1-.08,6c-.19,1-1.34,2.7-2.08,2.71-9.09.19-18.18.12-27.42.12-.22-4.63,1-9.67-1-12.24-1.85-2.4-7.1-2.18-11.9-3.37v15.42h-29.9c0-2.77-.21-5.39,0-8,.47-4.76-.88-7.45-6.25-6.43a6.7,6.7,0,0,1-2,0c-3.26-.43-4.53,1.06-4.42,4.25.13,3.4,0,6.8,0,10.43H3460c-.47-4.59.39-9.63-1.71-12.46-1.73-2.33-7-2-11.54-3.07v15.54c-8.54,0-16.5-.21-24.45.08-4.1.15-5.47-1-5.43-5.27.11-10.14,2-9.62-10.16-9.42a17.17,17.17,0,0,0-2.28.49,94.3,94.3,0,0,1-.12,10.21c-.15,1.37-1.63,3.67-2.56,3.7-8.93.28-17.86.17-26.59.17a10.52,10.52,0,0,1-.8-1.95,26.78,26.78,0,0,1-.19-3c-.23-11,2.22-10.12-11.24-9.76-.27,0-.52.36-1.16.84a86.39,86.39,0,0,1-.13,10.14c-.15,1.33-1.76,3.53-2.77,3.57-8.77.28-17.55.16-27,.16V130.22h-12.78v14.61c-9.16,0-17.47-.17-25.77.07-3.7.11-4.45-1.49-4.53-4.73-.24-10.68-.33-10.68-10.84-10.12-.29,0-.57.3-1.38.75,0,3.17.32,6.67-.15,10.06-.21,1.44-2.06,3.74-3.23,3.78-8.6.33-17.22.18-26.44.18V130.31h-12.9v14.51c-9.46,0-18.26.12-27.06-.16-1,0-2.56-2.23-2.7-3.55a101.84,101.84,0,0,1-.13-10.78h-12.45c0,3.89.21,7.4-.12,10.86-.12,1.26-1.51,3.41-2.37,3.43-8.93.25-17.86.16-27.38.16V130.37h-12.87v14.46h-19.55c-10.05,0-10.05,0-10.35-10.19,0-.67.22-1.53-.11-2-.78-1-1.75-2.5-2.78-2.62a89.12,89.12,0,0,0-9.77-.12c0,4.18-.05,7.66,0,11.13.06,2.73-1.08,3.85-3.89,3.8-7.16-.13-14.33-.2-21.49,0-3.41.12-4.4-1.25-4.26-4.36.16-3.41,0-6.82,0-10.35H3063.8v14.65h-19.64c-10.08,0-10.08,0-10.31-10.2,0-.66.23-1.53-.1-2-.77-1-1.74-2.5-2.76-2.62a89.26,89.26,0,0,0-9.78-.12c0,4.18-.05,7.65,0,11.12.06,2.73-1.09,3.85-3.89,3.81-8.32-.12-16.63,0-25.46,0-.26-5-.5-9.69-.76-14.6h-12.29v14.6c-8.7,0-16.83-.26-24.93.1-4.41.2-5.28-1.47-5.21-5.45.16-9.62,0-9.62-9.66-9.31-.65,0-1.3.16-3,.38a96.25,96.25,0,0,1-.14,10.74c-.15,1.27-1.87,3.35-2.92,3.38-8.63.28-17.26.16-26.25.16-.21-1.84-.5-3.29-.53-4.74-.21-10.58,1.85-10.23-10.88-9.78-.29,0-.57.29-1.23.66-.21,4.33-.43,8.89-.66,13.52h-29.79c0-3-.09-5.63,0-8.26.17-4.28-1.33-6.37-6.06-6.15-6.64.32-6.65.07-6.66,6.93,0,1.17-.11,2.35,0,3.5.3,3.24-1.09,4.45-4.34,4.38-7-.16-14-.22-21,0-3.46.12-5-1-4.62-4.49a29.19,29.19,0,0,0,0-3.5c-.05-6.77-.07-6.46-6.55-6.85-4.63-.27-6.41,1.27-5.91,5.82a18.65,18.65,0,0,1-.1,6c-.24,1.11-1.61,2.8-2.51,2.82-8.93.21-17.87.12-26.83.12-.37-4.77.67-9.92-1.42-12.66-1.75-2.29-7.18-1.77-11.77-2.64v15h-29.36c-.14-2.2-.37-4.3-.39-6.4-.07-8.19,0-8-8.18-8.06-3.72,0-4.6,1.58-4.47,4.78s0,6.5,0,9.74H2694c-.43-4.31.44-9.34-1.66-12.18-1.73-2.34-7-2.06-11.46-3.13,0,4.94-.15,8.25,0,11.55.18,3.06-1,4.12-4.05,4.06-7-.15-14-.32-21,0-4.26.23-4.94-1.59-4.94-5.24,0-10.21,1.93-9.65-10.15-9.46a17.92,17.92,0,0,0-2.34.48c0,3-.21,6.09.06,9.18.35,4-1.32,5.18-5.18,5-6.65-.27-13.34-.3-20,0-3.93.18-5.26-1-5.23-5,.09-11.4,1.72-9.93-10.62-9.9-.44,0-.87.34-1.69.69a91.56,91.56,0,0,1-.13,10.34c-.15,1.34-1.73,3.57-2.72,3.6-8.78.29-17.56.17-27,.17V130.34H2553v14.49c-9,0-17.32-.17-25.62.07-3.65.11-4.49-1.39-4.57-4.68-.26-10.68-.35-10.68-10.8-10.18-.29,0-.57.28-1.42.73,0,3.16.32,6.66-.15,10-.2,1.45-2,3.77-3.18,3.82-8.6.32-17.23.17-26.46.17V130.29h-12.9v14.53c-9.45,0-18.25.12-27-.16-1,0-2.61-2.2-2.75-3.51a102.93,102.93,0,0,1-.13-10.85h-12.45c0,3.88.21,7.38-.11,10.84-.12,1.27-1.49,3.45-2.34,3.47-8.93.26-17.86.16-27.38.16V130.35h-12.88v14.48h-18.54c-10.91,0-10.91,0-11.39-10.65,0-.5.16-1.16-.09-1.46-.83-1-1.74-2.54-2.75-2.66a89.93,89.93,0,0,0-9.82-.12c0,4.14-.05,7.61,0,11.08.06,2.69-1,3.9-3.84,3.85-7.33-.13-14.67-.15-22,0-2.89.06-3.85-1.1-3.78-3.81.1-3.58,0-7.17,0-10.91h-12.87v14.2a10.45,10.45,0,0,1-1.63.4q-8.49,0-17,.06c-11,0-11,0-11.37-10.64,0-.5.18-1.17-.07-1.47-.82-1-1.73-2.54-2.74-2.66a89.89,89.89,0,0,0-9.82-.12,102.18,102.18,0,0,1-.13,11.06c-.16,1.35-1.73,3.6-2.71,3.64-8.75.28-17.52.16-27,.16V130.21h-12.72v14.62c-8.77,0-16.77-.25-24.75.09-4.3.19-5.34-1.32-5.26-5.39.19-9.64,0-9.65-9.6-9.36-.66,0-1.31.15-3,.35a95.9,95.9,0,0,1-.14,10.72c-.14,1.29-1.84,3.39-2.88,3.43-8.63.28-17.27.16-26.28.16-.21-1.8-.51-3.24-.54-4.69-.2-10.69,1.78-10.26-10.84-9.83-.29,0-.57.27-1.27.62-.21,4.34-.43,8.9-.65,13.57h-29.8c0-3-.08-5.6,0-8.23.16-4.23-1.24-6.42-6-6.19-6.68.32-6.69.06-6.7,6.89,0,1.16-.1,2.34,0,3.5.29,3.18-1,4.49-4.29,4.42q-10.74-.25-21.5,0c-3,.07-4.37-.87-4.16-3.94.11-1.66-.15-3.35,0-5,.5-4.63-1.49-5.86-6-6-5-.12-7.13,1.24-6.46,6.35a15.22,15.22,0,0,1-.08,5.47c-.28,1.12-1.59,2.83-2.47,2.85-8.94.21-17.88.13-26.89.13-.35-4.74.7-9.87-1.39-12.63-1.74-2.3-7.16-1.81-11.38-2.64-.28,6-.49,10.5-.7,14.93h-29.48c0-2.36,0-4.32,0-6.28,0-8.22,0-8-8.12-8.1-3.67,0-4.65,1.48-4.51,4.74s0,6.51,0,10H1928c-.2-1.7-.44-3-.47-4.28-.27-11.09-.25-11.09-11.29-10.21-.28,0-.53.35-1.35.93,0,2.75-.17,5.89.05,9,.24,3.44-1,4.75-4.51,4.62-6.83-.23-13.68-.33-20.49,0-4.21.22-5-1.48-5-5.19,0-10.3,1.9-9.68-10.09-9.52a20.69,20.69,0,0,0-2.38.47c0,3.29-.11,6.73,0,10.16.14,3-1.1,4.1-4.11,4-7.16-.16-14.34-.27-21.49,0-3.95.17-4.76-1.48-4.75-5,0-11.52,1.62-9.94-10.6-9.95a6.57,6.57,0,0,0-1.74.67,93.63,93.63,0,0,1-.12,10.32c-.16,1.36-1.71,3.62-2.69,3.65-8.77.28-17.56.17-27,.17V130.32h-12.92v14.5c-8.83,0-17-.23-25.1.1-4.12.17-5.11-1.37-5.13-5.16-.07-10.84-.2-10.84-11.22-9.62-.14,0-.25.2-1,.83,0,2.92.32,6.42-.15,9.8-.2,1.47-2,3.82-3.13,3.86-8.61.33-17.24.18-26.48.18V130.27H1702v14.56c-9.44,0-18.24.11-27-.16-1,0-2.65-2.18-2.79-3.47a101.25,101.25,0,0,1-.14-10.91h-12.45c0,3.85.21,7.35-.11,10.81-.12,1.28-1.46,3.48-2.29,3.51-8.93.25-17.87.16-27.4.16V130.33H1616.9v14.5c-8.92,0-17.23-.17-25.53.07-3.65.11-4.48-1.35-4.51-4.67-.1-10.91-.2-10.91-11.19-10.14-.28,0-.54.31-1.4.83,0,3.12.21,6.61-.1,10.05-.12,1.31-1.38,3.6-2.18,3.62-8.92.26-17.86.17-27.46.17v-14.6h-12.67v14.67c-9,0-17.3-.17-25.6.07-3.65.1-4.47-1.31-4.48-4.67,0-10.9-.14-10.9-11.16-10.14-.28,0-.55.31-1.41.84a87,87,0,0,1-.13,10c-.15,1.36-1.7,3.64-2.67,3.67-8.75.29-17.52.17-27,.17V130.21h-12.72v14.62c-8.76,0-16.76-.23-24.73.09-4.24.17-5.4-1.21-5.31-5.35.19-9.66,0-9.67-9.55-9.4-.66,0-1.32.14-3.07.33,0,3.54.31,7.17-.16,10.69-.18,1.34-2.11,3.44-3.31,3.48-8.47.3-16.95.16-25.81.16-.22-1.76-.53-3.2-.56-4.64-.18-10.8,1.71-10.28-10.79-9.89-.3,0-.58.25-1.31.6-.21,4.33-.43,8.89-.65,13.62h-29.37c-.34-4.24.34-8.62-1.19-12-2.24-5-7.29-1.38-12-2.57,0,3.77-.18,6.88,0,10,.26,3.61-1,5.12-4.78,5-7-.25-14-.25-21,0-3.45.12-4.44-1.32-4.21-4.4.11-1.49-.13-3,0-4.5.49-4.57-1.34-6.2-6-5.92-6.38.37-6.39.08-6.45,6.71a26.16,26.16,0,0,1-.17,5.47c-.22,1-1.53,2.4-2.38,2.42-8.94.17-17.88.11-26.93.11-.35-4.71.72-9.83-1.36-12.59-1.74-2.31-7.15-1.86-11.41-2.73-.28,6-.49,10.52-.7,15h-29.48c0-2.34,0-4.29,0-6.25,0-8.26,0-8.07-8.07-8.14-3.61,0-4.7,1.4-4.56,4.68s0,6.53,0,9.87H1162c-.17-1.46-.43-2.74-.47-4-.27-11.08-.26-11.08-11.24-10.26-.28,0-.53.33-1.39.89,0,2.58-.2,5.56.05,8.51.33,3.82-.89,5.37-5,5.18a178.47,178.47,0,0,0-19.49,0c-4.55.28-5.66-1.38-5.55-5.66.23-9.45,0-9.46-9.54-9.08-.65,0-1.31.15-2.92.34,0,3.41-.11,6.84,0,10.26.13,3-1,4.15-4.07,4.09-7.16-.16-14.34-.27-21.49,0-3.89.16-4.81-1.38-4.8-4.91,0-11.61,1.6-10-10.54-10a7.12,7.12,0,0,0-1.79.64,93.6,93.6,0,0,1-.12,10.32c-.15,1.36-1.68,3.65-2.64,3.69-8.78.28-17.57.16-27,.16V130.3H1021.1v14.52c-8.82,0-17-.22-25.08.1-4.07.16-5.16-1.27-5.19-5.11-.07-10.8-.2-10.8-11.18-9.7-.13,0-.25.2-1,.86a68.71,68.71,0,0,1-.15,9.76c-.2,1.47-2,3.86-3.09,3.9-8.61.33-17.24.18-26.48.18V130.28H936v14.55c-9.44,0-18.23.11-27-.16-1,0-2.69-2.14-2.83-3.43a102.09,102.09,0,0,1-.13-11H893.34v14.21H863.8V130.31H850.93v14.52c-8.91,0-17.22-.17-25.51.07-3.6.1-4.53-1.25-4.56-4.62-.11-10.91-.22-10.92-11.15-10.2-.28,0-.55.29-1.43.8a89.21,89.21,0,0,1-.13,10c-.15,1.38-1.66,3.68-2.61,3.71-8.76.29-17.54.17-27,.17V130.32H765.73v14.51c-8.82,0-17.13-.16-25.43.07-3.59.1-4.51-1.21-4.52-4.62,0-10.9-.16-10.91-11.12-10.21-.29,0-.55.3-1.45.82a89,89,0,0,1-.12,10c-.16,1.37-1.67,3.68-2.63,3.71-8.76.29-17.54.17-27,.17V130.36h-12.9v14.47H661c-9.72,0-9.77,0-10.26-9.71-.16-3.39-1.35-5.31-5.1-5-2.25.19-4.53,0-7.61,0,0,4.1.32,7.6-.15,11-.19,1.36-2.09,3.48-3.27,3.53-8.48.3-17,.16-25.34.16a7.16,7.16,0,0,1-.8-1.63,22.46,22.46,0,0,1-.29-3c-.39-11-.39-11-11.23-9.86-.14,0-.25.2-.89.73-.18,4.09-.39,8.66-.61,13.43h-29.4c-.32-4.22.36-8.58-1.14-12-2.21-5-7.3-1.35-12-2.69a85.64,85.64,0,0,0,.06,9c.57,4.95-1.54,6.44-6.25,6-4.31-.36-8.66-.08-13-.08-10.11,0-10,0-10.86-10.29-.12-1.49-1.21-3.77-2.37-4.16-7-2.35-9.93,0-10,7.35a15.81,15.81,0,0,1-.15,4.47c-.3,1-1.51,2.44-2.34,2.46-8.94.18-17.89.11-27,.11-.33-4.66.75-9.78-1.32-12.55-1.74-2.32-7.15-1.9-11.44-2.8-.28,6-.49,10.52-.69,15.05h-29.2c-.11-2.3-.26-4.26-.28-6.22,0-8.29,0-8.11-8-8.18-3.56,0-4.76,1.29-4.61,4.64s0,6.53,0,9.92H396c-.18-1.43-.45-2.71-.49-4-.29-11.06-.28-11.07-11.19-10.32-.29,0-.55.31-1.44.86v6.5c0,7.14,0,7.15-7.37,7.15-5.67,0-11.35-.3-17,.09-4.49.31-5.69-1.25-5.61-5.6.18-10,1.34-9.18-9.48-9.12a22.27,22.27,0,0,0-3,.48c0,3.3-.17,6.45,0,9.57.23,3.41-1,4.76-4.53,4.64-6.83-.23-13.68-.31-20.49,0-4.23.21-5.44-1.26-5.37-5.37.21-11.56.84-9.36-10-9.58a13.19,13.19,0,0,0-2.33.44c0,3.59.21,7.07-.1,10.51-.11,1.32-1.34,3.64-2.12,3.66-9.07.26-18.16.16-27.85.16v-14.8H255.28c0,4-.14,7.31,0,10.6s-.9,4.52-4.27,4.35c-4.82-.24-9.66,0-14.49,0-11,0-11,0-11.73-11,0-.5.13-1.16-.12-1.47-.76-.89-1.62-2.25-2.54-2.33-3-.3-6.15-.11-9.54-.11,0,4.1.27,7.46-.12,10.74-.17,1.44-1.63,3.87-2.57,3.91-8.91.3-17.83.17-27.18.17V130.29H170v14.2H140V130.26H127.37v14.25H97.84V130.3H85v14.53c-8.9,0-17.21-.16-25.5.07-3.55.1-4.57-1.15-4.6-4.58-.12-10.91-.24-10.91-11.1-10.26-.29,0-.57.28-1.48.77a89.35,89.35,0,0,1-.13,10c-.15,1.38-1.63,3.72-2.57,3.75-8.76.29-17.54.17-27,.17V130H0Z"/><path class="cls-1" d="M3830,24q-120,0-240,.08H2182.22l-1866.76,0H5.5c-1.83,0-3.67,0-5.5-.07V0C2,.08,4,.23,6,.23H3824c2,0,4-.15,6-.23Z"/><path d="M3830,151l-536.43,0H7.5L0,151V130H12.6v14.79c9.44,0,18.22.12,27-.17.94,0,2.42-2.37,2.57-3.75a89.35,89.35,0,0,0,.13-10c.91-.49,1.19-.75,1.48-.77,10.86-.65,11-.65,11.1,10.26,0,3.43,1,4.68,4.6,4.58,8.29-.23,16.6-.07,25.5-.07V130.3H97.84v14.21h29.53V130.26H140v14.23h30v-14.2h12.72v14.48c9.35,0,18.27.13,27.18-.17.94,0,2.4-2.47,2.57-3.91.39-3.28.12-6.64.12-10.74,3.39,0,6.49-.19,9.54.11.92.08,1.78,1.44,2.54,2.33.25.31.09,1,.12,1.47.75,11,.75,11,11.73,11,4.83,0,9.67-.19,14.49,0,3.37.17,4.44-1.17,4.27-4.35s0-6.59,0-10.6h12.43v14.8c9.69,0,18.78.1,27.85-.16.78,0,2-2.34,2.12-3.66.31-3.44.1-6.92.1-10.51a13.19,13.19,0,0,1,2.33-.44c10.82.22,10.19-2,10,9.58-.07,4.11,1.14,5.58,5.37,5.37,6.81-.33,13.66-.25,20.49,0,3.57.12,4.76-1.23,4.53-4.64-.21-3.12,0-6.27,0-9.57a22.27,22.27,0,0,1,3-.48c10.82-.06,9.66-.93,9.48,9.12-.08,4.35,1.12,5.91,5.61,5.6,5.64-.39,11.32-.09,17-.09,7.36,0,7.36,0,7.37-7.15v-6.5c.89-.55,1.15-.84,1.44-.86,10.91-.75,10.9-.74,11.19,10.32,0,1.28.31,2.56.49,4h29.56c0-3.39.11-6.66,0-9.92s1.05-4.67,4.61-4.64c8,.07,8-.11,8,8.18,0,2,.17,3.92.28,6.22h29.2c.2-4.53.41-9.08.69-15.05,4.29.9,9.7.48,11.44,2.8,2.07,2.77,1,7.89,1.32,12.55,9.1,0,18.05.07,27-.11.83,0,2-1.46,2.34-2.46a15.81,15.81,0,0,0,.15-4.47c0-7.36,3-9.7,10-7.35,1.16.39,2.25,2.67,2.37,4.16.83,10.28.75,10.29,10.86,10.29,4.34,0,8.69-.28,13,.08,4.71.4,6.82-1.09,6.25-6a85.64,85.64,0,0,1-.06-9c4.69,1.34,9.78-2.34,12,2.69,1.5,3.4.82,7.76,1.14,12h29.4c.22-4.77.43-9.34.61-13.43.64-.53.75-.72.89-.73,10.84-1.16,10.84-1.16,11.23,9.86a22.46,22.46,0,0,0,.29,3,7.16,7.16,0,0,0,.8,1.63c8.37,0,16.86.14,25.34-.16,1.18,0,3.08-2.17,3.27-3.53.47-3.38.15-6.88.15-11,3.08,0,5.36.16,7.61,0,3.75-.32,4.94,1.6,5.1,5,.49,9.72.54,9.72,10.26,9.71h19.55V130.36h12.9v14.43c9.45,0,18.23.12,27-.17,1,0,2.47-2.34,2.63-3.71a89,89,0,0,0,.12-10c.9-.52,1.16-.8,1.45-.82,11-.7,11.08-.69,11.12,10.21,0,3.41.93,4.72,4.52,4.62,8.3-.23,16.61-.07,25.43-.07V130.32h12.84v14.47c9.43,0,18.21.12,27-.17,1,0,2.46-2.33,2.61-3.71a89.21,89.21,0,0,0,.13-10c.88-.51,1.15-.78,1.43-.8,10.93-.72,11-.71,11.15,10.2,0,3.37,1,4.72,4.56,4.62,8.29-.24,16.6-.07,25.51-.07V130.31H863.8v14.18h29.54V130.28H906a102.09,102.09,0,0,0,.13,11c.14,1.29,1.81,3.4,2.83,3.43,8.79.27,17.58.16,27,.16V130.28h12.9v14.53c9.24,0,17.87.15,26.48-.18,1.13,0,2.89-2.43,3.09-3.9a68.71,68.71,0,0,0,.15-9.76c.77-.66.89-.85,1-.86,11-1.1,11.11-1.1,11.18,9.7,0,3.84,1.12,5.27,5.19,5.11,8.12-.32,16.26-.1,25.08-.1V130.3H1034v14.5c9.42,0,18.21.12,27-.16,1,0,2.49-2.33,2.64-3.69a93.6,93.6,0,0,0,.12-10.32,7.12,7.12,0,0,1,1.79-.64c12.14,0,10.58-1.6,10.54,10,0,3.53.91,5.07,4.8,4.91,7.15-.3,14.33-.19,21.49,0,3.06.06,4.2-1.1,4.07-4.09-.14-3.42,0-6.85,0-10.26,1.61-.19,2.27-.32,2.92-.34,9.57-.38,9.77-.37,9.54,9.08-.11,4.28,1,5.94,5.55,5.66a178.47,178.47,0,0,1,19.49,0c4.08.19,5.3-1.36,5-5.18-.25-2.95-.05-5.93-.05-8.51.86-.56,1.11-.87,1.39-.89,11-.82,11-.82,11.24,10.26,0,1.29.3,2.57.47,4h29.58c0-3.34.1-6.61,0-9.87s1-4.72,4.56-4.68c8,.07,8-.12,8.07,8.14,0,2,0,3.91,0,6.25h29.48c.21-4.48.42-9,.7-15,4.26.87,9.67.42,11.41,2.73,2.08,2.76,1,7.88,1.36,12.59,9.05,0,18,.06,26.93-.11.85,0,2.16-1.45,2.38-2.42a26.16,26.16,0,0,0,.17-5.47c.06-6.63.07-6.34,6.45-6.71,4.67-.28,6.5,1.35,6,5.92-.16,1.49.08,3,0,4.5-.23,3.08.76,4.52,4.21,4.4,7-.23,14-.23,21,0,3.83.13,5-1.38,4.78-5-.22-3.09,0-6.2,0-10,4.67,1.19,9.72-2.4,12,2.57,1.53,3.38.85,7.76,1.19,12h29.37c.22-4.73.44-9.29.65-13.62.73-.35,1-.59,1.31-.6,12.5-.39,10.61-.91,10.79,9.89,0,1.44.34,2.88.56,4.64,8.86,0,17.34.14,25.81-.16,1.2,0,3.13-2.14,3.31-3.48.47-3.52.16-7.15.16-10.69,1.75-.19,2.41-.31,3.07-.33,9.54-.27,9.74-.26,9.55,9.4-.09,4.14,1.07,5.52,5.31,5.35,8-.32,16-.09,24.73-.09V130.21h12.72V144.8c9.46,0,18.23.12,27-.17,1,0,2.52-2.31,2.67-3.67a87,87,0,0,0,.13-10c.86-.53,1.13-.82,1.41-.84,11-.76,11.13-.76,11.16,10.14,0,3.36.83,4.77,4.48,4.67,8.3-.24,16.62-.07,25.6-.07V130.16h12.67v14.6c9.6,0,18.54.09,27.46-.17.8,0,2.06-2.31,2.18-3.62.31-3.44.1-6.93.1-10.05.86-.52,1.12-.81,1.4-.83,11-.77,11.09-.77,11.19,10.14,0,3.32.86,4.78,4.51,4.67,8.3-.24,16.61-.07,25.53-.07v-14.5h12.87v14.44c9.53,0,18.47.09,27.4-.16.83,0,2.17-2.23,2.29-3.51.32-3.46.11-7,.11-10.81H1672a101.25,101.25,0,0,0,.14,10.91c.14,1.29,1.78,3.43,2.79,3.47,8.78.27,17.58.16,27,.16V130.27h12.9v14.54c9.24,0,17.87.15,26.48-.18,1.14,0,2.93-2.39,3.13-3.86.47-3.38.15-6.88.15-9.8.74-.63.85-.82,1-.83,11-1.22,11.15-1.22,11.22,9.62,0,3.79,1,5.33,5.13,5.16,8.12-.33,16.27-.1,25.1-.1v-14.5H1800v14.49c9.42,0,18.21.11,27-.17,1,0,2.53-2.29,2.69-3.65a93.63,93.63,0,0,0,.12-10.32,6.57,6.57,0,0,1,1.74-.67c12.22,0,10.63-1.57,10.6,9.95,0,3.48.8,5.13,4.75,5,7.15-.3,14.33-.19,21.49,0,3,.06,4.25-1,4.11-4-.14-3.43,0-6.87,0-10.16a20.69,20.69,0,0,1,2.38-.47c12-.16,10.11-.78,10.09,9.52,0,3.71.79,5.41,5,5.19,6.81-.36,13.66-.26,20.49,0,3.56.13,4.75-1.18,4.51-4.62-.22-3.12-.05-6.26-.05-9,.82-.58,1.07-.9,1.35-.93,11-.88,11-.88,11.29,10.21,0,1.29.27,2.58.47,4.28h29.57c0-3.51.1-6.77,0-10s.84-4.77,4.51-4.74c8.1.07,8.1-.12,8.12,8.1,0,2,0,3.92,0,6.28h29.48c.21-4.43.42-9,.7-14.93,4.22.83,9.64.34,11.38,2.64,2.09,2.76,1,7.89,1.39,12.63,9,0,18,.08,26.89-.13.88,0,2.19-1.73,2.47-2.85a15.22,15.22,0,0,0,.08-5.47c-.67-5.11,1.45-6.47,6.46-6.35,4.55.11,6.54,1.34,6,6-.18,1.64.08,3.33,0,5-.21,3.07,1.17,4,4.16,3.94q10.76-.25,21.5,0c3.29.07,4.58-1.24,4.29-4.42-.1-1.16,0-2.34,0-3.5,0-6.83,0-6.57,6.7-6.89,4.78-.23,6.18,2,6,6.19-.1,2.63,0,5.27,0,8.23h29.8c.22-4.67.44-9.23.65-13.57.7-.35,1-.62,1.27-.62,12.62-.43,10.64-.86,10.84,9.83,0,1.45.33,2.89.54,4.69,9,0,17.65.12,26.28-.16,1,0,2.74-2.14,2.88-3.43a95.9,95.9,0,0,0,.14-10.72c1.71-.2,2.36-.33,3-.35,9.59-.29,9.79-.28,9.6,9.36-.08,4.07,1,5.58,5.26,5.39,8-.34,16-.09,24.75-.09V130.21h12.72V144.8c9.45,0,18.22.12,27-.16,1,0,2.55-2.29,2.71-3.64a102.18,102.18,0,0,0,.13-11.06,89.89,89.89,0,0,1,9.82.12c1,.12,1.92,1.66,2.74,2.66.25.3.05,1,.07,1.47.41,10.65.41,10.66,11.37,10.64q8.49,0,17-.06a10.45,10.45,0,0,0,1.63-.4v-14.2h12.87c0,3.74.07,7.33,0,10.91-.07,2.71.89,3.87,3.78,3.81,7.33-.17,14.67-.15,22,0,2.85,0,3.9-1.16,3.84-3.85-.07-3.47,0-6.94,0-11.08a89.93,89.93,0,0,1,9.82.12c1,.12,1.92,1.66,2.75,2.66.25.3.07,1,.09,1.46.48,10.64.48,10.65,11.39,10.65h18.54V130.35h12.88v14.42c9.52,0,18.45.1,27.38-.16.85,0,2.22-2.2,2.34-3.47.32-3.46.11-7,.11-10.84H2438a102.93,102.93,0,0,0,.13,10.85c.14,1.31,1.75,3.48,2.75,3.51,8.79.28,17.59.16,27,.16V130.29h12.9v14.52c9.23,0,17.86.15,26.46-.17,1.16,0,3-2.37,3.18-3.82.47-3.39.15-6.89.15-10,.85-.45,1.13-.72,1.42-.73,10.45-.5,10.54-.5,10.8,10.18.08,3.29.92,4.79,4.57,4.68,8.3-.24,16.61-.07,25.62-.07V130.34H2566v14.47c9.41,0,18.19.12,27-.17,1,0,2.57-2.26,2.72-3.6a91.56,91.56,0,0,0,.13-10.34c.82-.35,1.25-.69,1.69-.69,12.34,0,10.71-1.5,10.62,9.9,0,4,1.3,5.18,5.23,5,6.65-.31,13.34-.28,20,0,3.86.16,5.53-1,5.18-5-.27-3.09-.06-6.22-.06-9.18a17.92,17.92,0,0,1,2.34-.48c12.08-.19,10.14-.75,10.15,9.46,0,3.65.68,5.47,4.94,5.24,7-.36,14-.19,21,0,3,.06,4.23-1,4.05-4.06-.19-3.3,0-6.61,0-11.55,4.48,1.07,9.73.79,11.46,3.13,2.1,2.84,1.23,7.87,1.66,12.18h29.55c0-3.24.1-6.49,0-9.74s.75-4.81,4.47-4.78c8.14.06,8.11-.13,8.18,8.06,0,2.1.25,4.2.39,6.4h29.36v-15c4.59.87,10,.35,11.77,2.64,2.09,2.74,1.05,7.89,1.42,12.66,9,0,17.9.09,26.83-.12.9,0,2.27-1.71,2.51-2.82a18.65,18.65,0,0,0,.1-6c-.5-4.55,1.28-6.09,5.91-5.82,6.48.39,6.5.08,6.55,6.85a29.19,29.19,0,0,1,0,3.5c-.38,3.52,1.16,4.61,4.62,4.49,7-.22,14-.16,21,0,3.25.07,4.64-1.14,4.34-4.38-.11-1.15,0-2.33,0-3.5,0-6.86,0-6.61,6.66-6.93,4.73-.22,6.23,1.87,6.06,6.15-.11,2.63,0,5.28,0,8.26h29.79c.23-4.63.45-9.19.66-13.52.66-.37.94-.65,1.23-.66,12.73-.45,10.67-.8,10.88,9.78,0,1.45.32,2.9.53,4.74,9,0,17.62.12,26.25-.16,1.05,0,2.77-2.11,2.92-3.38a96.25,96.25,0,0,0,.14-10.74c1.67-.22,2.32-.35,3-.38,9.65-.31,9.82-.31,9.66,9.31-.07,4,.8,5.65,5.21,5.45,8.1-.36,16.23-.1,24.93-.1v-14.6h12.29c.26,4.91.5,9.62.76,14.6,8.83,0,17.14-.08,25.46,0,2.8,0,4-1.08,3.89-3.81-.06-3.47,0-6.94,0-11.12a89.26,89.26,0,0,1,9.78.12c1,.12,2,1.6,2.76,2.62.33.43.08,1.3.1,2,.23,10.19.23,10.19,10.31,10.2h19.64V130.19h12.89c0,3.53.12,6.94,0,10.35-.14,3.11.85,4.48,4.26,4.36,7.16-.23,14.33-.16,21.49,0,2.81,0,3.95-1.07,3.89-3.8-.07-3.47,0-6.95,0-11.13a89.12,89.12,0,0,1,9.77.12c1,.12,2,1.6,2.78,2.62.33.43.09,1.29.11,2,.3,10.17.3,10.18,10.35,10.19h19.55V130.37h12.87v14.41c9.52,0,18.45.09,27.38-.16.86,0,2.25-2.17,2.37-3.43.33-3.46.12-7,.12-10.86H3204a101.84,101.84,0,0,0,.13,10.78c.14,1.32,1.72,3.52,2.7,3.55,8.8.28,17.6.16,27.06.16V130.31h12.9v14.51c9.22,0,17.84.15,26.44-.18,1.17,0,3-2.34,3.23-3.78.47-3.39.15-6.89.15-10.06.81-.45,1.09-.74,1.38-.75,10.51-.56,10.6-.56,10.84,10.12.08,3.24.83,4.84,4.53,4.73,8.3-.24,16.61-.07,25.77-.07V130.22h12.78v14.59c9.4,0,18.18.12,27-.16,1,0,2.62-2.24,2.77-3.57a86.39,86.39,0,0,0,.13-10.14c.64-.48.89-.83,1.16-.84,13.46-.36,11-1.21,11.24,9.76a26.78,26.78,0,0,0,.19,3,10.52,10.52,0,0,0,.8,1.95c8.73,0,17.66.11,26.59-.17.93,0,2.41-2.33,2.56-3.7a94.3,94.3,0,0,0,.12-10.21,17.17,17.17,0,0,1,2.28-.49c12.17-.2,10.27-.72,10.16,9.42,0,4.23,1.33,5.42,5.43,5.27,8-.29,15.91-.08,24.45-.08V129.29c4.54,1.05,9.81.74,11.54,3.07,2.1,2.83,1.24,7.87,1.71,12.46h29.53c0-3.63.1-7,0-10.43-.11-3.19,1.16-4.68,4.42-4.25a6.7,6.7,0,0,0,2,0c5.37-1,6.72,1.67,6.25,6.43-.25,2.58,0,5.2,0,8H3532V129.12c4.8,1.19,10.05,1,11.9,3.37,2,2.57.8,7.61,1,12.24,9.24,0,18.33.07,27.42-.12.74,0,1.89-1.68,2.08-2.71a21.38,21.38,0,0,0,.08-6c-.51-4.52,1.17-6.15,5.86-5.87,6.53.39,6.55.08,6.6,6.8,0,2.45,0,4.9,0,8,9.51,0,18.29.1,27-.14,1,0,2.33-1.89,2.74-3.15.48-1.51.14-3.29.15-5,0-6.41,0-6.16,6.61-6.48,4.69-.22,6.29,1.78,6.11,6.1-.11,2.64,0,5.29,0,8.29h29.8c.21-4.57.43-9.13.63-13.47.65-.37.92-.67,1.2-.68,12.81-.48,10.71-.78,10.93,9.73,0,1.45.31,2.9.51,4.78,9,0,17.61.14,26.22-.18,1.08,0,2.79-2.38,3-3.82.45-3.38.15-6.85.15-10.38,2.13-.14,3.27-.27,4.42-.28,8.23-.11,8.23-.11,8.28,8.27,0,6.38,0,6.38,6.58,6.39h23.45V130.24h12.31c.26,4.87.51,9.58.78,14.58,8.95,0,17.43.15,25.9-.16,1.18,0,3.09-2.21,3.27-3.57.47-3.56.16-7.22.16-10.55A11,11,0,0,1,3789,130c10.72-.62,10.88-.62,10.8,10.11,0,3.76,1.13,4.9,4.86,4.82,8.45-.2,16.92,0,25.38.09Z"/><path class="cls-1" d="M0,30Q17,40,34,50.09c7,4.15,13.84,8.39,20.76,12.59L54.49,64H0Z"/><path class="cls-1" d="M0,68H54.09l.43,1.52L0,102Z"/><path class="cls-1" d="M118.53,64h-9.79c-12,0-24-.16-36,.08-5.27.1-9.82-.75-14.32-3.9-6-4.21-12.68-7.52-19-11.3-.88-.53-1.44-1.59-2.37-2.66C45.74,40.77,54,35.57,62.35,30.51a3.88,3.88,0,0,1,3.32-.17Q92.35,46.41,118.9,62.66Z"/><path class="cls-1" d="M119.54,69C101.18,80,83.6,90.64,66,101.15a4.11,4.11,0,0,1-3.51,0C54.84,96.72,47.38,92,39.8,87.47c-2.64-1.57-2.88-2.84-.13-4.48,7.88-4.71,15.7-9.49,23.61-14.16a6.88,6.88,0,0,1,3.31-.75q24.45-.06,48.9,0A24.47,24.47,0,0,1,119.54,69Z"/></g></g></svg>